<svg width="32" height="32" fill="none" xmlns="http://www.w3.org/2000/svg"><g clip-path="url(#clip0_219_1147)"><path d="M27 4H5a1 1 0 00-1 1v22a1 1 0 001 1h22a1 1 0 001-1V5a1 1 0 00-1-1zM15 14v8m-4-8v8" stroke="#fff" stroke-width="1.5" stroke-linecap="round" stroke-linejoin="round"/><path d="M15 17.5a3.5 3.5 0 117 0V22" stroke="#fff" stroke-width="1.5" stroke-linecap="round" stroke-linejoin="round"/><path d="M11 11.75a1.25 1.25 0 100-2.5 1.25 1.25 0 000 2.5z" fill="#fff"/></g><defs><clipPath id="clip0_219_1147"><path fill="#fff" d="M0 0h32v32H0z"/></clipPath></defs></svg>