<svg width="32" height="32" fill="none" xmlns="http://www.w3.org/2000/svg"><g clip-path="url(#clip0_219_1143)" stroke="#fff" stroke-width="1.5" stroke-linecap="round" stroke-linejoin="round"><path d="M20 16l-6-4v8l6-4z"/><path d="M3 16c0 3.739.384 5.931.676 7.059a2 2 0 001.199 1.368C9.065 26.044 16 26 16 26s6.935.044 11.125-1.573a2 2 0 001.204-1.368c.292-1.125.676-3.32.676-7.059 0-3.739-.384-5.931-.676-7.059a2 2 0 00-1.204-1.375C22.935 5.956 16 6 16 6S9.065 5.956 4.875 7.572a2 2 0 00-1.204 1.375C3.384 10.067 3 12.261 3 16z"/></g><defs><clipPath id="clip0_219_1143"><path fill="#fff" d="M0 0h32v32H0z"/></clipPath></defs></svg>