<svg width="60" height="60" viewBox="0 0 60 60" fill="none" xmlns="http://www.w3.org/2000/svg">
<path fill-rule="evenodd" clip-rule="evenodd" d="M20.3322 9.85547C21.4806 9.84375 21.9493 9.90234 22.8517 10.1367C23.4611 10.3008 24.4454 10.6641 25.0197 10.9453C25.5939 11.2266 26.4845 11.7773 26.9884 12.1758C27.4806 12.5742 28.1954 13.2773 28.5587 13.7461C28.9337 14.2031 29.3907 14.8945 29.59 15.2695C29.7892 15.6328 29.965 15.9375 30.0001 15.9375C30.0353 15.9375 30.2228 15.6328 30.4103 15.2695C30.5978 14.8945 31.0665 14.2031 31.4298 13.7461C31.8048 13.2773 32.5197 12.5625 33.0118 12.1641C33.5157 11.7773 34.4064 11.2148 34.9806 10.9453C35.5548 10.6641 36.5392 10.3008 37.1486 10.1367C38.0275 9.90234 38.5431 9.84375 39.6095 9.84375C40.6759 9.84375 41.1915 9.90234 42.0704 10.1367C42.6798 10.3008 43.6642 10.6641 44.2384 10.9453C44.8126 11.2266 45.7032 11.7773 46.2071 12.1758C46.6993 12.5742 47.4259 13.3008 47.8243 13.8047C48.2228 14.2969 48.7736 15.1875 49.0548 15.7617C49.3361 16.3359 49.6876 17.2383 49.8165 17.7539C49.9454 18.2695 50.0861 19.2422 50.1212 19.9219C50.1564 20.6016 50.1212 21.8438 50.0509 22.6758C49.9689 23.5195 49.7814 24.832 49.629 25.6055C49.4767 26.3789 49.1368 27.668 48.8673 28.4766C48.6095 29.2852 48.1993 30.4219 47.9532 30.9961C47.6017 31.8164 47.4376 32.0742 47.1915 32.168C46.9454 32.2617 46.84 32.2383 46.6407 32.0508C46.5118 31.9219 46.3946 31.7227 46.4064 31.6172C46.4064 31.5 46.6407 30.8438 46.922 30.1523C47.2032 29.4492 47.6017 28.3594 47.8009 27.7148C48.0001 27.0703 48.2579 26.0156 48.3868 25.3711C48.5157 24.7266 48.6798 23.6484 48.7618 22.9688C48.8322 22.2773 48.8673 21.0469 48.8322 20.1563C48.797 18.9727 48.715 18.3633 48.5157 17.7539C48.3751 17.3086 48.047 16.5352 47.8009 16.0547C47.5548 15.5742 47.0978 14.8828 46.7931 14.5195C46.4767 14.168 45.9142 13.5937 45.5275 13.2656C45.1407 12.9258 44.4259 12.4453 43.9454 12.1992C43.465 11.9414 42.6681 11.6133 42.1876 11.4609C41.4376 11.2383 41.0626 11.1914 39.6681 11.1914C38.4611 11.1914 37.8282 11.25 37.2657 11.4023C36.8439 11.5195 36.1056 11.7891 35.6251 12.0234C35.1447 12.2461 34.3595 12.7383 33.879 13.1016C33.3986 13.4648 32.7189 14.1445 32.3673 14.5898C32.0157 15.0469 31.5587 15.75 31.3478 16.1719C31.1368 16.5938 30.8673 17.25 30.7501 17.625C30.5978 18.082 30.4454 18.3633 30.2579 18.4453C30.0704 18.5391 29.9298 18.5391 29.7306 18.4453C29.5548 18.3633 29.4025 18.082 29.2501 17.625C29.1329 17.25 28.8634 16.5938 28.6525 16.1719C28.4415 15.75 27.9845 15.0469 27.6329 14.5898C27.2814 14.1445 26.6017 13.4648 26.1212 13.1016C25.6407 12.7383 24.8556 12.2461 24.3751 12.0234C23.8947 11.7891 23.1564 11.5195 22.7345 11.4023C22.172 11.25 21.5392 11.1914 20.3322 11.1914C18.9376 11.1914 18.5626 11.2383 17.8126 11.4609C17.3322 11.6133 16.5353 11.9414 16.0548 12.1992C15.5743 12.4453 14.8595 12.9258 14.4728 13.2656C14.0861 13.5937 13.5236 14.168 13.2072 14.5195C12.9025 14.8828 12.4454 15.5742 12.1993 16.0547C11.9532 16.5352 11.6251 17.3086 11.4845 17.7539C11.297 18.3516 11.2032 18.9844 11.1681 20.0977C11.1329 20.9414 11.1681 22.2305 11.2384 22.9688C11.3204 23.707 11.5079 24.8906 11.6603 25.6055C11.8009 26.3203 12.129 27.5039 12.3634 28.2422C12.6095 28.9805 12.9845 30 13.1954 30.5039C13.4181 30.9961 13.5939 31.5 13.5939 31.6172C13.6056 31.7227 13.5118 31.9102 13.3947 32.0273C13.2423 32.1797 13.09 32.2266 12.8556 32.1797C12.5978 32.1211 12.4689 31.957 12.1759 31.3242C11.9767 30.8789 11.5548 29.7656 11.2501 28.8281C10.9337 27.8906 10.547 26.4727 10.3829 25.6641C10.2189 24.8555 10.0314 23.543 9.94934 22.7344C9.87903 21.9258 9.84387 20.6602 9.87903 19.9219C9.9259 18.9609 10.0314 18.2695 10.254 17.5195C10.4298 16.9453 10.7814 16.043 11.0509 15.5273C11.3204 15.0117 11.8478 14.2031 12.2111 13.7461C12.5861 13.2773 13.3009 12.5742 13.7931 12.1758C14.297 11.7773 15.1876 11.2266 15.7618 10.9453C16.3361 10.6641 17.297 10.3008 17.8712 10.1484C18.6915 9.92578 19.2306 9.85547 20.3322 9.85547ZM33.2228 30.0586L33.8322 30.3867C34.172 30.5625 34.6407 30.8906 34.8634 31.1133C35.0861 31.3359 35.4142 31.8047 35.9181 32.7539V41.0977L35.59 41.5195C35.4025 41.7773 35.0743 42.0234 34.7697 42.1406C34.4767 42.2578 34.1251 42.3047 33.5157 42.1875V45.8555C33.5157 48.5508 33.4689 49.5938 33.3634 49.8047C33.2814 49.9688 33.0939 50.1094 32.9298 50.1328C32.7657 50.1562 32.5431 50.0977 32.4259 49.9922C32.2384 49.8164 32.2267 49.3008 32.2267 35.0391L32.4845 34.8633C32.6368 34.7695 32.8595 34.7227 32.9884 34.7461C33.1173 34.7813 33.2931 34.9336 33.3634 35.0977C33.4689 35.3086 33.5157 36.1641 33.5157 38.0859C33.5157 40.6641 33.5275 40.7813 33.7501 40.8984C33.879 40.9688 34.0548 41.0156 34.1486 41.0156C34.2423 41.0156 34.4064 40.9336 34.5001 40.8398C34.6642 40.6875 34.6876 40.1719 34.6876 36.9141C34.6876 33.457 34.6759 33.1289 34.465 32.7188C34.3361 32.4844 34.09 32.1445 33.9025 31.9688C33.7267 31.793 33.3751 31.5703 33.129 31.4766C32.7775 31.3242 32.1681 31.2891 30.0001 31.2891C27.8322 31.2891 27.2228 31.3242 26.8595 31.4766C26.6251 31.5703 26.2736 31.793 26.0978 31.9688C25.9103 32.1445 25.6642 32.4844 25.5353 32.7305C25.3243 33.1289 25.3126 33.457 25.3126 40.7813L25.6056 40.9219C25.84 41.0391 25.9572 41.0391 26.4845 40.7813V38.0859C26.4845 36.1641 26.5314 35.3086 26.6251 35.0977C26.7072 34.9336 26.8829 34.7813 27.0118 34.7461C27.1407 34.7227 27.3634 34.7695 27.7736 35.0391V42.4219C27.7736 49.3008 27.7618 49.8164 27.5626 49.9922C27.4572 50.0977 27.2345 50.1562 27.0704 50.1328C26.9064 50.1094 26.7189 49.9688 26.6368 49.8047C26.5314 49.5938 26.4845 48.5508 26.4845 42.1875L26.0978 42.2578C25.8751 42.3047 25.5236 42.2578 25.2189 42.1406C24.9259 42.0234 24.5978 41.7773 24.0822 41.0977V32.7539L24.3751 32.1797C24.5392 31.8633 24.8673 31.3945 25.1017 31.1484C25.3478 30.9023 25.7697 30.5859 26.0392 30.4453C26.3204 30.3047 26.6954 30.1523 26.8947 30.1055C27.0822 30.0586 28.5939 30.0234 33.2228 30.0586ZM30.0236 40.1953C30.1407 40.1953 30.3165 40.2773 30.4103 40.3711C30.5626 40.5234 30.5861 41.2266 30.5861 49.9219L30.2931 50.0742C30.0587 50.1914 29.9415 50.1914 29.4142 49.9219L29.3907 45.1758C29.379 40.6172 29.379 40.4414 29.6017 40.3242C29.7189 40.2539 29.9181 40.1953 30.0236 40.1953ZM20.6837 15.4805C20.8126 15.4688 21.2228 15.5508 21.5861 15.6445C21.9611 15.7383 22.465 15.9492 22.6993 16.0898C22.9454 16.2422 23.3204 16.5703 23.5431 16.8281C23.7657 17.0742 24.0587 17.5195 24.1876 17.8125C24.3517 18.1992 24.422 18.5977 24.422 19.2773C24.4337 19.9805 24.3751 20.3438 24.1876 20.7422C24.0587 21.0352 23.7189 21.5273 23.4259 21.832C23.1447 22.1484 22.6173 22.5469 22.2657 22.7109C21.7267 22.9688 21.4689 23.0273 20.6837 23.0273C19.8868 23.0156 19.6407 22.9688 19.0548 22.6758C18.6798 22.4766 18.1759 22.1133 17.9532 21.8555C17.7189 21.5977 17.4025 21.0938 17.2384 20.7422C17.0157 20.25 16.9572 19.8984 16.9572 19.2773C16.9572 18.6563 17.0275 18.293 17.2501 17.8125C17.4025 17.4609 17.6954 16.9805 17.8947 16.7578C18.0939 16.5352 18.504 16.207 18.8204 16.0313C19.1368 15.8555 19.629 15.6563 19.922 15.5977C20.215 15.5391 20.5548 15.4922 20.6837 15.4805ZM19.2189 17.2734C18.9962 17.4375 18.6798 17.7891 18.5157 18.0703C18.2931 18.457 18.2228 18.7383 18.2345 19.2773C18.2345 19.7695 18.3165 20.1328 18.4923 20.4844C18.6329 20.7539 18.9259 21.1055 19.1251 21.2578C19.3361 21.4102 19.6993 21.5859 19.922 21.668C20.1447 21.7383 20.5431 21.7969 20.8009 21.7969C21.0587 21.7969 21.4806 21.6914 21.7384 21.5742C21.9962 21.457 22.3712 21.1875 22.5704 20.9648C22.7579 20.7422 22.9923 20.3555 23.0743 20.0977C23.1681 19.8398 23.215 19.3594 23.1915 19.0312C23.1564 18.5977 23.0392 18.2812 22.7931 17.918C22.5587 17.5742 22.2267 17.293 21.797 17.0742C21.422 16.8867 20.9767 16.7578 20.7423 16.7695C20.5197 16.7695 20.1798 16.8281 19.9806 16.8867C19.7814 16.9453 19.4415 17.1211 19.2189 17.2734ZM39.4337 15.4805C39.5626 15.4688 39.9728 15.5508 40.3361 15.6445C40.7111 15.7383 41.215 15.9492 41.4493 16.0898C41.6954 16.2422 42.0704 16.5703 42.2931 16.8281C42.5157 17.0742 42.8087 17.5195 42.9376 17.8125C43.1134 18.1992 43.172 18.5859 43.172 19.2773C43.172 19.957 43.1134 20.3555 42.9376 20.7422C42.8087 21.0352 42.4689 21.5273 42.1759 21.832C41.8946 22.1484 41.3673 22.5469 41.0157 22.7109C40.4767 22.9688 40.2189 23.0273 39.4337 23.0156C38.672 23.0156 38.379 22.957 37.8517 22.7109C37.5001 22.5352 36.9962 22.1719 36.7501 21.8906C36.4923 21.6094 36.1525 21.0938 35.9884 20.7422C35.7657 20.25 35.6954 19.8984 35.6954 19.2773C35.6954 18.6563 35.7657 18.3047 35.9884 17.8125C36.1525 17.4609 36.4454 16.9805 36.6447 16.7578C36.8439 16.5352 37.254 16.207 37.5704 16.0313C37.8868 15.8555 38.379 15.6563 38.672 15.5977C38.965 15.5391 39.3048 15.4922 39.4337 15.4805ZM38.0392 17.2383C37.7931 17.3906 37.4415 17.7539 37.2775 18.0469C37.0431 18.457 36.9728 18.7266 36.9728 19.2773C36.9845 19.7695 37.0665 20.1328 37.2423 20.4844C37.3829 20.7539 37.6759 21.1055 37.8751 21.2578C38.0861 21.4102 38.4493 21.5859 38.672 21.668C38.8947 21.7383 39.2931 21.7969 39.5509 21.7969C39.8087 21.7969 40.2306 21.6914 40.4884 21.5742C40.7462 21.457 41.1212 21.1875 41.3204 20.9648C41.5079 20.7422 41.7423 20.3555 41.8243 20.0977C41.9298 19.8047 41.965 19.3945 41.9181 18.9844C41.8712 18.5547 41.7384 18.1836 41.5196 17.8711C41.3087 17.5781 40.9572 17.2852 40.547 17.0742C40.172 16.8867 39.7267 16.7578 39.4923 16.7695C39.2697 16.7695 38.9532 16.8164 38.7892 16.8633C38.6251 16.9102 38.2853 17.0742 38.0392 17.2383ZM29.965 21.2227C30.4454 21.2109 30.9376 21.293 31.3829 21.4688C31.8282 21.6328 32.2501 21.9141 32.6486 22.3125C33.047 22.7109 33.3282 23.1328 33.4923 23.5898C33.6564 24 33.7501 24.5273 33.7501 24.9609C33.7501 25.3945 33.6564 25.9219 33.4923 26.3438C33.3282 26.7891 33.047 27.2109 32.6486 27.6094C32.2501 28.0078 31.8282 28.2891 31.3829 28.4531C30.9611 28.6172 30.4337 28.7109 30.0001 28.7109C29.5665 28.7109 29.0392 28.6172 28.629 28.4531C28.172 28.2891 27.7501 28.0078 27.3517 27.6094C26.9532 27.2109 26.672 26.7891 26.5079 26.3438C26.3439 25.9219 26.2501 25.3945 26.2501 24.9609C26.2501 24.5273 26.3439 24 26.5079 23.5898C26.672 23.1328 26.9532 22.7109 27.3517 22.3125C27.7384 21.9375 28.1837 21.6328 28.5939 21.4688C28.9923 21.3164 29.5197 21.2227 29.9767 21.2227H29.965ZM27.7853 23.7891C27.5626 24.2227 27.5157 24.457 27.5509 25.1016C27.5743 25.7344 27.6446 25.9688 27.9376 26.3789C28.1368 26.6484 28.5236 27 28.8165 27.1641C29.2501 27.3867 29.4728 27.4336 30.129 27.3984C30.7618 27.375 30.9962 27.3047 31.4064 27.0117C31.6759 26.8242 32.0275 26.4258 32.1915 26.1328C32.4142 25.6992 32.4611 25.4766 32.4259 24.8203C32.4025 24.1875 32.3321 23.9531 32.0392 23.543C31.84 23.2617 31.4532 22.9219 31.1603 22.7695C30.7736 22.5703 30.4454 22.5 29.9181 22.5C29.3087 22.5 29.1212 22.5586 28.629 22.8867C28.2775 23.1211 27.9611 23.4609 27.7853 23.7891ZM20.5548 24.3867C23.5782 24.375 23.6017 24.375 24.2462 24.6797C24.5978 24.8438 25.0079 25.0898 25.1603 25.2305C25.3009 25.3711 25.4181 25.5938 25.4181 25.7227C25.4181 25.8516 25.3243 26.0508 25.2072 26.168C25.1017 26.2852 24.9376 26.3789 24.8673 26.3672C24.7853 26.3672 24.4103 26.1914 23.3673 25.6055L20.9064 25.5703C19.2072 25.5352 18.2462 25.5703 17.8009 25.6758C17.3556 25.7695 17.0157 25.9453 16.6993 26.2383C16.4415 26.4727 16.1486 26.8711 16.0314 27.1289C15.8322 27.5508 15.8087 27.9727 15.8087 31.2656C15.8087 34.7695 15.8204 34.9336 16.0431 35.1563C16.172 35.2852 16.3595 35.3906 16.4532 35.3906C16.547 35.3906 16.7345 35.2852 16.8634 35.1563C17.0861 34.9336 17.0978 34.7695 17.0978 32.168C17.0978 29.6953 17.1212 29.3906 17.3087 29.2266C17.4142 29.1211 17.6368 29.0625 17.8009 29.0859C17.965 29.1094 18.1525 29.25 18.2345 29.4141C18.3517 29.6367 18.3868 31.043 18.3868 35.332C18.3868 39.6211 18.3517 41.0273 18.2345 41.25C18.1407 41.4492 17.9767 41.5547 17.7423 41.5781C17.5431 41.5898 17.3204 41.543 17.2384 41.4609C17.1212 41.3438 17.0861 40.7227 17.0978 36.5625H16.4884C16.0314 36.5625 15.7501 36.4922 15.4572 36.3047C15.2345 36.1523 14.9298 35.8008 14.7775 35.5078C14.5079 34.9805 14.5079 34.9453 14.5431 31.1133C14.5782 27.6914 14.6017 27.1875 14.7892 26.7773C14.9064 26.5195 15.1407 26.1094 15.3165 25.8516C15.4923 25.6055 15.8673 25.2422 16.1603 25.043C16.4532 24.8438 16.8751 24.6211 17.0978 24.5391C17.379 24.4336 18.422 24.3867 20.5548 24.3867ZM36.3751 24.375L39.5392 24.3984C42.6446 24.4336 42.715 24.4336 43.2892 24.7266C43.6173 24.8789 44.0861 25.2305 44.3439 25.4883C44.59 25.7461 44.9298 26.25 45.1056 26.6016C45.3986 27.2461 45.3986 27.2461 45.4337 31.1133C45.4689 34.9453 45.4689 34.9805 45.1993 35.5078C45.047 35.8008 44.7423 36.1523 44.5196 36.3047C44.2267 36.4922 43.9454 36.5625 42.879 36.5625V38.9414C42.879 40.6406 42.8439 41.3555 42.7384 41.4609C42.6564 41.5312 42.4454 41.6016 42.2697 41.6016C42.0587 41.6016 41.8829 41.5078 41.7657 41.3438C41.6134 41.1094 41.59 40.2656 41.59 35.3906C41.59 31.0664 41.6251 29.6367 41.7423 29.4141C41.8243 29.25 42.0118 29.1094 42.1759 29.0859C42.34 29.0625 42.5626 29.1211 42.6798 29.2266C42.8556 29.3906 42.879 29.6953 42.879 32.168C42.879 34.7695 42.8907 34.9336 43.1134 35.1563C43.2423 35.2852 43.4298 35.3906 43.5236 35.3906C43.6173 35.3906 43.8048 35.2852 43.9337 35.1563C44.1564 34.9336 44.1681 34.7695 44.1681 31.3828C44.1681 29.4023 44.1095 27.6328 44.0509 27.3984C43.9806 27.1523 43.7111 26.707 43.4415 26.4141C43.0782 26.0273 42.7736 25.8398 42.3517 25.7109C41.9298 25.5938 41.1329 25.5469 39.4806 25.5469C38.2267 25.5469 36.9728 25.6055 36.7032 25.6641C36.422 25.7344 36.0001 25.9102 35.7657 26.0742C35.5197 26.2383 35.2384 26.3672 35.1446 26.3672C35.0509 26.3672 34.8751 26.2734 34.7579 26.1562C34.6407 26.0508 34.547 25.8516 34.547 25.7227C34.547 25.5938 34.6759 25.3711 34.8165 25.2305C34.9689 25.0898 35.379 24.8438 35.7306 24.6797L36.3751 24.375ZM20.4962 34.5703C20.7306 34.5703 20.9064 34.6523 21.0236 34.8281C21.1759 35.0508 21.1993 35.7656 21.1993 39.5156C21.1993 41.9531 21.1642 44.0273 21.1173 44.1328C21.0587 44.2383 20.8947 44.3789 20.7306 44.4375C20.5197 44.5078 20.3556 44.4844 19.9103 44.1797L19.8986 39.5977C19.8868 36.4219 19.9337 34.957 20.0157 34.793C20.0978 34.6523 20.2736 34.5703 20.4962 34.5703ZM39.4806 34.5703C39.715 34.5703 39.8673 34.6523 39.9493 34.8047C40.0196 34.9453 40.0665 36.7969 40.0665 44.1797L39.8087 44.3555C39.6212 44.4844 39.4571 44.5078 39.2462 44.4375C39.0821 44.3789 38.9181 44.2383 38.8712 44.1328C38.8126 44.0273 38.7775 41.9531 38.7657 39.5156C38.754 35.5781 38.7775 35.0625 38.9532 34.8281C39.0704 34.6641 39.2696 34.5703 39.4806 34.5703Z" fill="white"/>
</svg>
