<svg width="60" height="60" viewBox="0 0 60 60" fill="none" xmlns="http://www.w3.org/2000/svg">
<path fill-rule="evenodd" clip-rule="evenodd" d="M30.2812 4.10156C30.5273 4.10156 30.7383 4.19531 31.2305 4.71094V10.4531L30.9141 10.7344C30.7266 10.8867 30.4687 11.0156 30.3281 11.0156C30.1758 11.0273 29.918 10.9219 29.4141 10.5469L29.3672 4.64062L29.6484 4.37109C29.8125 4.20703 30.0703 4.10156 30.2812 4.10156ZM30.1758 17.1445C30.7148 17.1797 31.1953 17.2852 31.582 17.4727C31.9102 17.625 32.4141 18 32.7305 18.3047C33.0352 18.6094 33.3516 19.0547 33.4336 19.2773C33.5391 19.582 33.6211 19.6758 33.75 19.6172C33.8438 19.5703 34.2188 19.4297 34.5703 19.3008C35.0391 19.1367 35.4023 19.0898 35.918 19.125C36.3047 19.1602 36.8555 19.2891 37.1484 19.418C37.4414 19.5352 37.9102 19.8516 38.1914 20.1094C38.4609 20.3555 38.8125 20.7539 39.1992 21.4219L39.8438 21.1172C40.3477 20.8828 40.6758 20.8125 41.3086 20.8242C41.9648 20.8242 42.2812 20.8945 42.8789 21.1641C43.3477 21.375 43.8047 21.7031 44.0977 22.0312C44.3672 22.3242 44.6836 22.793 44.8125 23.0859C45.0469 23.5781 45.0586 23.8594 45.0703 27.0703C45.0938 30.3164 45.1172 30.668 45.457 32.7539C45.6445 33.9727 45.8672 35.5312 45.9492 36.2109C46.0312 36.9258 46.0547 38.1562 46.0195 39.1406C45.9844 40.3125 45.8789 41.1328 45.7148 41.7773C45.5859 42.293 45.2109 43.2422 44.8945 43.8867C44.5781 44.5312 44.0156 45.4102 43.0078 46.6406V55.3125L42.4336 55.8984H22.0312L21.7969 55.582C21.5625 55.2656 21.5508 55.1016 21.5625 50.625C21.5625 46.7812 21.5391 45.8906 21.3867 45.4102C21.2812 45.082 21.0117 44.5664 20.7656 44.2617C20.5312 43.9453 19.7344 43.1836 18.9961 42.5625C18.2695 41.9414 17.3203 41.0625 16.8867 40.6055C16.4648 40.1484 15.9141 39.4688 15.6797 39.082C15.4453 38.6953 15.1172 37.957 14.9414 37.4414C14.7305 36.8203 14.6016 36.1523 14.5664 35.4492C14.5312 34.875 14.5898 33.2109 14.6953 31.7578C14.8242 29.9297 14.9531 28.8867 15.1055 28.3594C15.2344 27.9375 15.5625 27.2578 15.8438 26.8477C16.125 26.4258 16.6406 25.8516 16.9922 25.5703C17.3438 25.2773 18.0117 24.8672 18.457 24.6562C18.9141 24.4336 19.5469 24.1992 20.4727 23.9648L20.5312 22.6172C20.5781 21.5742 20.6484 21.1406 20.8477 20.6836C20.9883 20.3555 21.2344 19.9219 21.3984 19.7109C21.5508 19.5117 21.9023 19.1836 22.1836 18.9961C22.4531 18.8086 22.9922 18.5625 23.3789 18.457C23.9062 18.3047 24.2578 18.2695 24.7852 18.3398C25.1836 18.3984 25.7344 18.5742 26.6602 19.0781L27.0586 18.5742C27.2812 18.293 27.7031 17.918 27.9961 17.7422C28.3008 17.5547 28.7227 17.3438 28.9453 17.2617C29.1914 17.168 29.6836 17.1211 30.1758 17.1445ZM28.5117 19.6758C28.3711 19.875 28.2188 20.2148 28.1836 20.4141C28.1484 20.625 28.125 21.4805 28.1484 22.3242L28.1836 23.8477C29.1328 23.9883 29.6602 24.1523 29.9766 24.3047C30.2812 24.457 30.7617 24.8438 31.0547 25.1602C31.3477 25.4766 31.6406 25.8398 31.7227 25.9688C31.8398 26.1445 31.8633 25.5938 31.8398 23.1797C31.8164 20.3203 31.8047 20.1562 31.5703 19.8398C31.4297 19.6641 31.1953 19.418 31.043 19.3008C30.8906 19.1836 30.5039 19.0547 30.1758 19.0312C29.8242 18.9961 29.4258 19.043 29.1914 19.1484C28.9688 19.2305 28.6641 19.4648 28.5117 19.6758ZM22.8984 20.8008C22.7578 21 22.582 21.3633 22.5117 21.6211C22.4414 21.8789 22.3828 22.4766 22.3828 22.9336V23.7891H26.25C26.25 21.9141 26.2031 21.6562 25.9805 21.2109C25.7812 20.8359 25.5469 20.6016 25.1836 20.4141C24.9023 20.2734 24.5156 20.1562 24.3164 20.1562C24.1289 20.168 23.7773 20.2266 23.5547 20.3086C23.332 20.3906 23.0391 20.6133 22.8984 20.8008ZM34.0078 22.0312C33.7617 22.5469 33.75 22.6641 33.75 26.0156C33.75 29.4258 33.75 29.4844 34.0195 30C34.2188 30.375 34.4531 30.6094 34.8164 30.7969C35.25 31.0312 35.4258 31.0664 35.918 30.9961C36.375 30.9258 36.5977 30.8203 36.9258 30.4805C37.1953 30.2227 37.4062 29.8594 37.5 29.5312C37.5938 29.1562 37.6289 28.0078 37.5938 25.6523L37.5586 22.3008C37.1016 21.6328 36.7617 21.3398 36.5039 21.2109C36.2461 21.082 35.8477 20.9766 35.625 20.9766C35.4023 20.9766 35.0039 21.0938 34.7461 21.2461C34.4297 21.4219 34.1836 21.6797 34.0078 22.0312ZM40.0312 23.1797C39.9141 23.2852 39.75 23.5195 39.6562 23.707C39.5273 23.9531 39.4922 24.6562 39.4922 26.8359C39.4922 29.0977 39.5273 29.7188 39.668 30C39.7617 30.1875 40.0195 30.4805 40.2305 30.6445C40.4297 30.7969 40.8398 30.9609 41.1328 30.9961C41.5547 31.0547 41.7656 31.0195 42.1875 30.7969C42.5625 30.5977 42.7852 30.375 42.9844 30C43.2305 29.4961 43.2422 29.3438 43.2422 26.8594C43.2422 25.3125 43.1953 24.1289 43.1133 23.9414C43.0547 23.7539 42.8203 23.4375 42.6211 23.2266C42.4102 23.0156 42.0586 22.793 41.8359 22.7344C41.6133 22.6641 41.3789 22.6172 41.3086 22.6172C41.25 22.6289 40.9805 22.6992 40.7227 22.8047C40.4648 22.8984 40.1602 23.0625 40.0312 23.1797ZM19.8047 26.0742C19.5117 26.1797 19.043 26.4141 18.75 26.6016C18.457 26.7773 18.0234 27.1523 17.7891 27.4102C17.543 27.6797 17.2383 28.1016 17.1094 28.3594C16.9805 28.6172 16.8281 29.1797 16.7578 29.625C16.6992 30.0586 16.5937 31.4414 16.5117 32.6953C16.4414 33.9492 16.4062 35.2852 16.4531 35.6602C16.4883 36.0234 16.6289 36.6328 16.7578 37.0078C16.8867 37.3711 17.2383 38.0391 17.5547 38.4844C17.9297 39.0469 18.6094 39.7383 19.7461 40.7227C20.6484 41.5078 21.6445 42.4336 21.9609 42.7852C22.2656 43.1367 22.6758 43.7109 22.8516 44.0625C23.0273 44.4141 23.2031 44.8477 23.25 45.0234L23.3203 45.3516H41.6602C42.5977 44.1211 43.0312 43.4414 43.2305 43.0312C43.4297 42.6328 43.6992 41.918 43.8398 41.4492C43.9961 40.8867 44.0977 40.0977 44.1445 39.082C44.1797 38.2031 44.1562 37.043 44.0742 36.3281C43.9922 35.6484 43.8516 34.6172 43.7578 34.043C43.6641 33.4688 43.5703 32.8242 43.5352 32.6367L43.4648 32.2852C42.375 32.8125 42.0586 32.8711 41.3672 32.8711C40.6172 32.8711 40.3711 32.8125 39.7266 32.4961C39.3047 32.2969 38.8711 32.0156 38.7656 31.8867L38.5547 31.6406C37.7812 32.2383 37.3008 32.5195 36.9727 32.6367C36.5859 32.8008 36.1172 32.8711 35.5664 32.8594C34.8867 32.8594 34.6289 32.8008 34.0195 32.4844L33.2812 32.1094C32.8242 32.8359 32.4492 33.2109 32.1445 33.3984C31.8281 33.5977 31.3711 33.8203 31.1133 33.8906C30.8555 33.9609 30.6328 34.0312 30.6094 34.0312C30.5977 34.043 30.668 34.3828 30.7617 34.8047C30.8672 35.2266 30.9844 36.2812 31.0312 37.1602L31.1133 38.7539C30.4219 39.4219 30.2812 39.4805 29.9766 39.4336C29.7656 39.3984 29.4961 39.2578 29.3789 39.1055C29.2148 38.9062 29.168 38.6367 29.168 37.8516C29.1797 37.3008 29.1211 36.4922 29.0625 36.0352C28.9922 35.5781 28.8633 34.9805 28.7695 34.6875C28.6758 34.3945 28.3711 33.8906 28.0898 33.5742C27.7383 33.1758 27.3398 32.8828 26.8242 32.6484C26.4141 32.4609 25.6758 32.2383 25.1953 32.1562C24.7148 32.0742 23.6133 32.0039 22.7695 31.9922C21.8203 31.9922 21.1055 31.9336 20.9531 31.8516C20.8008 31.7812 20.625 31.6406 20.543 31.5352C20.4609 31.4297 20.3906 31.207 20.3906 31.0195C20.3906 30.832 20.5078 30.5859 20.6836 30.4102L20.9648 30.1172C28.1484 30.1172 28.582 30.0938 29.0039 29.8945C29.2617 29.7891 29.6133 29.5195 29.8008 29.3203C29.9766 29.1094 30.1758 28.7227 30.2461 28.4414C30.3516 28.0664 30.3516 27.8203 30.2344 27.4219C30.1641 27.1289 30 26.7539 29.8711 26.5664C29.7539 26.3906 29.4258 26.1328 29.1562 25.9805C28.6641 25.7344 28.5352 25.7227 25.1953 25.6992C23.2969 25.6992 21.4219 25.7344 21.0352 25.7812C20.6484 25.8398 20.0977 25.9688 19.8047 26.0742ZM31.4531 30.2344C31.2539 30.5273 30.8789 30.9141 30.6328 31.1016C30.3867 31.3008 29.9414 31.5586 29.6484 31.6758C29.1445 31.8984 29.1328 31.9102 29.3555 32.0625C29.4844 32.1562 29.7656 32.2266 29.9766 32.2266C30.1758 32.2266 30.5273 32.1563 30.7383 32.0742C30.9375 31.9805 31.2539 31.7461 31.4414 31.5469C31.6172 31.3359 31.793 30.9961 31.8281 30.7852C31.8633 30.5859 31.875 30.2461 31.8516 30.0586L31.8164 29.707L31.4531 30.2344ZM23.4375 54.0234H41.1328V47.2266H23.4375V54.0234ZM7.28906 31.9336L7.57031 32.25C7.72266 32.4375 7.85156 32.6953 7.85156 32.8359C7.86328 32.9883 7.75781 33.2461 7.38281 33.75H1.40625L1.17188 33.4219C1.04297 33.2461 0.9375 33 0.9375 32.8711C0.9375 32.7422 1.01953 32.5195 1.125 32.3672C1.23047 32.2148 1.42969 32.0508 1.57031 31.9922C1.69922 31.9336 3.04688 31.8984 7.28906 31.9336ZM52.6289 32.5781H58.5938L58.8281 32.8945C58.9688 33.082 59.0742 33.3398 59.0625 33.4805C59.0625 33.6328 58.9336 33.8906 58.5 34.3945H52.7109L52.4297 34.0664C52.2773 33.8906 52.1484 33.6211 52.1367 33.4688C52.125 33.3164 52.2422 33.0586 52.3828 32.8828L52.6289 32.5781ZM16.1367 7.73438C16.3125 7.73438 16.5586 7.80469 16.6875 7.89844C16.8164 7.98047 17.5547 9.12891 18.3164 10.4414C19.4531 12.3984 19.6875 12.8906 19.6289 13.1602C19.5938 13.3359 19.4414 13.582 19.3008 13.7227C19.1602 13.8516 18.9023 13.957 18.7383 13.957C18.5859 13.957 18.3398 13.875 18.2109 13.793C18.082 13.6992 17.3555 12.5508 16.5938 11.2383C15.457 9.28125 15.2227 8.78906 15.2695 8.53125C15.3164 8.35547 15.4453 8.09766 15.5742 7.96875C15.7031 7.83984 15.9609 7.73438 16.1367 7.73438ZM44.3789 8.03906C44.4609 8.0625 44.5781 8.08594 44.6367 8.08594C44.707 8.08594 44.8594 8.20313 45 8.35547C45.1289 8.49609 45.2344 8.76563 45.2344 8.94141C45.2227 9.12891 44.707 10.1602 43.9219 11.5195C43.207 12.7617 42.5391 13.8633 42.4336 13.9805C42.3281 14.0977 42.1172 14.2148 41.9766 14.2383C41.8359 14.2734 41.5664 14.2266 41.3906 14.1445C41.2148 14.0508 41.0273 13.8984 40.9805 13.793C40.9336 13.6875 40.8867 13.4648 40.8867 13.3008C40.8867 13.1484 41.4727 12 42.1992 10.7578C42.9141 9.51563 43.5469 8.42578 43.6055 8.34375C43.6758 8.25 43.8398 8.13281 43.9805 8.08594C44.1211 8.02734 44.2969 8.01562 44.3789 8.03906ZM5.78906 17.9414C6.03516 17.9414 6.91406 18.3984 8.48438 19.3125C10.3359 20.4023 10.8633 20.7656 10.9922 21.0352C11.1211 21.3398 11.1211 21.4453 10.9922 21.7266C10.8984 21.9141 10.7461 22.1133 10.6289 22.1719C10.5117 22.2188 10.2891 22.2656 10.125 22.2656C9.97266 22.2656 8.82422 21.6797 7.58203 20.9648C6.33984 20.25 5.25 19.6055 5.16797 19.5352C5.07422 19.4531 4.95703 19.2773 4.89844 19.1367C4.82812 18.9609 4.85156 18.7617 4.94531 18.5625C5.02734 18.3867 5.16797 18.1758 5.26172 18.0937C5.36719 18.0117 5.60156 17.9414 5.78906 17.9414ZM54.457 18.3984C54.5391 18.3984 54.7617 18.4805 54.9492 18.5742C55.1719 18.6914 55.3359 18.8789 55.3711 19.0781C55.418 19.2539 55.418 19.5117 55.3711 19.6641C55.3359 19.8047 55.0312 20.0977 54.6914 20.3203C54.3516 20.5312 53.2266 21.1992 52.1953 21.7969C50.6836 22.6758 50.2617 22.8633 50.0039 22.8047C49.8281 22.7695 49.5703 22.6172 49.4414 22.4766C49.3125 22.3242 49.207 22.0781 49.207 21.9141C49.207 21.7617 49.3008 21.5039 49.4062 21.3633C49.5234 21.2109 50.6719 20.4844 51.9609 19.7461C53.25 19.0078 54.375 18.3984 54.457 18.3984ZM9.80859 43.4766C9.89062 43.4766 10.1016 43.5469 10.2773 43.6406C10.4531 43.7227 10.6406 43.8867 10.6875 43.9922C10.7344 44.0977 10.7695 44.2969 10.7695 44.4492C10.7812 44.5898 10.6992 44.8125 10.6172 44.9414C10.5234 45.0703 9.38672 45.8086 8.0625 46.5703C6.10547 47.707 5.61328 47.9414 5.35547 47.8828C5.17969 47.8477 4.92188 47.707 4.79297 47.5781C4.66406 47.4492 4.55859 47.2031 4.55859 47.0273C4.55859 46.8516 4.65234 46.582 4.75781 46.4414C4.875 46.2891 6.02344 45.5625 7.3125 44.8242C8.60156 44.0859 9.72656 43.4766 9.80859 43.4766ZM49.8281 44.0742C50.0391 44.0742 50.9531 44.5312 52.4062 45.3633C53.6484 46.0781 54.7383 46.7227 54.8203 46.8047C54.9141 46.875 55.0312 47.0508 55.0898 47.2031C55.1484 47.3672 55.1367 47.5898 55.0547 47.7891C54.9844 47.9648 54.8438 48.1758 54.7383 48.2578C54.6328 48.3281 54.3984 48.3984 54.2227 48.3984C54.0234 48.3984 53.0508 47.918 51.6445 47.0977C50.4023 46.3828 49.3008 45.7148 49.1836 45.6094C49.0664 45.5039 48.9492 45.293 48.9141 45.1523C48.8906 45 48.9375 44.7305 49.0312 44.543C49.1367 44.3555 49.2773 44.1797 49.3594 44.1445C49.4414 44.1094 49.6523 44.0859 49.8281 44.0742ZM26.0977 49.2891C26.1797 49.3125 26.3203 49.3359 26.4141 49.3359C26.5195 49.3359 26.7539 49.5 26.9414 49.6875C27.2227 49.9688 27.293 50.1445 27.293 50.5078C27.293 50.7656 27.2227 51.1289 27.1406 51.3047C27.0469 51.4805 26.8359 51.6914 26.6719 51.7734C26.4961 51.8555 26.1797 51.9141 25.9453 51.9141C25.7227 51.9141 25.3828 51.8086 25.1836 51.6797C24.9609 51.5273 24.7969 51.293 24.7266 51.0117C24.668 50.7539 24.668 50.4258 24.7266 50.2148C24.7734 50.0273 24.9258 49.7812 25.0312 49.6641C25.1484 49.5469 25.4062 49.4062 25.5938 49.3477C25.793 49.2891 26.0156 49.2656 26.0977 49.2891Z" fill="white"/>
</svg>
