<svg width="16" height="16" fill="none" xmlns="http://www.w3.org/2000/svg"><g clip-path="url(#clip0_219_1121)" stroke="#fff" stroke-width=".75" stroke-linecap="round" stroke-linejoin="round"><path d="M9.5 3A4.914 4.914 0 0113 6.5M9 5c1.033.276 1.724.968 2 2M9.774 9.584a.5.5 0 01.475-.043l2.947 1.32a.5.5 0 01.3.52A3.021 3.021 0 0110.5 14 8.5 8.5 0 012 5.5a3.02 3.02 0 012.62-2.997.5.5 0 01.519.3l1.32 2.95a.5.5 0 01-.04.47l-1.338 1.59a.496.496 0 00-.033.488c.517 1.058 1.61 2.139 2.672 2.65a.495.495 0 00.489-.037l1.564-1.33z"/></g><defs><clipPath id="clip0_219_1121"><path fill="#fff" d="M0 0h16v16H0z"/></clipPath></defs></svg>