<svg width="332" height="80" fill="none" xmlns="http://www.w3.org/2000/svg"><path d="M38.26 0c.555.237.988.611 1.45.99 1.063.851 2.185 1.567 3.356 2.26l.268.163c4.583 2.766 9.984 4.413 15.28 5.068l.324.04c4.84.546 9.936-.123 14.269-2.402.39-.183.39-.183.813-.183.844 3.233 1.554 6.457 2.006 9.77l.066.484c.07.54.132 1.079.19 1.62l.038.351c.237 2.289.293 4.568.29 6.868-.002.38 0 .76.002 1.139.07 10.537-2.484 20.831-8.81 29.38l-.187.252c-.88 1.181-1.82 2.308-2.782 3.423a74.87 74.87 0 01-4.049 4.35l-.658.659a39.114 39.114 0 01-2.36 2.2l-.52.453a116.282 116.282 0 01-5.7 4.634l-.301.233c-3.155 2.413-6.515 4.615-9.942 6.62-.36.217-.71.446-1.061.678l-.665.42-.287.203c-.313.19-.523.287-.888.327-.62-.19-1.145-.511-1.696-.848l-.459-.266a78.09 78.09 0 01-1.44-.865l-.26-.158a105.809 105.809 0 01-4.767-3.093l-.353-.24c-1.86-1.274-3.66-2.62-5.442-4l-.29-.224a76.425 76.425 0 01-4.767-4.016c-.286-.258-.577-.51-.87-.76-.748-.65-1.434-1.362-2.13-2.067-.416-.418-.835-.833-1.256-1.247-.994-.978-1.97-1.945-2.83-3.044a26.92 26.92 0 00-.835-.998C4.286 50.414 1.05 40.807.24 30.67l-.024-.287c-.68-8.122.273-16.635 2.569-24.448.549.1.95.252 1.44.522 6.678 3.387 14.817 2.47 21.697.292C30.41 5.272 34.668 3.094 38.261 0z" fill="#0D2D6D"/><path d="M38.12 6.643c.586.235 1.078.5 1.607.83 6.71 4.084 14.437 6.397 22.297 6.423l.354.001a31.836 31.836 0 006.271-.61l.417-.083.997-.2c.328 1.666.61 3.33.803 5.017l.052.444c.048.44.092.881.134 1.323l.042.418c.152 1.768.134 3.543.135 5.315v.527c-.002 2.562-.07 5.057-.46 7.591l-.076.527c-.336 2.321-.77 4.586-1.478 6.823l-.14.442c-1.674 5.232-4.395 9.648-7.917 13.834l-.354.427c-1.05 1.258-2.177 2.426-3.34 3.58a1067.23 1067.23 0 01-1.484 1.48c-.089.086-.176.174-.267.264a36.682 36.682 0 01-1.905 1.74l-.464.403a91.658 91.658 0 01-6.128 4.867c-.32.232-.638.467-.955.701-2.14 1.575-4.37 3.014-6.631 4.409l-.323.2c-.73.445-.73.445-1.047.445V39.576h.707l-.22-.16c-.204-.264-.204-.264-.186-.662.123-.45.123-.45.547-1.298h3.534c.707 1.272.707 1.272.707 1.696l-.283.141h2.544l-.31-.482c-.4-.641-.748-1.302-1.089-1.976l-.188-.371c-.13-.257-.26-.514-.388-.771-.199-.394-.4-.787-.6-1.18a105.6 105.6 0 01-.378-.752l-.183-.355-.165-.332-.147-.29c-.135-.436 0-.727.197-1.123h-2.685l.283.424c-.08.804-.494 1.507-.84 2.226l-.195.416-.188.394-.173.361c-.16.278-.16.278-.442.419V6.643z" fill="#0C4DA1"/><path d="M38.26 0c.555.237.988.611 1.45.99 1.063.851 2.185 1.567 3.356 2.26l.268.163c4.583 2.766 9.984 4.413 15.28 5.068l.324.04c4.84.546 9.936-.123 14.269-2.402.39-.183.39-.183.813-.183.844 3.233 1.554 6.457 2.006 9.77l.066.484c.07.54.132 1.079.19 1.62l.038.351c.237 2.289.293 4.568.29 6.868-.002.38 0 .76.002 1.139.07 10.537-2.484 20.831-8.81 29.38l-.187.252c-.88 1.181-1.82 2.308-2.782 3.423a74.87 74.87 0 01-4.049 4.35l-.658.659a39.114 39.114 0 01-2.36 2.2l-.52.453a116.282 116.282 0 01-5.7 4.634l-.301.233c-3.155 2.413-6.515 4.615-9.942 6.62-.36.217-.71.446-1.061.678l-.665.42-.287.203c-.313.19-.523.287-.888.327-.62-.19-1.145-.511-1.696-.848l-.459-.266a78.09 78.09 0 01-1.44-.865l-.26-.158a105.809 105.809 0 01-4.767-3.093l-.353-.24c-1.86-1.274-3.66-2.62-5.442-4l-.29-.224a76.425 76.425 0 01-4.767-4.016c-.286-.258-.577-.51-.87-.76-.748-.65-1.434-1.362-2.13-2.067-.416-.418-.835-.833-1.256-1.247-.994-.978-1.97-1.945-2.83-3.044a26.92 26.92 0 00-.835-.998C4.286 50.414 1.05 40.807.24 30.67l-.024-.287c-.68-8.122.273-16.635 2.569-24.448.549.1.95.252 1.44.522 6.678 3.387 14.817 2.47 21.697.292C30.41 5.272 34.668 3.094 38.261 0zm0 5.371c-.296.18-.568.369-.847.574-3.264 2.28-7.106 3.865-10.884 5.08l-.3.097c-6.221 1.968-12.84 2.322-19.205.892l-.41-.09a63.103 63.103 0 01-.862-.193c-1.044 4.531-1.311 9.093-1.316 13.726l-.002.841c-.005 3.073.112 6.12.638 9.152l.091.535c1.084 6.085 3.31 11.729 6.95 16.736l.17.235a56.114 56.114 0 002.373 3.016l.201.24c.795.948 1.598 1.867 2.486 2.73.258.257.49.522.723.802.728.847 1.574 1.583 2.396 2.337.256.236.51.473.764.711a49.77 49.77 0 002.9 2.508l.52.428c3.59 2.95 7.417 5.603 11.378 8.033.263.164.522.334.78.504l.253.164c.224.145.448.293.67.44.47.22.611.18 1.099.043.323-.153.323-.153.641-.353l.376-.227.405-.25.428-.263c5.413-3.362 10.586-7.194 15.262-11.527.28-.259.56-.516.842-.772 1.246-1.128 2.468-2.279 3.56-3.56.3-.346.612-.68.924-1.017.817-.898 1.562-1.843 2.297-2.809l.234-.305a44.286 44.286 0 003.44-5.207l.193-.338c3.872-6.868 4.924-14.915 4.94-22.683l.002-.518a69.49 69.49 0 00-.611-9.253l-.064-.49a38.356 38.356 0 00-.643-3.609 22.48 22.48 0 00-2.217.416c-9.344 2.114-19.995-.294-28.09-5.29a78.07 78.07 0 01-1.588-1.04c-.446-.315-.446-.315-.896-.446z" fill="#D8A628"/><path d="M46.459 31.66c.781-.01 1.563-.017 2.345-.023l.797-.008c.383-.005.767-.008 1.15-.01l.355-.006c1.168 0 2.186.264 3.055 1.073.867 1.007.972 2.128.957 3.411-.076 1.03-.383 1.773-1.142 2.48-.933.784-1.8.92-2.976.9-.13-.002-.261-.002-.395-.003a170.73 170.73 0 01-1.24-.013l-.845-.006a354.34 354.34 0 01-2.062-.02l.283-.424c.041-.323.041-.323.032-.684v-.42l-.004-.453-.001-.464c-.002-.49-.006-.98-.01-1.469l-.003-.995a709.35 709.35 0 00-.014-2.441l-.282-.142v-.282z" fill="#D5A52A"/><path d="M18.048 31.66c.885-.014 1.77-.023 2.656-.03l.902-.012c.434-.007.867-.01 1.301-.012l.404-.01c.863 0 1.508.139 2.229.63.534.534.604.975.627 1.705-.001.647-.11 1.018-.486 1.546-.508.494-.864.611-1.555.707a671 671 0 00.952 1.395c.447.652.89 1.295 1.45 1.856h-2.826l.141-.566c-.121-.278-.121-.278-.326-.54l-.214-.3-.228-.308c-.148-.203-.295-.407-.441-.61l-.2-.273c-.145-.23-.145-.23-.145-.513h-2.12v2.827h.282v.283h-2.403l.142-.283c.016-.231.025-.462.029-.694l.008-.437.007-.474.01-.483.025-1.534.019-1.038c.015-.85.03-1.699.043-2.549h-.283v-.282z" fill="#D1A22A"/><path d="M62.713 31.661h2.827v.283l-.283.141c.093.437.242.8.445 1.197l.19.374.204.4c.563 1.112 1.116 2.23 1.652 3.356l.182.381.168.354.147.31c.121.271.121.271.263.695l.424.142v.141h-2.827v-.283h.283a629.325 629.325 0 00-.283-.689l-.159-.387c-.124-.337-.124-.337-.124-.62l-3.533.141c-.425.78-.425.78-.424 1.555l.141.283h-2.544l.49-.91a113.348 113.348 0 001.7-3.309c.102-.205.205-.41.309-.614.153-.302.303-.605.452-.91l.141-.273c.344-.714.282-.892.159-1.758z" fill="#D5A52A"/><path d="M39.674 31.661h2.685l-.14.848c.094.353.094.353.275.687l.193.39.214.413a142.598 142.598 0 00.672 1.328 714.075 714.075 0 001.138 2.25c.07.138.14.275.21.416a1539.915 1539.915 0 00.373.726c.186.337.186.337.599.716h-2.968l.141-.283h.283l-.707-1.555-3.533-.14-.424 1.271-.142.424.424.142v.141h-2.685l.565-.707c.16-.292.31-.59.453-.89l.123-.256c.13-.271.259-.543.387-.815l.266-.559.392-.826a68.2 68.2 0 01.712-1.464l.145-.292c.118-.239.237-.477.357-.714.19-.47.19-.47-.008-1.25z" fill="#D4A42A"/><path d="M11.264 31.661h2.686l-.141.848c.132.361.267.667.446 1.003l.145.286c.154.302.311.602.468.902l.304.592c.2.39.401.779.603 1.167.198.383.392.768.58 1.155l.137.278c.123.251.244.503.366.754.165.38.165.38.484.506v.283h-2.827l.141-.283h.283l-.707-1.555-3.533-.14-.283.847-.282.848.424.142v.141H7.872l.141-.283h.283l.1-.341c.23-.637.527-1.225.834-1.827l.385-.773c.202-.403.405-.806.61-1.209.197-.39.392-.78.586-1.172l.187-.363.169-.343.15-.299c.136-.4.136-.4-.053-1.164zm23.728.742c.44.293.44.293 1.007.247a4.761 4.761 0 01-.99 1.696h-.282l-.15-.318c-.411-.583-.861-.78-1.546-.954-1.087-.103-2.01-.15-2.968.424-.55.488-.933.889-1.042 1.628-.023.952.091 1.622.76 2.33.852.654 1.777.825 2.826.706.711-.2 1.363-.437 1.979-.848l.141-.424c.525.204.7.442.954.937l.183.35.135.268-.53.168a7.486 7.486 0 00-1.11.442c-1.396.692-2.957.761-4.47.417-1.063-.392-1.805-1.026-2.37-2.016-.426-1.063-.496-2.401-.164-3.505.57-1.114 1.536-1.892 2.708-2.29 1.78-.44 3.371-.177 4.93.742z" fill="#D4A429"/><path d="M48.579 33.074l1.652-.026.517-.012.412-.003.42-.007c.66.081 1.009.364 1.424.87.449.854.368 1.98.167 2.898-.215.57-.551.905-1.059 1.227-.43.139-.82.158-1.27.155h-.36l-.455-.005-1.448-.009v-5.088z" fill="#0C4DA1"/><path d="M56.21 31.661h2.545v.283l-.283.141a718.37 718.37 0 00-.015 2.936l-.006.999-.006 1.434-.005.453v.42c0 .122 0 .244-.002.37.014.355.014.355.317.738h-2.544l.141-.283h.283l-.141-7.067-.283-.141v-.283z" fill="#D7A628"/><path d="M20.169 33.074c.627-.011 1.254-.02 1.882-.026l.54-.011.518-.004.478-.007c.398.048.398.048.662.232.27.404.21.76.16 1.23-.16.24-.16.24-.424.423-.398.049-.398.049-.876.042l-.518-.004-.54-.011-.546-.006c-.445-.005-.89-.012-1.336-.02v-1.838z" fill="#0E2D6D"/><path d="M63.985 33.78c.382.467.625.956.875 1.502l.227.492c.17.41.17.41.17.692h-2.403c.132-.657.341-1.156.645-1.74l.141-.276.345-.67z" fill="#1C5498"/><path d="M12.395 33.78h.283a355.493 355.493 0 01.773 1.74l.125.283c.091.24.091.24.091.522h-2.261c.127-.638.298-1.089.574-1.67l.235-.497.18-.377z" fill="#14316B"/><path d="M40.805 33.78h.282c.166.371.33.743.495 1.114.047.105.095.21.143.32l.136.306.125.283c.09.24.09.24.09.522h-2.26c.278-.877.6-1.71.989-2.544z" fill="#12509D"/><path d="M96.189 4.813h.743v70.374h-.743V4.813zM257.985 59.17c1.992 1.423 3.162 3.224 3.719 5.601.435 2.676.145 5.283-1.309 7.607-1.462 2.013-3.323 3.228-5.761 3.764-3.187.279-5.986.114-8.642-1.812-2.025-1.7-3.017-3.733-3.252-6.365-.183-2.697.546-5.3 2.23-7.434 3.385-3.314 9.007-3.756 13.015-1.361zm-9.747 4.024c-1.15 1.709-1.548 3.283-1.187 5.33.464 1.777 1.568 2.741 3.089 3.695 1.445.562 3.429.452 4.85-.15 1.32-.778 2.143-2.186 2.618-3.609.137-1.637.164-3.284-.744-4.708-1.096-1.2-2.218-2.101-3.869-2.313-2.028-.03-3.296.327-4.757 1.755zm-9.711-3.348c1.749 1.539 2.736 3.847 2.974 6.136.146 2.92-.531 5.564-2.519 7.764-2.419 2.202-5.086 2.54-8.214 2.473-2.514-.12-4.604-1.17-6.295-3.022-1.812-2.264-2.286-4.864-2.052-7.71.515-2.665 1.578-4.686 3.794-6.288 3.863-2.33 8.677-1.934 12.312.647zm-11.104 3.962c-.941 1.407-1.003 3.011-.79 4.652.561 1.766 1.379 2.801 2.974 3.717 1.421.474 3.157.546 4.574.023 1.369-.816 2.354-1.838 2.937-3.337.383-2.016.248-3.62-.892-5.347-.827-1.052-1.588-1.628-2.902-1.994-2.518-.302-4.329.262-5.901 2.286zm-39.446-34.995c11.119 0 11.119 0 13.479 2.073l.398.405.421.42c1.79 1.934 2.152 4.087 2.126 6.663a8.848 8.848 0 01-2.547 5.554c-4.042 3.356-8.703 2.479-13.877 2.479V28.813zm4.213 3.717v10.16c3.407.037 3.407.037 6.412-1.162 1.088-1.184 1.576-2.302 1.641-3.918-.064-1.498-.419-2.655-1.497-3.725-1.999-1.573-4.037-1.355-6.556-1.355zm47.081-3.717c10.358 0 10.358 0 12.142 1.487.911 1.069 1.023 2.352.991 3.717-.407 1.461-1.048 2.106-2.23 2.973l.743.496c1.197.873 1.784 1.51 2.23 2.973.199 1.396-.034 2.482-.743 3.717-1.261 1.53-2.448 1.682-4.46 2.23h-8.673V28.814zm3.965 3.47v3.468c.594.027 1.186.047 1.781.062l.505.025c.899.018 1.393-.063 2.163-.539.574-.51.574-.51.63-1.298-.133-.783-.238-1.011-.867-1.471-.759-.38-1.553-.273-2.385-.263l-.53.003c-.433.003-.865.007-1.297.012zm0 6.937v3.717c.717.027 1.434.047 2.152.062l.614.025c1.021.017 1.553 0 2.441-.548.579-.623.76-.916.74-1.769-.525-.824-.8-1.175-1.735-1.487-.331-.02-.663-.026-.994-.024l-.569.003-.59.006-.598.003-1.461.012zm11.894-10.407c10.315 0 10.315 0 12.142 1.487.937.937 1.341 1.915 1.486 3.221 0 1.593-.162 3.13-1.335 4.312a9.06 9.06 0 01-2.134 1.387l.364.607c.444.74.888 1.483 1.33 2.225l.577.963a17744.152 17744.152 0 011.33 2.225c.364.67.364.67.364 1.166h-4.708c-.487-.876-.972-1.754-1.456-2.632l-.417-.75-.402-.731-.369-.669c-.347-.704-.594-1.407-.825-2.156h-1.735v6.938h-4.212V28.814zm4.212 3.47v3.716l1.781.046.554.021c1.088.014 1.775-.117 2.621-.81.31-.844.31-.844.248-1.735-.456-.598-.819-.905-1.487-1.239a46.853 46.853 0 00-1.889-.015l-1.828.015zm-122.163-3.47c10.316 0 10.316 0 12.142 1.487.938.937 1.342 1.915 1.487 3.221 0 1.593-.162 3.13-1.336 4.312a9.035 9.035 0 01-2.133 1.387l.364.607a1574.33 1574.33 0 011.907 3.188c.276.46.552.922.826 1.384l.504.841c.364.67.364.67.364 1.166h-4.708c-.487-.876-.972-1.754-1.456-2.632l-.417-.75-.402-.731-.37-.669c-.346-.704-.593-1.407-.824-2.156h-1.735v6.938h-4.213V28.814zm4.213 3.47v3.716l1.781.046.554.021c1.088.014 1.775-.117 2.621-.81.309-.844.309-.844.248-1.735-.457-.598-.819-.905-1.487-1.239a46.887 46.887 0 00-1.89-.015l-1.827.015zm5.947-28.497l.008.459c.026 1.572.055 3.143.084 4.715l.031 1.761a2128.119 2128.119 0 00.059 3.327l.015.737.012.652c-.015.49-.015.49.287.739l4.46.247V4.777l2.478-.496.248 6.69 1.239-1.238c1.745-1.329 3.541-1.738 5.699-1.487 1.689.393 2.734 1.036 3.689 2.49 1.043 1.827 1.056 3.633 1.019 5.687a500.15 500.15 0 001.812-.108l.518-.03c.76-.047 1.404-.115 2.13-.357.54-.788.57-1.506.599-2.443l.029-.838.023-.87.029-.882c.023-.717.044-1.435.064-2.153l2.23-.496c.024 1.067.042 2.133.054 3.2.005.363.012.725.021 1.088.012.522.017 1.045.022 1.568l.015.952c-.158 1.231-.691 1.998-1.614 2.81-.753.461-1.381.573-2.244.58l-.628.006-.687.003-.726.007c-.793.006-1.586.01-2.38.013l-.82.004c-1.434.007-2.867.012-4.3.015a938.8 938.8 0 00-4.442.028 555.65 555.65 0 01-3.415.013c-.546.002-1.092.005-1.638.011-.764.008-1.528.008-2.292.006l-.682.013c-1.062-.01-1.779-.067-2.629-.74-.799-.864-.886-1.444-.883-2.576v-.721l.004-.777.001-.797c.001-.84.004-1.681.008-2.522l.003-1.71c.003-1.396.007-2.794.012-4.19.32-.126.64-.25.96-.373l.54-.209c.482-.162.482-.162.978-.162zm8.177 10.16c-.472.821-.743 1.514-.743 2.477 1.336.006 2.673.01 4.009.014l1.365.005 1.958.006.62.003c.488 0 .976-.012 1.464-.028.312-.254.312-.254.253-.798-.132-1.803-.393-3.358-1.755-4.638-3.06-1.678-5.409.593-7.171 2.958zm158.093 14.867h4.213v6.443h7.186v-6.443h3.965v17.594h-3.965v-7.434h-7.186v7.434h-4.213V28.813zM204.827 58.3h3.965v6.443h7.186v-6.442h4.213v17.593h-4.213v-7.682h-7.186v7.682h-3.965V58.301zm14.62-29.487h3.469c.991 1.93 1.872 3.893 2.726 5.885l.417.967.648 1.507a997.693 997.693 0 001.596 3.683l.45 1.034.652 1.498.602 1.383.346.796c.245.593.245.593.245.84h-4.708c-1.239-2.88-1.239-2.88-1.239-3.716l-6.69.247-.604 1.596c-.604 1.595-.604 1.595-.883 1.873-.333.022-.667.027-1 .025l-.608-.003-.638-.006-.641-.003c-.525-.003-1.049-.008-1.574-.012 1.108-3.035 2.422-5.98 3.717-8.937.44-1.004.878-2.008 1.317-3.013l.313-.718c.713-1.635 1.41-3.276 2.087-4.926zm1.487 5.7a938.919 938.919 0 00-1.118 2.852l-.237.608-.22.562c-.174.399-.174.399-.159.685h3.964c-.276-.739-.556-1.477-.836-2.214l-.238-.639c-.077-.2-.154-.4-.232-.607l-.213-.562c-.183-.484-.183-.484-.711-.686zm-44.563-5.724l.967.008.969.007.75.009c4.305 9.775 4.305 9.775 6.226 14.233l.376.87.338.786.291.677c.203.532.203.532.203 1.028h-4.461c-1.208-2.633-1.208-2.633-1.486-3.47l-6.691-.247-.743 2.477-.496 1.24h-4.46c.169-.848.287-1.413.619-2.165l.229-.524a91.59 91.59 0 00.51-1.152c.279-.635.56-1.27.841-1.905.385-.874.768-1.748 1.152-2.623l.288-.656a374.142 374.142 0 002.769-6.499l.305-.728.261-.628c.345-.759.345-.71 1.243-.738zm.703 5.475c-.29.733-.579 1.466-.867 2.2l-.251.632-.237.605-.22.558c-.186.462-.186.462-.159.961h3.717a44.027 44.027 0 00-1.735-4.956h-.248zm-51.501-5.475l.967.008.969.007.75.009c4.305 9.775 4.305 9.775 6.226 14.233l.376.87.338.786.291.677c.203.532.203.532.203 1.028h-4.461c-1.208-2.633-1.208-2.633-1.486-3.47l-6.691-.247-.743 2.477-.496 1.24h-4.46c.169-.848.287-1.413.619-2.165l.229-.524.25-.559.26-.593c.279-.635.56-1.27.841-1.905.385-.874.768-1.748 1.152-2.623l.288-.656a382.09 382.09 0 002.77-6.499l.305-.728.26-.628c.345-.759.345-.71 1.243-.738zm.703 5.475c-.29.733-.579 1.466-.867 2.2l-.251.632-.237.605-.22.558c-.186.462-.186.462-.159.961h3.717a44.027 44.027 0 00-1.735-4.956h-.248zM272.199 8.222l.876.002.918.007.925.003 2.266.012.007.648c.01.794.026 1.588.044 2.381.007.344.012.687.016 1.03.005.495.017.989.029 1.483l.016.9c.068.759.068.759.58 1.21.831.422 1.678.42 2.591.448l1.92.077v-5.699c1.487-.496 1.487-.496 2.478-.496v6.195h4.213v-6.69c1.239-.496 1.239-.496 2.23-.496v7.186c2.501-.06 2.501-.06 3.717-.743.332-.665.301-1.21.326-1.953l.031-.876.03-.919.032-.924c.027-.756.052-1.511.076-2.266.897-.327 1.511-.496 2.478-.496.025.987.043 1.974.055 2.961.007.5.02.998.032 1.496.036 3.552.036 3.552-1.078 4.712-1.249.825-2.043 1.115-3.572 1.115l-.53.004c-.572.003-1.143-.001-1.715-.005h-1.201c-.836.001-1.672-.002-2.508-.008-1.07-.007-2.14-.006-3.21-.003-.825.002-1.651 0-2.476-.003h-1.184c-.551 0-1.102-.004-1.654-.01l-.949-.003c-.884-.103-1.327-.366-2.063-.84-.67.16-.67.16-1.239.496-1.153.576-2.711.35-3.965.248-1.233-.553-1.83-1.303-2.478-2.478-.506-2.026-.522-4.326.495-6.195 1.041-1.16 1.916-1.519 3.441-1.511zm-1.175 2.335c-.596.873-.579 1.712-.593 2.738l-.019.842c.09.89.267 1.343.824 2.038.654.297 1.272.322 1.983.248.862-.514 1.168-.779 1.487-1.734.019-.35.026-.7.024-1.049l-.003-.602-.006-.626-.003-.634c-.003-.517-.008-1.033-.012-1.55a99.695 99.695 0 00-1.565-.046l-.88-.026c-.765.006-.765.006-1.237.4zm-86.516 48.239l.991.991-2.725 2.974-.868-.496c-1.277-.64-2.31-.653-3.717-.371l-.371.124c-.212.694-.212.694-.248 1.486.886 1.222 2.229 1.466 3.602 1.89 1.509.49 2.732 1.142 3.801 2.354.671 1.714.714 3.46.032 5.172-.929 1.852-2.334 2.595-4.214 3.222-5.307.326-5.307.326-7.361-1.333-.351-.34-.351-.34-.816-.897 2.052-2.375 2.052-2.375 2.726-2.974h.495v.496l.589.232c.65.263.65.263 1.146.511.571.059.571.059 1.208.062l.649.02c.747-.098 1.08-.296 1.612-.825.083-.775.083-.775 0-1.487a29.486 29.486 0 00-3.624-1.61c-1.49-.568-2.52-1.066-3.655-2.2-.683-1.523-.71-3.318-.239-4.926.745-1.442 2.077-2.534 3.569-3.127 2.457-.7 5.167-.524 7.418.712zM310.129 29.33c.344.227.675.472 1.002.722-.761 1.248-1.667 2.217-2.725 3.221l-.465-.356c-1.066-.533-2.064-.668-3.252-.635-.782.303-1.092.498-1.518 1.208-.017.591-.017.591.537 1.14.814.695 1.565.981 2.576 1.26 1.711.486 3.231 1.172 4.357 2.614.695 1.341.633 2.95.227 4.371-.631 1.582-1.533 2.65-3.082 3.377-2.196.857-4.581.933-6.814.154-.874-.426-1.725-.868-2.478-1.486 0-1.014.397-1.287 1.068-2.03l.602-.676c.56-.516.56-.516 1.303-.516l.666.48c1.088.678 2.046.904 3.316.662.412-.116.818-.255 1.222-.398v-2.23l-.62-.206-.867-.29-.466-.156c-4.373-1.488-4.373-1.488-5.515-3.253-.537-1.396-.495-3.264.021-4.658 2.215-3.692 7.298-4.33 10.905-2.318zm-143.849.21c.583.47.947.9 1.378 1.503-.396.368-.794.734-1.192 1.1l-.671.618c-.615.512-.615.512-1.358.76a31.01 31.01 0 01-1.487-.991c-1.209-.403-2.167-.35-3.376.046-1.406.756-2.255 1.68-2.819 3.175-.468 2.078-.127 3.81.883 5.669 1.029.896 2.259 1.456 3.632 1.558 1.195-.096 1.986-.564 2.919-1.28l.743-.495c.498.353.993.71 1.487 1.068l.43.304c.366.268.713.562 1.057.858 0 .743 0 .743-.364 1.17-2.121 1.859-4.003 2.292-6.822 2.299-2.348-.16-4.789-1.17-6.427-2.88-2.036-2.66-2.385-5.517-1.998-8.766a8.697 8.697 0 01.991-2.478l.434-.79c3.055-3.82 8.259-4.871 12.56-2.447zm34.335 29.008a19.38 19.38 0 011.982 1.735c-.942.971-1.936 1.856-2.973 2.726l-.697-.48c-1.252-.81-2.308-.929-3.764-.76-1.298.42-2.273 1.039-2.973 2.23-.707 1.654-.966 3.202-.496 4.957.643 1.433 1.551 2.51 2.974 3.221 1.775.18 3.013.079 4.46-.991l.248-.496c.964.344 1.726.797 2.555 1.394l.663.474.499.363c-.492.92-.935 1.464-1.812 2.028l-.555.367c-2.202 1.198-4.954 1.142-7.373.664-2.409-.795-4.069-2.21-5.328-4.391-1.128-2.484-1.252-5.72-.435-8.332 1.059-2.4 2.81-3.851 5.146-4.942 2.307-.873 5.677-1.009 7.879.233zM120.796 8.222l.876.002.918.007.925.003c.755.003 1.511.007 2.266.012l.007.648c.011.794.026 1.588.044 2.381.007.344.013.687.016 1.03.005.495.017.989.03 1.482l.015.901c.068.76.068.76.586 1.212.805.41 1.503.374 2.399.368l.984.006c.899-.101 1.258-.184 1.866-.842.254-.775.295-1.523.326-2.335l.032-.77.029-.798.033-.81.075-1.977c.836-.372 1.29-.496 2.231-.496l.007.621c.013.929.034 1.857.055 2.786l.01.978.024.939.016.865c.163.902.396 1.2 1.127 1.74.701.1 1.284.14 1.982.124l.534.012c.814-.006 1.334-.05 1.993-.545.566-.737.579-1.165.598-2.088l.024-.871.01-.906.023-.918c.017-.747.03-1.494.039-2.241l2.23-.496c.025 1.067.043 2.133.055 3.2.005.363.012.725.02 1.088.012.522.018 1.045.022 1.568l.016.952c-.159 1.231-.691 1.998-1.615 2.81-1.246.763-2.614.597-4.026.604l-.776.015c-1.948.01-1.948.01-2.952-.5l-.655-.32c-.498.244-.993.492-1.487.743-.997.116-1.987.103-2.989.093l-.808.008-.781-.003-.706-.002c-.778-.113-1.239-.432-1.902-.84-.669.16-.669.16-1.239.496-1.153.576-2.711.349-3.965.248-1.233-.553-1.83-1.303-2.478-2.478-.47-1.856-.54-4 .233-5.777.899-1.432 2.074-1.937 3.703-1.93zm-1.308 2.522c-.485.881-.522 1.456-.506 2.458l.001.898c.115.897.286 1.374.851 2.075.653.297 1.272.322 1.982.248.863-.514 1.168-.779 1.487-1.734.02-.35.027-.7.024-1.049l-.002-.602-.007-.626-.003-.634a400.04 400.04 0 00-.012-1.55 58.816 58.816 0 00-1.549-.077l-.871-.044c-.829.052-.829.052-1.395.637zm80.384-6.958c.018 1.512.031 3.024.04 4.536.004.513.009 1.027.016 1.54.009.742.013 1.483.016 2.224l.012.688c0 1.565-.096 3.325-1.188 4.548-1.419 1.21-2.482 1.136-4.271 1.146l-.737.015c-2.022.01-2.022.01-3.015-.5l-.785-.32c-.499.24-.994.49-1.487.743-.982.097-1.957.07-2.943.046l-.803-.01a212.01 212.01 0 01-1.953-.036l-.079.801c-.245 1.352-.849 2.062-1.904 2.916-1.568.81-3.254.948-4.956.495-1.003-.67-1.314-1.632-1.734-2.726l.409.109c1.61.396 3.2.731 4.779.093.71-.624.957-1.227 1.059-2.172a48.68 48.68 0 00.05-1.751l.015-.645c.015-.677.026-1.353.038-2.03l.029-1.38c.023-1.124.044-2.25.064-3.374l2.23-.496v8.177l2.292-.108.717-.033.572-.028.582-.028a8.502 8.502 0 001.536-.298c.241-.82.296-1.59.326-2.443l.032-.838.029-.87.033-.882.076-2.153 2.23-.496.015.598c.023.896.05 1.79.078 2.685l.023.942.029.905.023.834c.078.71.169 1.135.575 1.718.826.275 1.47.289 2.339.294l.85.01c.747-.054 1.161-.121 1.767-.552.224-.671.284-1.09.299-1.783l.015-.632.012-.678.016-.697c.016-.734.031-1.469.045-2.204l.033-1.494.076-3.663c.319-.125.639-.248.96-.372l.54-.209c.482-.162.482-.162.978-.162zm34.939 0l.007.459c.027 1.572.055 3.143.085 4.715l.031 1.761c.014.842.03 1.684.046 2.527l.013.8.015.737.011.652c-.014.49-.014.49.287.739.388.03.777.044 1.166.05l.751.015.818.013.832.015c.881.017 1.762.031 2.644.046l1.787.032c1.464.027 2.928.052 4.392.076-.064-.47-.132-.94-.201-1.409l-.114-.793c-.294-1.254-.822-2.07-1.915-2.754-1.168-.389-2.355-.476-3.525-.043-.489.246-.959.51-1.431.787-.329.167-.66.333-.991.495l-1.487-1.239a14.532 14.532 0 012.2-2.735l.692-.683.716-.701 1.411-1.388.629-.616c.551-.542.551-.542.943-1.13.347-.428.347-.428 1.124-.525l.88.035.886.027.679.035c-.354.807-.785 1.338-1.412 1.955l-.537.532-.56.548-.567.56c-.46.454-.922.908-1.385 1.36.198.025.395.05.598.074 1.939.274 3.213.65 4.544 2.141.778 1.059 1.103 1.964 1.208 3.268l.056.637c.034.746.04 1.486.039 2.233l-.001.744-.001.568c-2.079.023-4.157.04-6.236.051-.965.005-1.931.012-2.896.023-.932.011-1.863.017-2.795.02-.356.002-.711.005-1.066.01-.498.008-.996.008-1.495.008l-.858.007c-.945-.148-1.337-.428-2-1.11-.442-.833-.557-1.514-.552-2.45l.001-.706.007-.752.002-.778c.003-.818.009-1.636.016-2.454l.006-1.666c.006-1.36.014-2.72.025-4.08.319-.125.64-.248.96-.372l.54-.209c.482-.162.482-.162.978-.162zm80.395 4.705c.865.515 1.652 1.076 2.12 1.985.282 1.274.277 2.513.264 3.81l-.004.624c-.003.505-.007 1.009-.012 1.513.599-.028 1.198-.06 1.797-.093l.512-.023c1.278-.07 1.278-.07 2.399-.627.242-.725.308-1.374.37-2.13.143-1.58.275-2.869 1.456-4.024 1.443-1.03 2.892-.922 4.617-.784 1.183.394 1.819.924 2.478 1.982.761 2.055.626 3.956-.248 5.947-.636.996-1.117 1.377-2.23 1.735-1.802.173-3.096.082-4.708-.744l-.581.347c-1.364.597-2.669.488-4.141.47l-.944-.004c-.823-.003-1.647-.01-2.471-.018-.842-.008-1.684-.011-2.526-.015-1.65-.008-3.299-.02-4.948-.036.582-1.516.582-1.516 1.239-1.983.584-.084.584-.084 1.265-.072l.738.007.769.019.778.01c.634.009 1.267.021 1.901.036a149.76 149.76 0 00-.062-2.416l-.011-.69c-.036-1.334-.036-1.334-.63-2.496-.803-.516-1.334-.474-2.27-.345-.893.498-1.506 1.01-2.231 1.735V9.237c1.597-1.16 3.432-1.507 5.314-.746zm10.592 2.713c-.709.992-.865 1.78-.79 2.99.256 1.027.584 1.628 1.487 2.23.733.123.733.123 1.486 0 .706-.554.954-.88 1.239-1.735.132-1.347.125-2.367-.743-3.47-.463-.56-.463-.56-1.193-.603-.82.052-.82.052-1.486.588zm-49.11 17.609h13.876v3.717h-4.955v13.877h-3.965V32.53h-4.956v-3.717zM264.298 58.3h4.213v13.877h6.938v3.717h-11.151V58.301zm28.001-29.487h3.965v17.594h-3.965V28.813zm-21.31 0h3.964v17.594h-3.964V28.813zm-64.427 0h3.965v17.594h-3.965V28.813zm4.956-25.027l.008.459c.026 1.572.055 3.143.084 4.715l.031 1.761c.014.842.03 1.684.046 2.527l.013.8.015.737.011.652c-.014.49-.014.49.287.739.69.024 1.371.034 2.06.03l.581.003h.562l.515-.001c.521-.034.985-.139 1.486-.28.201-.895.292-1.746.326-2.661l.032-.801.029-.828.033-.843.076-2.053 2.23-.496c.018 1.032.032 2.063.041 3.095.003.35.009.7.015 1.05.009.506.013 1.012.016 1.518l.012.92c-.124 1.256-.524 2.057-1.447 2.91-1.384.935-2.926.74-4.538.76l-.883.028c-2.407.024-2.407.024-3.317-.7-.735-.876-.833-1.475-.83-2.58v-.721l.004-.777.001-.797c.001-.84.004-1.681.007-2.522l.004-1.71c.003-1.396.007-2.794.012-4.19.32-.126.64-.25.96-.373l.54-.209c.482-.162.482-.162.978-.162zm17.206 4.739c1.052.77 1.9 1.613 2.122 2.942.02.538.027 1.077.024 1.615l-.002.846-.007 1.07-.015 3.408h-9.169c.719-1.438.719-1.438 1.239-1.983.585-.112.585-.112 1.266-.097l.738.01.769.025.777.014c.634.012 1.268.028 1.902.048a162.65 162.65 0 00-.062-2.416l-.011-.69c-.036-1.334-.036-1.334-.63-2.496-.803-.516-1.335-.474-2.271-.345-.893.498-1.505 1.01-2.23 1.735V9.237c1.716-1.247 3.546-1.371 5.56-.712zm77.947-.279c.025 1.517.043 3.033.055 4.55.004.515.011 1.03.02 1.545.012.743.018 1.486.022 2.23l.015.691c.001 1.903-.463 3.2-1.785 4.582-1.521.995-2.932 1.157-4.703.923-.885-.235-1.278-.652-1.801-1.388-.325-.82-.325-.82-.496-1.487l.41.109c1.486.366 3.096.729 4.58.197.569-.376.699-.67.957-1.297.08-.509.08-.509.079-1.045l.015-.616.009-.658.014-.68c.015-.713.027-1.428.038-2.143l.029-1.454c.024-1.188.045-2.376.064-3.563.897-.327 1.511-.496 2.478-.496zm-47.824 0c.012 1.375.021 2.75.027 4.126.002.467.006.934.01 1.402.006.674.009 1.348.011 2.022l.008.626c0 2.073-.321 3.905-1.791 5.453-1.506 1.075-3.408 1.093-5.188.867-1.065-.522-1.277-1.028-1.75-2.106v-.744l.836.248c1.509.37 3.007.613 4.383-.201.651-.736.758-1.331.779-2.28l.015-.601.012-.645.016-.664.045-2.098.033-1.422.076-3.487c.897-.327 1.51-.496 2.478-.496zm3.964-4.46v14.62h-2.478V4.529c1.983-.743 1.983-.743 2.478-.743zm-58.975 0v14.62h-2.478V4.529c1.983-.743 1.983-.743 2.478-.743zm-31.191 16.416c.712.186.712.186.96.434.062.852.062.852 0 1.734-.743.496-.743.496-1.378.434-.604-.186-.604-.186-1.1-.681-.09-.703-.088-1.092.279-1.704.465-.279.465-.279 1.239-.217zm-37.556-.015c.604.201.604.201 1.099.944-.046.635-.046.635-.248 1.24-.743.495-.743.495-1.378.449-.604-.202-.604-.202-1.099-.945.046-.635.046-.635.247-1.24.744-.495.744-.495 1.379-.448zm-2.974-.031c.604.232.604.232.96.805.14.666.14.666 0 1.224-.356.433-.356.433-.944.68-.651 0-.651 0-1.239-.402-.403-.588-.403-.588-.387-1.239.33-.837.71-1.09 1.61-1.068zm9.525-16.122c.328 1.582.328 1.582-.016 2.23-.706.364-1.215.183-1.967 0-.328-1.583-.328-1.583.016-2.23.707-.365 1.215-.184 1.967 0zm77.56 16.354c.247.248.247.248.278.976-.031.759-.031.759-.278 1.254-.574.202-.574.202-1.239.248-.573-.356-.573-.356-.992-.743.064-.581.147-1.16.248-1.735.714-.357 1.219-.162 1.983 0zM121.321 4.281l.247.248a44.04 44.04 0 01-.247 1.735c-.697.155-.697.155-1.487.248l-.744-.496c-.063-.763-.097-1.291.248-1.982.901-.3 1.149-.147 1.983.247zm153.942-.294l.682.294c.046.837.046.837 0 1.735-.744.495-.744.495-1.379.433-.604-.185-.604-.185-1.099-.68-.093-.605-.093-.605 0-1.24.625-.746.841-.78 1.796-.542zM169.672 20.202c.712.186.712.186.96.434.058 1.37.058 1.37-.248 1.982-.573.201-.573.201-1.239.248-.573-.279-.573-.279-.991-.744-.126-.72-.098-1.075.279-1.703.464-.279.464-.279 1.239-.217zM272.166 3.863l.557.17c.329 1.583.329 1.583-.015 2.23-.707.365-1.216.184-1.967 0l-.248-1.734c.608-.563.827-.762 1.673-.666zm-148.445-.031c.573.202.573.202.821.697.062.744.062.744 0 1.487-.743.496-.743.496-1.378.434-.604-.186-.604-.186-1.1-.682-.093-.604-.093-.604 0-1.239.561-.623.815-.756 1.657-.697zm92.505 16.556l.248 1.735c-.418.402-.418.402-.991.743-.593-.165-1.046-.303-1.487-.743.077-.868.077-.868.248-1.735.709-.355 1.222-.149 1.982 0z" fill="#fff"/><path d="M190.626 20.326c.573.31.573.31.82.558-.071.58-.153 1.158-.247 1.734-1.35.33-1.35.33-1.952-.03-.376-.628-.404-.985-.278-1.704.583-.67.787-.8 1.657-.558z" fill="#fff"/></svg>