<svg width="208" height="50" fill="none" xmlns="http://www.w3.org/2000/svg"><path d="M23.913 0c.346.148.617.382.905.618.665.533 1.367.98 2.098 1.414l.168.101c2.864 1.729 6.24 2.758 9.55 3.167l.202.026c3.025.34 6.21-.077 8.918-1.502.244-.114.244-.114.509-.114.527 2.02.97 4.036 1.253 6.107l.041.302a44.691 44.691 0 01.143 1.232c.148 1.43.183 2.855.18 4.292 0 .237 0 .475.002.712.045 6.586-1.552 13.02-5.506 18.362l-.117.158a38.655 38.655 0 01-1.738 2.14c-.055.062-.109.126-.165.191a46.71 46.71 0 01-2.366 2.527l-.411.412a24.54 24.54 0 01-1.475 1.374 72.698 72.698 0 01-3.887 3.18l-.189.146c-1.972 1.508-4.072 2.884-6.214 4.137-.225.136-.444.28-.663.425l-.416.262-.179.127c-.195.118-.327.179-.555.204-.388-.119-.715-.32-1.06-.53l-.287-.166a49.407 49.407 0 01-.9-.54l-.162-.1a66.056 66.056 0 01-2.98-1.933l-.22-.15a71.567 71.567 0 01-3.401-2.5l-.182-.14a47.75 47.75 0 01-2.979-2.51 27.56 27.56 0 00-.544-.475c-.467-.406-.896-.851-1.33-1.292-.26-.261-.523-.52-.786-.779-.621-.611-1.231-1.216-1.77-1.903a16.686 16.686 0 00-.52-.623C2.677 31.509.655 25.504.15 19.169l-.016-.18C-.29 13.915.305 8.594 1.74 3.71c.343.062.593.158.9.326 4.173 2.117 9.26 1.544 13.56.182 2.806-.923 5.467-2.284 7.713-4.218z" fill="#0D2D6D"/><path d="M23.825 4.152c.366.146.674.312 1.005.519 4.194 2.552 9.022 3.998 13.935 4.014h.221c1.333.002 2.61-.123 3.92-.381l.26-.051c.208-.042.416-.083.623-.126.206 1.042.382 2.081.503 3.136a58.753 58.753 0 01.116 1.104l.026.262c.095 1.104.084 2.214.084 3.322v.33c-.001 1.6-.043 3.16-.287 4.744l-.047.328c-.21 1.451-.482 2.867-.925 4.265l-.087.276c-1.046 3.27-2.747 6.03-4.948 8.647l-.221.267a32.52 32.52 0 01-2.088 2.236l-.563.561-.365.364-.166.166c-.383.379-.782.736-1.19 1.087l-.29.252a57.28 57.28 0 01-3.83 3.042c-.2.145-.4.292-.598.439-1.337.984-2.731 1.883-4.144 2.755l-.202.125c-.456.278-.456.278-.654.278V24.735h.442l-.138-.1c-.127-.165-.127-.165-.116-.414.077-.281.077-.281.342-.811h2.209c.441.795.441.795.441 1.06l-.176.088h1.59l-.194-.301c-.25-.4-.468-.814-.68-1.235l-.118-.232-.243-.482c-.124-.246-.25-.492-.375-.737l-.236-.47-.115-.222-.103-.208-.091-.181c-.085-.273 0-.455.123-.702h-1.679l.177.265c-.05.503-.308.942-.524 1.391l-.122.26c-.04.081-.078.163-.118.247l-.108.225c-.1.174-.1.174-.276.262V4.152z" fill="#0C4DA1"/><path d="M23.913 0c.346.148.617.382.905.618.665.533 1.367.98 2.098 1.414l.168.101c2.864 1.729 6.24 2.758 9.55 3.167l.202.026c3.025.34 6.21-.077 8.918-1.502.244-.114.244-.114.509-.114.527 2.02.97 4.036 1.253 6.107l.041.302a44.691 44.691 0 01.143 1.232c.148 1.43.183 2.855.18 4.292 0 .237 0 .475.002.712.045 6.586-1.552 13.02-5.506 18.362l-.117.158a38.655 38.655 0 01-1.738 2.14c-.055.062-.109.126-.165.191a46.71 46.71 0 01-2.366 2.527l-.411.412a24.54 24.54 0 01-1.475 1.374 72.698 72.698 0 01-3.887 3.18l-.189.146c-1.972 1.508-4.072 2.884-6.214 4.137-.225.136-.444.28-.663.425l-.416.262-.179.127c-.195.118-.327.179-.555.204-.388-.119-.715-.32-1.06-.53l-.287-.166a49.407 49.407 0 01-.9-.54l-.162-.1a66.056 66.056 0 01-2.98-1.933l-.22-.15a71.567 71.567 0 01-3.401-2.5l-.182-.14a47.75 47.75 0 01-2.979-2.51 27.56 27.56 0 00-.544-.475c-.467-.406-.896-.851-1.33-1.292-.26-.261-.523-.52-.786-.779-.621-.611-1.231-1.216-1.77-1.903a16.686 16.686 0 00-.52-.623C2.677 31.509.655 25.504.15 19.169l-.016-.18C-.29 13.915.305 8.594 1.74 3.71c.343.062.593.158.9.326 4.173 2.117 9.26 1.544 13.56.182 2.806-.923 5.467-2.284 7.713-4.218zm0 3.357a7.22 7.22 0 00-.53.359c-2.04 1.425-4.441 2.416-6.802 3.174l-.188.061c-3.888 1.23-8.025 1.452-12.003.558l-.257-.056-.538-.12c-.652 2.831-.82 5.682-.823 8.578v.525c-.004 1.92.07 3.825.398 5.72l.057.335c.677 3.803 2.07 7.33 4.343 10.46l.107.147a35.07 35.07 0 001.609 2.034c.496.593.999 1.167 1.554 1.707.16.16.306.326.451.5.455.53.984.99 1.498 1.462.16.147.318.295.477.444a31.103 31.103 0 001.813 1.568l.325.267c2.244 1.844 4.636 3.502 7.11 5.02a109.666 109.666 0 011.065.692c.294.139.382.114.687.028.202-.096.202-.096.4-.22l.236-.142.253-.157.267-.164c3.384-2.102 6.617-4.496 9.54-7.205.174-.161.35-.322.526-.482.778-.705 1.542-1.424 2.224-2.225.188-.216.383-.425.578-.635.51-.562.976-1.152 1.436-1.756l.146-.19a27.69 27.69 0 002.15-3.255l.12-.211c2.42-4.293 3.078-9.323 3.088-14.178l.001-.323a43.318 43.318 0 00-.382-5.783l-.04-.307a23.97 23.97 0 00-.401-2.255c-.47.06-.925.153-1.386.26-5.84 1.32-12.497-.184-17.556-3.307-.334-.212-.664-.43-.993-.65-.279-.196-.279-.196-.56-.278z" fill="#D8A628"/><path d="M29.037 19.788a210.7 210.7 0 011.466-.015l.497-.005.72-.006.221-.004c.73 0 1.366.165 1.91.67.542.63.607 1.33.598 2.133-.048.643-.24 1.108-.714 1.55-.583.49-1.125.574-1.86.561h-.247l-.775-.009-.528-.004c-.43-.002-.859-.007-1.288-.012l.176-.265c.026-.202.026-.202.02-.428v-.262l-.002-.283-.001-.29-.006-.918-.002-.622c-.002-.509-.005-1.018-.009-1.526l-.176-.088v-.177z" fill="#D5A52A"/><path d="M11.28 19.788c.554-.009 1.107-.015 1.66-.02.188-.001.376-.003.564-.007.27-.004.542-.006.813-.007l.252-.006c.54 0 .943.086 1.393.393.334.334.378.61.392 1.066 0 .404-.068.636-.303.966-.318.309-.54.382-.972.442l.464.679.131.193c.28.408.556.81.907 1.16h-1.767l.088-.354c-.076-.174-.076-.174-.204-.337l-.133-.188-.143-.192a88.187 88.187 0 01-.276-.382l-.125-.17c-.09-.144-.09-.144-.09-.32h-1.326v1.766h.177v.177H11.28l.089-.177a8.94 8.94 0 00.018-.434l.005-.273.005-.296.005-.302.016-.959.012-.648.027-1.593h-.177v-.177z" fill="#D1A22A"/><path d="M39.195 19.788h1.767v.177l-.177.088c.059.273.152.5.279.748l.118.234.128.25c.352.695.697 1.393 1.032 2.097l.114.239.105.22.092.194c.076.17.076.17.164.435l.265.088v.089h-1.767v-.177h.177a262.361 262.361 0 00-.176-.43l-.1-.243c-.077-.21-.077-.21-.077-.387l-2.209.088c-.265.487-.265.487-.265.972l.089.177h-1.59l.306-.569a71.31 71.31 0 001.062-2.068l.193-.384a47.6 47.6 0 00.283-.568c.03-.056.058-.113.088-.171.215-.446.177-.558.1-1.099z" fill="#D5A52A"/><path d="M24.796 19.788h1.679l-.088.53c.059.22.059.22.172.43l.12.243.134.259a89.466 89.466 0 00.42.83c.147.286.291.573.436.86l.276.546.131.26.124.241.109.212c.116.211.116.211.374.448h-1.855l.089-.177h.176l-.442-.972-2.208-.088-.265.795-.088.265.265.088v.089h-1.679l.354-.442c.1-.183.193-.369.283-.557l.077-.16a94.71 94.71 0 00.408-.858l.245-.517c.145-.306.293-.611.445-.915l.09-.182c.074-.15.149-.298.224-.446.118-.293.118-.293-.006-.782z" fill="#D4A42A"/><path d="M7.04 19.788h1.68l-.089.53c.083.226.167.417.279.627l.091.179a178.585 178.585 0 01.483.934c.124.243.25.486.376.729.124.24.245.48.363.722l.085.174.229.47c.103.238.103.238.303.317v.177H9.072l.088-.177h.177l-.442-.972-2.208-.088-.177.53-.177.53.265.088v.089H4.92l.088-.177h.177l.063-.213c.143-.399.33-.766.52-1.142l.242-.483c.126-.252.252-.504.38-.756.123-.243.245-.488.367-.733l.117-.226.105-.215.094-.186c.085-.25.085-.25-.033-.728zm14.83.464c.275.183.275.183.63.154a2.976 2.976 0 01-.619 1.06h-.177l-.093-.199c-.257-.364-.538-.488-.967-.596-.679-.064-1.256-.093-1.855.265-.344.305-.583.556-.65 1.017-.015.596.056 1.014.474 1.457.532.409 1.111.516 1.766.441.445-.125.852-.273 1.237-.53.03-.087.058-.175.088-.265.328.128.438.276.597.585l.114.22.085.167-.332.105a4.68 4.68 0 00-.693.276c-.873.433-1.849.476-2.794.26-.665-.245-1.128-.64-1.482-1.26a3.472 3.472 0 01-.102-2.19c.356-.696.96-1.183 1.692-1.431 1.113-.276 2.107-.11 3.081.463z" fill="#D4A429"/><path d="M30.362 20.671l1.032-.016.324-.008.257-.002.262-.004c.413.05.631.228.89.544.281.534.23 1.237.105 1.811-.134.357-.344.566-.662.767-.268.087-.512.099-.793.097h-.226l-.284-.003-.905-.006v-3.18z" fill="#0C4DA1"/><path d="M35.132 19.788h1.59v.177l-.177.088a467.588 467.588 0 00-.013 2.46l-.004.896-.003.283v.262l-.001.232c.009.221.009.221.198.46h-1.59l.088-.176h.177l-.088-4.417-.177-.088v-.177z" fill="#D7A628"/><path d="M12.605 20.671c.393-.007.784-.012 1.176-.016l.338-.007.324-.003.299-.004c.249.03.249.03.413.145.17.253.132.475.1.769-.1.15-.1.15-.264.265-.25.03-.25.03-.548.026l-.323-.003-.338-.007-.342-.003-.835-.013v-1.15z" fill="#0E2D6D"/><path d="M39.99 21.113c.24.291.391.597.547.938l.142.308c.107.256.107.256.107.432h-1.502a3.86 3.86 0 01.403-1.087l.088-.173.216-.418z" fill="#1C5498"/><path d="M7.747 21.113h.176l.31.695.089.2a1435.482 1435.482 0 00.163.368c.057.15.057.15.057.327H7.128c.08-.399.187-.68.36-1.044l.146-.31.113-.236z" fill="#14316B"/><path d="M25.503 21.113h.177l.309.695.09.2.084.192.078.176c.057.15.057.15.057.327h-1.413c.174-.548.375-1.069.618-1.59z" fill="#12509D"/><path d="M60.118 3.008h.465v43.984h-.465V3.008zm101.123 33.973c1.245.89 1.976 2.016 2.324 3.501.272 1.673.091 3.302-.818 4.755-.914 1.257-2.077 2.017-3.6 2.352-1.993.174-3.742.071-5.402-1.133-1.265-1.062-1.885-2.333-2.032-3.978-.115-1.686.341-3.313 1.394-4.646 2.115-2.071 5.629-2.348 8.134-.85zm-6.092 2.516c-.719 1.067-.968 2.05-.742 3.33.29 1.11.98 1.714 1.931 2.31.903.351 2.143.282 3.031-.094.825-.486 1.339-1.366 1.636-2.255.086-1.024.102-2.053-.465-2.943-.685-.75-1.386-1.313-2.418-1.446-1.267-.018-2.06.205-2.973 1.098zm-6.07-2.093c1.094.961 1.71 2.404 1.859 3.835.092 1.825-.332 3.478-1.574 4.852-1.512 1.377-3.179 1.587-5.134 1.546-1.571-.075-2.877-.73-3.934-1.889-1.133-1.415-1.429-3.04-1.283-4.819.322-1.665.986-2.929 2.372-3.93 2.414-1.456 5.423-1.208 7.694.405zm-6.939 2.476c-.589.88-.627 1.882-.494 2.908.35 1.103.862 1.75 1.859 2.323.888.296 1.973.34 2.858.014.856-.51 1.472-1.149 1.836-2.086.239-1.26.155-2.262-.558-3.342-.516-.657-.992-1.017-1.813-1.246-1.574-.188-2.706.164-3.688 1.43zm-24.654-21.872c6.949 0 6.949 0 8.424 1.296l.249.253.263.263c1.119 1.208 1.345 2.554 1.329 4.163a5.535 5.535 0 01-1.592 3.472c-2.527 2.098-5.44 1.55-8.673 1.55V18.007zm2.633 2.323v6.35c2.129.023 2.129.023 4.007-.726.68-.74.986-1.438 1.026-2.449-.04-.936-.262-1.66-.936-2.328-1.249-.983-2.522-.847-4.097-.847zm29.426-2.323c6.473 0 6.473 0 7.588.93.57.667.64 1.47.62 2.323-.255.913-.655 1.316-1.394 1.858l.464.31c.749.545 1.115.944 1.394 1.858.124.873-.021 1.55-.464 2.323-.789.957-1.531 1.051-2.788 1.394h-5.42V18.008zm2.477 2.168v2.169a59.2 59.2 0 001.114.038l.316.016c.561.011.87-.04 1.351-.337.359-.32.359-.32.394-.811-.083-.49-.148-.632-.542-.92-.474-.237-.97-.17-1.49-.164l-.332.002-.811.007zm0 4.337v2.323c.449.017.897.029 1.346.039l.383.015c.638.01.971 0 1.526-.343.362-.389.475-.572.462-1.105-.327-.515-.499-.734-1.084-.93a9.259 9.259 0 00-.621-.014l-.355.001-.369.004a566.174 566.174 0 00-1.288.01zm7.434-6.505c6.447 0 6.447 0 7.589.93.586.585.838 1.196.929 2.013 0 .995-.101 1.956-.835 2.695a5.647 5.647 0 01-1.333.867l.228.379a2841.744 2841.744 0 011.708 2.857l.315.526c.227.42.227.42.227.73h-2.943l-.909-1.646-.261-.47-.251-.456-.231-.418a8.998 8.998 0 01-.516-1.347h-1.084v4.336h-2.633V18.008zm2.633 2.168V22.5l1.113.029.346.012c.68.009 1.11-.073 1.639-.506.193-.527.193-.527.154-1.084-.285-.374-.511-.566-.929-.775a29.416 29.416 0 00-1.181-.01l-1.142.01zm-76.352-2.168c6.447 0 6.447 0 7.59.93.585.585.837 1.196.928 2.013 0 .995-.101 1.956-.835 2.695a5.659 5.659 0 01-1.333.867l.227.379a698.751 698.751 0 011.192 1.992 270.28 270.28 0 01.832 1.391c.227.42.227.42.227.73h-2.942a586.12 586.12 0 01-.91-1.646l-.261-.47-.251-.456-.231-.418c-.217-.44-.37-.88-.516-1.347H88.37v4.336h-2.633V18.008zm2.633 2.168V22.5l1.113.029.346.012c.68.009 1.11-.073 1.639-.506.193-.527.193-.527.154-1.084-.285-.374-.511-.566-.929-.775a29.43 29.43 0 00-1.18-.01l-1.143.01zm3.717-17.81l.005.287a1809.206 1809.206 0 00.072 4.048 692.405 692.405 0 00.037 2.08l.01.46.007.407c-.01.307-.01.307.179.462.92.05 1.84.102 2.787.155v-7.28l1.55-.31.154 4.182.774-.774c1.092-.83 2.214-1.086 3.563-.93 1.055.247 1.709.648 2.305 1.557.652 1.142.66 2.27.637 3.555a307.279 307.279 0 001.457-.087c.475-.03.877-.072 1.331-.223.337-.492.356-.941.374-1.527l.018-.523.014-.544.018-.551c.015-.449.028-.898.04-1.346l1.394-.31c.016.667.027 1.333.034 2 .003.227.008.453.013.68.008.326.011.653.014.98l.01.595c-.1.77-.432 1.249-1.01 1.756-.47.288-.862.358-1.402.362l-.393.005c-.141 0-.283 0-.429.002l-.453.003-1.488.009-.513.002c-.896.005-1.791.008-2.687.01-.926.002-1.851.01-2.776.017-.712.005-1.423.007-2.135.008-.341.001-.682.003-1.023.007-.478.005-.955.005-1.433.004l-.426.008c-.664-.007-1.112-.042-1.643-.462-.5-.54-.554-.903-.552-1.61v-.451l.002-.486v-.498l.006-1.576.002-1.068c.001-.874.004-1.747.007-2.62l.6-.233.338-.13c.301-.102.301-.102.611-.102zm5.11 6.35c-.295.514-.464.946-.464 1.549a1046.608 1046.608 0 003.359.011l1.224.004.388.002c.305 0 .61-.008.914-.017.195-.16.195-.16.158-.5-.082-1.126-.245-2.098-1.097-2.898-1.912-1.049-3.38.37-4.481 1.849zm98.809 9.292h2.633v4.027h4.491v-4.027h2.478v10.996h-2.478v-4.646h-4.491v4.646h-2.633V18.008zm-67.989 18.43h2.478v4.027h4.492v-4.027h2.632v10.996h-2.632v-4.801h-4.492v4.8h-2.478V36.439zm9.138-18.43h2.168a58.458 58.458 0 011.704 3.678l.26.605.405.941c.331.768.664 1.536.998 2.303l.281.646a363.18 363.18 0 00.783 1.8l.217.498c.153.37.153.37.153.525h-2.943c-.774-1.8-.774-1.8-.774-2.323l-4.181.155-.378.997c-.377.997-.377.997-.552 1.171a8.735 8.735 0 01-.625.015l-.379-.001-.399-.004-.401-.002-.983-.008c.692-1.896 1.513-3.737 2.323-5.585l.822-1.883.196-.45c.446-1.021.881-2.046 1.305-3.078zm.929 3.562l-.542 1.384-.157.4-.148.379-.138.351c-.108.25-.108.25-.099.429h2.478a230.95 230.95 0 00-.523-1.384l-.149-.4-.145-.379-.133-.351c-.114-.303-.114-.303-.444-.429zm-27.852-3.577l.604.006c.2 0 .4.002.606.004l.469.005c2.69 6.11 2.69 6.11 3.891 8.896l.235.543.211.492.182.423c.127.332.127.332.127.642h-2.788c-.755-1.645-.755-1.645-.929-2.168l-4.182-.155-.464 1.549-.31.774h-2.788c.106-.53.18-.883.387-1.353l.144-.327.155-.35.163-.37.526-1.191.72-1.639.18-.41a238.976 238.976 0 001.921-4.517l.163-.393c.216-.474.216-.444.777-.46zm.44 3.422a326.9 326.9 0 00-.542 1.375l-.157.395-.148.378-.138.349c-.116.289-.116.289-.099.6h2.323a27.74 27.74 0 00-1.084-3.097h-.155zm-32.189-3.422a2233.264 2233.264 0 001.21.01l.469.005c2.69 6.11 2.69 6.11 3.891 8.896l.236.543.21.492.183.423c.126.332.126.332.126.642H82.02c-.755-1.645-.755-1.645-.929-2.168l-4.181-.155-.465 1.549-.31.774h-2.787c.106-.53.18-.883.387-1.353l.143-.327.156-.35.162-.37.526-1.191.72-1.639.18-.41a238.162 238.162 0 001.922-4.517l.163-.393c.215-.474.215-.444.776-.46zm.44 3.422a326.9 326.9 0 00-.542 1.375l-.157.395-.148.378-.138.349c-.116.289-.116.289-.1.6h2.324a27.46 27.46 0 00-1.084-3.097h-.155zm91.201-16.276l.548.001.574.004.578.002 1.416.008.004.405c.007.496.017.992.028 1.488.004.215.008.43.01.644.003.309.011.618.018.926l.01.563c.042.474.042.474.363.757.519.263 1.048.261 1.619.28l1.2.048V6.703c.929-.31.929-.31 1.549-.31v3.872h2.633V6.083c.774-.31.774-.31 1.394-.31v4.492c1.563-.038 1.563-.038 2.323-.465.207-.415.188-.756.204-1.22l.019-.548.019-.574.02-.578.047-1.416c.561-.204.944-.31 1.549-.31.016.617.027 1.234.034 1.85.005.312.013.624.021.936.022 2.22.022 2.22-.674 2.944-.781.516-1.277.697-2.233.697l-.331.003c-.357.002-.715 0-1.072-.004l-.75.001c-.523 0-1.045-.002-1.568-.005a191.65 191.65 0 00-2.006-.002c-.516 0-1.032 0-1.548-.002h-.74c-.344 0-.689-.002-1.034-.006l-.593-.002c-.553-.065-.829-.229-1.289-.525-.419.1-.419.1-.775.31-.72.36-1.694.218-2.478.155-.77-.346-1.144-.814-1.548-1.55-.317-1.265-.326-2.703.309-3.87.65-.726 1.197-.95 2.15-.945zm-.734 1.459c-.372.546-.362 1.07-.37 1.711l-.012.527c.056.556.167.84.515 1.274.408.185.795.2 1.239.155.539-.322.73-.487.929-1.084.013-.219.017-.437.015-.656l-.001-.376-.004-.391-.002-.397-.008-.968a63.211 63.211 0 00-.977-.03l-.55-.016c-.479.004-.479.004-.774.25zm-54.072 30.15l.619.62-1.703 1.858-.542-.31c-.799-.4-1.445-.408-2.323-.232l-.233.077c-.132.434-.132.434-.155.93.554.763 1.394.915 2.252 1.18.943.307 1.707.714 2.375 1.471.419 1.072.446 2.163.02 3.233-.581 1.157-1.458 1.622-2.633 2.014-3.317.203-3.317.203-4.601-.833-.22-.213-.22-.213-.51-.561 1.282-1.484 1.282-1.484 1.704-1.859h.309v.31l.368.145c.407.165.407.165.716.32.357.036.357.036.755.039l.406.012c.467-.062.675-.185 1.008-.516.051-.484.051-.484 0-.93a18.51 18.51 0 00-2.265-1.006c-.932-.354-1.576-.665-2.285-1.374-.427-.952-.444-2.074-.149-3.079.466-.901 1.298-1.584 2.23-1.954 1.536-.438 3.23-.328 4.637.445zm78.513-18.416c.215.141.422.294.626.45-.475.78-1.042 1.386-1.703 2.014l-.291-.223c-.666-.333-1.29-.417-2.032-.397-.489.19-.682.311-.949.755-.011.37-.011.37.336.712.509.435.978.614 1.61.789 1.069.303 2.019.732 2.723 1.633.434.838.395 1.844.142 2.732-.395.989-.958 1.656-1.926 2.11a6.106 6.106 0 01-4.259.097c-.547-.267-1.078-.543-1.549-.93 0-.633.248-.803.668-1.267l.375-.423c.351-.323.351-.323.815-.323.206.15.206.15.417.3.679.424 1.278.565 2.072.414a12.3 12.3 0 00.764-.249v-1.394l-.388-.128a506.784 506.784 0 01-.833-.28c-2.733-.93-2.733-.93-3.447-2.032-.335-.872-.309-2.04.013-2.911 1.385-2.308 4.562-2.707 6.816-1.45zm-89.906.131c.364.293.592.563.862.939-.248.23-.497.459-.746.687l-.419.387c-.384.32-.384.32-.849.475a19.876 19.876 0 01-.929-.62c-.756-.252-1.354-.218-2.11.03-.88.471-1.41 1.05-1.762 1.984-.292 1.298-.08 2.38.552 3.542.643.56 1.412.91 2.27.974.747-.06 1.241-.352 1.824-.8l.465-.31c.311.222.62.444.929.669l.269.19c.229.167.446.35.66.536 0 .464 0 .464-.227.73-1.325 1.163-2.502 1.434-4.264 1.438-1.467-.1-2.993-.732-4.017-1.8-1.272-1.663-1.49-3.448-1.249-5.48a5.432 5.432 0 01.62-1.548l.271-.494c1.91-2.387 5.162-3.044 7.85-1.529zm21.46 18.13c.441.334.846.693 1.239 1.084-.59.607-1.211 1.16-1.859 1.703l-.436-.3c-.782-.506-1.442-.58-2.352-.474-.811.262-1.421.649-1.858 1.394-.442 1.033-.604 2-.31 3.097.402.896.969 1.569 1.859 2.014 1.109.112 1.883.049 2.787-.62l.155-.31c.603.216 1.079.498 1.597.872l.415.296.311.226c-.307.575-.584.915-1.132 1.268l-.347.23c-1.376.748-3.096.713-4.608.415-1.506-.497-2.543-1.381-3.33-2.745-.705-1.553-.783-3.575-.272-5.208.662-1.5 1.756-2.406 3.216-3.088 1.442-.546 3.548-.63 4.925.146zM75.498 5.139l.547.001.574.004.578.002 1.416.008.005.405c.006.496.016.992.027 1.488.005.215.008.43.01.644.004.309.011.618.019.926l.01.563c.042.475.042.475.365.758.503.256.94.233 1.5.23l.615.003c.562-.063.787-.115 1.166-.526.159-.484.184-.952.204-1.46l.02-.48.018-.5.02-.505.048-1.236c.522-.232.806-.31 1.394-.31l.004.388c.008.58.021 1.16.034 1.741l.007.611.015.587.01.54c.102.565.248.75.704 1.089a7.18 7.18 0 001.24.077l.333.007c.509-.003.834-.03 1.245-.34.354-.46.363-.728.374-1.305l.015-.545.007-.566.014-.573c.01-.467.019-.934.024-1.401l1.394-.31c.016.667.027 1.333.034 2 .003.227.008.453.013.68.007.326.011.653.014.98l.01.595c-.1.77-.433 1.249-1.01 1.756-.778.477-1.634.373-2.516.377l-.485.01c-1.218.006-1.218.006-1.845-.312l-.41-.201c-.31.153-.62.308-.929.465-.623.072-1.242.064-1.868.058l-.505.005-.488-.002-.441-.001c-.487-.07-.775-.27-1.19-.525-.417.1-.417.1-.773.31-.72.36-1.695.218-2.478.155-.771-.346-1.144-.814-1.55-1.55-.293-1.159-.337-2.499.147-3.61.561-.895 1.296-1.21 2.314-1.205zm-.818 1.576c-.303.55-.326.91-.316 1.536v.562c.072.56.18.858.532 1.297.409.185.795.2 1.24.155.538-.322.73-.487.928-1.085.013-.218.017-.436.016-.655l-.002-.376-.004-.391-.002-.397-.008-.968a36.648 36.648 0 00-.967-.049l-.545-.027c-.518.033-.518.033-.872.398zm50.24-4.349c.011.945.02 1.89.025 2.835l.01.963c.006.463.008.926.01 1.39l.008.43c0 .978-.061 2.078-.743 2.842-.887.757-1.551.71-2.669.716l-.461.01c-1.264.007-1.264.007-1.884-.312l-.491-.201c-.312.15-.621.306-.929.465-.614.06-1.223.043-1.839.029l-.502-.007a121.27 121.27 0 01-1.221-.022l-.049.5c-.154.846-.531 1.29-1.19 1.823-.98.506-2.034.592-3.098.31-.627-.419-.821-1.02-1.084-1.704l.256.068c1.006.247 2 .457 2.987.058.444-.39.598-.767.661-1.358.019-.365.027-.729.032-1.094l.009-.403.024-1.269.018-.862c.015-.703.028-1.406.04-2.11l1.394-.31v5.112l1.432-.068.449-.02a860.06 860.06 0 00.721-.035c.334-.032.637-.097.96-.187.15-.513.185-.994.204-1.527l.019-.523.019-.544.02-.551.048-1.346 1.393-.31.01.374c.014.56.031 1.119.048 1.678l.015.589.018.565.015.521c.048.444.105.71.359 1.074.516.172.918.18 1.462.184l.531.006c.467-.034.726-.076 1.104-.345.14-.42.178-.682.187-1.114l.009-.395.008-.424.01-.435.028-1.378.021-.934.047-2.29.6-.232.338-.13c.301-.102.301-.102.611-.102zm21.837 0l.005.287c.016.982.034 1.965.053 2.947l.019 1.1.029 1.58.008.5.009.46.007.408c-.009.307-.009.307.18.462.242.019.485.027.728.032l.47.009.511.008.52.01 1.652.028 1.117.02 2.745.048c-.04-.294-.082-.588-.126-.881l-.07-.496c-.184-.784-.514-1.294-1.198-1.72-.729-.244-1.471-.299-2.203-.028-.305.154-.599.319-.894.492-.206.104-.412.208-.62.31l-.929-.775a9.068 9.068 0 011.375-1.71l.433-.427.447-.438c.295-.288.588-.578.882-.867l.393-.385c.345-.339.345-.339.59-.707.217-.267.217-.267.702-.327l.55.021.554.017.424.022c-.221.505-.491.837-.882 1.222l-.336.333-.35.342-.354.35c-.288.284-.577.568-.866.85.124.016.247.03.374.047 1.212.17 2.008.405 2.84 1.338.486.661.689 1.227.755 2.042l.035.398c.021.467.025.929.024 1.396v.465l-.001.355a722.77 722.77 0 01-3.898.032c-.603.003-1.206.007-1.809.014-.583.007-1.165.01-1.748.012l-.666.007c-.311.005-.622.005-.934.005l-.536.004c-.591-.092-.836-.267-1.25-.694-.276-.52-.348-.946-.345-1.53v-.442l.005-.47.001-.486c.002-.512.006-1.023.01-1.534l.004-1.042c.003-.85.009-1.7.015-2.55l.6-.232.338-.13c.301-.102.301-.102.611-.102zm50.247 2.941c.541.322 1.032.672 1.325 1.24.176.797.173 1.571.165 2.382l-.002.39-.008.946c.374-.018.749-.038 1.123-.058l.32-.015c.799-.044.799-.044 1.5-.392.151-.453.192-.859.231-1.332.089-.987.172-1.792.91-2.514.902-.643 1.807-.576 2.885-.49.74.246 1.137.577 1.549 1.239.476 1.284.391 2.472-.155 3.716-.397.623-.698.86-1.394 1.085-1.126.108-1.935.051-2.942-.465l-.363.217c-.853.373-1.668.305-2.588.293l-.59-.002c-.515-.002-1.03-.006-1.545-.011-.526-.005-1.052-.007-1.579-.01a678.103 678.103 0 01-3.092-.022c.364-.947.364-.947.774-1.24.366-.052.366-.052.791-.045l.461.005.481.012.486.006c.396.005.792.013 1.188.023a95.043 95.043 0 00-.038-1.51 58.144 58.144 0 01-.007-.432c-.023-.833-.023-.833-.394-1.56-.502-.322-.834-.296-1.419-.215-.558.311-.941.631-1.394 1.084V5.773c.998-.725 2.145-.942 3.321-.466zm6.62 1.696c-.443.62-.54 1.112-.494 1.868.16.642.365 1.018.929 1.394.458.077.458.077.93 0 .441-.346.596-.55.774-1.084.082-.842.078-1.48-.465-2.169-.289-.35-.289-.35-.745-.377-.513.032-.513.032-.929.368zM172.93 18.008h8.673v2.323h-3.097v8.673h-2.478v-8.673h-3.098v-2.323zm-7.743 18.43h2.632v8.673h4.337v2.323h-6.969V36.438zm17.5-18.43h2.478v10.996h-2.478V18.008zm-13.319 0h2.478v10.996h-2.478V18.008zm-40.267 0h2.478v10.996h-2.478V18.008zm3.098-15.642l.005.287c.016.982.034 1.965.053 2.947l.019 1.1.029 1.58.008.5.009.46.007.408c-.009.307-.009.307.18.462.43.015.856.021 1.287.02h1.036a4.39 4.39 0 00.929-.175 9.032 9.032 0 00.204-1.663l.019-.5.019-.518.02-.527.048-1.283 1.394-.31c.011.645.019 1.29.025 1.934.002.219.006.438.01.657.005.316.008.632.01.948l.007.575c-.078.785-.327 1.286-.904 1.82-.865.583-1.829.462-2.836.474l-.552.017c-1.505.015-1.505.015-2.073-.437-.46-.547-.521-.922-.519-1.613v-.45l.002-.486.001-.498.004-1.576.003-1.068c.001-.874.004-1.747.007-2.62l.6-.233.338-.13c.301-.102.301-.102.611-.102zm10.754 2.962c.657.481 1.187 1.008 1.326 1.84.012.335.017.672.015 1.008l-.001.53-.004.668-.01 2.13h-5.73c.449-.899.449-.899.774-1.24.365-.07.365-.07.791-.06l.461.006.481.016.486.008c.396.008.792.018 1.188.03a95.038 95.038 0 00-.039-1.51l-.006-.431c-.023-.833-.023-.833-.394-1.56-.502-.323-.834-.296-1.419-.215-.558.31-.941.631-1.394 1.084V5.773c1.072-.78 2.216-.857 3.475-.445zm48.717-.174c.015.948.026 1.895.034 2.843l.012.966c.008.465.011.93.014 1.394l.01.432c0 1.19-.29 2-1.116 2.863-.951.622-1.832.724-2.939.578-.554-.147-.799-.408-1.126-.868-.203-.513-.203-.513-.31-.93l.256.069c.929.228 1.935.455 2.863.123.355-.235.436-.42.598-.81.05-.319.05-.319.049-.654l.01-.385.005-.411.009-.425c.009-.446.017-.893.024-1.34l.018-.909c.015-.742.028-1.484.04-2.226.561-.204.944-.31 1.549-.31zm-29.891 0c.008.86.014 1.719.017 2.579l.007.876c.004.42.005.842.007 1.264l.004.39c.001 1.297-.2 2.441-1.119 3.409-.941.672-2.13.683-3.242.542-.666-.326-.798-.643-1.094-1.317v-.464l.523.155c.942.23 1.879.383 2.739-.126.407-.46.473-.832.487-1.425l.009-.376.008-.403.01-.415.028-1.311.02-.889c.017-.726.032-1.453.048-2.18.56-.203.944-.31 1.548-.31zm2.478-2.788v9.138h-1.548V2.83c1.239-.465 1.239-.465 1.548-.465zm-36.859 0v9.138h-1.549V2.83c1.239-.465 1.239-.465 1.549-.465zm-19.495 10.26c.446.117.446.117.6.271.039.533.039.533 0 1.085-.464.31-.464.31-.861.27-.377-.116-.377-.116-.687-.425-.057-.44-.056-.683.174-1.065.29-.174.29-.174.774-.136zm-23.473-.009c.378.126.378.126.688.59-.03.397-.03.397-.155.774-.465.31-.465.31-.861.281-.378-.126-.378-.126-.688-.59.03-.397.03-.397.155-.775.465-.31.465-.31.862-.28zm-1.858-.02c.378.146.378.146.6.504.087.416.087.416 0 .764-.222.271-.222.271-.59.426-.407 0-.407 0-.774-.251-.252-.368-.252-.368-.243-.775.207-.523.444-.681 1.007-.668zm5.953-10.076c.205.99.205.99-.01 1.394-.441.228-.76.115-1.229 0-.205-.99-.205-.99.01-1.394.441-.228.76-.115 1.23 0zM137 12.743c.155.155.155.155.174.61-.019.474-.019.474-.174.783-.358.126-.358.126-.774.155-.359-.222-.359-.222-.62-.464.04-.363.092-.725.155-1.084.446-.224.762-.102 1.239 0zM75.826 2.676l.154.155a27.48 27.48 0 01-.154 1.084c-.436.097-.436.097-.93.155l-.464-.31c-.04-.477-.061-.807.155-1.239.563-.188.718-.092 1.239.155zm96.214-.184l.426.184c.029.523.029.523 0 1.084-.465.31-.465.31-.862.271-.377-.116-.377-.116-.687-.426-.058-.377-.058-.377 0-.774.391-.467.526-.488 1.123-.339zm-65.995 10.134c.445.117.445.117.6.271.036.857.036.857-.155 1.24-.358.125-.358.125-.774.154-.358-.174-.358-.174-.62-.464-.078-.45-.061-.673.175-1.065.29-.174.29-.174.774-.136zm64.059-10.211l.348.106c.206.99.206.99-.009 1.394-.442.228-.76.115-1.23 0l-.155-1.084c.381-.352.517-.477 1.046-.416zm-92.778-.02c.358.126.358.126.513.436.039.464.039.464 0 .929-.465.31-.465.31-.862.271-.377-.116-.377-.116-.687-.426-.058-.377-.058-.377 0-.774.35-.39.51-.473 1.036-.436zm57.815 10.348l.155 1.084c-.261.251-.261.251-.619.464-.371-.103-.654-.189-.929-.464.048-.542.048-.542.154-1.084.444-.222.765-.093 1.239 0z" fill="#fff"/><path d="M119.141 12.704c.358.194.358.194.513.348-.044.363-.096.724-.155 1.084-.843.207-.843.207-1.219-.019-.236-.392-.253-.615-.174-1.065.364-.418.492-.5 1.035-.348z" fill="#fff"/></svg>