<svg width="273" height="48" fill="none" xmlns="http://www.w3.org/2000/svg"><mask id="a" style="mask-type:alpha" maskUnits="userSpaceOnUse" x="0" y="0" width="273" height="48"><path fill="#D9D9D9" d="M0 0h273v48H0z"/></mask><g mask="url(#a)"><path d="M-.08 1.503l275.478.494-13.182 9.091-.13.09-.055.149-7.239 19.605a19.5 19.5 0 01-18.043 12.744L39.847 46.195c-13.084.167-23.99-9.976-24.77-23.038L14.5 13.47l-.013-.22-.172-.14L-.08 1.504z" fill="#fff" stroke="url(#paint0_linear_376_538)"/><path d="M-476 4H-2v0c9.389 0 17 7.611 17 17v3.25c0 11.184 9.066 20.25 20.25 20.25H238c11.046 0 20-8.954 20-20V21c0-9.113 7.387-16.5 16.5-16.5v0h521" stroke="url(#paint1_linear_376_538)" stroke-width="6"/></g><defs><linearGradient id="paint0_linear_376_538" x1="-1.5" y1="22.5" x2="277" y2="22.5" gradientUnits="userSpaceOnUse"><stop stop-color="#041841" stop-opacity="0"/><stop offset=".383" stop-color="#fff"/><stop offset=".478" stop-color="#fff"/><stop offset=".588" stop-color="#fff"/><stop offset="1" stop-color="#041841" stop-opacity="0"/></linearGradient><linearGradient id="paint1_linear_376_538" x1="-476" y1="24.25" x2="795.5" y2="24.25" gradientUnits="userSpaceOnUse"><stop stop-color="#041942"/><stop offset=".086" stop-color="#061C4A"/><stop offset=".383" stop-color="#fff"/><stop offset=".478" stop-color="#fff"/><stop offset=".588" stop-color="#fff"/><stop offset=".882" stop-color="#051B46"/><stop offset="1" stop-color="#051941"/></linearGradient></defs></svg>