<svg width="1280" height="55" fill="none" xmlns="http://www.w3.org/2000/svg"><g filter="url(#filter0_d_994_30)"><path d="M479.92.503l275.478.494-13.182 9.091-.13.09-.055.149-7.239 19.605a19.5 19.5 0 01-18.043 12.744l-196.902 2.519c-13.084.167-23.99-9.976-24.77-23.038l-.578-9.687-.013-.22-.172-.14L479.92.504z" fill="#fff" stroke="url(#paint0_linear_994_30)"/><path d="M4 3h474v0c9.389 0 17 7.611 17 17v3.25c0 11.184 9.066 20.25 20.25 20.25H718c11.046 0 20-8.954 20-20V20c0-9.113 7.387-16.5 16.5-16.5v0h521" stroke="url(#paint1_linear_994_30)" stroke-width="6"/></g><path d="M530.287 27.34h-5.56l-.92 2.66h-2.94l5.02-13.98h3.26l5.02 13.98h-2.96l-.92-2.66zm-.76-2.24l-2.02-5.84-2.02 5.84h4.04zm6.196-.68c0-1.12.22-2.113.66-2.98.454-.867 1.067-1.533 1.84-2a4.9 4.9 0 012.58-.7c.72 0 1.407.16 2.06.48.654.307 1.174.72 1.56 1.24V15.2h2.84V30h-2.84v-1.64c-.346.547-.833.987-1.46 1.32-.626.333-1.353.5-2.18.5-.933 0-1.786-.24-2.56-.72-.773-.48-1.386-1.153-1.84-2.02-.44-.88-.66-1.887-.66-3.02zm8.72.04c0-.68-.133-1.26-.4-1.74a2.728 2.728 0 00-1.08-1.12 2.83 2.83 0 00-1.46-.4c-.52 0-1 .127-1.44.38-.44.253-.8.627-1.08 1.12-.266.48-.4 1.053-.4 1.72s.134 1.253.4 1.76c.28.493.64.873 1.08 1.14.454.267.934.4 1.44.4.52 0 1.007-.127 1.46-.38a2.9 2.9 0 001.08-1.12c.267-.493.4-1.08.4-1.76zm19.715-5.7c1.36 0 2.453.42 3.28 1.26.84.827 1.26 1.987 1.26 3.48V30h-2.8v-6.12c0-.867-.22-1.527-.66-1.98-.44-.467-1.04-.7-1.8-.7s-1.367.233-1.82.7c-.44.453-.66 1.113-.66 1.98V30h-2.8v-6.12c0-.867-.22-1.527-.66-1.98-.44-.467-1.04-.7-1.8-.7-.773 0-1.387.233-1.84.7-.44.453-.66 1.113-.66 1.98V30h-2.8V18.92h2.8v1.34c.36-.467.82-.833 1.38-1.1.573-.267 1.2-.4 1.88-.4.867 0 1.64.187 2.32.56.68.36 1.207.88 1.58 1.56.36-.64.88-1.153 1.56-1.54a4.524 4.524 0 012.24-.58zm9.017-1.16c-.493 0-.907-.153-1.24-.46-.32-.32-.48-.713-.48-1.18 0-.467.16-.853.48-1.16.333-.32.747-.48 1.24-.48s.9.16 1.22.48c.333.307.5.693.5 1.16 0 .467-.167.86-.5 1.18-.32.307-.727.46-1.22.46zm1.38 1.32V30h-2.8V18.92h2.8zm7.406 11.26c-.906 0-1.72-.16-2.44-.48-.72-.333-1.293-.78-1.72-1.34a3.412 3.412 0 01-.68-1.86h2.82c.054.427.26.78.62 1.06.374.28.834.42 1.38.42.534 0 .947-.107 1.24-.32.307-.213.46-.487.46-.82 0-.36-.186-.627-.56-.8-.36-.187-.94-.387-1.74-.6-.826-.2-1.506-.407-2.04-.62a3.628 3.628 0 01-1.36-.98c-.373-.44-.56-1.033-.56-1.78 0-.613.174-1.173.52-1.68.36-.507.867-.907 1.52-1.2.667-.293 1.447-.44 2.34-.44 1.32 0 2.374.333 3.16 1 .787.653 1.22 1.54 1.3 2.66h-2.68c-.04-.44-.226-.787-.56-1.04-.32-.267-.753-.4-1.3-.4-.506 0-.9.093-1.18.28a.9.9 0 00-.4.78c0 .373.187.66.56.86.374.187.954.38 1.74.58.8.2 1.46.407 1.98.62.52.213.967.547 1.34 1 .387.44.587 1.027.6 1.76 0 .64-.18 1.213-.54 1.72-.346.507-.853.907-1.52 1.2-.653.28-1.42.42-2.3.42zm11.299 0c-.907 0-1.72-.16-2.44-.48-.72-.333-1.293-.78-1.72-1.34a3.412 3.412 0 01-.68-1.86h2.82c.053.427.26.78.62 1.06.373.28.833.42 1.38.42.533 0 .947-.107 1.24-.32.307-.213.46-.487.46-.82 0-.36-.187-.627-.56-.8-.36-.187-.94-.387-1.74-.6-.827-.2-1.507-.407-2.04-.62a3.628 3.628 0 01-1.36-.98c-.373-.44-.56-1.033-.56-1.78 0-.613.173-1.173.52-1.68.36-.507.867-.907 1.52-1.2.667-.293 1.447-.44 2.34-.44 1.32 0 2.373.333 3.16 1 .787.653 1.22 1.54 1.3 2.66h-2.68c-.04-.44-.227-.787-.56-1.04-.32-.267-.753-.4-1.3-.4-.507 0-.9.093-1.18.28a.898.898 0 00-.4.78c0 .373.187.66.56.86.373.187.953.38 1.74.58.8.2 1.46.407 1.98.62.52.213.967.547 1.34 1 .387.44.587 1.027.6 1.76 0 .64-.18 1.213-.54 1.72-.347.507-.853.907-1.52 1.2-.653.28-1.42.42-2.3.42zm8.478-12.58c-.493 0-.906-.153-1.24-.46-.32-.32-.48-.713-.48-1.18 0-.467.16-.853.48-1.16.334-.32.747-.48 1.24-.48.494 0 .9.16 1.22.48.334.307.5.693.5 1.16 0 .467-.166.86-.5 1.18-.32.307-.726.46-1.22.46zm1.38 1.32V30h-2.8V18.92h2.8zm8.087 11.26c-1.067 0-2.027-.233-2.88-.7a5.244 5.244 0 01-2.02-2.02c-.48-.867-.72-1.867-.72-3s.246-2.133.74-3a5.204 5.204 0 012.06-2c.866-.48 1.833-.72 2.9-.72 1.066 0 2.033.24 2.9.72a5.084 5.084 0 012.04 2c.506.867.76 1.867.76 3s-.26 2.133-.78 3a5.316 5.316 0 01-2.08 2.02c-.867.467-1.84.7-2.92.7zm0-2.44c.506 0 .98-.12 1.42-.36a2.74 2.74 0 001.08-1.12c.266-.493.4-1.093.4-1.8 0-1.053-.28-1.86-.84-2.42a2.682 2.682 0 00-2.02-.86c-.8 0-1.474.287-2.02.86-.534.56-.8 1.367-.8 2.42s.26 1.867.78 2.44c.533.56 1.2.84 2 .84zm14.374-8.98c1.32 0 2.386.42 3.2 1.26.813.827 1.22 1.987 1.22 3.48V30h-2.8v-6.12c0-.88-.22-1.553-.66-2.02-.44-.48-1.04-.72-1.8-.72-.774 0-1.387.24-1.84.72-.44.467-.66 1.14-.66 2.02V30h-2.8V18.92h2.8v1.38c.373-.48.846-.853 1.42-1.12a4.395 4.395 0 011.92-.42zm15.448-.46v3.5h4.7v2.22h-4.7v3.7h5.3V30h-8.1V16.02h8.1v2.28h-5.3zm14.384.46c1.32 0 2.387.42 3.2 1.26.814.827 1.22 1.987 1.22 3.48V30h-2.8v-6.12c0-.88-.22-1.553-.66-2.02-.44-.48-1.04-.72-1.8-.72-.773 0-1.386.24-1.84.72-.44.467-.66 1.14-.66 2.02V30h-2.8V18.92h2.8v1.38c.374-.48.847-.853 1.42-1.12a4.402 4.402 0 011.92-.42zm6.763 5.68c0-1.107.227-2.087.68-2.94.467-.867 1.093-1.54 1.88-2.02a4.896 4.896 0 012.6-.72c.787 0 1.48.153 2.08.46.613.293 1.107.673 1.48 1.14v-1.44h2.82v16.36h-2.82v-6.8c-.373.48-.873.88-1.5 1.2-.627.32-1.333.48-2.12.48-.933 0-1.793-.24-2.58-.72-.773-.493-1.387-1.173-1.84-2.04-.453-.867-.68-1.853-.68-2.96zm8.72.02c0-.68-.14-1.267-.42-1.76a2.87 2.87 0 00-1.1-1.12 2.798 2.798 0 00-1.42-.38c-.493 0-.967.127-1.42.38-.44.253-.8.627-1.08 1.12-.28.48-.42 1.06-.42 1.74 0 .68.14 1.273.42 1.78.28.493.64.867 1.08 1.12.453.253.927.38 1.42.38.507 0 .98-.127 1.42-.38a2.87 2.87 0 001.1-1.12c.28-.493.42-1.08.42-1.76zm16.415-5.54V30h-2.82v-1.4c-.36.48-.834.86-1.42 1.14a4.4 4.4 0 01-1.88.4c-.867 0-1.634-.18-2.3-.54a4.014 4.014 0 01-1.58-1.62c-.374-.72-.56-1.573-.56-2.56v-6.5h2.8v6.1c0 .88.22 1.56.66 2.04.44.467 1.04.7 1.8.7.773 0 1.38-.233 1.82-.7.44-.48.66-1.16.66-2.04v-6.1h2.82zm4.582-1.32c-.493 0-.906-.153-1.24-.46-.32-.32-.48-.713-.48-1.18 0-.467.16-.853.48-1.16.334-.32.747-.48 1.24-.48.494 0 .9.16 1.22.48.334.307.5.693.5 1.16 0 .467-.166.86-.5 1.18-.32.307-.726.46-1.22.46zm1.38 1.32V30h-2.8V18.92h2.8zm5.967 1.72a3.957 3.957 0 011.4-1.38c.586-.333 1.253-.5 2-.5v2.94h-.74c-.88 0-1.547.207-2 .62-.44.413-.66 1.133-.66 2.16V30h-2.8V18.92h2.8v1.72zm16.286-1.72l-6.86 16.32h-2.98l2.4-5.52-4.44-10.8h3.14l2.86 7.74 2.9-7.74h2.98z" fill="#0D2D6E"/><path d="M721 46.68H618c-57.438 0-95.5.72-105 0 0-2.585 46.562-4.68 104-4.68s104 2.095 104 4.68z" fill="#D9A728"/><defs><linearGradient id="paint0_linear_994_30" x1="478.5" y1="21.5" x2="757" y2="21.5" gradientUnits="userSpaceOnUse"><stop stop-color="#041841" stop-opacity="0"/><stop offset=".383" stop-color="#fff"/><stop offset=".478" stop-color="#fff"/><stop offset=".588" stop-color="#fff"/><stop offset="1" stop-color="#041841" stop-opacity="0"/></linearGradient><linearGradient id="paint1_linear_994_30" x1="4" y1="23.25" x2="1275.5" y2="23.25" gradientUnits="userSpaceOnUse"><stop stop-color="#041942"/><stop offset=".086" stop-color="#061C4A"/><stop offset=".383" stop-color="#fff"/><stop offset=".478" stop-color="#fff"/><stop offset=".588" stop-color="#fff"/><stop offset=".882" stop-color="#051B46"/><stop offset="1" stop-color="#051941"/></linearGradient><filter id="filter0_d_994_30" x="0" y="0" width="1279.5" height="54.5" filterUnits="userSpaceOnUse" color-interpolation-filters="sRGB"><feFlood flood-opacity="0" result="BackgroundImageFix"/><feColorMatrix in="SourceAlpha" values="0 0 0 0 0 0 0 0 0 0 0 0 0 0 0 0 0 0 127 0" result="hardAlpha"/><feOffset dy="4"/><feGaussianBlur stdDeviation="2"/><feComposite in2="hardAlpha" operator="out"/><feColorMatrix values="0 0 0 0 0 0 0 0 0 0 0 0 0 0 0 0 0 0 0.25 0"/><feBlend in2="BackgroundImageFix" result="effect1_dropShadow_994_30"/><feBlend in="SourceGraphic" in2="effect1_dropShadow_994_30" result="shape"/></filter></defs></svg>