<svg width="60" height="60" viewBox="0 0 60 60" fill="none" xmlns="http://www.w3.org/2000/svg">
<path fill-rule="evenodd" clip-rule="evenodd" d="M30.3516 2.47266C30.5742 2.47266 31.1602 2.56641 31.6406 2.68359C32.1211 2.80078 32.8125 3.03516 33.1641 3.21094C33.5156 3.38672 34.1016 3.75 34.4531 4.01953C34.8164 4.30078 35.332 4.875 35.6367 5.33203C35.9414 5.78906 36.293 6.44531 36.4219 6.79688C36.5508 7.14844 36.7031 7.72266 36.8555 8.67188H38.1445C39.2227 8.66016 39.4805 8.69531 39.7266 8.88281C39.8906 9 40.0547 9.24609 40.1133 9.41016C40.1602 9.60938 40.1367 9.84375 40.0312 10.043C39.9492 10.2305 39.7852 10.4062 39.6797 10.4531C39.5742 10.5117 38.918 10.5469 36.9141 10.5469V11.2734C36.9141 11.6836 36.8086 12.4336 36.6797 12.9492C36.5391 13.4648 36.293 14.1445 36.1172 14.4609C35.9414 14.7773 35.6016 15.2461 35.3672 15.5156C35.0039 15.9258 34.9219 16.125 34.8164 16.8164C34.7461 17.2617 34.7344 17.6719 34.7812 17.707C34.8281 17.7539 35.9297 18.6094 39.6094 21.4453H46.875V19.5117C46.875 17.6133 46.875 17.5781 47.168 17.2852C47.3438 17.0977 47.5781 16.9922 47.8125 16.9922C48.0352 16.9922 48.2695 17.0977 48.457 17.2852C48.75 17.5781 48.75 17.5898 48.75 19.7461C48.75 21.8906 48.75 21.9141 49.0078 21.9961C49.1602 22.0312 49.5352 22.3125 49.8633 22.6172C50.2266 22.9688 50.5781 23.4492 50.8008 23.918C51.0938 24.5508 51.1406 24.8086 51.1406 25.6055C51.1406 26.3438 51.082 26.6719 50.8477 27.1875C50.6836 27.5391 50.3437 28.0664 50.0742 28.3594C49.8164 28.6523 49.4062 28.9922 48.75 29.3555V48.1641H49.9805C51.0938 48.1641 51.2461 48.1875 51.5156 48.4336C51.7031 48.5977 51.8203 48.832 51.832 49.0664C51.8437 49.3242 51.7617 49.5234 51.2695 50.0508L29.8242 50.0273L28.125 53.5195C27.1875 55.4297 26.3086 57.1406 25.8984 57.6562H8.78906L8.50781 57.3984C8.34375 57.2461 8.20312 57.0234 8.19141 56.8945C8.17969 56.7656 8.17969 56.5664 8.19141 56.4609C8.19141 56.3437 8.30859 56.1445 8.4375 56.0156C8.64844 55.8047 8.82422 55.7812 11.6016 55.7812L11.7188 55.4062C11.7773 55.1953 13.0664 51.1055 14.5898 46.3242C16.1016 41.5312 17.3437 37.582 17.3437 37.5352C17.3437 37.4766 16.9922 37.3828 16.5586 37.3125C16.1133 37.2422 15.4102 37.0195 14.9648 36.8203C14.5312 36.6094 13.9102 36.1992 13.582 35.8945C13.2539 35.5781 12.8203 35.0742 12.6211 34.7461C12.4219 34.4297 12.1641 33.8555 12.0469 33.4922C11.918 33.0937 11.8359 32.4375 11.8359 31.9102C11.8359 31.1602 12.0117 30.2695 12.832 26.8945C13.3945 24.5977 13.9805 22.4883 14.168 22.0898C14.3438 21.7031 14.6484 21.1523 15.2227 20.332L14.7539 19.8633C14.4961 19.6055 14.0977 19.0195 13.875 18.5742C13.5469 17.918 13.4531 17.5664 13.3945 16.8164C13.3477 16.1016 13.3828 15.7031 13.5469 15.1172C13.6641 14.6953 13.957 14.0625 14.1914 13.7109C14.4258 13.3594 14.8711 12.8672 15.1875 12.6328C15.5039 12.3984 16.0195 12.082 16.3477 11.9297C16.9102 11.6719 17.0859 11.6602 23.8477 11.543L23.918 9.55078C23.9648 8.08594 24.0352 7.41797 24.1875 7.03125C24.293 6.73828 24.5625 6.1875 24.7617 5.8125C24.9727 5.42578 25.4531 4.80469 25.8398 4.41797C26.3086 3.94922 26.8477 3.57422 27.4805 3.26953C27.9961 3.01172 28.7578 2.74219 29.1797 2.64844C29.6016 2.55469 30.1289 2.48438 30.3516 2.47266ZM28.1367 4.86328C27.7852 5.0625 27.2461 5.50781 26.9297 5.85938C26.6016 6.22266 26.25 6.77344 26.1211 7.125C26.0039 7.45312 25.8633 7.94531 25.8047 8.20312L25.7227 8.67188H34.9219C34.8164 7.80469 34.6641 7.27734 34.5 6.94922C34.3477 6.60937 33.9609 6.04687 33.6445 5.71875C33.3281 5.37891 32.7891 4.95703 32.4492 4.79297C32.0977 4.61719 31.5352 4.41797 31.1953 4.34766C30.8672 4.27734 30.4688 4.21875 30.3164 4.23047C30.1758 4.23047 29.7656 4.30078 29.4141 4.38281C29.0625 4.45313 28.4883 4.67578 28.1367 4.86328ZM25.7812 11.4844C29.0977 11.4844 30.375 11.543 30.7617 11.6133C31.1484 11.6836 31.7695 11.8945 32.1445 12.082C32.5078 12.2695 33.0117 12.6211 33.2578 12.8672C33.5039 13.1016 33.8203 13.4531 33.9492 13.6523L34.207 14.0039C34.7812 12.7383 34.8633 12.3984 34.8867 11.5664L34.9219 10.5469H25.7812V11.4844ZM17.1094 13.6289C16.8867 13.6992 16.4883 13.9453 16.2422 14.168C15.9844 14.4023 15.6562 14.8594 15.5156 15.1758C15.3398 15.5508 15.2344 15.9727 15.2344 16.3477C15.2344 16.6758 15.3047 17.1445 15.3867 17.4023C15.457 17.6602 15.7617 18.1289 16.0547 18.4453L16.582 19.0195C17.9414 18.3516 18.7148 18.082 19.1602 17.9883C19.7578 17.8594 20.7891 17.8125 22.9453 17.8125C24.7266 17.8125 26.1445 17.8711 26.5195 17.9414C26.8477 18.0234 27.3633 18.1758 27.6562 18.3047C27.9492 18.4336 28.4766 18.75 28.8281 19.0078C29.4492 19.4766 29.4961 19.4883 30.1523 19.418C30.5156 19.3711 31.0195 19.2305 31.2656 19.1133C31.5 18.9844 31.8633 18.7148 32.0742 18.4922C32.2734 18.2812 32.5547 17.8711 32.6836 17.5781C32.8359 17.25 32.9297 16.8047 32.9297 16.4062C32.9297 15.9727 32.8359 15.5625 32.6602 15.1758C32.5078 14.8594 32.1797 14.4141 31.9219 14.1914C31.6758 13.9688 31.2773 13.7109 31.0547 13.6055C30.7031 13.4414 29.8125 13.418 24.3164 13.3945C20.8359 13.3945 17.8828 13.4062 17.7539 13.4414C17.625 13.4648 17.332 13.5469 17.1094 13.6289ZM32.4492 20.5898C32.0977 20.8008 31.5469 21.0352 31.2305 21.1172C30.9023 21.1992 30.6328 21.2578 30.6094 21.2695C30.5977 21.2695 30.6562 21.5859 30.7617 21.9727C30.8555 22.3594 30.9375 23.0273 30.9375 23.4727C30.9375 24.0352 30.6797 25.3945 30.0586 28.2188C29.5664 30.3867 29.1445 32.2617 29.1211 32.3789C29.0625 32.5664 29.2031 32.5781 30.7266 32.5781H32.4023C33.6445 26.5078 33.7734 26.0508 34.0078 25.8633C34.1602 25.7461 34.4062 25.6523 34.5703 25.6641C34.7344 25.6641 35.5195 26.0625 36.3281 26.543C37.1367 27.0234 38.0273 27.4922 38.3203 27.5977C38.7422 27.7383 39.4102 27.7734 41.625 27.7734H44.4141V23.3203C40.2305 23.3086 39.3047 23.2617 39.0234 23.168C38.8008 23.0859 37.5586 22.2305 36.2695 21.2695C34.9805 20.3203 33.8789 19.5234 33.8086 19.5C33.7383 19.4883 33.5508 19.6406 33.3867 19.8398C33.2109 20.0508 32.7891 20.3789 32.4492 20.5898ZM18 20.3672C17.6953 20.543 17.1562 20.9766 16.8164 21.3281C16.4766 21.6797 16.0547 22.2656 15.8906 22.6172C15.7266 22.9688 15.2812 24.5742 14.8828 26.1914C14.4961 27.7969 14.1445 29.2148 14.1211 29.3203C14.0625 29.5195 14.4492 29.5312 20.9766 29.5312H27.8906C28.2422 27.9375 28.5469 26.6133 28.7695 25.5469C29.0977 24.0938 29.1797 23.4727 29.1211 23.0273C29.0859 22.6992 28.9336 22.1719 28.7813 21.8555C28.6289 21.5273 28.3125 21.0703 28.0781 20.8242C27.8438 20.5898 27.375 20.25 27.0352 20.0625L26.4258 19.7461C20.5078 19.6992 19.7344 19.7344 19.2187 19.875C18.8672 19.9688 18.3164 20.1914 18 20.3672ZM46.2891 27.7734C47.5664 27.7734 47.9531 27.7031 48.2461 27.5508C48.4922 27.4336 48.7734 27.2344 48.8789 27.1172C48.9844 26.9883 49.1602 26.7187 49.2656 26.5078C49.3711 26.3086 49.4531 25.8867 49.4531 25.5703C49.4531 25.2656 49.3477 24.8086 49.2188 24.5508C49.1016 24.293 48.8437 23.9766 48.668 23.8359C48.4922 23.707 48.1523 23.5312 47.9297 23.4609C47.707 23.3789 47.2383 23.3203 46.8984 23.3203H46.2891V27.7734ZM34.6992 30.668C34.3359 32.3789 34.2539 32.9414 34.3594 32.9883C34.4414 33.0234 35.7539 33.4688 37.2656 33.9844C38.7773 34.5117 40.2539 35.0391 40.5469 35.168C40.8398 35.2969 41.2031 35.5195 41.3437 35.6602C41.4961 35.8008 41.7656 36.1758 41.9297 36.5039C42.1523 36.9492 42.2227 37.2539 42.2227 37.793C42.2109 38.3672 42.0234 39.0352 41.1914 41.4258C40.6289 43.0312 40.1602 44.4023 40.1602 44.4727C40.1484 44.543 40.7227 45.3867 41.4375 46.3711L42.7148 48.1523L46.875 48.1641V29.7656C38.7422 29.6953 38.4492 29.6836 37.7344 29.4375C37.3125 29.2969 36.5859 28.9453 36.1172 28.6641C35.5664 28.3242 35.2383 28.1836 35.2148 28.2773C35.1914 28.3594 34.957 29.4375 34.6992 30.668ZM13.7344 32.0742C13.7812 32.6367 13.8984 33.082 14.1445 33.5742C14.3789 34.043 14.6719 34.4062 15.0117 34.6641C15.293 34.875 15.7617 35.1211 16.0547 35.2148C16.4883 35.3672 17.2617 35.3906 20.5078 35.3672L24.4336 35.332C25.3477 34.8516 25.8398 34.4766 26.1094 34.207C26.3906 33.9258 26.7188 33.5039 26.8359 33.2812C26.9531 33.0586 27.1289 32.5781 27.2344 32.2266C27.3398 31.875 27.4219 31.5117 27.4219 31.4297C27.4219 31.3242 25.9687 31.2891 20.5547 31.2891H13.6758L13.7344 32.0742ZM27.9961 34.9922C27.7734 35.2969 27.3398 35.7422 27.0117 35.9766C26.6953 36.2227 26.1914 36.5273 25.8984 36.6797C25.6055 36.8203 25.1133 37.0195 24.7852 37.1016C24.3867 37.207 23.4375 37.2539 21.8437 37.2539C19.5117 37.2539 19.4883 37.2656 19.3594 37.5234C19.2773 37.6641 17.9531 41.7891 16.4062 46.6992C14.8594 51.5977 13.5938 55.6406 13.5938 55.6875C13.5938 55.7344 15.3633 55.7695 17.5195 55.7695C19.6758 55.7695 21.4687 55.7344 21.4922 55.6875C21.5156 55.6406 21.1172 55.0195 20.6133 54.3047C20.0625 53.543 19.6875 52.8984 19.6875 52.7227C19.6875 52.5703 20.8477 50.0391 22.2539 47.0977C23.6719 44.168 24.9727 41.5898 25.1602 41.3555C25.3594 41.1328 25.793 40.793 26.1445 40.5938L26.7773 40.2422H33.9609C34.4883 40.7578 34.5703 40.9453 34.5703 41.2383C34.5586 41.4727 34.2539 43.1016 33.8789 44.8711L33.1992 48.0938C35.9414 48.1523 37.5703 48.1523 38.5781 48.1289L40.4062 48.0938C38.5312 45.5156 38.1914 44.9531 38.2031 44.7305C38.2031 44.5547 38.707 42.9492 39.3281 41.1562C40.0898 38.9648 40.4297 37.8047 40.3945 37.6055C40.3477 37.4531 40.2539 37.2305 40.1719 37.1133C40.0781 36.9961 38.543 36.3984 36.4453 35.6719L32.8711 34.4414H28.3945L27.9961 34.9922ZM26.625 42.5508C26.4961 42.7031 25.3477 44.9883 24.082 47.6367C22.8047 50.2734 21.7617 52.4883 21.7617 52.5586C21.75 52.6172 22.2305 53.3672 22.8281 54.2227L23.9062 55.7812H24.9023C27.7734 49.9102 28.5234 48.5156 28.7109 48.375C28.957 48.1875 29.1914 48.1523 30.1406 48.1523C30.7734 48.1523 31.2891 48.1289 31.2891 48.1055C31.2891 48.0703 31.5586 46.7578 31.875 45.1992C32.2031 43.6406 32.4375 42.293 32.4023 42.2109C32.3555 42.1055 31.7461 42.0703 29.8477 42.0703C28.4883 42.082 27.2461 42.1172 27.1172 42.1758C26.9766 42.2227 26.7539 42.3867 26.625 42.5508Z" fill="white"/>
</svg>
