<svg width="60" height="60" viewBox="0 0 60 60" fill="none" xmlns="http://www.w3.org/2000/svg">
<path fill-rule="evenodd" clip-rule="evenodd" d="M31.7933 1.64062C31.9339 1.64062 32.1683 1.75781 32.3206 1.91016C32.5667 2.15625 32.5785 2.25 32.5785 3.80859C32.5785 5.20312 32.5433 5.48438 32.3675 5.66016C32.2621 5.77734 32.0277 5.87109 31.8402 5.85938C31.6644 5.85938 31.4183 5.75391 31.2894 5.625C31.0785 5.41406 31.055 5.22656 31.0433 3.82031C31.0316 2.37891 31.055 2.23828 31.2894 1.94531C31.43 1.78125 31.6527 1.64062 31.7933 1.64062ZM25.8402 36.9727C26.4144 36.9961 27.2113 37.125 27.598 37.2422C27.9847 37.3711 29.5082 37.957 30.9964 38.543C32.473 39.1406 34.5589 39.9023 35.6253 40.2422C36.6917 40.582 37.7347 40.957 37.9339 41.0625C38.1449 41.168 38.5081 41.4492 38.7425 41.6953C38.9769 41.9297 39.2464 42.293 39.3519 42.4805C39.4456 42.668 39.5628 42.9492 39.598 43.1016C39.6683 43.3477 39.7855 43.2891 41.8363 41.9414C43.0316 41.1562 44.555 40.1602 45.2347 39.7266C45.9144 39.3047 46.6878 38.8594 46.9574 38.7539C47.2386 38.6484 47.8011 38.5078 48.223 38.4375C48.7386 38.3555 49.2425 38.3555 49.7699 38.4375C50.2152 38.5078 50.8831 38.707 51.2699 38.8945C51.6566 39.0703 52.1722 39.3984 52.4183 39.6211C52.6644 39.8438 53.0042 40.2891 53.1566 40.6055C53.3558 41.0156 53.4378 41.3906 53.4378 41.8359C53.4378 42.3281 53.3558 42.6211 53.1097 43.0664C52.8402 43.5352 52.4886 43.8633 51.3167 44.6953C50.5199 45.2812 49.1488 46.2773 48.2816 46.9219C47.4144 47.5664 45.9027 48.6445 44.9417 49.3125C43.9691 49.9805 42.7035 50.8242 42.1292 51.1875C41.5433 51.5391 40.4886 52.1367 39.7855 52.5C39.0706 52.8516 38.0511 53.2969 37.5003 53.4844C36.7972 53.7305 36.1996 53.8359 34.3949 53.9297L29.0042 52.2656C26.0394 51.3516 23.5433 50.6367 23.4613 50.6719C23.391 50.707 23.2386 50.8711 23.1449 51.0352C22.9808 51.3047 22.9925 51.375 23.2035 51.7969C23.3324 52.0547 23.4378 52.4531 23.4378 52.6758C23.4378 52.8984 23.3675 53.2617 23.2738 53.4727C23.1917 53.6719 22.9925 53.9648 22.8402 54.0938C22.6878 54.2344 21.5042 55.0781 20.2152 55.9688C18.9261 56.8594 17.5785 57.7617 17.2269 57.9727C16.8753 58.1836 16.4417 58.3594 16.2542 58.3594C16.0785 58.3594 15.7386 58.2539 15.4925 58.1367C15.2582 58.0195 14.9535 57.7852 14.8128 57.6328C14.6839 57.4922 12.7855 54.7734 10.5941 51.6211C6.87924 46.2422 6.63315 45.8438 6.58627 45.293C6.55112 44.8828 6.59799 44.5781 6.75034 44.25C6.93784 43.8633 7.44174 43.4648 9.90268 41.7656C11.5081 40.6523 13.0316 39.6797 13.266 39.6094C13.5824 39.5273 13.8636 39.5273 14.2035 39.6211C14.4847 39.6914 14.8714 39.9258 15.0707 40.125C15.2699 40.3242 15.4808 40.582 15.5394 40.7109C15.6332 40.9102 15.8441 40.8281 18.0472 39.6914C19.3714 39.0117 21.0238 38.2148 21.7386 37.9102C22.4417 37.6055 23.4261 37.2656 23.9066 37.1367C24.5628 36.9727 25.0433 36.9258 25.8402 36.9727ZM22.7347 39.1055C22.3128 39.2695 20.7777 40.0195 19.3011 40.7695C17.8363 41.5195 16.641 42.1641 16.641 42.2227C16.641 42.2695 17.8011 43.9805 19.2308 46.0312C20.6488 48.0703 21.8675 49.793 21.9261 49.8633C21.9964 49.9453 22.1253 49.8867 22.2894 49.6992C22.4417 49.5352 22.7347 49.3359 22.9339 49.2539C23.1449 49.1719 23.4496 49.1016 23.6136 49.1016C23.7777 49.1016 26.0511 49.7695 28.6761 50.5781C31.3128 51.3867 33.8207 52.1602 34.2777 52.2891C35.0042 52.5 35.1917 52.5 35.8597 52.3828C36.2816 52.3125 36.9613 52.1133 37.3831 51.9609C37.805 51.7969 38.6722 51.3867 39.3167 51.0469C39.9613 50.707 41.098 50.0508 41.8363 49.5703C42.5746 49.1016 43.8988 48.2109 44.766 47.6016C45.6331 46.9805 47.1331 45.8906 48.1058 45.1758C49.0667 44.4609 50.18 43.6523 50.5667 43.3945C50.9535 43.1367 51.4339 42.75 51.6214 42.5391C51.8675 42.2812 51.973 42.0703 51.9613 41.8008C51.9496 41.5898 51.8675 41.2969 51.7621 41.1328C51.6683 40.9688 51.3636 40.6992 51.1058 40.5117C50.8363 40.3359 50.3206 40.1133 49.9456 40.0078C49.4886 39.8672 49.0667 39.832 48.598 39.8906C48.2347 39.9258 47.7308 40.043 47.4847 40.1484C47.2503 40.2422 45.3871 41.4141 43.348 42.75C39.973 44.9648 39.6331 45.2109 39.4574 45.6445C39.3519 45.9023 39.0355 46.3477 38.766 46.6289C38.4847 46.9219 37.9691 47.2852 37.6175 47.4492C37.1371 47.6602 36.7738 47.7305 36.2113 47.7305C35.6019 47.7305 34.5238 47.4609 30.8792 46.418C27.7738 45.5391 26.2621 45.0469 26.1566 44.918C26.0746 44.8008 26.016 44.5781 26.016 44.4141C26.0042 44.25 26.098 44.0273 26.2152 43.9219C26.3324 43.8047 26.5316 43.7109 26.6605 43.7109C26.7894 43.7109 28.8402 44.2617 31.2308 44.9414C33.6214 45.6211 35.7542 46.1953 35.9769 46.2422C36.2347 46.2891 36.5628 46.2422 36.8558 46.1367C37.1136 46.0312 37.5003 45.7617 37.6996 45.5391C37.9105 45.3047 38.1331 44.918 38.2035 44.6836C38.2621 44.4375 38.2738 44.0508 38.2152 43.8281C38.1683 43.6055 38.0746 43.3125 38.0042 43.1836C37.9339 43.0547 37.7347 42.8203 37.5472 42.6562C37.3246 42.457 36.4222 42.0938 34.9808 41.625C33.7503 41.2148 31.5941 40.418 30.1761 39.8438C28.7582 39.2812 27.2816 38.7305 26.8949 38.625C26.5082 38.5195 25.8753 38.4492 25.4886 38.4492C25.1019 38.4492 24.4925 38.5312 24.141 38.625C23.7894 38.7188 23.1566 38.9414 22.7347 39.1055ZM8.10971 45.0938C8.09799 45.2695 9.26987 47.0625 11.9652 50.9414C14.098 54.0234 15.9261 56.6016 16.0316 56.6836C16.1839 56.7891 16.2894 56.8008 16.4652 56.6953C16.5941 56.625 17.8714 55.7578 19.3011 54.7617C21.0121 53.5898 21.9144 52.8984 21.9144 52.7578C21.9144 52.6523 20.1449 50.0039 17.9886 46.875C15.8207 43.7461 13.9808 41.1562 13.9105 41.1094C13.8285 41.0625 13.7464 41.0156 13.7113 41.0156C13.6761 41.0156 12.4105 41.8711 10.8988 42.9258C8.81284 44.3555 8.13315 44.8945 8.10971 45.0938ZM23.4378 3.98438C23.6019 3.98438 23.8128 4.06641 23.9183 4.18359C24.0238 4.30078 24.4339 4.94531 24.8207 5.625C25.2191 6.30469 25.5472 6.9375 25.5472 7.03125C25.5589 7.125 25.4652 7.33594 25.348 7.48828C25.2308 7.62891 25.0082 7.76953 24.8441 7.76953C24.68 7.78125 24.4574 7.69922 24.3402 7.61719C24.223 7.52344 23.8246 6.91406 23.4496 6.26953C23.0746 5.625 22.7347 5.00391 22.6996 4.89844C22.6527 4.78125 22.6761 4.57031 22.7464 4.42969C22.8285 4.27734 22.9457 4.125 23.016 4.07812C23.0863 4.03125 23.2738 3.98438 23.4378 3.98438ZM40.3363 3.98438C40.5472 3.98438 40.723 4.07812 40.8402 4.25391C40.9339 4.39453 41.016 4.60547 41.016 4.72266C41.016 4.82812 40.6878 5.48438 40.2894 6.1875C39.891 6.87891 39.4925 7.51172 39.3871 7.59375C39.2816 7.67578 39.0706 7.73438 38.9066 7.73438C38.7425 7.73438 38.5199 7.64062 38.4027 7.52344C38.2855 7.41797 38.2035 7.19531 38.2035 7.03125C38.2035 6.86719 38.5316 6.1875 38.9183 5.50781C39.3167 4.82812 39.7269 4.20703 39.8206 4.13672C39.9261 4.05469 40.1605 3.98438 40.3363 3.98438ZM31.8402 8.67188C31.9925 8.67188 32.2152 8.77734 32.3441 8.90625C32.473 9.03516 33.1878 10.3594 33.9261 11.8359C35.016 14.0039 35.3207 14.543 35.5316 14.5781C35.6839 14.6016 37.0902 14.8242 38.6722 15.082C40.8285 15.4102 41.5902 15.5742 41.7425 15.7266C41.8597 15.8438 41.9535 16.0781 41.9535 16.2656C41.9535 16.5234 41.5433 16.9922 39.7269 18.8086C38.3206 20.2148 37.5003 21.1172 37.5003 21.2695C37.5003 21.3984 37.6996 22.8281 37.9574 24.4336C38.2269 26.168 38.3792 27.457 38.3324 27.5977C38.2855 27.7266 38.1566 27.8672 38.0511 27.9258C37.9339 27.9727 37.7347 28.0078 37.5824 28.0078C37.4417 28.0078 36.0941 27.375 31.8753 25.1953L29.0628 26.6016C27.516 27.375 26.1332 28.0078 25.9808 28.0078C25.8402 28.0078 25.6292 27.9141 25.5121 27.7969C25.3949 27.6914 25.3011 27.4688 25.3128 27.3047C25.3128 27.1406 25.5238 25.6992 26.2386 21.1523L23.9652 18.8672C22.1136 17.0156 21.68 16.5234 21.68 16.2656C21.68 16.0547 21.7855 15.8555 21.9496 15.7383C22.1371 15.5859 23.0863 15.3867 25.0902 15.082C26.6605 14.8359 28.0667 14.5781 28.2074 14.5195C28.4066 14.4492 28.8402 13.6875 29.7777 11.8125C30.4925 10.3711 31.1839 9.08203 31.3246 8.94141C31.4535 8.78906 31.6878 8.67188 31.8402 8.67188ZM29.3207 15.8672C29.2738 15.9023 28.2074 16.0898 26.9535 16.2891C25.6996 16.4883 24.5042 16.6758 24.3167 16.7109C23.9652 16.7813 23.9886 16.8047 25.8636 18.668C27.3167 20.1094 27.7738 20.6367 27.7738 20.8594C27.7738 21.0234 27.6097 22.125 27.4222 23.3203C27.2347 24.5156 27.0707 25.582 27.0707 25.6992C27.0707 25.8516 27.5746 25.6523 29.473 24.7031L31.8753 23.4961C35.5082 25.3594 36.5863 25.8867 36.6097 25.875C36.6449 25.8516 36.4808 24.7383 36.2699 23.3789C36.0472 22.0312 35.8597 20.8359 35.8597 20.7422C35.8597 20.6484 36.7152 19.7109 37.7699 18.668C39.6449 16.8047 39.6683 16.7695 39.3167 16.7109C39.1175 16.6758 37.9574 16.4883 36.7386 16.2891C35.4613 16.0898 34.4417 15.8672 34.3363 15.7734C34.2425 15.6797 33.6566 14.6016 33.0355 13.3711C32.4261 12.1406 31.8988 11.1328 31.8636 11.1328C31.8402 11.1328 31.2777 12.1875 30.6097 13.4766C29.9535 14.7656 29.3792 15.8437 29.3207 15.8672ZM17.4027 10.1602C17.5316 10.1953 18.1644 10.5352 18.8089 10.8984C19.4535 11.2734 20.0628 11.6719 20.1566 11.8008C20.2386 11.918 20.3207 12.1406 20.3089 12.3047C20.3089 12.4688 20.1683 12.6914 20.0277 12.8086C19.8753 12.9258 19.641 12.9961 19.5121 12.9609C19.3832 12.9375 18.7503 12.6094 18.1058 12.2344C17.4613 11.8711 16.8402 11.4844 16.723 11.3789C16.6058 11.2734 16.5238 11.0625 16.5238 10.8984C16.5238 10.7344 16.5707 10.5469 16.6175 10.4883C16.6644 10.418 16.805 10.3008 16.9339 10.2305C17.0628 10.1484 17.2738 10.1133 17.4027 10.1602ZM46.43 10.0781C46.4886 10.0781 46.6292 10.1367 46.7581 10.1953C46.8871 10.2656 47.0511 10.4297 47.1214 10.582C47.2152 10.7695 47.2152 10.9219 47.1214 11.1328C47.0277 11.332 46.5121 11.707 45.5746 12.2461C44.2152 13.0312 44.1449 13.0547 43.8519 12.8906C43.6878 12.7969 43.5003 12.6211 43.43 12.5156C43.3363 12.375 43.3363 12.2109 43.4183 12C43.5003 11.7539 43.8871 11.4727 44.9417 10.875C45.7152 10.4414 46.3831 10.0781 46.43 10.0781ZM16.348 18.5156C17.5082 18.5156 17.93 18.5508 18.1292 18.6914C18.3167 18.8086 18.3988 18.9844 18.3988 19.2539C18.3988 19.4531 18.305 19.7227 18.1878 19.8398C18.0121 20.0156 17.7777 20.0508 16.348 20.0391C14.9652 20.0391 14.6722 20.0039 14.4964 19.8281C14.3792 19.7227 14.2855 19.4648 14.2738 19.2539C14.2738 18.9844 14.3441 18.832 14.5433 18.6914C14.766 18.5508 15.1644 18.5156 16.348 18.5156ZM47.3324 18.5156C48.6331 18.5039 48.8441 18.5391 49.1371 18.75C49.3363 18.8906 49.4535 19.0898 49.4535 19.2773C49.4535 19.4414 49.348 19.6758 49.2191 19.8047C49.0081 20.0156 48.8324 20.0391 47.3441 20.0391C45.8558 20.0391 45.68 20.0156 45.4691 19.8047C45.3402 19.6758 45.2347 19.4414 45.223 19.2891C45.2113 19.1016 45.3285 18.9141 45.5394 18.7617C45.8206 18.5391 46.0199 18.5156 47.3324 18.5156ZM19.5941 25.6641C19.7816 25.6641 20.0042 25.7461 20.098 25.8398C20.1917 25.9336 20.2738 26.1562 20.2738 26.3438C20.2738 26.5195 20.2152 26.7422 20.1332 26.8477C20.0511 26.9531 19.4183 27.3516 18.7152 27.75C18.0238 28.1484 17.3675 28.4766 17.2503 28.4766C17.1449 28.4766 16.9339 28.3945 16.7816 28.3008C16.6175 28.1836 16.5238 28.0078 16.5238 27.8086C16.5238 27.6211 16.5707 27.4102 16.6175 27.3398C16.6644 27.2578 17.2738 26.8477 17.9886 26.4258C18.7152 26.0039 19.4183 25.6641 19.5941 25.6641ZM44.0511 25.6641C44.2152 25.6641 44.93 25.9922 45.6449 26.4023C46.43 26.8477 46.9925 27.2461 47.1097 27.4453C47.2738 27.7383 47.2738 27.7852 47.0394 28.0898C46.8988 28.2656 46.6644 28.4297 46.5121 28.4531C46.3363 28.4766 45.8206 28.2539 45.1761 27.8789C44.6019 27.5508 43.9456 27.1523 43.7464 27C43.4886 26.8125 43.348 26.6133 43.3363 26.4023C43.3246 26.2383 43.4183 25.9922 43.5355 25.875C43.6527 25.7578 43.8871 25.6641 44.0511 25.6641ZM24.7855 30.8203C24.9496 30.8203 25.1605 30.9023 25.2542 30.9961C25.348 31.0898 25.4535 31.2773 25.4886 31.4062C25.5238 31.5586 25.266 32.1445 24.7621 33.0469C24.2816 33.8906 23.8597 34.5 23.7074 34.5703C23.5277 34.6484 23.3402 34.6484 23.1449 34.5703C22.9808 34.5117 22.7933 34.3125 22.7347 34.1367C22.6292 33.8438 22.6878 33.668 23.2855 32.6016C23.6605 31.9336 24.0824 31.2539 24.223 31.1016C24.3636 30.9492 24.6097 30.8203 24.7855 30.8203ZM38.9183 30.8203C39.1644 30.8203 39.3402 30.9258 39.5394 31.207C39.6917 31.4062 40.0902 32.0625 40.4183 32.6367C40.7933 33.2812 41.016 33.7969 40.9925 33.9727C40.9691 34.125 40.805 34.3594 40.6292 34.5C40.3246 34.7344 40.2777 34.7344 39.9847 34.5703C39.7855 34.4531 39.3871 33.8906 38.9417 33.1055C38.5316 32.3906 38.1917 31.6875 38.18 31.5352C38.1683 31.3711 38.2621 31.1484 38.3792 31.0312C38.4964 30.9141 38.7425 30.8203 38.9183 30.8203ZM31.8753 32.6953C32.0042 32.6953 32.2152 32.8008 32.3441 32.9297C32.555 33.1406 32.5785 33.3164 32.5785 34.8047C32.5785 36.293 32.555 36.4688 32.3441 36.6797C32.2152 36.8086 31.9808 36.9141 31.8167 36.9141C31.6292 36.9141 31.43 36.7969 31.2894 36.5977C31.0785 36.3047 31.0433 36.1055 31.055 34.7695C31.0667 33.3516 31.0785 33.2578 31.348 32.9883C31.5003 32.8242 31.7347 32.6953 31.8753 32.6953ZM17.5081 52.6406C17.7191 52.6641 17.9417 52.8047 18.0941 53.0039C18.3167 53.3086 18.3285 53.3555 18.1644 53.6367C18.0707 53.8008 17.8949 54 17.7894 54.0703C17.6488 54.1641 17.4847 54.1641 17.2621 54.082C17.0863 54.0117 16.8636 53.8125 16.7933 53.6367C16.6761 53.3906 16.6761 53.2617 16.7699 53.0625C16.8519 52.9102 16.9691 52.7578 17.0394 52.6992C17.1097 52.6523 17.3206 52.6289 17.5081 52.6406Z" fill="white"/>
</svg>
