<svg width="60" height="60" viewBox="0 0 60 60" fill="none" xmlns="http://www.w3.org/2000/svg">
<path fill-rule="evenodd" clip-rule="evenodd" d="M27.6329 5.28516C28.2423 5.27345 28.9454 5.3672 29.5548 5.51954C30.0938 5.64845 30.9493 5.96485 31.4649 6.21095C31.9805 6.46876 32.7188 6.90235 33.8087 7.72267L34.1602 7.40626C34.3477 7.23048 34.8516 6.89063 35.2735 6.65626C35.6954 6.42188 36.4571 6.08204 36.9727 5.90626C37.7579 5.64845 38.1798 5.57813 39.4923 5.53126C40.8165 5.48438 41.2266 5.51954 42.0118 5.71876C42.5274 5.84766 43.2891 6.10548 43.711 6.29298C44.1329 6.4922 44.8126 6.90235 45.2227 7.21876C45.6446 7.53516 46.3008 8.19141 46.6758 8.67188C47.0626 9.15235 47.543 9.92579 47.754 10.3711C47.9766 10.8164 48.2462 11.5313 48.3634 11.9531C48.504 12.5039 48.5626 13.1367 48.5743 14.2383C48.5743 15.5039 48.5274 15.9141 48.293 16.6406C48.1524 17.1211 47.8126 17.9414 47.543 18.457C47.0977 19.3477 46.7696 19.6992 41.2032 25.3008C37.2305 29.2969 35.1798 31.2656 34.8634 31.418C34.5821 31.5469 34.1368 31.6406 33.7501 31.6406C33.3634 31.6406 32.918 31.5469 32.6368 31.4063C32.3321 31.2656 30.211 29.25 26.5899 25.6406C23.1212 22.1953 20.8243 19.8281 20.5313 19.3945C20.2852 19.0078 19.8985 18.3516 19.6876 17.9297C19.4766 17.5078 19.2071 16.7695 19.0782 16.2891C18.9376 15.7383 18.8555 15 18.8555 14.2969C18.8438 13.6758 18.9259 12.832 19.0313 12.3867C19.1368 11.9531 19.3477 11.2969 19.4884 10.9219C19.6407 10.5586 19.9688 9.93751 20.2149 9.55079C20.461 9.16407 20.9649 8.54298 21.3165 8.15626C21.6798 7.78126 22.2891 7.2422 22.6759 6.97266C23.0626 6.69141 23.6954 6.31641 24.0821 6.14063C24.4688 5.95313 25.2071 5.69532 25.7227 5.5547C26.3204 5.39063 27.0118 5.28516 27.6212 5.28516H27.6329ZM24.504 8.05079C23.9884 8.3086 23.3321 8.76563 22.9219 9.15235C22.5352 9.51563 22.0313 10.125 21.8087 10.5C21.586 10.8867 21.2813 11.5313 21.129 11.9531C20.9415 12.457 20.8243 13.0899 20.7891 13.8281C20.7305 14.7305 20.7657 15.1289 20.9766 15.9375C21.1173 16.4883 21.4219 17.2734 21.6563 17.6953C21.9962 18.3281 23.0626 19.4531 27.7149 24.1055C33.0118 29.4258 33.3751 29.7656 33.7618 29.7656C34.1485 29.7656 34.5118 29.4258 39.5977 24.3399C43.5469 20.4024 45.1876 18.6914 45.6094 18.0469C45.9493 17.5547 46.3126 16.8047 46.4532 16.3477C46.6641 15.6797 46.711 15.2578 46.6993 14.0625C46.6993 12.75 46.6641 12.5156 46.3712 11.7774C46.1954 11.3203 45.8555 10.6758 45.6212 10.3242C45.3868 9.97266 44.8946 9.4336 44.543 9.1172C44.1915 8.80079 43.5352 8.35548 43.0782 8.14454C42.6212 7.92188 41.9415 7.65235 41.5548 7.5586C41.168 7.46485 40.3594 7.38282 39.7384 7.38282C39.1173 7.38282 38.3204 7.46485 37.9219 7.57032C37.5352 7.67579 36.879 7.9336 36.4571 8.15626C36.0352 8.3672 35.3438 8.8711 34.8985 9.25782C34.3126 9.78516 34.0313 9.96095 33.7618 9.96095C33.4923 9.96095 33.211 9.78517 32.5548 9.18751C32.0626 8.73048 31.3712 8.25001 30.8907 8.01563C30.4337 7.8047 29.754 7.53516 29.3673 7.44141C28.9805 7.34766 28.2188 7.26563 27.668 7.27735C27.1173 7.27735 26.379 7.35938 26.0274 7.45313C25.6759 7.54688 24.9844 7.81641 24.504 8.05079ZM47.004 32.8477C47.6368 32.8828 48.0821 32.9883 48.586 33.2109C48.9727 33.3867 49.3829 33.6211 49.5001 33.7266C49.6759 33.8906 49.7462 33.9024 49.9102 33.7852C50.0157 33.7031 50.3673 33.4922 50.6954 33.3164C51.1524 33.082 51.4923 33 52.2188 32.9531C52.9571 32.918 53.2852 32.9531 53.8009 33.1406C54.1524 33.2813 54.7032 33.6211 55.0313 33.9024C55.3946 34.2188 55.7227 34.6524 55.9102 35.0508C56.1446 35.5547 56.2032 35.8711 56.1915 36.6211C56.1915 37.3945 56.1329 37.6758 55.8751 38.2031C55.711 38.5547 55.3712 39.0352 55.1251 39.2695C54.879 39.5039 50.9415 42.5156 46.3594 45.961C41.7774 49.418 37.6407 52.5235 37.1602 52.8633C36.6798 53.2149 35.8594 53.6836 35.3438 53.8945C34.8282 54.1055 33.9259 54.3867 33.3516 54.5039C32.7774 54.6328 32.0274 54.7266 31.711 54.7266C31.3829 54.7266 30.6446 54.6211 30.0704 54.5039C29.4962 54.375 25.6407 53.1094 21.5157 51.6914C17.3907 50.2617 13.6759 49.043 13.254 48.9609C12.8321 48.8906 12.0469 48.8672 11.4962 48.8906C10.8868 48.9375 10.1602 49.0664 9.62117 49.2539C9.1407 49.418 8.42585 49.7344 8.03913 49.9688C7.65242 50.2031 7.10163 50.5664 6.8321 50.7774C6.38679 51.0938 6.22273 51.1524 5.63679 51.1524C5.13288 51.1524 4.86335 51.0938 4.62898 50.918C4.46492 50.7891 4.2071 50.5313 4.06648 50.3555C3.82038 50.0274 3.82038 49.9219 3.78523 44.5547C3.76179 39.3633 3.77351 39.0586 3.98445 38.6133C4.11335 38.3555 4.35945 38.0391 4.54695 37.9219C4.72273 37.793 7.17195 36.8906 9.97273 35.9063C12.7735 34.9219 15.4805 34.043 15.9844 33.9375C16.4766 33.832 17.4493 33.75 18.1407 33.75C18.9962 33.75 22.5352 34.1133 28.8985 34.8633C34.1251 35.4727 38.5196 36.0117 38.6837 36.0352C38.8946 36.082 39.7501 35.7188 41.9063 34.6758C43.5235 33.8906 45.129 33.1524 45.4805 33.0234C45.9493 32.8711 46.3594 32.8242 47.004 32.8477ZM43.1837 36.1641L40.8165 37.3242C41.2032 37.957 41.379 38.4375 41.4493 38.7891C41.5196 39.1406 41.6016 39.4336 41.6368 39.4336C41.6719 39.4336 43.1368 38.4609 44.8829 37.2656C46.629 36.0703 48.0587 35.0742 48.0587 35.0391C48.0587 35.0039 47.8594 34.9102 47.6251 34.8399C47.379 34.7578 46.9923 34.6875 46.7696 34.6992C46.5469 34.6992 46.1719 34.7695 45.9493 34.8516C45.7266 34.9336 44.4727 35.5195 43.1837 36.1641ZM44.0157 40.125C39.8907 42.9492 36.2813 45.375 35.9884 45.5039C35.6954 45.6328 35.1094 45.7617 34.6407 45.7969C34.0899 45.832 33.6094 45.7852 33.1759 45.668C32.754 45.5391 31.8634 45.0352 30.5977 44.1797L28.6641 42.8906H22.7462C22.2891 42.4336 22.1602 42.1758 22.1602 42.0117C22.1602 41.8477 22.1954 41.6367 22.254 41.5313C22.3009 41.4258 22.4766 41.2617 22.6641 41.1797C22.9219 41.0508 24.4454 41.0156 30.7501 41.0156C38.0977 41.0039 38.5313 40.9922 38.8594 40.793C39.0469 40.6758 39.3048 40.3828 39.4219 40.1484C39.5274 39.9141 39.6212 39.5508 39.6212 39.3516C39.6212 39.1406 39.5157 38.7891 39.3868 38.5899C39.2579 38.3789 38.9884 38.1211 38.8009 38.0274C38.5665 37.9102 35.1446 37.4649 28.8399 36.7383C22.9337 36.0586 18.7852 35.625 18.0821 35.625C17.461 35.625 16.6055 35.707 16.1837 35.8125C15.7618 35.9063 13.2188 36.7617 10.5235 37.7109L5.63679 39.4336V49.3359C6.50398 48.6797 7.17195 48.2813 7.68757 48.0352C8.2032 47.7891 9.04695 47.4727 9.56257 47.332C10.254 47.1445 10.8634 47.0742 11.9063 47.0742C12.6798 47.0625 13.629 47.1328 14.0157 47.2149C14.4024 47.2969 15.6212 47.6719 16.711 48.0469C17.8009 48.4219 21.1055 49.5469 24.0352 50.5664C26.9649 51.5742 29.6602 52.4766 30.0118 52.5703C30.3634 52.6641 31.1368 52.7344 31.711 52.7344C32.2852 52.7344 33.0821 52.6524 33.4688 52.5586C33.8555 52.4649 34.5352 52.1953 34.9923 51.9727C35.5196 51.7149 38.9415 49.207 44.6016 44.9414C49.4415 41.2852 53.543 38.1563 53.7305 37.9922C53.918 37.8164 54.1407 37.5 54.2227 37.3008C54.3165 37.0899 54.3868 36.7734 54.3868 36.5977C54.3868 36.4102 54.2696 36.0352 54.1173 35.7539C53.9766 35.4727 53.6954 35.1445 53.5079 35.0391C53.3204 34.9219 52.9688 34.793 52.7462 34.7578C52.5235 34.7227 52.1485 34.7578 51.9259 34.8399C51.7032 34.9219 48.1407 37.3008 44.0157 40.125ZM33.0001 43.5352C33.4805 43.8281 33.6798 43.8867 34.3477 43.8867C35.0157 43.8867 35.2149 43.8281 35.6954 43.5352C36.0118 43.3477 36.2813 43.1133 36.3048 43.043C36.3282 42.9258 35.8829 42.8906 34.336 42.8906C32.7774 42.8906 32.3438 42.9258 32.379 43.043C32.4141 43.1133 32.6837 43.3477 33.0001 43.5352Z" fill="white"/>
</svg>
