<svg width="60" height="60" viewBox="0 0 60 60" fill="none" xmlns="http://www.w3.org/2000/svg">
<g clip-path="url(#clip0_219_1074)">
<path fill-rule="evenodd" clip-rule="evenodd" d="M3.05905 0H4.45358L4.51217 3.19922C4.54733 4.94531 4.57077 7.125 4.57077 9.66797L8.98874 9.57422C11.4262 9.52734 15.5981 9.49219 23.0864 9.49219L23.0278 0H24.3169L24.4106 1.95703C24.4575 3.04688 24.4926 5.40234 24.4926 7.20703C24.5044 10.1719 24.4809 10.5 24.3051 10.6641C24.188 10.7578 23.8715 10.8633 23.0864 10.957V15.1172L22.4419 15.8438L22.9106 16.7695C23.1684 17.2734 23.4145 17.6953 23.4614 17.6953C23.52 17.6953 25.6528 16.8164 28.2075 15.75C30.7739 14.6836 32.9536 13.7695 33.0473 13.7227C33.188 13.6523 33.1176 13.5703 32.7661 13.3477C32.5083 13.1953 32.0981 12.832 31.852 12.5391C31.5942 12.2461 31.2661 11.7539 31.1137 11.4258C30.9614 11.1094 30.7739 10.5 30.6919 10.0781C30.5864 9.49219 30.5747 9.12891 30.6801 8.49609C30.7622 8.05078 30.9497 7.39453 31.1137 7.06641C31.2778 6.72656 31.688 6.15234 32.0278 5.78906C32.3559 5.4375 32.8481 5.01562 33.1059 4.86328C33.3637 4.72266 33.8442 4.51172 34.1606 4.40625C34.5122 4.27734 35.1098 4.20703 35.684 4.20703C36.2934 4.20703 36.8442 4.28906 37.2661 4.42969C37.6176 4.54688 38.1215 4.78125 38.3794 4.94531C38.6372 5.10938 39.059 5.48438 39.3286 5.75391C39.5864 6.03516 39.9145 6.45703 40.0551 6.67969C40.184 6.90234 40.3833 7.40625 40.477 7.79297C40.5825 8.17969 40.6645 8.95312 40.6645 9.52734C40.6645 10.2891 40.6997 10.5352 40.8169 10.5C40.8872 10.4766 42.9262 9.63281 45.3286 8.625C47.7192 7.61719 49.7231 6.79688 49.7817 6.79688C49.8286 6.79688 52.0669 12.0586 54.7505 18.4805C58.0083 26.25 59.6489 30.3164 59.6489 30.5859C59.6489 30.8086 59.5786 31.2305 59.4966 31.5234C59.4145 31.8164 59.1919 32.25 59.0044 32.4961C58.77 32.7891 58.395 33.0703 57.188 33.6328L57.4809 34.5469C57.645 35.0391 57.809 35.6133 57.8442 35.8008C57.8794 36.0352 57.5512 37.4648 56.895 39.9023C56.1567 42.6914 55.7817 43.875 54.9965 45.4102L55.2426 45.7383C55.4653 46.043 55.4887 46.2539 55.5473 50.2734L56.0864 50.3086C56.52 50.3203 56.684 50.3906 56.8481 50.625C57.0239 50.8828 57.059 51.3867 57.188 59.8828H55.8403L55.7583 57.3398C55.6997 55.9336 55.6645 54.0703 55.6645 51.6211L50.4848 51.7031C47.6255 51.7617 43.4653 51.7969 37.1489 51.7969L37.2075 59.8828H35.9184L35.8364 58.2188C35.7778 57.293 35.7426 55.2422 35.7426 53.6367C35.7426 50.7656 35.7426 50.7422 36.0122 50.5664C36.1528 50.4727 36.4692 50.3906 37.1489 50.3906V46.1719L37.7934 45.4453L37.313 44.4961C37.0434 43.9688 36.7856 43.2773 36.727 42.9609C36.6684 42.6562 36.5864 42.375 36.5395 42.3516C36.4809 42.3281 36.2231 42.3984 35.9536 42.5273C35.6723 42.6445 35.2856 42.8906 35.0864 43.0781C34.8637 43.2891 33.1059 44.1445 30.4575 45.3281C28.1137 46.3711 26.0981 47.2266 25.9926 47.2266C25.8755 47.2266 25.6294 47.0625 25.4301 46.875C25.2426 46.6875 25.0786 46.4297 25.0786 46.3125C25.0786 46.207 25.184 45.7969 25.3247 45.4102C25.5122 44.8711 25.559 44.5312 25.5122 43.9453C25.477 43.4766 25.3481 42.9609 25.1606 42.5977C25.0083 42.2695 24.6098 41.7773 24.2934 41.4844C23.9067 41.1328 23.4965 40.8867 23.0278 40.7344C22.5122 40.5703 22.1137 40.5234 21.563 40.5703C21.0708 40.6055 20.5903 40.7344 20.2153 40.9219C19.8989 41.0859 19.4184 41.4492 19.1723 41.7305C18.9145 42.0117 18.5981 42.4805 18.4692 42.7734C18.3051 43.1484 18.2348 43.5586 18.2348 44.1797C18.2348 44.8477 18.2934 45.1875 18.4809 45.5859C18.6215 45.8789 18.9614 46.3477 19.2426 46.6406C19.5239 46.9336 20.0864 47.4609 20.4848 47.8125C21.0005 48.2695 21.2114 48.5391 21.2114 48.75C21.2231 48.9141 21.0942 49.1953 20.9536 49.3828C20.8012 49.5703 20.4497 49.8281 20.1567 49.9453C19.8637 50.0742 17.684 51.0469 15.2934 52.1133C12.9145 53.168 10.9223 54 10.8755 53.9414C10.8403 53.8945 8.44967 48.5742 5.56686 42.1289C0.352017 30.4688 0.32858 30.4102 0.375455 29.7656C0.410611 29.4141 0.539517 28.9102 0.668423 28.6523C0.79733 28.3945 1.10202 28.0078 1.33639 27.7969C1.57077 27.5977 1.99264 27.3164 2.28561 27.1875C2.57858 27.0586 2.81295 26.9414 2.81295 26.918C2.81295 26.9062 2.70749 26.5781 2.57858 26.1914C2.44967 25.8047 2.3442 25.4062 2.3442 25.3125C2.3442 25.2188 2.78952 23.4492 3.3403 21.3867C4.0903 18.5625 4.45358 17.4141 5.23874 15.8789L4.99264 15.5273C4.76999 15.2109 4.74655 15.0117 4.68795 11.0156L4.14889 10.9805C3.7153 10.9688 3.55124 10.8984 3.38717 10.6641C3.21139 10.3945 3.17624 9.86719 3.11764 5.17969L3.05905 0ZM33.8325 6.07031C33.5161 6.24609 33.1294 6.55078 32.9653 6.73828C32.8012 6.9375 32.5317 7.35938 32.3676 7.67578C32.1098 8.16797 32.063 8.42578 32.063 9.19922C32.063 9.94922 32.1215 10.2656 32.3559 10.7812C32.5317 11.1562 32.8833 11.625 33.2348 11.9531C33.563 12.2461 34.0551 12.5625 34.3364 12.6562C34.6176 12.7617 34.9458 12.9727 35.063 13.125C35.1919 13.2891 35.2856 13.5586 35.2856 13.7109C35.2856 13.875 35.2153 14.1211 35.1216 14.2383C35.0161 14.3906 33.2465 15.1875 30.27 16.4062L25.5825 18.3398C25.9926 19.1602 26.7544 20.8477 27.5395 22.6172C28.3247 24.3984 29.0044 25.8867 29.0512 25.9336C29.0981 25.9922 29.3442 25.7578 29.602 25.418C29.8598 25.0781 30.352 24.5977 30.7153 24.3516C31.0669 24.1055 31.6997 23.8008 32.1215 23.6719C32.5551 23.5312 33.2114 23.4375 33.6684 23.4375C34.1372 23.4375 34.7465 23.543 35.1684 23.6719C35.5551 23.8008 36.0825 24.0469 36.3403 24.1992C36.5981 24.3633 37.02 24.7266 37.2895 24.9961C37.5473 25.2656 37.8989 25.7578 38.063 26.0742C38.227 26.4023 38.438 26.9297 38.52 27.2461C38.602 27.5742 38.684 28.125 38.684 28.4766C38.684 28.8398 38.602 29.4258 38.5083 29.8008C38.4028 30.1758 38.1919 30.75 38.0161 31.0898C37.8403 31.4297 37.4419 31.9688 37.1137 32.2969C36.7856 32.625 36.2231 33.0352 35.8715 33.1992C35.4614 33.3984 34.852 33.5742 34.2309 33.6445C33.6801 33.7266 33.0825 33.7617 32.9067 33.7383C32.7309 33.7148 32.5903 33.7383 32.5903 33.7852C32.5903 33.832 33.2466 35.3906 34.0669 37.2422C34.8755 39.0938 35.5903 40.7344 35.6489 40.875C35.7075 41.0156 35.7895 41.1211 35.8364 41.0859C35.8833 41.0625 39.0356 39.75 42.8442 38.1562C46.6411 36.5625 49.9575 35.1328 50.1919 34.9805C50.5317 34.7578 50.6255 34.6289 50.5786 34.4297C50.5551 34.2891 50.3325 32.9297 50.0981 31.4062L49.6645 28.6523C49.9575 27.1992 50.1801 26.5547 50.3442 26.2852C50.4965 26.0156 50.8247 25.6406 51.0708 25.4648C51.3051 25.2891 51.6919 25.0781 51.9145 24.9961C52.1489 24.9258 52.5825 24.8555 52.8872 24.8555C53.1919 24.8555 53.5903 24.9258 53.7661 25.0195C53.9419 25.1016 54.2348 25.3242 54.3989 25.5117C54.6216 25.7578 54.938 26.5547 55.5473 28.4766C56.0161 29.9297 56.4614 31.3711 56.5551 31.6758C56.7192 32.1914 56.7544 32.2266 57.0473 32.168C57.2231 32.1211 57.5044 32.0039 57.6684 31.8867C57.8208 31.7695 58.0317 31.5 58.1255 31.2773C58.2075 31.0664 58.2544 30.7266 58.2192 30.5273C58.184 30.3398 56.1333 25.3594 53.6723 19.4531C51.2114 13.5586 49.1606 8.69531 49.1255 8.66016C49.0786 8.61328 47.2856 9.31641 45.1294 10.2188C42.9614 11.1211 40.9575 11.9414 40.6762 12.0352C40.2192 12.1875 40.0903 12.1992 39.8091 12.0586C39.6216 11.9766 39.4106 11.7891 39.352 11.6602C39.2817 11.5312 39.2231 10.6641 39.2114 9.72656C39.2114 8.20312 39.1762 7.98047 38.9419 7.53516C38.8012 7.26563 38.4848 6.84375 38.2387 6.60938C38.0044 6.36328 37.5356 6.05859 37.2192 5.91797C36.8911 5.76562 36.3637 5.625 36.0473 5.58984C35.7192 5.55469 35.2153 5.57812 34.934 5.64844C34.6411 5.70703 34.1489 5.89453 33.8325 6.07031ZM6.10592 11.0156L6.16452 14.707C13.7934 14.7656 17.2856 14.7539 18.8442 14.7188L21.6919 14.6484V10.8984C14.9184 10.9453 11.4145 10.9688 9.5278 10.9922L6.10592 11.0156ZM6.75045 16.1719C5.83639 17.6484 5.64889 18.2227 4.75827 21.5039L3.75045 25.2539C6.07077 32.5195 6.82077 34.7227 6.92624 34.8398C7.01999 34.957 7.26608 35.0391 7.45358 35.0391C7.6528 35.0391 7.98092 34.9336 8.19186 34.8047C8.42624 34.6641 8.66061 34.3477 8.81295 34.0078C8.95358 33.7031 9.0942 33.1875 9.11764 32.8711C9.1528 32.4961 8.97702 31.0781 8.63717 29.0039C8.3442 27.1992 8.10983 25.7227 8.13327 25.7227C8.14499 25.7227 8.42624 25.5938 8.74264 25.4414C9.07077 25.2891 9.60983 24.8906 9.96139 24.5625C10.3012 24.2344 10.6528 23.8359 10.7348 23.6719C10.852 23.4375 11.9653 22.8867 16.4653 20.8594C19.5356 19.4766 22.0551 18.2812 22.0434 18.2227C22.0434 18.1523 21.9262 17.8711 21.7973 17.5781C21.6684 17.2852 21.3872 16.8281 21.188 16.5469L20.813 16.043C18.4575 16.0898 15.2934 16.125 12.2583 16.1367L6.75045 16.1719ZM11.5317 24.9258C11.3208 25.207 10.8755 25.6523 10.5356 25.9102C10.1958 26.1797 9.8442 26.4258 9.76217 26.4727C9.64499 26.5312 9.66842 26.918 9.91452 28.418C10.0786 29.4492 10.3012 30.7969 10.395 31.4062C10.5122 32.2617 10.5239 32.707 10.4419 33.2812C10.3715 33.7031 10.184 34.3359 10.02 34.6875C9.85592 35.0391 9.58639 35.4844 9.41061 35.6602C9.23483 35.8359 8.82467 36.0938 8.48483 36.2227C8.14499 36.3398 7.6528 36.4453 7.39499 36.4453C7.13717 36.4453 6.76217 36.375 6.55124 36.2812C6.3403 36.1992 6.02389 35.9766 5.85983 35.7891C5.62545 35.5312 5.27389 34.5938 4.41842 31.9336C3.79733 30 3.26999 28.3945 3.23483 28.3594C3.19967 28.3242 3.03561 28.3711 2.85983 28.4531C2.68405 28.5234 2.39108 28.7344 2.20358 28.9219C2.00436 29.1211 1.85202 29.4258 1.81686 29.707C1.74655 30.1406 2.12155 31.0195 6.45749 40.7227C9.05905 46.5234 11.2739 51.4922 11.3911 51.7734L11.6137 52.2656C15.6567 50.4375 17.4145 49.6523 18.1176 49.3359L19.4067 48.75C17.9067 47.2148 17.4145 46.582 17.2505 46.2305C17.0981 45.9141 16.9223 45.3281 16.8637 44.9414C16.7817 44.4492 16.7817 44.0156 16.8755 43.4766C16.9458 43.0547 17.1684 42.375 17.3676 41.9531C17.5903 41.4844 17.9653 40.9688 18.3403 40.6055C18.6801 40.2891 19.2426 39.8789 19.5942 39.7031C19.9458 39.5391 20.4614 39.3398 20.7544 39.2695C21.0473 39.1992 21.5512 39.1523 21.8676 39.1406C22.1958 39.1406 22.77 39.2227 23.1567 39.3281C23.5434 39.4219 24.1411 39.6797 24.4926 39.8789C24.8325 40.0898 25.3364 40.5 25.6059 40.793C25.8755 41.0859 26.227 41.6133 26.4028 41.9648C26.5669 42.3164 26.7661 42.9141 26.8481 43.3008C26.9301 43.6992 26.9653 44.2969 26.9184 44.6836C26.8833 45.0469 26.895 45.3516 26.9419 45.3516C26.9887 45.3516 28.6059 44.6484 30.5395 43.7695C32.4731 42.9023 34.1255 42.0938 34.2075 41.9883C34.2895 41.8711 34.3481 41.6484 34.3481 41.4844C34.3481 41.3203 33.5512 39.4453 32.5903 37.3008C31.5122 34.8984 30.8325 33.2578 30.8325 33.0234C30.8325 32.7656 30.9262 32.543 31.1372 32.3438C31.4301 32.0625 31.5005 32.0508 32.9184 32.0508C33.8794 32.0508 34.5942 31.9922 34.934 31.875C35.2856 31.7695 35.6841 31.4883 36.1176 31.0664C36.5981 30.5859 36.8208 30.2461 36.9848 29.7656C37.1255 29.3203 37.184 28.8867 37.1489 28.3594C37.1137 27.9141 36.9965 27.3867 36.8442 27.0703C36.7036 26.7773 36.3872 26.3438 36.1411 26.0859C35.895 25.8281 35.4028 25.4883 35.0512 25.3242C34.559 25.1016 34.2075 25.0312 33.5864 25.0312C32.895 25.0312 32.6372 25.0898 31.9809 25.4062C31.4497 25.6562 31.0512 25.9492 30.7856 26.2852C30.563 26.5547 30.2583 27.0703 30.1059 27.4219C29.895 27.9258 29.7426 28.1016 29.4497 28.2188C29.1919 28.3242 28.9926 28.3242 28.7817 28.2422C28.6176 28.1836 28.4184 28.0078 28.3247 27.8672C28.2309 27.7148 27.352 25.7578 26.3676 23.4961C25.395 21.2461 24.5044 19.3008 24.3989 19.1836C24.2934 19.0781 24.1645 18.9844 24.0942 18.9961C24.0356 18.9961 21.2583 20.2148 17.9419 21.7148C12.1411 24.3164 11.895 24.4336 11.5317 24.9258ZM51.4458 27.2227C51.3051 27.4922 51.1762 28.0078 51.1411 28.3594C51.1059 28.7812 51.2583 30.0234 51.5747 31.9336C51.8325 33.5508 52.0786 35.0156 52.102 35.1914C52.1606 35.4844 52.102 35.543 51.5044 35.8359C51.1411 36.0117 50.5669 36.4219 50.2387 36.7383C49.8755 37.1016 49.4419 37.7109 49.1489 38.2969C48.8676 38.8242 48.6215 39.2578 48.5864 39.2578C48.5512 39.2578 48.2583 39.1406 47.9419 39C47.6137 38.8477 47.3559 38.7188 47.3559 38.707C47.3559 38.6836 47.4614 38.4609 47.5903 38.2031C47.7192 37.9453 47.813 37.7109 47.8012 37.6758C47.7778 37.6406 45.563 38.5195 42.8794 39.6328C38.2856 41.543 37.9809 41.6836 37.9809 41.9531C37.9809 42.1172 38.063 42.5391 38.1684 42.8906C38.2739 43.2422 38.5083 43.8047 38.684 44.1211C38.8715 44.4492 39.1411 44.8242 39.2934 44.9766L39.563 45.2344L53.4731 45.1758C54.4223 43.6289 54.5981 43.1016 55.4887 39.7617L56.4965 35.9766C54.1176 28.582 53.4145 26.3906 53.3794 26.3438C53.3559 26.2969 53.1098 26.25 52.8286 26.25C52.5005 26.25 52.2075 26.332 52.0083 26.4844C51.8325 26.6133 51.5864 26.9414 51.4458 27.2227ZM38.5669 48.457C38.5669 49.8047 38.602 50.2969 38.7192 50.332C38.8012 50.3672 42.2934 50.3555 46.477 50.3086L54.0942 50.2148V46.6992L38.5669 46.6406V48.457ZM10.4653 56.4844H11.9067L11.8247 57.1055C11.7778 57.4336 11.7309 58.2305 11.7309 60L11.063 59.9766C10.4419 59.9414 10.3833 59.918 10.3481 59.6484C10.3247 59.4844 10.3364 58.7109 10.3833 57.9258L10.4653 56.4844ZM49.852 0.117188H50.2739C50.5083 0.117188 50.8012 0.140625 50.9301 0.175781C51.1528 0.234375 51.1645 0.328125 51.1059 3.63281H49.6997V2.60156C49.6997 2.03906 49.7348 1.25391 49.77 0.84375L49.852 0.117188ZM45.3051 2.00391C45.3637 1.99219 45.7387 2.68359 46.1489 3.51562C46.559 4.35938 46.8872 5.0625 46.8637 5.08594C46.852 5.10938 46.6176 5.23828 46.3364 5.37891C46.0669 5.51953 45.7856 5.625 45.727 5.625C45.6567 5.625 45.27 4.94531 44.0864 2.57812L44.6372 2.29688C44.9536 2.13281 45.2465 2.00391 45.3051 2.00391ZM55.6997 1.99219L56.2856 2.28516C56.602 2.44922 56.8598 2.625 56.8598 2.67188C56.8598 2.71875 56.52 3.43359 55.3364 5.74219L54.7505 5.44922C54.4223 5.28516 54.1528 5.12109 54.1411 5.0625C54.1294 5.01562 54.4809 4.30078 54.9145 3.48047L55.6997 1.99219ZM15.9262 54.3867C15.9497 54.375 16.3012 55.0664 16.7231 55.8984C17.1333 56.7422 17.4848 57.4453 17.4848 57.4805C17.4848 57.5156 17.2153 57.668 16.313 58.125L15.7973 57.1641C15.5161 56.625 15.1762 55.9688 15.0356 55.6992C14.895 55.418 14.7778 55.1484 14.7661 55.0781C14.7544 55.0195 15.0005 54.832 15.3169 54.6797C15.645 54.5156 15.9145 54.3867 15.9262 54.3867ZM6.29342 54.4922C6.32858 54.4922 6.60983 54.6211 7.52389 55.0781L6.72702 56.6016C6.29342 57.4336 5.88327 58.125 5.82467 58.125C5.75436 58.125 5.48483 57.9961 4.71139 57.5391L5.47311 56.0156C5.89499 55.1836 6.25827 54.4922 6.29342 54.4922Z" fill="white"/>
</g>
<defs>
<clipPath id="clip0_219_1074">
<rect width="60" height="60" fill="white"/>
</clipPath>
</defs>
</svg>
