<svg width="60" height="60" viewBox="0 0 60 60" fill="none" xmlns="http://www.w3.org/2000/svg">
<g clip-path="url(#clip0_219_1050)">
<path fill-rule="evenodd" clip-rule="evenodd" d="M29.9883 0C30.1641 0 30.4102 0.105469 30.5508 0.234375C30.8203 0.46875 30.8203 0.527344 30.8203 3.04688C30.8203 5.47266 30.8086 5.63672 30.5859 5.85938C30.457 5.98828 30.1992 6.09375 30 6.09375C29.8008 6.09375 29.543 5.98828 29.4141 5.85938C29.1914 5.63672 29.1797 5.44922 29.1562 3.04688C29.1445 0.480469 29.1445 0.480469 29.4141 0.234375C29.5664 0.105469 29.8242 0 29.9883 0ZM12.7148 9.73828C12.8438 9.72656 14.2148 10.4766 15.7617 11.4023C17.3086 12.3164 18.7148 13.1953 18.9023 13.3594C19.207 13.6172 19.2422 13.7109 19.1016 14.5312H40.8984L40.8281 14.0977C40.7695 13.7227 40.8047 13.6055 41.0391 13.4062C41.1797 13.2656 42.5977 12.3867 44.1797 11.4375C45.7617 10.5 47.1445 9.72656 47.2617 9.72656C47.3672 9.72656 47.5664 9.78516 47.6953 9.84375C47.8242 9.91406 50.5664 14.3672 53.8711 19.8984C57.1406 25.3594 59.8594 29.9648 59.9297 30.1406C60.0234 30.3633 60.0234 30.5273 59.9297 30.7266C59.8477 30.9023 58.7461 31.6289 56.8242 32.7656C55.1836 33.75 53.7656 34.5586 53.6719 34.582C53.5781 34.6055 53.3555 34.582 53.168 34.5352C52.9805 34.4883 52.7812 34.3125 52.6758 34.1016C52.582 33.9141 52.4648 33.7734 52.4062 33.7969C52.3594 33.8203 52.1602 34.1602 51.6211 35.2734L51.9141 35.4727C52.0781 35.5898 52.4648 35.8945 52.793 36.1523C53.168 36.457 53.5078 36.8906 53.7305 37.3242C54.0469 37.9453 54.082 38.1211 54.082 39.0703C54.082 39.9961 54.0352 40.2188 53.7656 40.7227C53.6016 41.0508 53.25 41.5078 53.0039 41.7422C52.7578 41.9766 52.2422 42.3164 51.8555 42.4922C51.2344 42.7617 51.0352 42.7969 50.2148 42.7617C49.4766 42.7266 49.1484 42.6445 48.0469 42.0703L47.9883 42.5391C47.9531 42.7969 47.8008 43.2539 47.6484 43.5703C47.4961 43.875 47.1328 44.3438 46.8516 44.6133C46.582 44.8828 46.0781 45.2227 45.7617 45.3633C45.3281 45.5508 44.9414 45.6328 44.2969 45.6328C43.5586 45.6328 43.3008 45.5859 42.7148 45.293C42.3281 45.1055 41.9883 44.9414 41.9531 44.918C41.918 44.8945 41.8594 45.0938 41.8008 45.3516C41.7539 45.6094 41.6133 46.043 41.4727 46.3242C41.332 46.5938 41.0273 47.0156 40.793 47.2617C40.5586 47.5078 40.1016 47.8594 39.7852 48.0234C39.2695 48.3047 39.0703 48.3398 38.0859 48.3398C37.0898 48.3398 36.9141 48.3047 36.3867 48.0117C36.0586 47.8359 35.8008 47.707 35.7891 47.7188C35.7773 47.7422 35.707 48.0234 35.6367 48.3398C35.5547 48.668 35.3672 49.1367 35.2266 49.3945C35.0742 49.6523 34.7578 50.0391 34.5234 50.25C34.2891 50.4492 33.8789 50.7422 33.5977 50.8828C33.293 51.0352 32.7891 51.1523 32.2852 51.1875C31.7695 51.2227 31.2422 51.1875 30.8789 51.082C30.5156 50.9883 29.7539 50.5547 27.4805 48.9727L27.3164 49.2422C27.2227 49.3945 26.8594 49.8047 26.4961 50.1562C26.0391 50.6133 25.6523 50.8711 25.1953 51.0234C24.7031 51.1875 24.3398 51.2344 23.6719 51.1875C22.9922 51.1523 22.6523 51.0586 22.1602 50.7891C21.8086 50.6016 21.3398 50.2383 21.1055 49.9688C20.8711 49.7109 20.6016 49.2656 20.4844 48.9727C20.3789 48.6914 20.2617 48.3281 20.2266 48.1641C20.168 47.8828 20.1328 47.8711 19.1953 47.8711C18.4688 47.8711 18.0938 47.8125 17.6953 47.625C17.4023 47.4961 16.9336 47.1797 16.6523 46.9219C16.3828 46.6758 16.0547 46.3008 15.9375 46.1133C15.8086 45.9258 15.6445 45.4688 15.3867 44.4727L14.5781 44.5195C14.0156 44.543 13.5703 44.4961 13.125 44.3555C12.6328 44.1914 12.3047 43.9688 11.7656 43.4297C11.2617 42.9258 11.0039 42.5391 10.8633 42.1289C10.7461 41.8125 10.6641 41.4609 10.6641 41.3672C10.6641 41.2266 10.4766 41.1914 9.69141 41.1914C8.90625 41.1914 8.61328 41.1328 8.08594 40.8984C7.73438 40.7227 7.23047 40.3828 6.97266 40.1367C6.71484 39.8789 6.375 39.4102 6.21094 39.082C5.96484 38.5898 5.91797 38.3203 5.91797 37.4414C5.91797 36.5273 5.96484 36.3047 6.22266 35.8008C6.39844 35.4844 6.79688 34.9688 7.13672 34.6641C7.55859 34.2656 7.71094 34.043 7.66406 33.9023C7.59375 33.7031 7.58203 33.7031 7.46484 33.9141C7.38281 34.043 7.23047 34.2422 7.125 34.3594C7.00781 34.4766 6.76172 34.5703 6.5625 34.5703C6.31641 34.5703 5.28516 34.0195 3.19922 32.7891C1.25391 31.6289 0.152344 30.9023 0.0703125 30.7266C-0.0234375 30.5273 -0.0234375 30.3633 0.0703125 30.1406C0.140625 29.9648 2.87109 25.3594 6.14062 19.8984C9.41016 14.4375 12.1758 9.92578 12.2812 9.85547C12.3984 9.78516 12.5859 9.73828 12.7148 9.73828ZM2.13281 30.0117C2.12109 30.0703 3.03516 30.668 4.16016 31.3477C6.21094 32.5781 6.21094 32.5781 6.375 32.3086C6.46875 32.168 8.91797 28.0664 11.8242 23.2031C14.7305 18.3398 17.1094 14.332 17.1094 14.2969C17.1094 14.2617 16.2305 13.7109 15.1523 13.0664C14.0859 12.4219 13.1484 11.8828 13.0781 11.8711C13.0078 11.8477 10.5234 15.9023 7.55859 20.8711C4.59375 25.8281 2.15625 29.9414 2.13281 30.0117ZM42.8906 14.2969C42.8906 14.332 45.2578 18.3398 48.1758 23.2031C51.082 28.0664 53.5312 32.168 53.625 32.3203C53.7891 32.5781 53.7891 32.5781 55.8398 31.3477C56.9648 30.668 57.8789 30.0703 57.8555 30C57.8438 29.9414 55.418 25.8281 52.4766 20.8594C49.5352 15.9023 47.0742 11.8359 47.0273 11.8359C46.9805 11.8359 46.0195 12.375 44.918 13.043C43.8047 13.6992 42.8906 14.2617 42.8906 14.2969ZM8.63672 31.9336L9.49219 33.6328C10.5352 33.7969 11.0508 33.9492 11.3086 34.0781C11.5664 34.207 11.9883 34.5234 12.2461 34.7695C12.5039 35.0273 12.7969 35.3906 12.8906 35.5781C12.9844 35.7656 13.0781 35.9297 13.0898 35.9531C13.1133 35.9648 13.4297 35.7656 13.8047 35.5078C14.168 35.25 14.7422 34.9805 15.0586 34.9102C15.3867 34.8281 15.9609 34.793 16.3477 34.8281C16.7695 34.8633 17.2852 35.0039 17.6367 35.1797C17.9648 35.3438 18.4453 35.7188 18.7266 36.0234C18.9961 36.3164 19.2188 36.5977 19.2188 36.6562C19.2188 36.7031 19.2656 36.8086 19.3125 36.8906C19.3711 37.0078 19.5469 36.9023 19.9805 36.4805C20.3711 36.0977 20.8008 35.8164 21.2695 35.6367C21.832 35.4258 22.1484 35.3789 22.8516 35.4141C23.4844 35.4375 23.8945 35.5312 24.3164 35.7422C24.6445 35.8945 25.1016 36.2227 25.3477 36.4688C25.582 36.7148 25.8867 37.125 26.0156 37.3828C26.1445 37.6406 26.3086 38.1562 26.3789 38.5312C26.4609 39 26.4609 39.375 26.3789 39.7852C26.3086 40.1133 26.1328 40.6055 25.9805 40.8984L25.6992 41.4258C26.7188 41.6484 27.293 41.9062 27.6328 42.1289C27.9727 42.3633 28.3945 42.7852 28.5938 43.1016C28.793 43.4062 29.0391 43.9453 29.1445 44.2969C29.2695 44.7266 29.3086 45.1562 29.2617 45.5859C29.2148 45.9375 29.0391 46.5352 28.8633 46.8984L28.5352 47.5664C30.1523 48.7148 30.8203 49.1484 31.043 49.2656C31.2891 49.3945 31.6875 49.4883 31.9922 49.4883C32.2852 49.4883 32.6953 49.3945 32.9062 49.2891C33.1055 49.1836 33.4219 48.9023 33.6094 48.668C33.832 48.3633 33.9375 48.0586 33.9727 47.6484C33.9961 47.2031 33.9492 46.9219 33.7617 46.5586C33.5508 46.1367 33.1875 45.832 31.5586 44.6953C30.4687 43.9453 29.5195 43.2422 29.4375 43.1367C29.3555 43.0312 29.2969 42.7734 29.2969 42.5742C29.2969 42.293 29.3789 42.1289 29.625 41.9531C29.8008 41.8125 30.0352 41.707 30.1523 41.7188C30.2578 41.7188 31.8398 42.7617 33.668 44.0391C35.4844 45.3164 37.1016 46.4297 37.2656 46.5234C37.4297 46.6055 37.793 46.6758 38.0859 46.6758C38.3789 46.6758 38.7773 46.5938 38.9648 46.4883C39.1523 46.3945 39.4336 46.1836 39.5625 46.0312C39.7031 45.8906 39.8789 45.6328 39.9609 45.4688C40.043 45.3047 40.1016 44.9297 40.0898 44.625C40.0898 44.3086 40.0078 43.9219 39.9141 43.7461C39.8203 43.5586 39.6211 43.3125 39.4688 43.1719C39.3281 43.0312 37.8516 41.9883 36.2109 40.8398C34.5703 39.6914 33.082 38.6133 32.8945 38.4492C32.707 38.2734 32.5781 38.0156 32.5781 37.8516C32.5781 37.6875 32.6836 37.4414 32.8125 37.2891C32.9648 37.125 33.1758 37.0312 33.4336 37.0312C33.7383 37.0312 34.7109 37.6641 38.6133 40.4062C41.5898 42.5039 43.5703 43.8164 43.8281 43.875C44.0508 43.9219 44.4492 43.9219 44.707 43.875C44.9766 43.8281 45.3516 43.6289 45.5742 43.4297C45.7852 43.2305 46.043 42.9258 46.125 42.7383C46.2188 42.5625 46.2891 42.1875 46.2891 41.8945C46.2891 41.6016 46.1953 41.168 46.0664 40.9219C45.8906 40.5586 45.0234 39.9141 41.0625 37.125C38.4258 35.2852 36.1992 33.7031 36.1172 33.6094C36.0352 33.5273 35.9766 33.2812 35.9766 33.0703C35.9766 32.8359 36.0703 32.6016 36.2461 32.4492C36.4219 32.2734 36.6094 32.2148 36.8555 32.25C37.0781 32.2734 39.4922 33.9023 43.3359 36.5977C47.4375 39.4805 49.6055 40.9336 49.9219 41.0156C50.2344 41.0938 50.5469 41.0938 50.8594 41.0156C51.1172 40.9453 51.5039 40.7461 51.7148 40.5703C51.9141 40.3828 52.1602 40.0547 52.2539 39.832C52.3477 39.5977 52.4062 39.1875 52.3711 38.8359C52.3359 38.4375 52.2305 38.1211 52.0312 37.8633C51.8672 37.6641 48.7852 35.3672 45.1758 32.7773L38.6133 28.0547C35.5547 27.9258 34.4766 27.8203 34.1016 27.7148C33.75 27.6211 33.1641 27.3984 32.8125 27.2227C32.4609 27.0469 31.8633 26.6484 31.5 26.3438C31.125 26.0391 30.5859 25.4297 30.293 24.9844C30 24.5508 29.6602 23.8828 29.543 23.4961C29.4141 23.1094 29.2852 22.6523 29.25 22.4648C29.1797 22.1602 29.1562 22.1484 28.418 22.1484H27.6562C25.8633 25.1953 25.0781 26.3672 24.7617 26.7188C24.4336 27.0703 23.8359 27.5625 23.4258 27.8086C23.0156 28.0547 22.3359 28.3594 21.9141 28.4883C21.3867 28.6523 20.8242 28.7227 20.0977 28.7227C19.4648 28.7227 18.7852 28.6406 18.3984 28.5234C18.0469 28.418 17.5195 28.2188 17.2266 28.0664C16.9336 27.9258 16.6172 27.7031 16.5234 27.5977C16.4297 27.4805 16.3594 27.2461 16.3594 27.082C16.3711 26.9062 17.7188 24.5391 19.4648 21.6211C21.1641 18.7852 22.5703 16.4297 22.5938 16.3711C22.6055 16.3242 21.5742 16.2891 20.2969 16.2891H17.9766L8.63672 31.9336ZM24.4453 17.1328C23.9766 17.5312 23.3438 18.5273 21.1758 22.1484C19.6992 24.6328 18.5273 26.6953 18.5859 26.7422C18.6445 26.7891 18.9961 26.8828 19.3828 26.9648C19.8984 27.0469 20.2852 27.0586 20.7891 26.9648C21.1758 26.8945 21.8086 26.6836 22.1953 26.4961C22.582 26.3086 23.1211 25.9219 23.3789 25.6406C23.6367 25.3711 24.4453 24.1523 25.1602 22.9336C25.8867 21.7266 26.6016 20.6602 26.7422 20.5664C26.9414 20.4258 27.375 20.3906 28.6406 20.3906C30.1289 20.3906 30.3164 20.4141 30.5508 20.625C30.7383 20.8008 30.832 21.0352 30.8789 21.5273C30.9141 21.9023 31.0078 22.3945 31.0664 22.6172C31.1367 22.8398 31.3594 23.3438 31.5586 23.7188C31.7578 24.1055 32.168 24.6328 32.4609 24.8906C32.7539 25.1602 33.2812 25.5117 33.6328 25.6758C33.9844 25.8516 34.5469 26.0391 34.8867 26.1211C35.2266 26.1914 36.293 26.25 37.2539 26.25C38.8828 26.25 39.0469 26.2734 39.3984 26.5078C39.6094 26.6484 42.1172 28.4414 44.9648 30.4922C47.8125 32.543 50.168 34.2188 50.1797 34.2188C50.1914 34.2188 50.4609 33.7031 50.7773 33.082L51.3516 31.9336L42 16.2891C27.6562 16.3008 25.9688 16.3359 25.5352 16.4648C25.2539 16.5586 24.7617 16.8516 24.4453 17.1328ZM8.30859 35.8242C8.20312 35.9414 8.00391 36.2227 7.86328 36.4453C7.6875 36.7266 7.61719 37.043 7.61719 37.4414C7.61719 37.8281 7.69922 38.1797 7.875 38.4844C8.03906 38.7773 8.33203 39.0469 8.66016 39.2227C8.95312 39.375 9.375 39.4922 9.59766 39.4922C9.83203 39.4922 10.2188 39.3984 10.4766 39.2812C10.7344 39.1641 11.0859 38.8828 11.2383 38.6602C11.4375 38.3906 11.543 38.0625 11.5781 37.6172C11.625 37.0898 11.5781 36.8789 11.3438 36.4688C11.1914 36.1875 10.9102 35.8594 10.7109 35.7422C10.5234 35.6133 10.125 35.4961 9.83203 35.4609C9.55078 35.4258 9.12891 35.4492 8.90625 35.4961C8.67188 35.5547 8.40234 35.6953 8.30859 35.8242ZM13.5352 38.4961C12.9727 39.2695 12.4688 40.1016 12.4102 40.3359C12.3398 40.6406 12.3398 40.9453 12.4219 41.2734C12.4922 41.5547 12.6914 41.9297 12.8672 42.1055C13.0312 42.293 13.3359 42.5273 13.5234 42.6211C13.7227 42.7266 14.1328 42.7969 14.4375 42.7852C14.7422 42.7852 15.1406 42.7031 15.3164 42.6094C15.4922 42.5156 15.7266 42.3516 15.832 42.2344C15.9375 42.1055 16.4297 41.4258 16.9219 40.7227C17.4141 40.0078 17.8711 39.2344 17.9297 38.9883C18 38.707 18 38.3906 17.918 38.0859C17.8594 37.8281 17.6602 37.4531 17.4844 37.2539C17.3086 37.043 17.0156 36.8086 16.8398 36.7266C16.6641 36.6328 16.2422 36.5625 15.8906 36.5625C15.4336 36.5625 15.1758 36.6328 14.9062 36.832C14.707 36.9727 14.0859 37.7344 13.5352 38.4961ZM21.5156 37.4531C21.3281 37.5703 20.3203 38.8945 19.2891 40.3711C18.2578 41.8477 17.332 43.2539 17.2383 43.4766C17.1328 43.7461 17.1094 44.0859 17.1445 44.4375C17.2031 44.8359 17.332 45.1172 17.6016 45.4336C17.8125 45.668 18.1523 45.9258 18.3633 46.0195C18.5742 46.1016 18.9258 46.1719 19.1484 46.1719C19.3828 46.1719 19.7344 46.1016 19.9453 46.0078C20.1562 45.9258 20.4609 45.7031 20.625 45.5156C20.8008 45.3281 21.7383 44.0156 22.7344 42.5977C23.7188 41.1797 24.5742 39.832 24.6328 39.6094C24.6914 39.3867 24.7148 39.0117 24.668 38.7891C24.6328 38.5664 24.4805 38.1914 24.3281 37.9688C24.1758 37.7461 23.8828 37.4766 23.6602 37.3711C23.4375 37.2656 23.0977 37.1484 22.8984 37.1133C22.7109 37.0781 22.3945 37.0898 22.1953 37.1367C22.0078 37.1836 21.6914 37.3242 21.5156 37.4531ZM23.1797 44.9766C22.6992 45.668 22.1953 46.418 22.0898 46.6406C21.9375 46.9219 21.8906 47.2383 21.9258 47.6602C21.9492 48.0117 22.0664 48.3867 22.1953 48.5742C22.3242 48.75 22.5703 48.9961 22.7227 49.125C22.8867 49.2422 23.2266 49.3945 23.4844 49.4531C23.7773 49.5234 24.1289 49.5234 24.3984 49.4531C24.6445 49.3828 25.0078 49.1953 25.207 49.0078C25.4062 48.832 25.9453 48.1641 26.3906 47.5195C26.8477 46.875 27.293 46.1719 27.375 45.9609C27.457 45.7617 27.5273 45.4102 27.5273 45.1992C27.5273 45 27.4336 44.6133 27.3164 44.3555C27.1992 44.0977 26.9297 43.7578 26.707 43.5938C26.4023 43.3828 26.1211 43.3008 25.5938 43.2656C25.0547 43.2422 24.8086 43.2891 24.4805 43.4766C24.2461 43.6289 23.7188 44.2266 23.1797 44.9766ZM29.9883 53.9062C30.1875 53.9062 30.4453 54.0117 30.5742 54.1406C30.7969 54.3633 30.8086 54.5273 30.8086 56.918C30.8086 59.4023 30.7969 59.4844 30.5508 59.7422C30.3984 59.8828 30.1523 60 29.9883 60C29.8359 60 29.5781 59.8945 29.4375 59.7656C29.1797 59.5312 29.168 59.4727 29.168 56.9531C29.168 54.5273 29.1914 54.3633 29.4023 54.1406C29.543 54.0117 29.8008 53.9062 29.9883 53.9062ZM18.832 2.22656C19.0195 2.22656 19.2656 2.33203 19.4062 2.48438C19.5469 2.63672 20.0391 3.67969 20.5078 4.80469C20.9648 5.92969 21.3516 7.00781 21.3398 7.20703C21.3398 7.42969 21.2344 7.64063 21.0703 7.76953C20.918 7.88672 20.6602 7.98047 20.4961 7.98047C20.3438 7.96875 20.1211 7.91016 20.0039 7.82813C19.8984 7.74609 19.418 6.72656 18.9375 5.56641C18.457 4.40625 18.0469 3.375 18.0352 3.28125C18.0234 3.1875 18.0234 3.01172 18.0234 2.89453C18.0352 2.78906 18.1406 2.58984 18.2695 2.46094C18.3984 2.33203 18.6562 2.22656 18.832 2.22656ZM41.1445 2.22656C41.332 2.22656 41.5781 2.33203 41.707 2.46094C41.8477 2.58984 41.9414 2.84766 41.9414 3.04688C41.9414 3.23438 41.5547 4.35938 41.0625 5.53125C40.582 6.71484 40.0898 7.74609 39.9844 7.82813C39.8672 7.91016 39.6445 7.96875 39.4805 7.98047C39.3281 7.98047 39.0703 7.88672 38.918 7.76953C38.7305 7.62891 38.6367 7.44141 38.6367 7.20703C38.6367 7.00781 39.0117 5.92969 39.4805 4.80469C39.9492 3.67969 40.4414 2.63672 40.5703 2.48438C40.7109 2.33203 40.957 2.22656 41.1445 2.22656ZM12.4453 46.6406C12.6328 46.6406 12.8906 46.7695 13.0547 46.9336C13.2305 47.1094 13.3477 47.3555 13.3477 47.543C13.3477 47.8125 12.9961 48.2227 11.5547 49.6523C10.0547 51.1641 9.71484 51.4453 9.42188 51.4453C9.22266 51.4453 8.96484 51.3281 8.8125 51.1758C8.625 51 8.55469 50.8008 8.56641 50.5664C8.58984 50.2969 8.97656 49.8398 10.3594 48.4336C11.7773 46.9922 12.1992 46.6406 12.4453 46.6406ZM47.543 46.6406C47.8008 46.6406 48.1992 46.9805 49.6523 48.4336C51.1641 49.9453 51.4336 50.2734 51.4336 50.5664C51.4336 50.7656 51.3281 51.0352 51.1758 51.1875C51.0117 51.3516 50.7773 51.4453 50.5547 51.4453C50.2617 51.4453 49.9219 51.1523 48.4219 49.6523C46.957 48.1992 46.6406 47.8125 46.6406 47.543C46.6406 47.3555 46.7695 47.0859 46.9219 46.9336C47.0977 46.7578 47.3438 46.6406 47.543 46.6406ZM20.4961 52.0312C20.6602 52.0195 20.918 52.1133 21.0703 52.2305C21.2344 52.3594 21.3398 52.5703 21.3398 52.793C21.3516 52.9805 20.9648 54.0703 20.5078 55.1953C20.0391 56.3203 19.5469 57.3633 19.4062 57.5156C19.2656 57.668 19.0195 57.7734 18.832 57.7734C18.6562 57.7734 18.3984 57.668 18.2695 57.5391C18.1406 57.4102 18.0352 57.2109 18.0234 57.0938C18.0234 56.9883 18.0234 56.8125 18.0352 56.7188C18.0469 56.625 18.457 55.5938 18.9375 54.4336C19.418 53.2734 19.8984 52.2539 20.0039 52.1719C20.1094 52.1016 20.332 52.0312 20.4961 52.0312ZM39.4688 52.0312C39.6445 52.0312 39.8672 52.0898 39.9844 52.1719C40.0898 52.2539 40.5703 53.2734 41.0508 54.4336C41.5312 55.5938 41.9414 56.625 41.9531 56.7188C41.9648 56.8125 41.9648 56.9883 41.9648 57.0938C41.9531 57.2109 41.8359 57.4102 41.707 57.5391C41.5781 57.668 41.332 57.7734 41.1562 57.7734C40.9688 57.7734 40.7227 57.668 40.582 57.5156C40.4414 57.3633 39.9492 56.3203 39.4805 55.1953C39.0117 54.0703 38.625 52.9922 38.6133 52.8047C38.6133 52.5703 38.6953 52.3945 38.8828 52.2422C39.0352 52.125 39.3047 52.0312 39.4688 52.0312ZM5.14453 27.1875C5.30859 27.1875 5.8125 27.4102 6.25781 27.6797C6.71484 27.9375 7.17188 28.2422 7.28906 28.3477C7.41797 28.4648 7.5 28.6992 7.5 28.9453C7.48828 29.168 7.39453 29.4492 7.28906 29.5664C7.17188 29.6836 6.91406 29.7773 6.70312 29.7656C6.46875 29.7656 6.02344 29.5781 5.53125 29.2852C5.09766 29.0156 4.64062 28.7109 4.53516 28.6055C4.41797 28.5 4.3125 28.2539 4.30078 28.043C4.28906 27.7734 4.37109 27.5977 4.57031 27.4219C4.72266 27.293 4.98047 27.1875 5.14453 27.1875ZM54.832 27.1875C54.9961 27.1875 55.2539 27.3047 55.3945 27.457C55.5586 27.6094 55.6641 27.8555 55.6641 28.0664C55.6641 28.2539 55.5703 28.5 55.4531 28.6055C55.3359 28.7109 54.8906 29.0156 54.457 29.2852C53.9648 29.5781 53.5195 29.7656 53.2852 29.7656C53.0391 29.7773 52.8164 29.6836 52.6641 29.5195C52.5352 29.3906 52.4297 29.1211 52.4297 28.9336C52.4297 28.7578 52.5117 28.5234 52.6055 28.418C52.7109 28.3242 53.1797 28.0078 53.6602 27.7148C54.1523 27.4219 54.6797 27.1875 54.832 27.1875Z" fill="white"/>
</g>
<defs>
<clipPath id="clip0_219_1050">
<rect width="60" height="60" fill="white"/>
</clipPath>
</defs>
</svg>
