<svg width="24" height="24" viewBox="0 0 24 24" fill="none" xmlns="http://www.w3.org/2000/svg">
<path d="M16 21.0001C16.26 21.0001 16.51 20.9001 16.71 20.7101C16.8027 20.6176 16.8762 20.5077 16.9264 20.3867C16.9766 20.2657 17.0024 20.1361 17.0024 20.0051C17.0024 19.8741 16.9766 19.7444 16.9264 19.6235C16.8762 19.5025 16.8027 19.3926 16.71 19.3001L9.42 12.0101L16.71 4.72009C16.8026 4.6275 16.876 4.51759 16.9261 4.39663C16.9762 4.27567 17.002 4.14602 17.002 4.01509C17.002 3.75066 16.897 3.49706 16.71 3.31009C16.523 3.12311 16.2694 3.01807 16.005 3.01807C15.7406 3.01807 15.487 3.12311 15.3 3.31009L7.3 11.3101C6.91 11.7001 6.91 12.3301 7.3 12.7201L15.3 20.7201C15.5 20.9201 15.75 21.0101 16.01 21.0101L16 21.0001Z" fill="white"/>
</svg>
