<svg width="24" height="24" viewBox="0 0 24 24" fill="none" xmlns="http://www.w3.org/2000/svg">
<path d="M20.71 11.2901L14.71 5.29007C14.6174 5.19749 14.5075 5.12405 14.3865 5.07394C14.2656 5.02384 14.1359 4.99805 14.005 4.99805C13.8741 4.99805 13.7444 5.02384 13.6235 5.07394C13.5025 5.12405 13.3926 5.19749 13.3 5.29007C13.2074 5.38265 13.134 5.49256 13.0839 5.61352C13.0338 5.73449 13.008 5.86414 13.008 5.99507C13.008 6.126 13.0338 6.25565 13.0839 6.37661C13.134 6.49757 13.2074 6.60749 13.3 6.70007L17.59 10.9901H4C3.45 10.9901 3 11.4401 3 11.9901C3 12.5401 3.45 12.9901 4 12.9901H17.59L13.3 17.2801C13.1605 17.4197 13.0656 17.5977 13.0274 17.7914C12.9892 17.9851 13.0094 18.1858 13.0855 18.3679C13.1616 18.5501 13.2901 18.7056 13.4547 18.8145C13.6193 18.9235 13.8126 18.9811 14.01 18.9801C14.27 18.9801 14.52 18.8801 14.72 18.6901L20.72 12.6901C20.8127 12.5976 20.8863 12.4877 20.9364 12.3667C20.9866 12.2457 21.0124 12.116 21.0124 11.9851C21.0124 11.8541 20.9866 11.7244 20.9364 11.6034C20.8863 11.4825 20.8127 11.3726 20.72 11.2801L20.71 11.2901Z" fill="white"/>
</svg>
