<svg width="16" height="16" viewBox="0 0 16 16" fill="none" xmlns="http://www.w3.org/2000/svg">
<g clip-path="url(#clip0_219_1121)">
<path d="M9.5 3C10.3409 3.22145 11.108 3.66214 11.723 4.27705C12.3379 4.89196 12.7785 5.65906 13 6.5" stroke="white" stroke-width="0.75" stroke-linecap="round" stroke-linejoin="round"/>
<path d="M9 5C10.0325 5.27625 10.7237 5.9675 11 7" stroke="white" stroke-width="0.75" stroke-linecap="round" stroke-linejoin="round"/>
<path d="M9.77438 9.58386C9.84362 9.53778 9.92327 9.50971 10.0061 9.50218C10.0889 9.49465 10.1723 9.5079 10.2488 9.54073L13.1963 10.8614C13.2956 10.9038 13.3785 10.9773 13.4326 11.0708C13.4867 11.1643 13.509 11.2728 13.4963 11.3801C13.3991 12.1058 13.0418 12.7715 12.4907 13.2534C11.9395 13.7353 11.2321 14.0007 10.5 14.0001C8.24566 14.0001 6.08365 13.1046 4.48959 11.5105C2.89553 9.91646 2 7.75445 2 5.50011C1.99944 4.76799 2.2648 4.06058 2.74673 3.50944C3.22865 2.95831 3.89435 2.60096 4.62 2.50386C4.72727 2.49111 4.83578 2.51345 4.9293 2.56753C5.02281 2.62161 5.0963 2.70453 5.13875 2.80386L6.45938 5.75386C6.49182 5.82963 6.50504 5.91224 6.49784 5.99435C6.49064 6.07646 6.46326 6.15552 6.41813 6.22448L5.0825 7.81261C5.03512 7.8841 5.00711 7.96666 5.00119 8.05222C4.99528 8.13778 5.01166 8.2234 5.04875 8.30073C5.56563 9.35886 6.65938 10.4395 7.72063 10.9514C7.79836 10.9883 7.88439 11.0043 7.9702 10.9978C8.05602 10.9914 8.13867 10.9626 8.21 10.9145L9.77438 9.58386Z" stroke="white" stroke-width="0.75" stroke-linecap="round" stroke-linejoin="round"/>
</g>
<defs>
<clipPath id="clip0_219_1121">
<rect width="16" height="16" fill="white"/>
</clipPath>
</defs>
</svg>
