<svg width="332" height="80" viewBox="0 0 332 80" fill="none" xmlns="http://www.w3.org/2000/svg">
<path d="M38.2606 0C38.8151 0.236883 39.2475 0.611021 39.7093 0.989399C40.7729 1.84112 41.8955 2.55683 43.0662 3.25088C43.1547 3.3044 43.2431 3.35793 43.3342 3.41307C47.9174 6.17905 53.3176 7.82566 58.6139 8.48057C58.7208 8.49389 58.8276 8.50721 58.9377 8.52094C63.7777 9.0668 68.8735 8.39801 73.207 6.11915C73.5963 5.9364 73.5963 5.9364 74.0203 5.9364C74.8641 9.16908 75.5737 12.3935 76.0256 15.7067C76.0475 15.8663 76.0694 16.0259 76.092 16.1903C76.1618 16.7293 76.2242 17.2688 76.2818 17.8092C76.2943 17.9254 76.3067 18.0417 76.3196 18.1614C76.557 20.45 76.6134 22.7293 76.6091 25.0288C76.6084 25.4086 76.6094 25.7883 76.612 26.168C76.6827 36.7054 74.1277 46.9991 67.8012 55.5477C67.7397 55.6309 67.6781 55.7141 67.6147 55.7998C66.7346 56.981 65.7946 58.1075 64.833 59.2226C64.7461 59.3239 64.6592 59.4252 64.5697 59.5296C63.3597 60.9273 62.0939 62.2683 60.7844 63.5724C60.5643 63.7916 60.3451 64.0116 60.1259 64.2317C59.3636 64.9946 58.5887 65.7331 57.7659 66.4311C57.5925 66.5822 57.4193 66.7334 57.2463 66.8849C55.3969 68.4961 53.494 70.0281 51.5468 71.5194C51.4471 71.5961 51.3474 71.6727 51.2447 71.7517C48.0902 74.1646 44.7302 76.3668 41.303 78.3718C40.9424 78.5888 40.5922 78.8177 40.2416 79.0504C40.0201 79.1903 39.7985 79.3302 39.5768 79.47C39.4821 79.537 39.3874 79.604 39.2898 79.673C38.9773 79.863 38.7665 79.9599 38.4019 80C37.7815 79.8102 37.2573 79.4888 36.7058 79.1519C36.5545 79.0644 36.4032 78.9768 36.2472 78.8865C35.7633 78.604 35.2843 78.3141 34.8065 78.0212C34.7209 77.969 34.6353 77.9167 34.5471 77.8629C32.9288 76.8748 31.343 75.8438 29.78 74.7703C29.6054 74.6511 29.6054 74.6511 29.4272 74.5294C27.5665 73.2561 25.7671 71.9106 23.985 70.53C23.8891 70.4562 23.7932 70.3824 23.6945 70.3064C22.0456 69.0365 20.4681 67.6901 18.9281 66.2903C18.6416 66.032 18.3506 65.7806 18.0574 65.53C17.3102 64.88 16.6236 64.1675 15.9284 63.4629C15.5122 63.0446 15.0929 62.6296 14.6718 62.2162C13.6784 61.2376 12.7016 60.271 11.8411 59.1718C11.572 58.8306 11.2923 58.5017 11.0071 58.1739C4.28554 50.4131 1.04926 40.8069 0.239388 30.6714C0.231212 30.5764 0.223036 30.4815 0.214612 30.3837C-0.464384 22.2619 0.488126 13.7493 2.78356 5.9364C3.33288 6.03597 3.73315 6.18802 4.22349 6.4576C10.9015 9.84522 19.0405 8.92828 25.921 6.74953C30.4099 5.27241 34.6676 3.09394 38.2606 0Z" fill="#0D2D6D"/>
<path d="M38.1191 6.64307C38.7057 6.87769 39.1975 7.1423 39.7269 7.47346C46.4372 11.5575 54.1635 13.87 62.0237 13.8957C62.1406 13.8962 62.2575 13.8966 62.378 13.8971C64.5105 13.8998 66.5534 13.6986 68.6492 13.2862C68.7866 13.2592 68.9241 13.2322 69.0658 13.2043C69.3982 13.1383 69.7305 13.0714 70.0626 13.0035C70.3915 14.6698 70.6732 16.3332 70.8665 18.0212C70.8833 18.1675 70.9001 18.3139 70.9175 18.4647C70.9659 18.9055 71.01 19.3465 71.052 19.7879C71.0726 19.9951 71.0726 19.9951 71.0936 20.2064C71.2457 21.9736 71.2278 23.7488 71.2287 25.5212C71.2288 25.6951 71.2289 25.869 71.229 26.0482C71.2267 28.6096 71.159 31.1045 70.7693 33.6395C70.7443 33.8131 70.7193 33.9867 70.6935 34.1656C70.3566 36.487 69.9225 38.7517 69.2145 40.9894C69.1686 41.135 69.1227 41.2807 69.0754 41.4308C67.4008 46.6631 64.6801 51.0789 61.158 55.265C61.0413 55.4059 60.9246 55.5469 60.8043 55.6921C59.7534 56.9497 58.6273 58.1179 57.4636 59.2711C57.1627 59.5695 56.8629 59.869 56.5633 60.1686C56.3686 60.3626 56.1739 60.5565 55.9791 60.7503C55.8913 60.8379 55.8036 60.9255 55.7131 61.0158C55.1 61.6224 54.4622 62.1941 53.8082 62.7561C53.6535 62.8904 53.4989 63.0248 53.3444 63.1592C51.3642 64.8694 49.3345 66.4905 47.2157 68.0262C46.8963 68.2584 46.5783 68.4926 46.2607 68.7273C44.1205 70.3018 41.8906 71.7414 39.6297 73.136C39.5233 73.202 39.4169 73.268 39.3073 73.3359C38.5773 73.7809 38.5773 73.7809 38.2605 73.7809C38.2605 62.4932 38.2605 51.2056 38.2605 39.5759C38.4937 39.5759 38.7269 39.5759 38.9672 39.5759C38.8579 39.4972 38.8579 39.4972 38.7463 39.4169C38.5432 39.1519 38.5432 39.1519 38.5608 38.7544C38.6845 38.3038 38.6845 38.3038 39.1085 37.4558C40.2746 37.4558 41.4407 37.4558 42.6421 37.4558C43.3488 38.7279 43.3488 38.7279 43.3488 39.1519C43.2555 39.1985 43.1623 39.2452 43.0661 39.2932C43.9057 39.2932 44.7453 39.2932 45.6103 39.2932C45.4568 39.0544 45.4568 39.0544 45.3002 38.8108C44.9 38.1699 44.5518 37.5093 44.2112 36.8352C44.1492 36.7127 44.0871 36.5901 44.0231 36.4638C43.8933 36.207 43.7639 35.9499 43.6348 35.6927C43.4363 35.2986 43.2355 34.9058 43.0347 34.513C42.9085 34.2624 42.7824 34.0117 42.6565 33.761C42.5659 33.5852 42.5659 33.5852 42.4736 33.4058C42.4193 33.2963 42.3649 33.1868 42.309 33.074C42.2606 32.9783 42.2122 32.8825 42.1623 32.7838C42.0267 32.3479 42.1615 32.0565 42.3594 31.6607C41.4732 31.6607 40.587 31.6607 39.6739 31.6607C39.7672 31.8007 39.8605 31.9406 39.9566 32.0848C39.8763 32.8894 39.4631 33.5922 39.1174 34.3109C39.053 34.4481 38.9886 34.5853 38.9222 34.7267C38.86 34.8569 38.7978 34.9872 38.7337 35.1214C38.6768 35.2405 38.62 35.3596 38.5614 35.4824C38.4018 35.7597 38.4018 35.7597 38.1191 35.901C38.1191 26.2459 38.1191 16.5908 38.1191 6.64307Z" fill="#0C4DA1"/>
<path d="M38.2606 0C38.8151 0.236883 39.2475 0.611021 39.7093 0.989399C40.7729 1.84112 41.8955 2.55683 43.0662 3.25088C43.1547 3.3044 43.2431 3.35793 43.3342 3.41307C47.9174 6.17905 53.3176 7.82566 58.6139 8.48057C58.7208 8.49389 58.8276 8.50721 58.9377 8.52094C63.7777 9.0668 68.8735 8.39801 73.207 6.11915C73.5963 5.9364 73.5963 5.9364 74.0203 5.9364C74.8641 9.16908 75.5737 12.3935 76.0256 15.7067C76.0475 15.8663 76.0694 16.0259 76.092 16.1903C76.1618 16.7293 76.2242 17.2688 76.2818 17.8092C76.2943 17.9254 76.3067 18.0417 76.3196 18.1614C76.557 20.45 76.6134 22.7293 76.6091 25.0288C76.6084 25.4086 76.6094 25.7883 76.612 26.168C76.6827 36.7054 74.1277 46.9991 67.8012 55.5477C67.7397 55.6309 67.6781 55.7141 67.6147 55.7998C66.7346 56.981 65.7946 58.1075 64.833 59.2226C64.7461 59.3239 64.6592 59.4252 64.5697 59.5296C63.3597 60.9273 62.0939 62.2683 60.7844 63.5724C60.5643 63.7916 60.3451 64.0116 60.1259 64.2317C59.3636 64.9946 58.5887 65.7331 57.7659 66.4311C57.5925 66.5822 57.4193 66.7334 57.2463 66.8849C55.3969 68.4961 53.494 70.0281 51.5468 71.5194C51.4471 71.5961 51.3474 71.6727 51.2447 71.7517C48.0902 74.1646 44.7302 76.3668 41.303 78.3718C40.9424 78.5888 40.5922 78.8177 40.2416 79.0504C40.0201 79.1903 39.7985 79.3302 39.5768 79.47C39.4821 79.537 39.3874 79.604 39.2898 79.673C38.9773 79.863 38.7665 79.9599 38.4019 80C37.7815 79.8102 37.2573 79.4888 36.7058 79.1519C36.5545 79.0644 36.4032 78.9768 36.2472 78.8865C35.7633 78.604 35.2843 78.3141 34.8065 78.0212C34.7209 77.969 34.6353 77.9167 34.5471 77.8629C32.9288 76.8748 31.343 75.8438 29.78 74.7703C29.6054 74.6511 29.6054 74.6511 29.4272 74.5294C27.5665 73.2561 25.7671 71.9106 23.985 70.53C23.8891 70.4562 23.7932 70.3824 23.6945 70.3064C22.0456 69.0365 20.4681 67.6901 18.9281 66.2903C18.6416 66.032 18.3506 65.7806 18.0574 65.53C17.3102 64.88 16.6236 64.1675 15.9284 63.4629C15.5122 63.0446 15.0929 62.6296 14.6718 62.2162C13.6784 61.2376 12.7016 60.271 11.8411 59.1718C11.572 58.8306 11.2923 58.5017 11.0071 58.1739C4.28554 50.4131 1.04926 40.8069 0.239388 30.6714C0.231212 30.5764 0.223036 30.4815 0.214612 30.3837C-0.464384 22.2619 0.488126 13.7493 2.78356 5.9364C3.33288 6.03597 3.73315 6.18802 4.22349 6.4576C10.9015 9.84522 19.0405 8.92828 25.921 6.74953C30.4099 5.27241 34.6676 3.09394 38.2606 0ZM38.2606 5.37102C37.9635 5.55185 37.692 5.73976 37.4125 5.94523C34.1487 8.22482 30.3066 9.81049 26.5291 11.0247C26.4302 11.0567 26.3312 11.0887 26.2292 11.1217C20.008 13.0898 13.3882 13.4445 7.02384 12.0141C6.88828 11.9846 6.75273 11.9551 6.61306 11.9247C6.32564 11.8617 6.03863 11.7969 5.75176 11.7314C4.7083 16.2624 4.4406 20.8243 4.43584 25.4569C4.43551 25.7373 4.43474 26.0178 4.43397 26.2982C4.4294 29.3708 4.54612 32.4181 5.07154 35.4505C5.10173 35.6269 5.13192 35.8033 5.16302 35.985C6.24682 42.0702 8.47393 47.7135 12.1122 52.7208C12.1685 52.7986 12.2247 52.8763 12.2827 52.9563C13.0367 53.992 13.8336 54.9902 14.6563 55.9717C14.7226 56.0509 14.7888 56.1301 14.857 56.2116C15.6519 57.1596 16.4553 58.0786 17.3435 58.9416C17.601 59.1991 17.8336 59.464 18.0662 59.7438C18.7942 60.5914 19.6398 61.3271 20.4618 62.0814C20.7176 62.317 20.9718 62.5541 21.2255 62.7921C22.1623 63.6691 23.1246 64.4974 24.1263 65.3004C24.2998 65.4426 24.4732 65.5851 24.6464 65.7277C28.2366 68.6788 32.0635 71.3314 36.0237 73.7613C36.2867 73.9254 36.5459 74.0945 36.8046 74.2651C36.8879 74.3191 36.9712 74.373 37.057 74.4286C37.2814 74.5742 37.5046 74.7216 37.7278 74.8691C38.1961 75.0891 38.338 75.0494 38.826 74.9117C39.1486 74.7591 39.1486 74.7591 39.467 74.5594C39.591 74.4844 39.7151 74.4094 39.8429 74.3322C39.9766 74.2494 40.1104 74.1666 40.2482 74.0813C40.4599 73.9512 40.4599 73.9512 40.6759 73.8185C46.0894 70.4568 51.2624 66.625 55.9378 62.2919C56.2175 62.0331 56.4979 61.7756 56.7803 61.52C58.0257 60.3917 59.2479 59.2412 60.3393 57.9605C60.6396 57.6137 60.952 57.2796 61.2641 56.9435C62.0812 56.0452 62.8258 55.1002 63.5609 54.1343C63.6383 54.0337 63.7156 53.933 63.7952 53.8294C65.0714 52.1636 66.2047 50.4493 67.2358 48.6219C67.2993 48.5104 67.3627 48.3989 67.428 48.2841C71.2998 41.4158 72.3517 33.3686 72.3684 25.6007C72.3688 25.4298 72.3692 25.2588 72.3696 25.0827C72.3713 21.9675 72.17 18.9166 71.7588 15.8304C71.7272 15.5876 71.7272 15.5876 71.695 15.3398C71.5338 14.1234 71.3283 12.9273 71.0521 11.7314C70.3005 11.8278 69.5726 11.9757 68.8348 12.1466C59.4913 14.2605 48.8401 11.8527 40.7455 6.85609C40.2113 6.51657 39.683 6.169 39.1572 5.81659C38.7108 5.50167 38.7108 5.50167 38.2606 5.37102Z" fill="#D8A628"/>
<path d="M46.4585 31.6608C47.2404 31.6503 48.0222 31.6426 48.8041 31.6375C49.0697 31.6354 49.3352 31.6325 49.6007 31.6288C49.9842 31.6237 50.3677 31.6213 50.7512 31.6194C50.9269 31.6161 50.9269 31.6161 51.1061 31.6128C52.274 31.6125 53.2916 31.8772 54.1611 32.6861C55.0283 33.6929 55.1332 34.8141 55.1185 36.0971C55.0417 37.1272 54.7351 37.8704 53.9762 38.5778C53.0426 39.3612 52.1762 39.4967 50.9997 39.4761C50.8693 39.4755 50.739 39.4749 50.6046 39.4743C50.1913 39.4719 49.7781 39.4666 49.3649 39.4612C49.0834 39.4591 48.8019 39.4571 48.5204 39.4554C47.8331 39.4507 47.1458 39.4434 46.4585 39.4347C46.5518 39.2948 46.6451 39.1548 46.7412 39.0107C46.7821 38.6881 46.7821 38.6881 46.7733 38.3268C46.7733 38.1881 46.7732 38.0495 46.7732 37.9067C46.7717 37.7574 46.7703 37.6081 46.7688 37.4542C46.7682 37.2245 46.7682 37.2245 46.7676 36.9902C46.766 36.5005 46.7624 36.0109 46.7588 35.5213C46.7574 35.1895 46.7561 34.8578 46.755 34.5261C46.7519 33.7123 46.7471 32.8986 46.7412 32.0849C46.6479 32.0382 46.5546 31.9916 46.4585 31.9435C46.4585 31.8502 46.4585 31.7569 46.4585 31.6608Z" fill="#D5A52A"/>
<path d="M18.0483 31.6607C18.9334 31.6463 19.8185 31.6365 20.7037 31.6297C21.0045 31.6268 21.3052 31.623 21.606 31.6181C22.0397 31.6112 22.4733 31.608 22.907 31.6055C23.1069 31.6011 23.1069 31.6011 23.3109 31.5967C24.1742 31.5964 24.8192 31.7348 25.5395 32.2261C26.0738 32.7604 26.1443 33.2008 26.1667 33.9311C26.1659 34.5776 26.057 34.9491 25.6808 35.477C25.1732 35.9709 24.8175 36.0883 24.1261 36.1837C24.373 36.5462 24.6205 36.9083 24.8681 37.2703C24.9723 37.4232 24.9723 37.4232 25.0785 37.5792C25.5251 38.2312 25.9682 38.8739 26.5289 39.4346C25.596 39.4346 24.6632 39.4346 23.7021 39.4346C23.7487 39.248 23.7953 39.0614 23.8434 38.8692C23.7217 38.5908 23.7217 38.5908 23.5171 38.3292C23.4465 38.2303 23.3759 38.1314 23.3031 38.0294C23.2278 37.9276 23.1525 37.8257 23.0748 37.7208C22.9272 37.5177 22.7802 37.3141 22.6337 37.1102C22.5677 37.0205 22.5016 36.9308 22.4336 36.8384C22.2886 36.6077 22.2886 36.6077 22.2886 36.325C21.589 36.325 20.8893 36.325 20.1685 36.325C20.1685 37.2579 20.1685 38.1908 20.1685 39.1519C20.2618 39.1519 20.3551 39.1519 20.4512 39.1519C20.4512 39.2452 20.4512 39.3385 20.4512 39.4346C19.6582 39.4346 18.8653 39.4346 18.0483 39.4346C18.095 39.3413 18.1416 39.248 18.1897 39.1519C18.2065 38.921 18.2147 38.6895 18.2187 38.4581C18.2229 38.2416 18.2229 38.2416 18.2272 38.0208C18.2308 37.7865 18.2308 37.7865 18.2344 37.5474C18.2373 37.3878 18.2403 37.2282 18.2433 37.0638C18.2526 36.5525 18.2609 36.0413 18.2692 35.53C18.2753 35.184 18.2815 34.838 18.2877 34.492C18.3028 33.6425 18.3172 32.793 18.331 31.9434C18.2377 31.9434 18.1445 31.9434 18.0483 31.9434C18.0483 31.8501 18.0483 31.7568 18.0483 31.6607Z" fill="#D1A22A"/>
<path d="M62.7128 31.6611C63.6457 31.6611 64.5785 31.6611 65.5397 31.6611C65.5397 31.7544 65.5397 31.8477 65.5397 31.9438C65.4464 31.9905 65.3531 32.0371 65.257 32.0852C65.3498 32.5224 65.4994 32.8841 65.7025 33.2816C65.765 33.405 65.8276 33.5284 65.892 33.6555C65.9931 33.8533 65.9931 33.8533 66.0962 34.0551C66.6591 35.1684 67.2118 36.2856 67.7481 37.412C67.8383 37.6007 67.8383 37.6007 67.9303 37.7932C67.9857 37.9099 68.0411 38.0266 68.0982 38.1469C68.1468 38.2492 68.1953 38.3516 68.2454 38.457C68.3665 38.7283 68.3665 38.7283 68.5079 39.1523C68.7177 39.2223 68.7177 39.2223 68.9319 39.2936C68.9319 39.3403 68.9319 39.3869 68.9319 39.435C67.999 39.435 67.0662 39.435 66.105 39.435C66.105 39.3417 66.105 39.2484 66.105 39.1523C66.1983 39.1523 66.2916 39.1523 66.3877 39.1523C66.3469 39.0535 66.3061 38.9548 66.264 38.853C66.2116 38.7244 66.1591 38.5958 66.105 38.4633C66.0526 38.3353 66.0001 38.2074 65.946 38.0757C65.8223 37.7389 65.8223 37.7389 65.8223 37.4562C64.0732 37.5262 64.0732 37.5262 62.2888 37.5975C61.8643 38.3769 61.8643 38.3769 61.8647 39.1523C61.9114 39.2456 61.958 39.3389 62.0061 39.435C61.1665 39.435 60.3269 39.435 59.4619 39.435C59.6235 39.1347 59.7851 38.8345 59.9516 38.5251C60.5364 37.4311 61.1033 36.329 61.6519 35.2164C61.7538 35.011 61.8568 34.806 61.9607 34.6015C62.1139 34.2998 62.2638 33.9966 62.413 33.6929C62.4596 33.6027 62.5063 33.5124 62.5544 33.4194C62.8982 32.7054 62.8365 32.5273 62.7128 31.6611Z" fill="#D5A52A"/>
<path d="M39.674 31.6611C40.5602 31.6611 41.4464 31.6611 42.3595 31.6611C42.3128 31.941 42.2662 32.2209 42.2181 32.5092C42.3128 32.8623 42.3128 32.8623 42.4938 33.1956C42.5575 33.3243 42.6212 33.4531 42.6869 33.5857C42.7927 33.7905 42.7927 33.7905 42.9006 33.9994C42.9719 34.1415 43.0433 34.2836 43.1168 34.43C43.2678 34.7298 43.42 35.029 43.5731 35.3277C43.8076 35.7853 44.0387 36.2444 44.2693 36.7039C44.4165 36.9951 44.5639 37.2861 44.7115 37.5771C44.7809 37.7145 44.8502 37.8518 44.9217 37.9934C44.9872 38.1208 45.0527 38.2482 45.1202 38.3794C45.2061 38.5474 45.2061 38.5474 45.2937 38.7188C45.4803 39.0565 45.4803 39.0565 45.893 39.435C44.9135 39.435 43.934 39.435 42.9248 39.435C42.9948 39.2951 42.9948 39.2951 43.0662 39.1523C43.1595 39.1523 43.2528 39.1523 43.3489 39.1523C43.1157 38.6392 42.8824 38.1262 42.6422 37.5975C41.4761 37.5509 40.31 37.5042 39.1086 37.4562C38.9687 37.876 38.8287 38.2958 38.6846 38.7283C38.6379 38.8682 38.5913 39.0081 38.5432 39.1523C38.7531 39.2223 38.7531 39.2223 38.9673 39.2936C38.9673 39.3403 38.9673 39.3869 38.9673 39.435C38.081 39.435 37.1948 39.435 36.2817 39.435C36.5616 39.0852 36.5616 39.0852 36.8471 38.7283C37.0064 38.4356 37.157 38.138 37.3004 37.8371C37.3409 37.7528 37.3814 37.6685 37.4232 37.5816C37.5531 37.3106 37.6816 37.0389 37.81 36.7671C37.8986 36.5808 37.9872 36.3944 38.0759 36.2081C38.2068 35.9327 38.3377 35.6573 38.468 35.3817C38.7003 34.8909 38.9367 34.4028 39.1804 33.9176C39.228 33.8213 39.2755 33.725 39.3246 33.6258C39.4427 33.3872 39.5624 33.1494 39.6822 32.9117C39.8719 32.4428 39.8719 32.4428 39.674 31.6611Z" fill="#D4A42A"/>
<path d="M11.2643 31.6611C12.1505 31.6611 13.0367 31.6611 13.9498 31.6611C13.9032 31.941 13.8565 32.2209 13.8085 32.5092C13.9408 32.8704 14.0755 33.1759 14.2546 33.5118C14.3267 33.6536 14.3267 33.6536 14.4002 33.7982C14.5542 34.0999 14.7113 34.4 14.8685 34.7C14.97 34.8972 15.0712 35.0945 15.1722 35.2919C15.3719 35.6816 15.573 36.0706 15.7751 36.4591C15.9735 36.8419 16.1668 37.2267 16.3559 37.6141C16.4009 37.7059 16.4459 37.7976 16.4922 37.8922C16.6146 38.1432 16.7361 38.3947 16.8576 38.6463C17.0227 39.026 17.0227 39.026 17.342 39.1523C17.342 39.2456 17.342 39.3389 17.342 39.435C16.4092 39.435 15.4763 39.435 14.5152 39.435C14.5851 39.2951 14.5851 39.2951 14.6565 39.1523C14.7498 39.1523 14.8431 39.1523 14.9392 39.1523C14.706 38.6392 14.4728 38.1262 14.2325 37.5975C13.0664 37.5509 11.9003 37.5042 10.6989 37.4562C10.6056 37.736 10.5124 38.0159 10.4162 38.3042C10.322 38.5869 10.2278 38.8696 10.1336 39.1523C10.3434 39.2223 10.3434 39.2223 10.5576 39.2936C10.5576 39.3403 10.5576 39.3869 10.5576 39.435C9.67136 39.435 8.78514 39.435 7.87207 39.435C7.91871 39.3417 7.96536 39.2484 8.01341 39.1523C8.1067 39.1523 8.19999 39.1523 8.2961 39.1523C8.32932 39.0396 8.36253 38.9269 8.39676 38.8108C8.62566 38.1738 8.9235 37.5864 9.22973 36.9836C9.35839 36.7261 9.48694 36.4687 9.61539 36.2112C9.81724 35.8077 10.0197 35.4047 10.2241 35.0025C10.4218 34.6126 10.6166 34.2214 10.811 33.8299C10.8727 33.7101 10.9344 33.5904 10.9979 33.4671C11.0536 33.3538 11.1093 33.2406 11.1667 33.124C11.2164 33.0255 11.266 32.927 11.3172 32.8255C11.4532 32.4252 11.4532 32.4252 11.2643 31.6611Z" fill="#D4A429"/>
<path d="M34.9921 32.4027C35.4316 32.6961 35.4316 32.6961 35.9991 32.6501C35.7876 33.2847 35.4573 33.8484 35.0097 34.3462C34.9165 34.3462 34.8232 34.3462 34.7271 34.3462C34.6775 34.2412 34.6279 34.1363 34.5769 34.0282C34.166 33.445 33.716 33.2475 33.031 33.0741C31.9443 32.9713 31.0205 32.9249 30.0628 33.4981C29.5124 33.9859 29.1299 34.387 29.0209 35.1258C28.9978 36.0784 29.112 36.7475 29.7801 37.4557C30.6326 38.1103 31.5585 38.2814 32.6069 38.1624C33.318 37.9621 33.9699 37.7249 34.5857 37.3144C34.6324 37.1744 34.679 37.0345 34.7271 36.8903C35.2518 37.0944 35.4265 37.3317 35.6811 37.8267C35.7416 37.9423 35.8021 38.0578 35.8644 38.1768C35.9089 38.2653 35.9533 38.3539 35.9991 38.4451C35.8242 38.5005 35.6493 38.5559 35.4691 38.613C35.0809 38.7379 34.7238 38.8708 34.3594 39.0547C32.9634 39.7467 31.4019 39.816 29.8888 39.4721C28.8256 39.0796 28.0843 38.4457 27.5186 37.4557C27.0932 36.393 27.0231 35.0548 27.3546 33.9509C27.9248 32.8374 28.8907 32.0587 30.0628 31.6607C31.8432 31.2202 33.4344 31.4845 34.9921 32.4027Z" fill="#D4A429"/>
<path d="M48.5786 33.074C49.1238 33.0653 49.6689 33.0565 50.2306 33.0475C50.4866 33.0417 50.4866 33.0417 50.7477 33.0358C50.8837 33.0348 51.0197 33.0337 51.1598 33.0326C51.2982 33.0304 51.4366 33.0282 51.5792 33.0259C52.2394 33.107 52.589 33.3904 53.0044 33.8956C53.4526 34.75 53.3723 35.8752 53.1711 36.7942C52.9562 37.3649 52.6197 37.6991 52.1122 38.021C51.6824 38.1595 51.2923 38.1789 50.8423 38.1762C50.7232 38.1758 50.6041 38.1755 50.4814 38.1751C50.3315 38.1738 50.1817 38.1725 50.0274 38.1712C49.5493 38.1683 49.0712 38.1654 48.5786 38.1624C48.5786 36.4832 48.5786 34.8041 48.5786 33.074Z" fill="#0C4DA1"/>
<path d="M56.2109 31.6611C57.0505 31.6611 57.8901 31.6611 58.7551 31.6611C58.7551 31.7544 58.7551 31.8477 58.7551 31.9438C58.6152 32.0138 58.6152 32.0138 58.4724 32.0852C58.4653 33.0637 58.4603 34.0423 58.4569 35.0209C58.4555 35.3539 58.4535 35.6869 58.4511 36.0199C58.4477 36.4981 58.4461 36.9763 58.4448 37.4545C58.4434 37.6038 58.4419 37.7531 58.4404 37.907C58.4404 38.1149 58.4404 38.1149 58.4403 38.3271C58.4397 38.4491 58.4391 38.5712 58.4384 38.697C58.4524 39.0516 58.4524 39.0516 58.7551 39.435C57.9155 39.435 57.076 39.435 56.2109 39.435C56.2576 39.3417 56.3042 39.2484 56.3523 39.1523C56.4456 39.1523 56.5389 39.1523 56.635 39.1523C56.5883 36.8201 56.5417 34.488 56.4936 32.0852C56.4003 32.0385 56.3071 31.9919 56.2109 31.9438C56.2109 31.8505 56.2109 31.7572 56.2109 31.6611Z" fill="#D7A628"/>
<path d="M20.1689 33.074C20.7962 33.0626 21.4233 33.0542 22.0506 33.0475C22.229 33.044 22.4075 33.0404 22.5914 33.0367C22.7622 33.0354 22.933 33.034 23.109 33.0326C23.2666 33.0304 23.4243 33.0282 23.5867 33.0259C23.9852 33.074 23.9852 33.074 24.2487 33.2577C24.5187 33.6619 24.4595 34.0184 24.4092 34.4874C24.2487 34.7278 24.2487 34.7278 23.9852 34.9115C23.5867 34.9596 23.5867 34.9596 23.109 34.9529C22.9382 34.9515 22.7674 34.9501 22.5914 34.9487C22.4129 34.9452 22.2344 34.9416 22.0506 34.938C21.7804 34.9351 21.7804 34.9351 21.5048 34.9322C21.0595 34.9272 20.6142 34.9196 20.1689 34.9115C20.1689 34.3051 20.1689 33.6988 20.1689 33.074Z" fill="#0E2D6D"/>
<path d="M63.9852 33.7808C64.3673 34.2466 64.6098 34.7357 64.8598 35.2825C64.9347 35.4447 65.0096 35.6068 65.0867 35.7739C65.2573 36.1836 65.2573 36.1836 65.2573 36.4663C64.4644 36.4663 63.6715 36.4663 62.8545 36.4663C62.9859 35.8093 63.1954 35.3104 63.4994 34.726C63.5692 34.5892 63.5692 34.5892 63.6404 34.4497C63.7546 34.2263 63.8698 34.0035 63.9852 33.7808Z" fill="#1C5498"/>
<path d="M12.3952 33.7808C12.4884 33.7808 12.5817 33.7808 12.6778 33.7808C12.8434 34.1515 13.0082 34.5226 13.1725 34.8938C13.2197 34.9993 13.2669 35.1048 13.3155 35.2135C13.3825 35.3652 13.3825 35.3652 13.4508 35.5199C13.4923 35.6132 13.5337 35.7065 13.5764 35.8026C13.6672 36.0422 13.6672 36.0422 13.6672 36.3249C12.921 36.3249 12.1747 36.3249 11.4058 36.3249C11.5333 35.6874 11.7041 35.2364 11.98 34.6553C12.0961 34.4091 12.0961 34.4091 12.2146 34.1579C12.2742 34.0334 12.3338 33.909 12.3952 33.7808Z" fill="#14316B"/>
<path d="M40.8048 33.7808C40.8981 33.7808 40.9914 33.7808 41.0875 33.7808C41.253 34.1515 41.4178 34.5226 41.5822 34.8938C41.6294 34.9993 41.6766 35.1048 41.7252 35.2135C41.7922 35.3652 41.7922 35.3652 41.8605 35.5199C41.9019 35.6132 41.9434 35.7065 41.9861 35.8026C42.0769 36.0422 42.0769 36.0422 42.0769 36.3249C41.3306 36.3249 40.5843 36.3249 39.8154 36.3249C40.0939 35.4478 40.4164 34.6149 40.8048 33.7808Z" fill="#12509D"/>
<path d="M96.189 4.81299C96.4343 4.81299 96.6796 4.81299 96.9323 4.81299C96.9323 28.0363 96.9323 51.2596 96.9323 75.1867C96.687 75.1867 96.4417 75.1867 96.189 75.1867C96.189 51.9634 96.189 28.7401 96.189 4.81299Z" fill="white"/>
<path d="M257.985 59.1698C259.977 60.5926 261.147 62.3945 261.704 64.7713C262.139 67.4474 261.849 70.054 260.395 72.3784C258.933 74.3908 257.072 75.6063 254.634 76.1418C251.447 76.4206 248.648 76.2563 245.992 74.3298C243.967 72.6302 242.975 70.597 242.74 67.9646C242.557 65.2679 243.286 62.6643 244.97 60.5307C248.355 57.2169 253.977 56.7746 257.985 59.1698ZM248.238 63.1945C247.088 64.9028 246.69 66.4766 247.051 68.524C247.515 70.3006 248.619 71.2651 250.14 72.2187C251.585 72.7813 253.569 72.6706 254.99 72.0687C256.31 71.2912 257.133 69.8835 257.608 68.4601C257.745 66.8225 257.772 65.1762 256.864 63.752C255.768 62.5515 254.646 61.6508 252.995 61.4386C250.967 61.4093 249.699 61.7661 248.238 63.1945Z" fill="white"/>
<path d="M238.527 59.8464C240.276 61.3845 241.263 63.6929 241.501 65.9822C241.647 68.9026 240.97 71.5463 238.982 73.7462C236.563 75.948 233.896 76.2852 230.768 76.2193C228.254 76.0988 226.164 75.0496 224.473 73.1973C222.661 70.9325 222.187 68.3335 222.421 65.4867C222.936 62.8219 223.999 60.8005 226.215 59.1989C230.078 56.8693 234.892 57.2653 238.527 59.8464ZM227.423 63.8082C226.482 65.2146 226.42 66.8191 226.633 68.4602C227.194 70.2257 228.012 71.2614 229.607 72.1771C231.028 72.6508 232.764 72.7227 234.181 72.2003C235.55 71.3837 236.535 70.3617 237.118 68.8629C237.501 66.8467 237.366 65.2431 236.226 63.5159C235.399 62.4641 234.638 61.8883 233.324 61.5219C230.806 61.2204 228.995 61.7837 227.423 63.8082Z" fill="white"/>
<path d="M187.977 28.813C199.096 28.813 199.096 28.813 201.456 30.8864C201.587 31.0199 201.719 31.1534 201.854 31.291C201.993 31.4296 202.132 31.5682 202.275 31.7111C204.065 33.6446 204.427 35.7985 204.401 38.3735C204.229 40.4892 203.346 42.4166 201.854 43.9285C197.812 47.2843 193.151 46.4065 187.977 46.4065C187.977 40.6006 187.977 34.7948 187.977 28.813ZM192.19 32.53C192.19 35.8826 192.19 39.2353 192.19 42.6895C195.597 42.7267 195.597 42.7267 198.602 41.528C199.69 40.344 200.178 39.2264 200.243 37.6097C200.179 36.1121 199.824 34.9548 198.746 33.8851C196.747 32.3115 194.709 32.53 192.19 32.53Z" fill="white"/>
<path d="M239.271 28.813C249.629 28.813 249.629 28.813 251.413 30.2998C252.324 31.3685 252.436 32.6521 252.404 34.0167C251.997 35.4781 251.356 36.1235 250.174 36.9903C250.419 37.1538 250.664 37.3173 250.917 37.4858C252.114 38.3588 252.701 38.9961 253.147 40.4594C253.346 41.8555 253.113 42.9406 252.404 44.1763C251.143 45.7069 249.956 45.8578 247.944 46.4065C245.082 46.4065 242.22 46.4065 239.271 46.4065C239.271 40.6006 239.271 34.7948 239.271 28.813ZM243.236 32.2822C243.236 33.427 243.236 34.5718 243.236 35.7513C243.83 35.7782 244.422 35.7978 245.017 35.8132C245.184 35.8215 245.35 35.8298 245.522 35.8384C246.421 35.8559 246.915 35.7747 247.685 35.2993C248.259 34.7883 248.259 34.7883 248.315 34.0012C248.182 33.2181 248.077 32.9898 247.448 32.53C246.689 32.1502 245.895 32.2567 245.063 32.2667C244.801 32.2683 244.801 32.2683 244.533 32.2701C244.1 32.273 243.668 32.2774 243.236 32.2822ZM243.236 39.2204C243.236 40.447 243.236 41.6736 243.236 42.9373C243.953 42.9642 244.67 42.9838 245.388 42.9993C245.591 43.0076 245.793 43.0159 246.002 43.0244C247.023 43.041 247.555 43.0246 248.443 42.4756C249.022 41.8527 249.203 41.5596 249.183 40.7072C248.658 39.8832 248.383 39.532 247.448 39.2204C247.117 39.2007 246.785 39.1937 246.454 39.1962C246.266 39.197 246.079 39.1978 245.885 39.1986C245.691 39.2007 245.496 39.2028 245.295 39.2049C245.098 39.206 244.9 39.2072 244.697 39.2083C244.21 39.2112 243.723 39.2157 243.236 39.2204Z" fill="white"/>
<path d="M255.13 28.813C265.445 28.813 265.445 28.813 267.272 30.2998C268.209 31.2374 268.613 32.2145 268.758 33.5211C268.758 35.1144 268.596 36.6503 267.423 37.8333C266.757 38.413 266.082 38.8438 265.289 39.2204C265.409 39.4205 265.53 39.6206 265.653 39.8267C266.097 40.5678 266.541 41.3095 266.983 42.0517C267.175 42.373 267.367 42.6941 267.56 43.015C267.837 43.4757 268.112 43.9372 268.387 44.3989C268.553 44.6766 268.719 44.9543 268.89 45.2404C269.254 45.9109 269.254 45.9109 269.254 46.4065C267.7 46.4065 266.147 46.4065 264.546 46.4065C264.059 45.5297 263.574 44.652 263.09 43.7736C262.952 43.5261 262.815 43.2785 262.673 43.0235C262.54 42.7823 262.408 42.5412 262.271 42.2927C262.149 42.0721 262.027 41.8515 261.902 41.6242C261.555 40.9201 261.308 40.217 261.077 39.4682C260.504 39.4682 259.932 39.4682 259.342 39.4682C259.342 41.7578 259.342 44.0475 259.342 46.4065C257.952 46.4065 256.562 46.4065 255.13 46.4065C255.13 40.6006 255.13 34.7948 255.13 28.813ZM259.342 32.2822C259.342 33.5087 259.342 34.7353 259.342 35.9991C259.93 36.0144 260.518 36.0297 261.123 36.0455C261.306 36.0523 261.489 36.0591 261.677 36.066C262.765 36.0797 263.452 35.9492 264.298 35.2557C264.608 34.4119 264.608 34.4119 264.546 33.5211C264.09 32.9232 263.727 32.6163 263.059 32.2822C262.426 32.2644 261.802 32.2591 261.17 32.2667C260.567 32.2718 259.964 32.2769 259.342 32.2822Z" fill="white"/>
<path d="M137.179 28.813C147.495 28.813 147.495 28.813 149.321 30.2998C150.259 31.2374 150.663 32.2145 150.808 33.5211C150.808 35.1144 150.646 36.6503 149.472 37.8333C148.807 38.413 148.132 38.8438 147.339 39.2204C147.459 39.4205 147.579 39.6206 147.703 39.8267C148.147 40.5678 148.59 41.3095 149.033 42.0517C149.225 42.373 149.417 42.6941 149.61 43.015C149.886 43.4757 150.162 43.9372 150.436 44.3989C150.603 44.6766 150.769 44.9543 150.94 45.2404C151.304 45.9109 151.304 45.9109 151.304 46.4065C149.75 46.4065 148.196 46.4065 146.596 46.4065C146.109 45.5297 145.624 44.652 145.14 43.7736C145.002 43.5261 144.865 43.2785 144.723 43.0235C144.59 42.7823 144.458 42.5412 144.321 42.2927C144.199 42.0721 144.077 41.8515 143.951 41.6242C143.605 40.9201 143.358 40.217 143.127 39.4682C142.554 39.4682 141.982 39.4682 141.392 39.4682C141.392 41.7578 141.392 44.0475 141.392 46.4065C140.002 46.4065 138.612 46.4065 137.179 46.4065C137.179 40.6006 137.179 34.7948 137.179 28.813ZM141.392 32.2822C141.392 33.5087 141.392 34.7353 141.392 35.9991C141.98 36.0144 142.567 36.0297 143.173 36.0455C143.356 36.0523 143.539 36.0591 143.727 36.066C144.815 36.0797 145.502 35.9492 146.348 35.2557C146.657 34.4119 146.657 34.4119 146.596 33.5211C146.139 32.9232 145.777 32.6163 145.109 32.2822C144.476 32.2644 143.852 32.2591 143.219 32.2667C142.616 32.2718 142.013 32.2769 141.392 32.2822Z" fill="white"/>
<path d="M147.339 3.78576C147.342 3.93732 147.344 4.08889 147.347 4.24505C147.373 5.81664 147.402 7.3882 147.431 8.95975C147.442 9.54696 147.452 10.1342 147.462 10.7214C147.477 11.5635 147.492 12.4054 147.508 13.2475C147.513 13.5118 147.517 13.7761 147.521 14.0484C147.526 14.2915 147.531 14.5345 147.536 14.785C147.54 15.0001 147.544 15.2153 147.548 15.4369C147.533 15.9279 147.533 15.9279 147.835 16.1755C149.307 16.2573 150.778 16.339 152.295 16.4233C152.295 12.58 152.295 8.7367 152.295 4.77694C153.113 4.61339 153.93 4.44985 154.773 4.28135C154.855 6.4892 154.936 8.69705 155.021 10.9718C155.634 10.3585 155.634 10.3585 156.26 9.73283C158.005 8.40448 159.801 7.99521 161.959 8.24607C163.648 8.63916 164.693 9.28213 165.648 10.7366C166.691 12.5634 166.704 14.3687 166.667 16.4233C167.271 16.3884 167.875 16.352 168.479 16.3149C168.65 16.3051 168.821 16.2954 168.997 16.2854C169.757 16.2376 170.401 16.1697 171.127 15.9277C171.667 15.1402 171.697 14.4223 171.726 13.4846C171.735 13.2083 171.745 12.932 171.755 12.6473C171.762 12.3602 171.77 12.073 171.778 11.7771C171.787 11.4861 171.797 11.1952 171.807 10.8953C171.83 10.1775 171.851 9.45963 171.871 8.74165C172.607 8.57811 173.343 8.41457 174.101 8.24607C174.125 9.31281 174.143 10.3794 174.155 11.4463C174.16 11.8088 174.167 12.1712 174.176 12.5336C174.188 13.0565 174.193 13.5791 174.198 14.1022C174.205 14.5732 174.205 14.5732 174.213 15.0538C174.055 16.2852 173.522 17.052 172.599 17.8636C171.846 18.325 171.218 18.4372 170.355 18.4438C170.044 18.447 170.044 18.447 169.727 18.4502C169.5 18.4513 169.273 18.4524 169.04 18.4534C168.681 18.4565 168.681 18.4565 168.314 18.4596C167.521 18.4657 166.728 18.4698 165.934 18.4734C165.528 18.4754 165.528 18.4754 165.114 18.4774C163.68 18.484 162.247 18.4888 160.814 18.4924C159.333 18.4965 157.852 18.5076 156.372 18.5202C155.233 18.5286 154.095 18.5314 152.957 18.5328C152.411 18.5345 151.865 18.5383 151.319 18.5442C150.555 18.552 149.791 18.5521 149.027 18.5502C148.802 18.5543 148.577 18.5584 148.345 18.5626C147.283 18.5521 146.566 18.4956 145.716 17.8236C144.917 16.9593 144.83 16.3794 144.833 15.2471C144.833 15.009 144.833 14.7709 144.833 14.5256C144.834 14.2693 144.836 14.013 144.837 13.7489C144.837 13.4859 144.838 13.2229 144.838 12.952C144.839 12.1113 144.842 11.2705 144.846 10.4298C144.847 9.86012 144.848 9.29048 144.849 8.72084C144.852 7.32361 144.856 5.92638 144.861 4.52914C145.181 4.40425 145.501 4.28058 145.821 4.15745C146.089 4.05396 146.089 4.05396 146.361 3.94837C146.843 3.78576 146.843 3.78576 147.339 3.78576ZM155.516 13.9453C155.044 14.7674 154.773 15.4597 154.773 16.4233C156.109 16.4294 157.446 16.4339 158.782 16.4369C159.237 16.4382 159.692 16.4398 160.147 16.442C160.8 16.445 161.453 16.4464 162.105 16.4475C162.412 16.4494 162.412 16.4494 162.725 16.4514C163.213 16.4514 163.701 16.4387 164.189 16.4233C164.501 16.169 164.501 16.169 164.442 15.6247C164.31 13.822 164.049 12.2667 162.687 10.9873C159.627 9.30922 157.278 11.5804 155.516 13.9453Z" fill="white"/>
<path d="M313.609 28.813C314.999 28.813 316.39 28.813 317.822 28.813C317.822 30.9391 317.822 33.0652 317.822 35.2557C320.193 35.2557 322.565 35.2557 325.008 35.2557C325.008 33.1296 325.008 31.0035 325.008 28.813C326.316 28.813 327.625 28.813 328.973 28.813C328.973 34.6189 328.973 40.4247 328.973 46.4065C327.664 46.4065 326.356 46.4065 325.008 46.4065C325.008 43.9533 325.008 41.5001 325.008 38.9726C322.636 38.9726 320.265 38.9726 317.822 38.9726C317.822 41.4258 317.822 43.879 317.822 46.4065C316.432 46.4065 315.042 46.4065 313.609 46.4065C313.609 40.6006 313.609 34.7948 313.609 28.813Z" fill="white"/>
<path d="M204.827 58.3006C206.136 58.3006 207.444 58.3006 208.792 58.3006C208.792 60.4267 208.792 62.5528 208.792 64.7433C211.164 64.7433 213.535 64.7433 215.978 64.7433C215.978 62.6172 215.978 60.4911 215.978 58.3006C217.368 58.3006 218.758 58.3006 220.191 58.3006C220.191 64.1064 220.191 69.9123 220.191 75.894C218.801 75.894 217.41 75.894 215.978 75.894C215.978 73.3591 215.978 70.8242 215.978 68.2124C213.607 68.2124 211.235 68.2124 208.792 68.2124C208.792 70.7473 208.792 73.2823 208.792 75.894C207.484 75.894 206.175 75.894 204.827 75.894C204.827 70.0882 204.827 64.2824 204.827 58.3006Z" fill="white"/>
<path d="M219.447 28.813C220.592 28.813 221.737 28.813 222.916 28.813C223.907 30.7424 224.788 32.7055 225.642 34.6982C225.781 35.0204 225.92 35.3426 226.059 35.6648C226.275 36.167 226.491 36.6692 226.707 37.1715C227.236 38.4008 227.769 39.6284 228.303 40.8553C228.453 41.1998 228.603 41.5443 228.753 41.8888C228.97 42.3884 229.187 42.8879 229.405 43.3872C229.606 43.8479 229.806 44.3087 230.007 44.7697C230.121 45.0325 230.236 45.2953 230.353 45.5661C230.598 46.1587 230.598 46.1587 230.598 46.4065C229.044 46.4065 227.491 46.4065 225.89 46.4065C224.651 43.5258 224.651 43.5258 224.651 42.6895C221.339 42.8122 221.339 42.8122 217.961 42.9373C217.761 43.4637 217.562 43.9902 217.357 44.5325C216.753 46.1277 216.753 46.1277 216.474 46.4065C216.141 46.4278 215.807 46.433 215.474 46.4307C215.273 46.4299 215.073 46.4291 214.866 46.4282C214.656 46.4262 214.445 46.4241 214.228 46.4219C214.017 46.4208 213.805 46.4197 213.587 46.4186C213.062 46.4156 212.538 46.4112 212.013 46.4065C213.121 43.3722 214.435 40.4278 215.73 37.4704C216.17 36.4661 216.608 35.4617 217.047 34.4571C217.15 34.2201 217.254 33.9831 217.36 33.7389C218.073 32.1037 218.77 30.4633 219.447 28.813ZM220.934 34.5123C220.644 35.2503 220.355 35.9886 220.067 36.727C219.984 36.9376 219.901 37.1483 219.816 37.3653C219.738 37.5658 219.66 37.7662 219.579 37.9727C219.506 38.1583 219.434 38.3439 219.359 38.535C219.185 38.9338 219.185 38.9338 219.2 39.2204C220.508 39.2204 221.816 39.2204 223.164 39.2204C222.888 38.4813 222.608 37.7433 222.328 37.0057C222.249 36.7951 222.171 36.5844 222.09 36.3674C222.013 36.1669 221.936 35.9665 221.858 35.76C221.787 35.5744 221.717 35.3889 221.645 35.1977C221.462 34.7136 221.462 34.7136 220.934 34.5123Z" fill="white"/>
<path d="M176.371 28.7888C176.849 28.7931 176.849 28.7931 177.338 28.7975C177.657 28.7998 177.977 28.802 178.307 28.8043C178.554 28.8072 178.802 28.8101 179.057 28.813C183.362 38.5877 183.362 38.5877 185.283 43.0457C185.407 43.3327 185.531 43.6196 185.659 43.9152C185.771 44.1748 185.882 44.4344 185.997 44.7019C186.093 44.9253 186.189 45.1487 186.288 45.3789C186.491 45.9109 186.491 45.9109 186.491 46.4065C185.019 46.4065 183.547 46.4065 182.03 46.4065C180.822 43.7736 180.822 43.7736 180.544 42.9373C178.336 42.8556 176.128 42.7738 173.853 42.6895C173.608 43.5073 173.362 44.325 173.11 45.1675C172.946 45.5763 172.783 45.9852 172.614 46.4065C171.142 46.4065 169.67 46.4065 168.154 46.4065C168.323 45.559 168.441 44.9937 168.773 44.2419C168.887 43.9827 168.887 43.9827 169.002 43.7183C169.085 43.5337 169.167 43.3492 169.251 43.159C169.337 42.9634 169.423 42.7679 169.512 42.5664C169.791 41.9307 170.072 41.2957 170.353 40.6607C170.738 39.7869 171.121 38.9128 171.505 38.0385C171.6 37.822 171.695 37.6054 171.793 37.3822C172.739 35.2255 173.657 33.0572 174.562 30.8833C174.663 30.6428 174.764 30.4024 174.867 30.1546C174.954 29.9475 175.04 29.7404 175.128 29.527C175.473 28.7681 175.473 28.8166 176.371 28.7888ZM177.074 34.2645C176.784 34.997 176.495 35.7303 176.207 36.4637C176.083 36.7766 176.083 36.7766 175.956 37.0958C175.878 37.2954 175.8 37.495 175.719 37.7007C175.647 37.885 175.574 38.0693 175.499 38.2591C175.313 38.7209 175.313 38.7209 175.34 39.2204C176.566 39.2204 177.793 39.2204 179.057 39.2204C178.571 37.5211 178.005 35.8942 177.322 34.2645C177.24 34.2645 177.159 34.2645 177.074 34.2645Z" fill="white"/>
<path d="M125.573 28.7888C126.051 28.7931 126.051 28.7931 126.54 28.7975C126.859 28.7998 127.179 28.802 127.509 28.8043C127.756 28.8072 128.004 28.8101 128.259 28.813C132.564 38.5877 132.564 38.5877 134.485 43.0457C134.609 43.3327 134.733 43.6196 134.861 43.9152C134.973 44.1748 135.084 44.4344 135.199 44.7019C135.295 44.9253 135.391 45.1487 135.49 45.3789C135.693 45.9109 135.693 45.9109 135.693 46.4065C134.221 46.4065 132.749 46.4065 131.232 46.4065C130.024 43.7736 130.024 43.7736 129.746 42.9373C127.538 42.8556 125.33 42.7738 123.055 42.6895C122.81 43.5073 122.565 44.325 122.312 45.1675C122.148 45.5763 121.985 45.9852 121.816 46.4065C120.344 46.4065 118.872 46.4065 117.356 46.4065C117.525 45.559 117.643 44.9937 117.975 44.2419C118.089 43.9827 118.089 43.9827 118.204 43.7183C118.287 43.5337 118.369 43.3492 118.454 43.159C118.539 42.9634 118.625 42.7679 118.714 42.5664C118.993 41.9307 119.274 41.2957 119.555 40.6607C119.94 39.7869 120.323 38.9128 120.707 38.0385C120.802 37.822 120.897 37.6054 120.995 37.3822C121.941 35.2255 122.859 33.0572 123.765 30.8833C123.865 30.6428 123.966 30.4024 124.07 30.1546C124.156 29.9475 124.242 29.7404 124.33 29.527C124.675 28.7681 124.675 28.8166 125.573 28.7888ZM126.276 34.2645C125.986 34.997 125.697 35.7303 125.409 36.4637C125.285 36.7766 125.285 36.7766 125.158 37.0958C125.08 37.2954 125.002 37.495 124.921 37.7007C124.849 37.885 124.776 38.0693 124.701 38.2591C124.515 38.7209 124.515 38.7209 124.542 39.2204C125.768 39.2204 126.995 39.2204 128.259 39.2204C127.773 37.5211 127.207 35.8942 126.524 34.2645C126.442 34.2645 126.361 34.2645 126.276 34.2645Z" fill="white"/>
<path d="M272.199 8.22186C272.488 8.22266 272.777 8.22345 273.075 8.22428C273.378 8.22635 273.681 8.22843 273.993 8.23057C274.298 8.23169 274.603 8.2328 274.918 8.23396C275.673 8.23688 276.428 8.24097 277.184 8.24606C277.187 8.56675 277.187 8.56675 277.191 8.89392C277.201 9.68788 277.217 10.4816 277.235 11.2754C277.242 11.6189 277.247 11.9623 277.251 12.3058C277.256 12.7998 277.268 13.2937 277.28 13.7876C277.285 14.0847 277.291 14.3819 277.296 14.6881C277.364 15.4466 277.364 15.4466 277.876 15.8987C278.707 16.3198 279.554 16.3174 280.467 16.3458C281.101 16.3714 281.734 16.397 282.387 16.4233C282.387 14.5425 282.387 12.6618 282.387 10.724C283.874 10.2284 283.874 10.2284 284.865 10.2284C284.865 12.2727 284.865 14.317 284.865 16.4233C286.255 16.4233 287.645 16.4233 289.078 16.4233C289.078 14.2154 289.078 12.0076 289.078 9.73282C290.317 9.23723 290.317 9.23723 291.308 9.23723C291.308 11.6086 291.308 13.98 291.308 16.4233C293.809 16.3628 293.809 16.3628 295.025 15.6799C295.357 15.0153 295.326 14.4697 295.351 13.7266C295.361 13.4375 295.372 13.1484 295.382 12.8506C295.392 12.5475 295.402 12.2443 295.412 11.932C295.428 11.4744 295.428 11.4744 295.444 11.0076C295.471 10.2523 295.496 9.49701 295.52 8.74165C296.417 8.41548 297.031 8.24606 297.998 8.24606C298.023 9.23312 298.041 10.2201 298.053 11.2074C298.06 11.7061 298.073 12.2048 298.085 12.7035C298.121 16.2548 298.121 16.2548 297.007 17.4145C295.758 18.2397 294.964 18.5298 293.435 18.53C293.26 18.5313 293.085 18.5326 292.905 18.534C292.333 18.5371 291.762 18.533 291.19 18.5286C290.79 18.5286 290.39 18.529 289.989 18.5297C289.153 18.53 288.317 18.5269 287.481 18.5213C286.411 18.5142 285.341 18.5149 284.271 18.5181C283.446 18.5198 282.62 18.5178 281.795 18.5148C281.401 18.5137 281.006 18.5136 280.611 18.5145C280.06 18.5153 279.509 18.5112 278.957 18.5058C278.644 18.5044 278.33 18.5031 278.008 18.5017C277.124 18.3987 276.681 18.1361 275.945 17.6623C275.275 17.8225 275.275 17.8225 274.706 18.1578C273.553 18.7341 271.995 18.5071 270.741 18.4056C269.508 17.8529 268.911 17.1033 268.263 15.9277C267.757 13.9017 267.741 11.602 268.758 9.73282C269.799 8.57343 270.674 8.21446 272.199 8.22186ZM271.024 10.5565C270.428 11.4301 270.445 12.269 270.431 13.2949C270.425 13.5728 270.418 13.8507 270.412 14.137C270.502 15.0266 270.679 15.4805 271.236 16.1755C271.89 16.4721 272.508 16.4967 273.219 16.4233C274.081 15.9094 274.387 15.6441 274.706 14.6887C274.725 14.3398 274.732 13.9899 274.73 13.6404C274.729 13.3422 274.729 13.3422 274.727 13.0379C274.725 12.8314 274.723 12.6249 274.721 12.4121C274.72 12.2027 274.719 11.9933 274.718 11.7776C274.715 11.2612 274.71 10.7448 274.706 10.2284C274.184 10.2083 273.663 10.1939 273.141 10.182C272.851 10.1733 272.561 10.1647 272.261 10.1558C271.496 10.1616 271.496 10.1616 271.024 10.5565Z" fill="white"/>
<path d="M184.508 58.7962C184.835 59.1233 185.162 59.4504 185.499 59.7874C184.6 60.7687 183.7 61.75 182.774 62.761C182.487 62.5974 182.201 62.4339 181.906 62.2654C180.629 61.6245 179.596 61.6124 178.189 61.8937C178.067 61.9346 177.944 61.9755 177.818 62.0176C177.606 62.7115 177.606 62.7115 177.57 63.5043C178.456 64.7257 179.799 64.9702 181.172 65.3933C182.681 65.8845 183.904 66.536 184.973 67.7478C185.644 69.4622 185.687 71.2085 185.005 72.9205C184.076 74.7717 182.671 75.5153 180.791 76.1419C175.484 76.4679 175.484 76.4679 173.43 74.809C173.079 74.4693 173.079 74.4693 172.614 73.9117C174.666 71.5375 174.666 71.5375 175.34 70.9382C175.503 70.9382 175.667 70.9382 175.835 70.9382C175.835 71.1017 175.835 71.2653 175.835 71.4338C176.03 71.5104 176.224 71.5871 176.424 71.6661C177.074 71.9294 177.074 71.9294 177.57 72.1772C178.141 72.2356 178.141 72.2356 178.778 72.2391C178.992 72.2455 179.206 72.2519 179.427 72.2585C180.174 72.1606 180.507 71.9625 181.039 71.4338C181.122 70.6592 181.122 70.6592 181.039 69.947C179.854 69.3193 178.674 68.8021 177.415 68.3363C175.925 67.7694 174.895 67.2715 173.76 66.1372C173.077 64.6137 173.05 62.8195 173.521 61.2113C174.266 59.769 175.598 58.6772 177.09 58.0838C179.547 57.3847 182.257 57.5599 184.508 58.7962Z" fill="white"/>
<path d="M310.129 29.3309C310.473 29.5568 310.804 29.8022 311.131 30.052C310.37 31.3001 309.464 32.2685 308.406 33.2733C308.252 33.1558 308.099 33.0382 307.941 32.9171C306.875 32.3841 305.877 32.249 304.689 32.2821C303.907 32.5852 303.597 32.7795 303.171 33.4901C303.154 34.0812 303.154 34.0812 303.708 34.6294C304.522 35.3251 305.273 35.6115 306.284 35.8907C307.995 36.3765 309.515 37.0617 310.641 38.5041C311.336 39.8451 311.274 41.4536 310.868 42.8754C310.237 44.4573 309.335 45.5241 307.786 46.2516C305.59 47.1095 303.205 47.1849 300.972 46.4065C300.098 45.9799 299.247 45.5379 298.494 44.9197C298.494 43.9057 298.891 43.6331 299.562 42.8909C299.761 42.6676 299.959 42.4443 300.164 42.2143C300.724 41.6984 300.724 41.6984 301.467 41.6984C301.797 41.936 301.797 41.936 302.133 42.1785C303.221 42.8558 304.179 43.082 305.449 42.8396C305.861 42.7237 306.267 42.5848 306.671 42.4417C306.671 41.7058 306.671 40.9698 306.671 40.2116C306.466 40.1439 306.262 40.0761 306.051 40.0064C305.765 39.9106 305.479 39.8147 305.184 39.716C305.03 39.6644 304.876 39.6128 304.718 39.5597C300.345 38.0717 300.345 38.0717 299.203 36.3069C298.666 34.9115 298.708 33.0426 299.224 31.6491C301.439 27.957 306.522 27.3185 310.129 29.3309Z" fill="white"/>
<path d="M166.28 29.5409C166.863 30.0102 167.227 30.4409 167.658 31.0432C167.262 31.4111 166.864 31.7773 166.466 32.1427C166.244 32.3469 166.023 32.551 165.795 32.7613C165.18 33.2733 165.18 33.2733 164.437 33.5211C163.932 33.2054 163.436 32.8742 162.95 32.5299C161.741 32.1267 160.783 32.1802 159.574 32.5764C158.168 33.3316 157.319 34.2563 156.755 35.7513C156.287 37.8292 156.628 39.5606 157.638 41.4196C158.667 42.3165 159.897 42.8765 161.27 42.978C162.465 42.8815 163.256 42.4145 164.189 41.6983C164.434 41.5348 164.68 41.3712 164.932 41.2027C165.43 41.5561 165.925 41.9126 166.419 42.2714C166.561 42.3715 166.703 42.4716 166.849 42.5748C167.215 42.8429 167.562 43.1367 167.906 43.4329C167.906 44.1763 167.906 44.1763 167.542 44.6022C165.421 46.4618 163.539 46.8952 160.72 46.902C158.372 46.742 155.931 45.7311 154.293 44.0214C152.257 41.3618 151.908 38.5051 152.295 35.2557C152.513 34.3419 152.814 33.5871 153.286 32.7777C153.429 32.5171 153.572 32.2564 153.72 31.9879C156.775 28.1685 161.979 27.1169 166.28 29.5409Z" fill="white"/>
<path d="M200.615 58.5485C201.322 59.0839 201.969 59.658 202.597 60.283C201.655 61.2542 200.661 62.1393 199.624 63.0088C199.279 62.7711 199.279 62.7711 198.927 62.5287C197.675 61.7189 196.619 61.6002 195.163 61.7698C193.865 62.1888 192.89 62.8077 192.19 63.9999C191.483 65.6531 191.224 67.2005 191.694 68.9558C192.337 70.3889 193.245 71.4656 194.668 72.1772C196.443 72.3568 197.681 72.2559 199.128 71.186C199.251 70.9407 199.251 70.9407 199.376 70.6904C200.34 71.0343 201.102 71.4871 201.931 72.0843C202.15 72.2408 202.369 72.3973 202.594 72.5585C202.759 72.678 202.923 72.7975 203.093 72.9206C202.601 73.8404 202.158 74.3847 201.281 74.9494C201.006 75.131 201.006 75.131 200.726 75.3162C198.524 76.5138 195.772 76.4576 193.353 75.9802C190.944 75.185 189.284 73.7705 188.025 71.5887C186.897 69.1045 186.773 65.8682 187.59 63.2566C188.649 60.8561 190.4 59.4058 192.736 58.3152C195.043 57.4419 198.413 57.3061 200.615 58.5485Z" fill="white"/>
<path d="M120.796 8.22184C121.085 8.22264 121.374 8.22343 121.672 8.22426C121.975 8.22633 122.278 8.22841 122.59 8.23055C122.896 8.23167 123.201 8.23278 123.515 8.23394C124.27 8.23686 125.026 8.24095 125.781 8.24604C125.784 8.56673 125.784 8.56673 125.788 8.8939C125.799 9.68786 125.814 10.4816 125.832 11.2754C125.839 11.6188 125.845 11.9623 125.848 12.3058C125.853 12.7998 125.865 13.2937 125.878 13.7875C125.883 14.0847 125.888 14.3819 125.893 14.688C125.961 15.4478 125.961 15.4478 126.479 15.9004C127.284 16.3097 127.982 16.2737 128.878 16.2684C129.365 16.2713 129.365 16.2713 129.862 16.2742C130.761 16.1727 131.12 16.0901 131.728 15.4321C131.982 14.6572 132.023 13.9089 132.054 13.0974C132.07 12.7165 132.07 12.7165 132.086 12.3279C132.095 12.0643 132.105 11.8008 132.115 11.5293C132.131 11.1283 132.131 11.1283 132.148 10.7191C132.174 10.06 132.199 9.40084 132.223 8.74163C133.059 8.37038 133.513 8.24604 134.454 8.24604C134.456 8.45103 134.458 8.65601 134.461 8.86722C134.474 9.79603 134.495 10.7245 134.516 11.6532C134.519 11.9758 134.523 12.2984 134.526 12.6308C134.534 12.9407 134.542 13.2505 134.55 13.5698C134.558 13.998 134.558 13.998 134.566 14.4349C134.729 15.3369 134.962 15.6349 135.693 16.1755C136.394 16.2748 136.977 16.3145 137.675 16.2994C137.851 16.3032 138.028 16.307 138.209 16.311C139.023 16.3049 139.543 16.2614 140.202 15.7658C140.768 15.0291 140.781 14.6007 140.8 13.6782C140.808 13.3907 140.815 13.1032 140.824 12.807C140.827 12.508 140.831 12.209 140.834 11.901C140.842 11.5982 140.849 11.2954 140.857 10.9834C140.874 10.2361 140.887 9.48904 140.896 8.74163C141.632 8.57808 142.368 8.41454 143.126 8.24604C143.151 9.31278 143.169 10.3794 143.181 11.4463C143.186 11.8088 143.193 12.1712 143.201 12.5336C143.213 13.0565 143.219 13.5791 143.223 14.1021C143.231 14.5732 143.231 14.5732 143.239 15.0537C143.08 16.2852 142.548 17.052 141.624 17.8636C140.378 18.6273 139.01 18.4606 137.598 18.4676C137.342 18.4727 137.086 18.4778 136.822 18.4831C134.874 18.4931 134.874 18.4931 133.87 17.9836C133.654 17.8775 133.437 17.7715 133.215 17.6622C132.717 17.9068 132.222 18.1553 131.728 18.4056C130.731 18.5217 129.741 18.5094 128.739 18.4985C128.339 18.5029 128.339 18.5029 127.931 18.5073C127.674 18.5063 127.416 18.5053 127.15 18.5044C126.917 18.5035 126.684 18.5027 126.444 18.5018C125.666 18.389 125.205 18.0699 124.542 17.6622C123.873 17.8225 123.873 17.8225 123.303 18.1578C122.15 18.734 120.592 18.507 119.338 18.4056C118.105 17.8529 117.508 17.1033 116.86 15.9277C116.39 14.072 116.32 11.9285 117.093 10.151C117.992 8.71892 119.167 8.21393 120.796 8.22184ZM119.488 10.7443C119.003 11.6253 118.966 12.2004 118.982 13.2019C118.982 13.4984 118.983 13.7948 118.983 14.1002C119.098 14.9968 119.269 15.474 119.834 16.1755C120.487 16.472 121.106 16.4967 121.816 16.4233C122.679 15.9093 122.984 15.644 123.303 14.6887C123.323 14.3397 123.33 13.9899 123.327 13.6404C123.326 13.3421 123.326 13.3421 123.325 13.0379C123.323 12.8314 123.321 12.6248 123.318 12.4121C123.317 12.2027 123.316 11.9933 123.315 11.7776C123.312 11.2612 123.308 10.7448 123.303 10.2284C122.787 10.1949 122.271 10.1709 121.754 10.151C121.323 10.1294 121.323 10.1294 120.883 10.1074C120.054 10.1593 120.054 10.1593 119.488 10.7443Z" fill="white"/>
<path d="M199.872 3.78576C199.89 5.29767 199.903 6.80951 199.912 8.3215C199.916 8.83509 199.921 9.34867 199.928 9.86224C199.937 10.6035 199.941 11.3446 199.944 12.0859C199.948 12.3129 199.952 12.5399 199.956 12.7737C199.956 14.3389 199.86 16.0994 198.768 17.322C197.349 18.532 196.286 18.4584 194.497 18.4676C194.254 18.4727 194.011 18.4778 193.76 18.4831C191.738 18.4939 191.738 18.4939 190.745 17.9836C190.486 17.8776 190.227 17.7715 189.96 17.6623C189.461 17.9031 188.966 18.1523 188.473 18.4057C187.491 18.5027 186.516 18.4758 185.53 18.4521C185.265 18.4488 185 18.4454 184.727 18.4419C184.076 18.4332 183.425 18.421 182.774 18.4057C182.748 18.6701 182.722 18.9346 182.695 19.2071C182.45 20.5592 181.846 21.2689 180.791 22.1226C179.223 22.9327 177.537 23.0709 175.835 22.6182C174.832 21.9489 174.521 20.9859 174.101 19.8924C174.236 19.9282 174.371 19.964 174.51 20.0008C176.12 20.3971 177.71 20.7321 179.289 20.0938C179.999 19.4697 180.246 18.8668 180.348 17.9215C180.377 17.3376 180.39 16.7552 180.398 16.1707C180.403 15.9579 180.408 15.7452 180.413 15.526C180.428 14.8494 180.439 14.1728 180.451 13.4962C180.46 13.0363 180.47 12.5763 180.48 12.1164C180.503 10.9915 180.524 9.86662 180.544 8.74165C181.279 8.57811 182.015 8.41457 182.774 8.24607C182.774 10.9446 182.774 13.643 182.774 16.4233C183.908 16.3696 183.908 16.3696 185.066 16.3149C185.303 16.3042 185.539 16.2935 185.783 16.2825C185.972 16.2731 186.161 16.2636 186.355 16.2539C186.547 16.2448 186.739 16.2357 186.937 16.2264C187.471 16.1765 187.957 16.0721 188.473 15.9277C188.714 15.1074 188.769 14.3376 188.799 13.4846C188.815 13.0702 188.815 13.0702 188.831 12.6473C188.84 12.3602 188.85 12.073 188.86 11.7771C188.876 11.3406 188.876 11.3406 188.893 10.8953C188.919 10.1775 188.944 9.45959 188.969 8.74165C189.705 8.57811 190.44 8.41457 191.199 8.24607C191.206 8.54229 191.206 8.54229 191.214 8.8445C191.237 9.73953 191.264 10.6344 191.292 11.5293C191.299 11.8401 191.307 12.1509 191.315 12.4712C191.324 12.7698 191.334 13.0685 191.344 13.3762C191.352 13.6513 191.359 13.9264 191.367 14.2098C191.445 14.9192 191.536 15.3447 191.942 15.9277C192.768 16.203 193.412 16.217 194.281 16.222C194.702 16.2272 194.702 16.2272 195.131 16.2326C195.878 16.1776 196.292 16.111 196.898 15.6799C197.122 15.0085 197.182 14.5893 197.197 13.8968C197.204 13.5843 197.204 13.5843 197.212 13.2655C197.216 13.0417 197.22 12.8179 197.224 12.5873C197.232 12.2424 197.232 12.2424 197.24 11.8905C197.256 11.1558 197.271 10.4211 197.285 9.68637C197.296 9.18836 197.307 8.69035 197.318 8.19234C197.344 6.9713 197.369 5.75023 197.394 4.52914C197.713 4.40425 198.033 4.28058 198.354 4.15745C198.621 4.05396 198.621 4.05396 198.894 3.94837C199.376 3.78576 199.376 3.78576 199.872 3.78576Z" fill="white"/>
<path d="M234.811 3.78576C234.813 3.93732 234.816 4.08889 234.818 4.24505C234.845 5.81664 234.873 7.3882 234.903 8.95975C234.914 9.54696 234.924 10.1342 234.934 10.7214C234.948 11.5635 234.964 12.4054 234.98 13.2475C234.984 13.5118 234.988 13.7761 234.993 14.0484C234.998 14.2915 235.002 14.5345 235.008 14.785C235.011 15.0001 235.015 15.2153 235.019 15.4369C235.005 15.9279 235.005 15.9279 235.306 16.1755C235.694 16.2059 236.083 16.2196 236.472 16.2264C236.844 16.2338 236.844 16.2338 237.223 16.2414C237.628 16.2476 237.628 16.2476 238.041 16.2539C238.315 16.2591 238.59 16.2642 238.873 16.2695C239.754 16.2858 240.635 16.3003 241.517 16.3149C242.112 16.3256 242.708 16.3364 243.304 16.3473C244.768 16.3739 246.232 16.3991 247.696 16.4233C247.632 15.953 247.564 15.4834 247.495 15.014C247.457 14.7524 247.42 14.4907 247.381 14.2212C247.087 12.9669 246.559 12.1507 245.466 11.4674C244.298 11.0782 243.111 10.9905 241.941 11.4238C241.452 11.67 240.982 11.934 240.51 12.2108C240.181 12.3781 239.85 12.5438 239.519 12.7064C239.028 12.2975 238.537 11.8886 238.032 11.4674C238.684 10.4351 239.355 9.59139 240.232 8.73198C240.46 8.50646 240.689 8.28095 240.924 8.0486C241.163 7.81492 241.401 7.58132 241.64 7.34781C242.111 6.88595 242.581 6.42305 243.051 5.95977C243.362 5.65474 243.362 5.65474 243.68 5.34355C244.231 4.80154 244.231 4.80154 244.623 4.21347C244.97 3.78576 244.97 3.78576 245.747 3.68896C246.038 3.70046 246.328 3.71196 246.627 3.72381C247.066 3.73723 247.066 3.73723 247.513 3.75091C247.849 3.76816 247.849 3.76816 248.192 3.78576C247.838 4.59324 247.407 5.12447 246.78 5.74102C246.603 5.9167 246.426 6.09238 246.243 6.27339C246.058 6.45418 245.873 6.63497 245.683 6.82125C245.496 7.00587 245.309 7.1905 245.116 7.38072C244.656 7.8355 244.194 8.28909 243.731 8.74165C243.929 8.76593 244.126 8.79021 244.329 8.81522C246.268 9.08886 247.542 9.4646 248.873 10.9563C249.651 12.0148 249.976 12.9203 250.081 14.2241C250.109 14.5394 250.109 14.5394 250.137 14.861C250.171 15.6073 250.177 16.3471 250.176 17.094C250.176 17.3396 250.176 17.5851 250.175 17.8382C250.175 18.0254 250.174 18.2127 250.174 18.4057C248.095 18.4286 246.017 18.4462 243.938 18.457C242.973 18.4622 242.007 18.4692 241.042 18.4804C240.11 18.4912 239.179 18.4971 238.247 18.4997C237.891 18.5015 237.536 18.5051 237.181 18.5104C236.683 18.5177 236.185 18.5181 235.686 18.5182C235.403 18.5204 235.12 18.5226 234.828 18.5248C233.883 18.3768 233.491 18.0969 232.828 17.4145C232.386 16.5819 232.271 15.901 232.276 14.9657C232.276 14.7327 232.276 14.4996 232.277 14.2595C232.279 14.0111 232.282 13.7627 232.284 13.5069C232.285 13.2501 232.286 12.9934 232.286 12.7288C232.289 11.9108 232.295 11.0929 232.302 10.2749C232.304 9.71944 232.306 9.164 232.308 8.60856C232.314 7.24873 232.322 5.88894 232.333 4.52914C232.652 4.40425 232.973 4.28058 233.293 4.15745C233.56 4.05396 233.56 4.05396 233.833 3.94837C234.315 3.78576 234.315 3.78576 234.811 3.78576Z" fill="white"/>
<path d="M315.206 8.49099C316.071 9.00627 316.858 9.56701 317.326 10.4762C317.608 11.7504 317.603 12.9892 317.59 14.2861C317.588 14.4921 317.587 14.6981 317.586 14.9104C317.583 15.4147 317.579 15.919 317.574 16.4233C318.173 16.395 318.772 16.3636 319.371 16.3304C319.54 16.3227 319.709 16.3151 319.883 16.3072C321.161 16.2369 321.161 16.2369 322.282 15.6799C322.524 14.9552 322.59 14.3061 322.652 13.5491C322.795 11.9701 322.927 10.6813 324.108 9.52572C325.551 8.49675 327 8.60424 328.725 8.74169C329.908 9.13609 330.544 9.66591 331.203 10.724C331.964 12.7786 331.829 14.6797 330.955 16.6711C330.319 17.6674 329.838 18.0476 328.725 18.4057C326.923 18.5794 325.629 18.4882 324.017 17.6623C323.825 17.7768 323.633 17.8912 323.436 18.0091C322.072 18.6061 320.767 18.497 319.295 18.4783C318.984 18.4772 318.672 18.4762 318.351 18.4751C317.528 18.4716 316.704 18.465 315.88 18.4567C315.038 18.4491 314.196 18.4457 313.354 18.442C311.704 18.4338 310.055 18.4214 308.406 18.4057C308.988 16.8904 308.988 16.8904 309.645 16.4233C310.229 16.3389 310.229 16.3389 310.91 16.3507C311.153 16.3531 311.397 16.3555 311.648 16.358C311.902 16.3642 312.155 16.3704 312.417 16.3769C312.802 16.3819 312.802 16.3819 313.195 16.387C313.829 16.3958 314.462 16.408 315.096 16.4233C315.083 15.6177 315.06 14.8127 315.034 14.0073C315.031 13.7793 315.027 13.5512 315.023 13.3162C314.987 11.9834 314.987 11.9834 314.393 10.8208C313.59 10.3047 313.059 10.3472 312.123 10.4762C311.23 10.9743 310.617 11.4865 309.892 12.2108C309.892 11.2295 309.892 10.2483 309.892 9.23728C311.489 8.07635 313.324 7.73027 315.206 8.49099ZM325.798 11.2041C325.089 12.1963 324.933 12.9841 325.008 14.1932C325.264 15.2206 325.592 15.8217 326.495 16.4233C327.228 16.5472 327.228 16.5472 327.981 16.4233C328.687 15.8702 328.935 15.5437 329.22 14.6888C329.352 13.3421 329.345 12.3217 328.477 11.2196C328.014 10.6589 328.014 10.6589 327.284 10.6156C326.464 10.6678 326.464 10.6678 325.798 11.2041Z" fill="white"/>
<path d="M276.688 28.813C281.267 28.813 285.846 28.813 290.564 28.813C290.564 30.0396 290.564 31.2662 290.564 32.53C288.929 32.53 287.294 32.53 285.609 32.53C285.609 37.1092 285.609 41.6884 285.609 46.4065C284.3 46.4065 282.992 46.4065 281.644 46.4065C281.644 41.8272 281.644 37.248 281.644 32.53C280.008 32.53 278.373 32.53 276.688 32.53C276.688 31.3034 276.688 30.0768 276.688 28.813Z" fill="white"/>
<path d="M264.298 58.3006C265.688 58.3006 267.078 58.3006 268.511 58.3006C268.511 62.8799 268.511 67.4591 268.511 72.1771C270.8 72.1771 273.09 72.1771 275.449 72.1771C275.449 73.4037 275.449 74.6303 275.449 75.894C271.769 75.894 268.089 75.894 264.298 75.894C264.298 70.0882 264.298 64.2824 264.298 58.3006Z" fill="white"/>
<path d="M292.299 28.813C293.607 28.813 294.916 28.813 296.264 28.813C296.264 34.6189 296.264 40.4247 296.264 46.4065C294.955 46.4065 293.647 46.4065 292.299 46.4065C292.299 40.6006 292.299 34.7948 292.299 28.813Z" fill="white"/>
<path d="M270.989 28.813C272.297 28.813 273.605 28.813 274.953 28.813C274.953 34.6189 274.953 40.4247 274.953 46.4065C273.645 46.4065 272.337 46.4065 270.989 46.4065C270.989 40.6006 270.989 34.7948 270.989 28.813Z" fill="white"/>
<path d="M206.562 28.813C207.87 28.813 209.179 28.813 210.527 28.813C210.527 34.6189 210.527 40.4247 210.527 46.4065C209.218 46.4065 207.91 46.4065 206.562 46.4065C206.562 40.6006 206.562 34.7948 206.562 28.813Z" fill="white"/>
<path d="M211.518 3.78576C211.52 3.93732 211.523 4.08889 211.526 4.24505C211.552 5.81664 211.581 7.3882 211.61 8.95975C211.621 9.54696 211.631 10.1342 211.641 10.7214C211.655 11.5635 211.671 12.4054 211.687 13.2475C211.691 13.5118 211.696 13.7761 211.7 14.0484C211.705 14.2915 211.71 14.5345 211.715 14.785C211.719 15.0001 211.723 15.2153 211.726 15.4369C211.712 15.9279 211.712 15.9279 212.013 16.1755C212.703 16.2004 213.384 16.2099 214.073 16.2065C214.265 16.2074 214.456 16.2084 214.654 16.2094C214.839 16.2091 215.025 16.2087 215.216 16.2084C215.386 16.2081 215.556 16.2078 215.731 16.2076C216.252 16.1738 216.716 16.069 217.217 15.9277C217.418 15.0335 217.509 14.1821 217.543 13.2668C217.559 12.8703 217.559 12.8703 217.575 12.4658C217.585 12.1926 217.594 11.9193 217.604 11.6378C217.62 11.2207 217.62 11.2207 217.637 10.7952C217.663 10.1107 217.688 9.42619 217.713 8.74165C218.449 8.57811 219.185 8.41457 219.943 8.24607C219.961 9.27753 219.975 10.3089 219.984 11.3405C219.987 11.6909 219.993 12.0413 219.999 12.3917C220.008 12.8973 220.012 13.4028 220.015 13.9086C220.019 14.2122 220.023 14.5159 220.027 14.8287C219.903 16.0846 219.503 16.8859 218.58 17.7397C217.196 18.6738 215.654 18.4793 214.042 18.4986C213.751 18.5078 213.459 18.5171 213.159 18.5266C210.752 18.5511 210.752 18.5511 209.842 17.8268C209.107 16.9515 209.009 16.3523 209.012 15.2471C209.012 15.009 209.012 14.7709 209.012 14.5256C209.013 14.2693 209.014 14.013 209.016 13.7489C209.016 13.4859 209.016 13.2229 209.017 12.952C209.018 12.1113 209.021 11.2705 209.024 10.4298C209.026 9.86012 209.027 9.29048 209.028 8.72084C209.031 7.32361 209.035 5.92638 209.04 4.52914C209.36 4.40425 209.68 4.28058 210 4.15745C210.267 4.05396 210.267 4.05396 210.54 3.94837C211.022 3.78576 211.022 3.78576 211.518 3.78576Z" fill="white"/>
<path d="M228.724 8.52478C229.776 9.29469 230.624 10.1376 230.846 11.4673C230.866 12.0052 230.873 12.5436 230.87 13.0819C230.869 13.3611 230.869 13.6404 230.868 13.9281C230.866 14.2813 230.864 14.6345 230.861 14.9984C230.856 16.1228 230.851 17.2472 230.846 18.4056C227.82 18.4056 224.795 18.4056 221.677 18.4056C222.396 16.9682 222.396 16.9682 222.916 16.4232C223.501 16.3107 223.501 16.3107 224.182 16.3264C224.547 16.3312 224.547 16.3312 224.92 16.3361C225.173 16.3444 225.427 16.3527 225.689 16.3613C225.945 16.3658 226.202 16.3702 226.466 16.3748C227.1 16.3865 227.734 16.4028 228.368 16.4232C228.355 15.6176 228.331 14.8126 228.306 14.0072C228.302 13.7792 228.299 13.5511 228.295 13.3161C228.259 11.9833 228.259 11.9833 227.665 10.8208C226.862 10.3046 226.33 10.3471 225.394 10.4762C224.501 10.9742 223.889 11.4864 223.164 12.2107C223.164 11.2295 223.164 10.2482 223.164 9.23719C224.88 7.98964 226.71 7.86565 228.724 8.52478Z" fill="white"/>
<path d="M306.671 8.24607C306.696 9.76251 306.714 11.2788 306.726 12.7954C306.73 13.3107 306.737 13.826 306.746 14.3412C306.758 15.0843 306.764 15.8272 306.768 16.5704C306.773 16.7987 306.778 17.0269 306.783 17.2621C306.784 19.1651 306.32 20.4622 304.998 21.8438C303.477 22.8388 302.066 23.0012 300.295 22.7672C299.41 22.5325 299.017 22.1147 298.494 21.3792C298.169 20.5584 298.169 20.5584 297.998 19.8924C298.133 19.9282 298.268 19.964 298.408 20.0008C299.894 20.3667 301.504 20.73 302.988 20.1983C303.557 19.8216 303.687 19.5273 303.945 18.9012C304.025 18.392 304.025 18.392 304.024 17.8561C304.029 17.6528 304.034 17.4494 304.039 17.24C304.044 16.9143 304.044 16.9143 304.048 16.582C304.053 16.3579 304.058 16.1338 304.062 15.9029C304.077 15.1885 304.089 14.474 304.1 13.7595C304.11 13.2746 304.119 12.7896 304.129 12.3047C304.153 11.117 304.174 9.92938 304.193 8.74165C305.09 8.41549 305.704 8.24607 306.671 8.24607Z" fill="white"/>
<path d="M258.847 8.24607C258.859 9.62136 258.868 10.9966 258.874 12.3719C258.876 12.8391 258.88 13.3063 258.884 13.7735C258.89 14.4477 258.893 15.1219 258.895 15.7961C258.898 16.0026 258.9 16.2092 258.903 16.4221C258.903 18.4954 258.582 20.3268 257.112 21.8748C255.606 22.9502 253.704 22.9681 251.924 22.7421C250.859 22.2204 250.647 21.7143 250.174 20.6358C250.174 20.3905 250.174 20.1452 250.174 19.8924C250.45 19.9742 250.726 20.056 251.01 20.1402C252.519 20.51 254.017 20.7532 255.393 19.9389C256.044 19.2035 256.151 18.6076 256.172 17.6592C256.177 17.4608 256.182 17.2624 256.187 17.058C256.191 16.845 256.195 16.6321 256.199 16.4126C256.204 16.1937 256.21 15.9747 256.215 15.7492C256.231 15.0498 256.246 14.3505 256.26 13.6511C256.271 13.177 256.282 12.7028 256.293 12.2287C256.319 11.0664 256.344 9.90402 256.369 8.74165C257.266 8.41549 257.879 8.24607 258.847 8.24607Z" fill="white"/>
<path d="M262.811 3.78576C262.811 8.61032 262.811 13.4349 262.811 18.4057C261.994 18.4057 261.176 18.4057 260.333 18.4057C260.333 13.8264 260.333 9.24716 260.333 4.52914C262.316 3.78576 262.316 3.78576 262.811 3.78576Z" fill="white"/>
<path d="M203.836 3.78576C203.836 8.61032 203.836 13.4349 203.836 18.4057C203.019 18.4057 202.201 18.4057 201.358 18.4057C201.358 13.8264 201.358 9.24716 201.358 4.52914C203.341 3.78576 203.341 3.78576 203.836 3.78576Z" fill="white"/>
<path d="M172.645 20.2021C173.357 20.388 173.357 20.388 173.605 20.6357C173.667 21.4875 173.667 21.4875 173.605 22.3703C172.862 22.8659 172.862 22.8659 172.227 22.8039C171.623 22.6181 171.623 22.6181 171.127 22.1225C171.037 21.4203 171.039 21.0309 171.406 20.4189C171.871 20.1402 171.871 20.1402 172.645 20.2021Z" fill="white"/>
<path d="M135.089 20.1867C135.693 20.388 135.693 20.388 136.188 21.1314C136.142 21.7664 136.142 21.7664 135.94 22.3704C135.197 22.8659 135.197 22.8659 134.562 22.8195C133.958 22.6182 133.958 22.6182 133.463 21.8748C133.509 21.2398 133.509 21.2398 133.71 20.6358C134.454 20.1402 134.454 20.1402 135.089 20.1867Z" fill="white"/>
<path d="M132.115 20.1557C132.719 20.388 132.719 20.388 133.075 20.961C133.215 21.6269 133.215 21.6269 133.075 22.1845C132.719 22.6181 132.719 22.6181 132.131 22.8659C131.48 22.8659 131.48 22.8659 130.892 22.4633C130.489 21.8747 130.489 21.8747 130.505 21.2243C130.835 20.3865 131.215 20.1337 132.115 20.1557Z" fill="white"/>
<path d="M141.64 4.03352C141.968 5.6162 141.968 5.61621 141.624 6.26368C140.918 6.62837 140.409 6.44739 139.657 6.26368C139.329 4.68099 139.329 4.68099 139.673 4.03352C140.38 3.66882 140.888 3.84981 141.64 4.03352Z" fill="white"/>
<path d="M219.2 20.3881C219.447 20.6358 219.447 20.6358 219.478 21.3637C219.447 22.1226 219.447 22.1226 219.2 22.6182C218.626 22.8195 218.626 22.8195 217.961 22.866C217.388 22.5098 217.388 22.5098 216.969 22.1226C217.033 21.542 217.116 20.9633 217.217 20.3881C217.931 20.031 218.436 20.2256 219.2 20.3881Z" fill="white"/>
<path d="M121.321 4.28139C121.402 4.36317 121.484 4.44494 121.568 4.52919C121.497 5.10889 121.415 5.68736 121.321 6.26375C120.624 6.41862 120.624 6.41862 119.834 6.51155C119.589 6.348 119.343 6.18446 119.09 6.01596C119.027 5.25295 118.993 4.72461 119.338 4.0336C120.239 3.73331 120.487 3.88676 121.321 4.28139Z" fill="white"/>
<path d="M275.263 3.98704C275.488 4.08414 275.713 4.18125 275.945 4.2813C275.991 5.1176 275.991 5.1176 275.945 6.01586C275.201 6.51145 275.201 6.51145 274.566 6.4495C273.962 6.26365 273.962 6.26365 273.467 5.76806C273.374 5.16406 273.374 5.16406 273.467 4.52909C274.092 3.78302 274.308 3.74832 275.263 3.98704Z" fill="white"/>
<path d="M169.672 20.2021C170.384 20.388 170.384 20.388 170.632 20.6357C170.69 22.0059 170.69 22.0059 170.384 22.6181C169.811 22.8194 169.811 22.8194 169.145 22.8659C168.572 22.5871 168.572 22.5871 168.154 22.1225C168.028 21.4029 168.056 21.0465 168.433 20.4189C168.897 20.1402 168.897 20.1402 169.672 20.2021Z" fill="white"/>
<path d="M272.166 3.86316C272.442 3.94748 272.442 3.94748 272.723 4.03351C273.052 5.6162 273.052 5.6162 272.708 6.26367C272.001 6.62836 271.492 6.44738 270.741 6.26367C270.659 5.69126 270.577 5.11886 270.493 4.5291C271.101 3.96586 271.32 3.76707 272.166 3.86316Z" fill="white"/>
<path d="M123.721 3.83224C124.294 4.03358 124.294 4.03358 124.542 4.52917C124.604 5.27255 124.604 5.27255 124.542 6.01593C123.799 6.51152 123.799 6.51152 123.164 6.44958C122.56 6.26373 122.56 6.26373 122.064 5.76814C121.971 5.16414 121.971 5.16414 122.064 4.52917C122.625 3.90603 122.879 3.7735 123.721 3.83224Z" fill="white"/>
<path d="M216.226 20.388C216.308 20.9605 216.39 21.5329 216.474 22.1226C216.056 22.5253 216.056 22.5253 215.483 22.866C214.89 22.7005 214.437 22.5634 213.996 22.1226C214.073 21.2553 214.073 21.2553 214.244 20.388C214.953 20.0335 215.466 20.2394 216.226 20.388Z" fill="white"/>
<path d="M190.626 20.3261C191.199 20.6358 191.199 20.6358 191.446 20.8836C191.375 21.4633 191.293 22.0418 191.199 22.6182C189.849 22.9481 189.849 22.9481 189.247 22.5872C188.871 21.9596 188.843 21.6032 188.969 20.8836C189.552 20.2135 189.756 20.0834 190.626 20.3261Z" fill="white"/>
</svg>
