<svg width="208" height="50" viewBox="0 0 208 50" fill="none" xmlns="http://www.w3.org/2000/svg">
<path d="M23.9129 0C24.2594 0.148052 24.5297 0.381888 24.8183 0.618375C25.4831 1.1507 26.1847 1.59802 26.9164 2.0318C26.9717 2.06525 27.027 2.0987 27.0839 2.13317C29.9484 3.8619 33.3235 4.89104 36.6337 5.30035C36.7005 5.30868 36.7673 5.31701 36.8361 5.32559C39.8611 5.66675 43.046 5.24875 45.7544 3.82447C45.9977 3.71025 45.9977 3.71025 46.2627 3.71025C46.7901 5.73067 47.2336 7.74596 47.516 9.8167C47.5297 9.91644 47.5434 10.0162 47.5575 10.1189C47.6011 10.4558 47.6402 10.793 47.6761 11.1307C47.6839 11.2034 47.6917 11.276 47.6998 11.3509C47.8481 12.7813 47.8834 14.2058 47.8807 15.643C47.8803 15.8804 47.8809 16.1177 47.8825 16.355C47.9267 22.9409 46.3299 29.3744 42.3758 34.7173C42.3373 34.7693 42.2988 34.8213 42.2592 34.8749C41.7091 35.6131 41.1216 36.3172 40.5206 37.0141C40.4663 37.0774 40.412 37.1408 40.356 37.206C39.5998 38.0796 38.8087 38.9177 37.9902 39.7327C37.8527 39.8698 37.7157 40.0073 37.5787 40.1448C37.1022 40.6216 36.618 41.0832 36.1037 41.5194C35.9953 41.6138 35.8871 41.7084 35.779 41.8031C34.6231 42.8101 33.4337 43.7676 32.2168 44.6996C32.1545 44.7475 32.0922 44.7954 32.028 44.8448C30.0564 46.3529 27.9564 47.7293 25.8144 48.9824C25.589 49.118 25.3702 49.2611 25.151 49.4065C25.0126 49.494 24.8741 49.5814 24.7355 49.6687C24.6763 49.7106 24.6171 49.7525 24.5561 49.7956C24.3608 49.9144 24.2291 49.9749 24.0012 50C23.6135 49.8814 23.2858 49.6805 22.9411 49.47C22.8466 49.4152 22.752 49.3605 22.6545 49.3041C22.3521 49.1275 22.0527 48.9463 21.7541 48.7633C21.7006 48.7306 21.6471 48.698 21.5919 48.6643C20.5805 48.0468 19.5894 47.4024 18.6125 46.7314C18.5034 46.6569 18.5034 46.6569 18.392 46.5809C17.2291 45.7851 16.1045 44.9441 14.9906 44.0813C14.9307 44.0351 14.8708 43.989 14.8091 43.9415C13.7785 43.1478 12.7926 42.3063 11.8301 41.4314C11.651 41.27 11.4691 41.1129 11.2859 40.9563C10.8189 40.55 10.3898 40.1047 9.95527 39.6643C9.69514 39.4029 9.43309 39.1435 9.16988 38.8851C8.54902 38.2735 7.93853 37.6694 7.40068 36.9824C7.23253 36.7691 7.05767 36.5635 6.87942 36.3587C2.67846 31.5082 0.655789 25.5043 0.149618 19.1696C0.144507 19.1103 0.139397 19.0509 0.134132 18.9898C-0.29024 13.9137 0.305079 8.59329 1.73972 3.71025C2.08305 3.77248 2.33322 3.86751 2.63968 4.036C6.81342 6.15326 11.9003 5.58017 16.2006 4.21846C19.0062 3.29526 21.6673 1.93371 23.9129 0Z" fill="#0D2D6D"/>
<path d="M23.8247 4.15186C24.1913 4.29849 24.4987 4.46388 24.8296 4.67085C29.0235 7.22337 33.8524 8.66869 38.7651 8.68476C38.8381 8.68505 38.9112 8.68534 38.9865 8.68564C40.3193 8.68734 41.5961 8.56158 42.906 8.3038C42.9919 8.28692 43.0778 8.27004 43.1663 8.25264C43.3741 8.21136 43.5818 8.16956 43.7894 8.12712C43.995 9.16857 44.171 10.2082 44.2918 11.2632C44.3023 11.3546 44.3128 11.4461 44.3237 11.5404C44.3539 11.8159 44.3815 12.0915 44.4078 12.3674C44.4206 12.4969 44.4206 12.4969 44.4338 12.6289C44.5288 13.7334 44.5176 14.8429 44.5182 15.9507C44.5182 16.0594 44.5183 16.1681 44.5184 16.2801C44.517 17.8809 44.4746 19.4403 44.2311 21.0246C44.2154 21.1331 44.1998 21.2416 44.1837 21.3534C43.9731 22.8043 43.7018 24.2197 43.2593 25.6183C43.2306 25.7093 43.2019 25.8004 43.1724 25.8942C42.1258 29.1644 40.4253 31.9242 38.224 34.5405C38.1511 34.6286 38.0781 34.7167 38.0029 34.8075C37.3461 35.5935 36.6423 36.3236 35.915 37.0444C35.7269 37.2309 35.5396 37.418 35.3523 37.6053C35.2306 37.7266 35.1089 37.8477 34.9872 37.9689C34.9323 38.0236 34.8775 38.0784 34.821 38.1348C34.4378 38.514 34.0391 38.8712 33.6304 39.2225C33.5337 39.3065 33.4371 39.3904 33.3405 39.4744C32.1029 40.5433 30.8343 41.5565 29.5101 42.5163C29.3104 42.6615 29.1117 42.8078 28.9132 42.9545C27.5755 43.9386 26.1819 44.8383 24.7688 45.7099C24.7023 45.7512 24.6358 45.7924 24.5673 45.8349C24.1111 46.113 24.1111 46.113 23.913 46.113C23.913 39.0582 23.913 32.0034 23.913 24.7349C24.0588 24.7349 24.2046 24.7349 24.3547 24.7349C24.2864 24.6857 24.2864 24.6857 24.2167 24.6355C24.0897 24.4699 24.0897 24.4699 24.1008 24.2214C24.1781 23.9398 24.1781 23.9398 24.4431 23.4098C25.1719 23.4098 25.9007 23.4098 26.6516 23.4098C27.0933 24.2049 27.0933 24.2049 27.0933 24.4699C27.035 24.499 26.9767 24.5282 26.9166 24.5582C27.4413 24.5582 27.9661 24.5582 28.5067 24.5582C28.4108 24.409 28.4108 24.409 28.3129 24.2567C28.0628 23.8561 27.8451 23.4432 27.6323 23.0219C27.5935 22.9453 27.5547 22.8688 27.5147 22.7898C27.4336 22.6293 27.3527 22.4686 27.272 22.3079C27.1479 22.0616 27.0224 21.8161 26.8969 21.5706C26.818 21.4139 26.7392 21.2573 26.6605 21.1006C26.604 20.9907 26.604 20.9907 26.5462 20.8786C26.5123 20.8102 26.4783 20.7417 26.4434 20.6712C26.4131 20.6113 26.3829 20.5515 26.3517 20.4898C26.2669 20.2173 26.3512 20.0353 26.4749 19.7879C25.921 19.7879 25.3671 19.7879 24.7964 19.7879C24.8547 19.8754 24.913 19.9628 24.9731 20.0529C24.923 20.5558 24.6647 20.9951 24.4486 21.4443C24.4083 21.53 24.3681 21.6158 24.3266 21.7041C24.2877 21.7855 24.2488 21.8669 24.2088 21.9508C24.1733 22.0253 24.1377 22.0997 24.1011 22.1764C24.0014 22.3497 24.0014 22.3497 23.8247 22.4381C23.8247 16.4036 23.8247 10.3692 23.8247 4.15186Z" fill="#0C4DA1"/>
<path d="M23.9129 0C24.2594 0.148052 24.5297 0.381888 24.8183 0.618375C25.4831 1.1507 26.1847 1.59802 26.9164 2.0318C26.9717 2.06525 27.027 2.0987 27.0839 2.13317C29.9484 3.8619 33.3235 4.89104 36.6337 5.30035C36.7005 5.30868 36.7673 5.31701 36.8361 5.32559C39.8611 5.66675 43.046 5.24875 45.7544 3.82447C45.9977 3.71025 45.9977 3.71025 46.2627 3.71025C46.7901 5.73067 47.2336 7.74596 47.516 9.8167C47.5297 9.91644 47.5434 10.0162 47.5575 10.1189C47.6011 10.4558 47.6402 10.793 47.6761 11.1307C47.6839 11.2034 47.6917 11.276 47.6998 11.3509C47.8481 12.7813 47.8834 14.2058 47.8807 15.643C47.8803 15.8804 47.8809 16.1177 47.8825 16.355C47.9267 22.9409 46.3299 29.3744 42.3758 34.7173C42.3373 34.7693 42.2988 34.8213 42.2592 34.8749C41.7091 35.6131 41.1216 36.3172 40.5206 37.0141C40.4663 37.0774 40.412 37.1408 40.356 37.206C39.5998 38.0796 38.8087 38.9177 37.9902 39.7327C37.8527 39.8698 37.7157 40.0073 37.5787 40.1448C37.1022 40.6216 36.618 41.0832 36.1037 41.5194C35.9953 41.6138 35.8871 41.7084 35.779 41.8031C34.6231 42.8101 33.4337 43.7676 32.2168 44.6996C32.1545 44.7475 32.0922 44.7954 32.028 44.8448C30.0564 46.3529 27.9564 47.7293 25.8144 48.9824C25.589 49.118 25.3702 49.2611 25.151 49.4065C25.0126 49.494 24.8741 49.5814 24.7355 49.6687C24.6763 49.7106 24.6171 49.7525 24.5561 49.7956C24.3608 49.9144 24.2291 49.9749 24.0012 50C23.6135 49.8814 23.2858 49.6805 22.9411 49.47C22.8466 49.4152 22.752 49.3605 22.6545 49.3041C22.3521 49.1275 22.0527 48.9463 21.7541 48.7633C21.7006 48.7306 21.6471 48.698 21.5919 48.6643C20.5805 48.0468 19.5894 47.4024 18.6125 46.7314C18.5034 46.6569 18.5034 46.6569 18.392 46.5809C17.2291 45.7851 16.1045 44.9441 14.9906 44.0813C14.9307 44.0351 14.8708 43.989 14.8091 43.9415C13.7785 43.1478 12.7926 42.3063 11.8301 41.4314C11.651 41.27 11.4691 41.1129 11.2859 40.9563C10.8189 40.55 10.3898 40.1047 9.95527 39.6643C9.69514 39.4029 9.43309 39.1435 9.16988 38.8851C8.54902 38.2735 7.93853 37.6694 7.40068 36.9824C7.23253 36.7691 7.05767 36.5635 6.87942 36.3587C2.67846 31.5082 0.655789 25.5043 0.149618 19.1696C0.144507 19.1103 0.139397 19.0509 0.134132 18.9898C-0.29024 13.9137 0.305079 8.59329 1.73972 3.71025C2.08305 3.77248 2.33322 3.86751 2.63968 4.036C6.81342 6.15326 11.9003 5.58017 16.2006 4.21846C19.0062 3.29526 21.6673 1.93371 23.9129 0ZM23.9129 3.35689C23.7272 3.4699 23.5575 3.58735 23.3828 3.71577C21.3429 5.14051 18.9416 6.13156 16.5807 6.89046C16.5189 6.91046 16.457 6.93046 16.3933 6.95106C12.505 8.18113 8.36765 8.40282 4.3899 7.50883C4.30518 7.49039 4.22046 7.47194 4.13317 7.45293C3.95353 7.41357 3.77414 7.37305 3.59485 7.33216C2.94269 10.164 2.77537 13.0152 2.7724 15.9106C2.77219 16.0858 2.77171 16.2611 2.77123 16.4364C2.76838 18.3567 2.84133 20.2613 3.16972 22.1566C3.18858 22.2668 3.20745 22.3771 3.22689 22.4906C3.90426 26.2939 5.2962 29.821 7.57011 32.9505C7.60529 32.9991 7.64046 33.0477 7.6767 33.0977C8.14795 33.745 8.64597 34.3688 9.16022 34.9823C9.2016 35.0318 9.24298 35.0813 9.28561 35.1323C9.78245 35.7248 10.2846 36.2992 10.8397 36.8385C11.0007 36.9994 11.146 37.165 11.2914 37.3399C11.7464 37.8697 12.2749 38.3294 12.7886 38.8009C12.9485 38.9481 13.1074 39.0963 13.2659 39.245C13.8514 39.7932 14.4529 40.3109 15.0789 40.8127C15.1874 40.9016 15.2958 40.9907 15.404 41.0798C17.6479 42.9243 20.0397 44.5821 22.5148 46.1008C22.6792 46.2033 22.8412 46.309 23.0029 46.4157C23.055 46.4494 23.107 46.4831 23.1606 46.5179C23.3009 46.6089 23.4404 46.701 23.5799 46.7932C23.8726 46.9307 23.9613 46.9059 24.2662 46.8198C24.4679 46.7244 24.4679 46.7244 24.6669 46.5996C24.7444 46.5528 24.8219 46.5059 24.9018 46.4576C24.9854 46.4059 25.069 46.3541 25.1551 46.3008C25.2875 46.2195 25.2875 46.2195 25.4225 46.1366C28.8059 44.0355 32.039 41.6406 34.9611 38.9324C35.1359 38.7707 35.3112 38.6098 35.4877 38.45C36.2661 37.7448 37.0299 37.0257 37.7121 36.2253C37.8998 36.0086 38.095 35.7997 38.2901 35.5897C38.8008 35.0282 39.2662 34.4376 39.7256 33.8339C39.7739 33.771 39.8222 33.7081 39.872 33.6434C40.6696 32.6023 41.3779 31.5308 42.0224 30.3887C42.062 30.319 42.1017 30.2493 42.1425 30.1776C44.5624 25.8849 45.2198 20.8554 45.2302 16.0004C45.2305 15.8936 45.2308 15.7868 45.231 15.6767C45.2321 13.7297 45.1063 11.8229 44.8493 9.89399C44.8295 9.74223 44.8295 9.74223 44.8094 9.58739C44.7087 8.82714 44.5802 8.07959 44.4076 7.33216C43.9378 7.39235 43.4829 7.48482 43.0218 7.59165C37.1821 8.91283 30.5251 7.40792 25.466 4.28506C25.1321 4.07286 24.8019 3.85562 24.4733 3.63537C24.1943 3.43854 24.1943 3.43854 23.9129 3.35689Z" fill="#D8A628"/>
<path d="M29.0366 19.7878C29.5253 19.7812 30.0139 19.7765 30.5027 19.7733C30.6686 19.772 30.8346 19.7702 31.0005 19.7678C31.2402 19.7646 31.4799 19.7631 31.7196 19.762C31.8294 19.7599 31.8294 19.7599 31.9414 19.7578C32.6713 19.7576 33.3073 19.923 33.8508 20.4286C34.3927 21.0579 34.4583 21.7586 34.4491 22.5605C34.4011 23.2043 34.2095 23.6688 33.7352 24.1109C33.1517 24.6006 32.6102 24.6853 31.8749 24.6724C31.7934 24.672 31.7119 24.6716 31.628 24.6712C31.3696 24.6698 31.1114 24.6664 30.8531 24.6631C30.6772 24.6617 30.5012 24.6605 30.3253 24.6594C29.8957 24.6565 29.4662 24.652 29.0366 24.6465C29.0949 24.559 29.1532 24.4716 29.2133 24.3815C29.2389 24.1799 29.2389 24.1799 29.2334 23.954C29.2333 23.8674 29.2333 23.7808 29.2333 23.6915C29.2324 23.5982 29.2315 23.5049 29.2306 23.4087C29.2302 23.2652 29.2302 23.2652 29.2298 23.1187C29.2288 22.8127 29.2266 22.5066 29.2243 22.2006C29.2235 21.9933 29.2226 21.7859 29.2219 21.5786C29.22 21.07 29.217 20.5614 29.2133 20.0529C29.155 20.0237 29.0967 19.9946 29.0366 19.9645C29.0366 19.9062 29.0366 19.8479 29.0366 19.7878Z" fill="#D5A52A"/>
<path d="M11.2803 19.7881C11.8335 19.7791 12.3866 19.7729 12.9399 19.7687C13.1279 19.7669 13.3158 19.7645 13.5038 19.7614C13.7749 19.7571 14.0459 19.7551 14.3169 19.7536C14.4419 19.7508 14.4419 19.7508 14.5694 19.748C15.1089 19.7479 15.512 19.8343 15.9623 20.1414C16.2962 20.4754 16.3403 20.7506 16.3543 21.207C16.3537 21.6111 16.2857 21.8433 16.0506 22.1732C15.7333 22.482 15.511 22.5553 15.0789 22.6149C15.2332 22.8415 15.3879 23.0678 15.5426 23.294C15.6077 23.3896 15.6077 23.3896 15.6741 23.4871C15.9532 23.8946 16.2302 24.2963 16.5806 24.6467C15.9976 24.6467 15.4146 24.6467 14.8138 24.6467C14.843 24.5301 14.8721 24.4135 14.9022 24.2934C14.8261 24.1194 14.8261 24.1194 14.6982 23.9559C14.6541 23.8941 14.61 23.8322 14.5645 23.7685C14.5174 23.7049 14.4704 23.6412 14.4218 23.5756C14.3296 23.4487 14.2377 23.3215 14.1461 23.194C14.1049 23.1379 14.0636 23.0819 14.0211 23.0242C13.9305 22.88 13.9305 22.88 13.9305 22.7033C13.4932 22.7033 13.0559 22.7033 12.6054 22.7033C12.6054 23.2863 12.6054 23.8694 12.6054 24.4701C12.6637 24.4701 12.722 24.4701 12.782 24.4701C12.782 24.5284 12.782 24.5867 12.782 24.6467C12.2865 24.6467 11.7909 24.6467 11.2803 24.6467C11.3094 24.5884 11.3386 24.5301 11.3686 24.4701C11.3791 24.3258 11.3843 24.1811 11.3868 24.0364C11.3894 23.9012 11.3894 23.9012 11.3921 23.7631C11.3943 23.6167 11.3943 23.6167 11.3966 23.4673C11.3984 23.3675 11.4002 23.2678 11.4021 23.165C11.4079 22.8455 11.4131 22.5259 11.4183 22.2064C11.4221 21.9901 11.426 21.7739 11.4299 21.5576C11.4393 21.0267 11.4483 20.4957 11.457 19.9648C11.3986 19.9648 11.3403 19.9648 11.2803 19.9648C11.2803 19.9065 11.2803 19.8482 11.2803 19.7881Z" fill="#D1A22A"/>
<path d="M39.1954 19.7881C39.7784 19.7881 40.3615 19.7881 40.9622 19.7881C40.9622 19.8464 40.9622 19.9047 40.9622 19.9648C40.9039 19.9939 40.8456 20.0231 40.7855 20.0531C40.8435 20.3264 40.937 20.5524 41.064 20.8009C41.103 20.878 41.1421 20.9551 41.1824 21.0346C41.2455 21.1582 41.2455 21.1582 41.31 21.2843C41.6618 21.9801 42.0073 22.6784 42.3425 23.3824C42.3988 23.5003 42.3988 23.5003 42.4563 23.6206C42.4909 23.6936 42.5256 23.7665 42.5612 23.8417C42.5916 23.9056 42.622 23.9696 42.6532 24.0355C42.7289 24.205 42.7289 24.205 42.8173 24.4701C42.9485 24.5138 42.9485 24.5138 43.0823 24.5584C43.0823 24.5876 43.0823 24.6167 43.0823 24.6467C42.4993 24.6467 41.9162 24.6467 41.3155 24.6467C41.3155 24.5884 41.3155 24.5301 41.3155 24.4701C41.3738 24.4701 41.4321 24.4701 41.4922 24.4701C41.4667 24.4083 41.4412 24.3466 41.4149 24.283C41.3821 24.2026 41.3493 24.1222 41.3155 24.0394C41.2827 23.9595 41.2499 23.8795 41.2161 23.7972C41.1388 23.5867 41.1388 23.5867 41.1388 23.41C40.0456 23.4537 40.0456 23.4537 38.9304 23.4983C38.6651 23.9855 38.6651 23.9855 38.6653 24.4701C38.6945 24.5284 38.7236 24.5867 38.7537 24.6467C38.2289 24.6467 37.7042 24.6467 37.1636 24.6467C37.2646 24.4591 37.3656 24.2714 37.4697 24.0781C37.8351 23.3943 38.1894 22.7055 38.5323 22.0102C38.596 21.8817 38.6604 21.7536 38.7253 21.6258C38.8211 21.4373 38.9147 21.2478 39.008 21.058C39.0372 21.0015 39.0663 20.9451 39.0964 20.887C39.3112 20.4408 39.2727 20.3295 39.1954 19.7881Z" fill="#D5A52A"/>
<path d="M24.7964 19.7881C25.3503 19.7881 25.9042 19.7881 26.4749 19.7881C26.4457 19.963 26.4166 20.1379 26.3865 20.3181C26.4457 20.5388 26.4457 20.5388 26.5588 20.7471C26.5986 20.8276 26.6385 20.908 26.6795 20.9909C26.7456 21.1189 26.7456 21.1189 26.813 21.2495C26.8576 21.3383 26.9022 21.4271 26.9482 21.5186C27.0426 21.706 27.1377 21.893 27.2334 22.0797C27.3799 22.3657 27.5244 22.6526 27.6685 22.9398C27.7605 23.1218 27.8526 23.3037 27.9449 23.4856C27.9882 23.5714 28.0316 23.6573 28.0762 23.7457C28.1172 23.8254 28.1581 23.905 28.2003 23.987C28.254 24.092 28.254 24.092 28.3087 24.1992C28.4254 24.4102 28.4254 24.4102 28.6833 24.6467C28.0711 24.6467 27.459 24.6467 26.8282 24.6467C26.8719 24.5593 26.8719 24.5593 26.9166 24.4701C26.9749 24.4701 27.0332 24.4701 27.0932 24.4701C26.9475 24.1494 26.8017 23.8287 26.6515 23.4983C25.9227 23.4692 25.1939 23.44 24.4431 23.41C24.3556 23.6724 24.2681 23.9347 24.178 24.205C24.1489 24.2925 24.1197 24.38 24.0897 24.4701C24.2209 24.5138 24.2209 24.5138 24.3547 24.5584C24.3547 24.5876 24.3547 24.6167 24.3547 24.6467C23.8008 24.6467 23.2469 24.6467 22.6763 24.6467C22.8512 24.4281 22.8512 24.4281 23.0296 24.205C23.1292 24.0221 23.2233 23.8361 23.3129 23.6481C23.3383 23.5954 23.3636 23.5427 23.3897 23.4884C23.4709 23.319 23.5512 23.1492 23.6314 22.9793C23.6868 22.8629 23.7422 22.7464 23.7976 22.6299C23.8795 22.4578 23.9612 22.2857 24.0427 22.1134C24.1879 21.8067 24.3356 21.5016 24.4879 21.1984C24.5177 21.1382 24.5474 21.078 24.578 21.016C24.6519 20.8669 24.7267 20.7182 24.8016 20.5697C24.9201 20.2766 24.9201 20.2766 24.7964 19.7881Z" fill="#D4A42A"/>
<path d="M7.04006 19.7881C7.59395 19.7881 8.14784 19.7881 8.71851 19.7881C8.68936 19.963 8.66021 20.1379 8.63017 20.3181C8.71286 20.5439 8.79707 20.7348 8.90899 20.9448C8.95404 21.0334 8.95404 21.0334 8.99999 21.1238C9.09625 21.3123 9.19442 21.4998 9.29271 21.6874C9.35611 21.8106 9.41937 21.9339 9.48251 22.0573C9.6073 22.3009 9.73302 22.544 9.85933 22.7868C9.98329 23.0261 10.1041 23.2665 10.2223 23.5087C10.2504 23.566 10.2785 23.6234 10.3075 23.6825C10.384 23.8394 10.46 23.9966 10.5358 24.1538C10.6391 24.3911 10.6391 24.3911 10.8387 24.4701C10.8387 24.5284 10.8387 24.5867 10.8387 24.6467C10.2556 24.6467 9.67257 24.6467 9.07187 24.6467C9.11559 24.5593 9.11559 24.5593 9.16021 24.4701C9.21851 24.4701 9.27681 24.4701 9.33688 24.4701C9.19112 24.1494 9.04537 23.8287 8.89519 23.4983C8.16639 23.4692 7.43759 23.44 6.68671 23.41C6.6284 23.5849 6.5701 23.7598 6.51003 23.94C6.45114 24.1167 6.39224 24.2934 6.33335 24.4701C6.46453 24.5138 6.46453 24.5138 6.59837 24.5584C6.59837 24.5876 6.59837 24.6167 6.59837 24.6467C6.04448 24.6467 5.49059 24.6467 4.91992 24.6467C4.94907 24.5884 4.97823 24.5301 5.00826 24.4701C5.06657 24.4701 5.12487 24.4701 5.18494 24.4701C5.2057 24.3996 5.22646 24.3292 5.24785 24.2566C5.39092 23.8585 5.57707 23.4914 5.76846 23.1146C5.84887 22.9537 5.92921 22.7928 6.0095 22.6318C6.13566 22.3797 6.26222 22.1278 6.38992 21.8764C6.51348 21.6328 6.63525 21.3882 6.75676 21.1435C6.79531 21.0687 6.83385 20.9939 6.87357 20.9168C6.90838 20.846 6.94319 20.7753 6.97905 20.7024C7.0101 20.6408 7.04115 20.5792 7.07314 20.5158C7.15814 20.2656 7.15814 20.2656 7.04006 19.7881Z" fill="#D4A429"/>
<path d="M21.8701 20.2515C22.1448 20.4349 22.1448 20.4349 22.4995 20.4061C22.3673 20.8028 22.1609 21.1551 21.8812 21.4662C21.8229 21.4662 21.7645 21.4662 21.7045 21.4662C21.6735 21.4006 21.6425 21.335 21.6106 21.2674C21.3538 20.9029 21.0726 20.7795 20.6444 20.6711C19.9652 20.6069 19.3879 20.5778 18.7893 20.9361C18.4453 21.241 18.2062 21.4917 18.1381 21.9534C18.1237 22.5488 18.195 22.967 18.6126 23.4096C19.1454 23.8188 19.7241 23.9257 20.3794 23.8513C20.8238 23.7261 21.2312 23.5779 21.6161 23.3213C21.6453 23.2338 21.6744 23.1464 21.7045 23.0563C22.0325 23.1838 22.1416 23.3321 22.3008 23.6415C22.3386 23.7137 22.3764 23.7859 22.4153 23.8603C22.4431 23.9157 22.4709 23.971 22.4995 24.028C22.3902 24.0626 22.2809 24.0973 22.1683 24.1329C21.9257 24.211 21.7025 24.294 21.4747 24.409C20.6022 24.8415 19.6262 24.8848 18.6806 24.6699C18.016 24.4245 17.5527 24.0284 17.1992 23.4096C16.9333 22.7454 16.8895 21.9091 17.0967 21.2191C17.453 20.5232 18.0568 20.0365 18.7893 19.7877C19.9021 19.5125 20.8965 19.6776 21.8701 20.2515Z" fill="#D4A429"/>
<path d="M30.3618 20.6712C30.7025 20.6657 31.0432 20.6603 31.3943 20.6546C31.5543 20.651 31.5543 20.651 31.7175 20.6473C31.8025 20.6467 31.8875 20.646 31.975 20.6453C32.0616 20.6439 32.1481 20.6425 32.2372 20.6411C32.6498 20.6918 32.8683 20.8689 33.1279 21.1847C33.408 21.7187 33.3579 22.4219 33.2322 22.9963C33.0978 23.353 32.8875 23.5619 32.5703 23.7631C32.3017 23.8496 32.0579 23.8618 31.7766 23.86C31.7022 23.8598 31.6277 23.8596 31.551 23.8594C31.4574 23.8586 31.3638 23.8578 31.2673 23.8569C30.9685 23.8551 30.6697 23.8533 30.3618 23.8514C30.3618 22.8019 30.3618 21.7525 30.3618 20.6712Z" fill="#0C4DA1"/>
<path d="M35.1318 19.7881C35.6566 19.7881 36.1813 19.7881 36.7219 19.7881C36.7219 19.8464 36.7219 19.9047 36.7219 19.9648C36.6345 20.0085 36.6345 20.0085 36.5453 20.0531C36.5408 20.6647 36.5377 21.2763 36.5356 21.8879C36.5347 22.0961 36.5335 22.3042 36.5319 22.5123C36.5298 22.8112 36.5288 23.1101 36.528 23.409C36.5271 23.5023 36.5262 23.5956 36.5252 23.6917C36.5252 23.8217 36.5252 23.8217 36.5252 23.9543C36.5248 24.0306 36.5244 24.1069 36.524 24.1855C36.5327 24.4071 36.5327 24.4071 36.7219 24.6467C36.1972 24.6467 35.6725 24.6467 35.1318 24.6467C35.161 24.5884 35.1901 24.5301 35.2202 24.4701C35.2785 24.4701 35.3368 24.4701 35.3969 24.4701C35.3677 23.0125 35.3385 21.5549 35.3085 20.0531C35.2502 20.024 35.1919 19.9948 35.1318 19.9648C35.1318 19.9065 35.1318 19.8482 35.1318 19.7881Z" fill="#D7A628"/>
<path d="M12.6055 20.6712C12.9975 20.6641 13.3894 20.6588 13.7815 20.6546C13.893 20.6524 14.0046 20.6502 14.1195 20.6479C14.2262 20.6471 14.333 20.6462 14.443 20.6453C14.5415 20.6439 14.6401 20.6425 14.7416 20.6411C14.9906 20.6712 14.9906 20.6712 15.1553 20.786C15.3241 21.0386 15.2871 21.2614 15.2556 21.5546C15.1553 21.7048 15.1553 21.7048 14.9906 21.8196C14.7416 21.8497 14.7416 21.8497 14.443 21.8455C14.3362 21.8446 14.2295 21.8438 14.1195 21.8429C14.0079 21.8407 13.8964 21.8385 13.7815 21.8362C13.6126 21.8344 13.6126 21.8344 13.4404 21.8325C13.1621 21.8294 12.8838 21.8247 12.6055 21.8196C12.6055 21.4406 12.6055 21.0617 12.6055 20.6712Z" fill="#0E2D6D"/>
<path d="M39.9909 21.1128C40.2297 21.404 40.3813 21.7096 40.5375 22.0514C40.5843 22.1527 40.6311 22.2541 40.6793 22.3585C40.7859 22.6146 40.7859 22.6146 40.7859 22.7912C40.2904 22.7912 39.7948 22.7912 39.2842 22.7912C39.3663 22.3806 39.4973 22.0688 39.6872 21.7036C39.7309 21.6181 39.7309 21.6181 39.7754 21.5309C39.8467 21.3913 39.9188 21.252 39.9909 21.1128Z" fill="#1C5498"/>
<path d="M7.74679 21.1128C7.8051 21.1128 7.8634 21.1128 7.92347 21.1128C8.02693 21.3445 8.12993 21.5764 8.23266 21.8085C8.26215 21.8744 8.29165 21.9403 8.32203 22.0083C8.36388 22.1031 8.36388 22.1031 8.40658 22.1998C8.43248 22.2581 8.45839 22.3164 8.48508 22.3764C8.54185 22.5262 8.54185 22.5262 8.54185 22.7029C8.07541 22.7029 7.60898 22.7029 7.12842 22.7029C7.20811 22.3044 7.31488 22.0226 7.4873 21.6594C7.55989 21.5055 7.55989 21.5055 7.63395 21.3485C7.67119 21.2707 7.70843 21.1929 7.74679 21.1128Z" fill="#14316B"/>
<path d="M25.5031 21.1128C25.5614 21.1128 25.6197 21.1128 25.6798 21.1128C25.7833 21.3445 25.8863 21.5764 25.989 21.8085C26.0185 21.8744 26.048 21.9403 26.0784 22.0083C26.1202 22.1031 26.1202 22.1031 26.1629 22.1998C26.1888 22.2581 26.2147 22.3164 26.2414 22.3764C26.2982 22.5262 26.2982 22.5262 26.2982 22.7029C25.8318 22.7029 25.3653 22.7029 24.8848 22.7029C25.0588 22.1547 25.2603 21.6341 25.5031 21.1128Z" fill="#12509D"/>
<path d="M60.1182 3.0083C60.2715 3.0083 60.4248 3.0083 60.5828 3.0083C60.5828 17.5229 60.5828 32.0375 60.5828 46.9919C60.4295 46.9919 60.2761 46.9919 60.1182 46.9919C60.1182 32.4773 60.1182 17.9627 60.1182 3.0083Z" fill="white"/>
<path d="M161.241 36.9812C162.486 37.8704 163.217 38.9966 163.565 40.4821C163.837 42.1547 163.656 43.7838 162.747 45.2366C161.833 46.4943 160.67 47.254 159.147 47.5887C157.154 47.7629 155.405 47.6603 153.745 46.4562C152.48 45.3939 151.86 44.1232 151.713 42.4779C151.598 40.7925 152.054 39.1652 153.107 37.8318C155.222 35.7606 158.736 35.4842 161.241 36.9812ZM155.149 39.4966C154.43 40.5643 154.181 41.5479 154.407 42.8276C154.697 43.9379 155.387 44.5408 156.338 45.1367C157.241 45.4884 158.481 45.4192 159.369 45.043C160.194 44.5571 160.708 43.6773 161.005 42.7876C161.091 41.7641 161.107 40.7352 160.54 39.8451C159.855 39.0948 159.154 38.5318 158.122 38.3992C156.855 38.3809 156.062 38.6038 155.149 39.4966Z" fill="white"/>
<path d="M149.079 37.4041C150.173 38.3654 150.789 39.8081 150.938 41.239C151.03 43.0642 150.606 44.7165 149.364 46.0914C147.852 47.4675 146.185 47.6783 144.23 47.6371C142.659 47.5618 141.353 46.9061 140.296 45.7484C139.163 44.3329 138.867 42.7085 139.013 40.9292C139.335 39.2638 139.999 38.0004 141.385 36.9993C143.799 35.5434 146.808 35.7909 149.079 37.4041ZM142.14 39.8802C141.551 40.7592 141.513 41.762 141.646 42.7877C141.996 43.8911 142.508 44.5384 143.505 45.1108C144.393 45.4068 145.478 45.4517 146.363 45.1253C147.219 44.6148 147.835 43.9761 148.199 43.0393C148.438 41.7793 148.354 40.777 147.641 39.6975C147.125 39.0401 146.649 38.6802 145.828 38.4513C144.254 38.2628 143.122 38.6149 142.14 39.8802Z" fill="white"/>
<path d="M117.486 18.0082C124.435 18.0082 124.435 18.0082 125.91 19.304C125.992 19.3875 126.074 19.4709 126.159 19.5569C126.246 19.6436 126.333 19.7302 126.422 19.8195C127.541 21.0279 127.767 22.3741 127.751 23.9835C127.643 25.3058 127.091 26.5105 126.159 27.4554C123.632 29.5528 120.719 29.0041 117.486 29.0041C117.486 25.3755 117.486 21.7468 117.486 18.0082ZM120.119 20.3313C120.119 22.4267 120.119 24.5221 120.119 26.681C122.248 26.7043 122.248 26.7043 124.126 25.9551C124.806 25.215 125.112 24.5165 125.152 23.5062C125.112 22.5701 124.89 21.8468 124.216 21.1782C122.967 20.1947 121.694 20.3313 120.119 20.3313Z" fill="white"/>
<path d="M149.545 18.0082C156.018 18.0082 156.018 18.0082 157.133 18.9374C157.703 19.6054 157.773 20.4076 157.753 21.2605C157.498 22.1738 157.098 22.5773 156.359 23.119C156.512 23.2212 156.666 23.3234 156.823 23.4287C157.572 23.9743 157.938 24.3726 158.217 25.2872C158.341 26.1598 158.196 26.8379 157.753 27.6103C156.964 28.5669 156.222 28.6612 154.965 29.0041C153.176 29.0041 151.387 29.0041 149.545 29.0041C149.545 25.3755 149.545 21.7468 149.545 18.0082ZM152.022 20.1764C152.022 20.8919 152.022 21.6074 152.022 22.3446C152.394 22.3614 152.764 22.3737 153.136 22.3833C153.24 22.3885 153.344 22.3937 153.452 22.3991C154.013 22.41 154.322 22.3593 154.803 22.0621C155.162 21.7428 155.162 21.7428 155.197 21.2508C155.114 20.7614 155.049 20.6187 154.655 20.3313C154.181 20.0939 153.685 20.1605 153.165 20.1667C153.001 20.1678 153.001 20.1678 152.833 20.1688C152.563 20.1707 152.293 20.1734 152.022 20.1764ZM152.022 24.5128C152.022 25.2794 152.022 26.046 152.022 26.8359C152.471 26.8527 152.919 26.8649 153.368 26.8746C153.494 26.8798 153.621 26.885 153.751 26.8903C154.389 26.9007 154.722 26.8904 155.277 26.5473C155.639 26.158 155.752 25.9748 155.739 25.442C155.412 24.927 155.24 24.7076 154.655 24.5128C154.448 24.5005 154.241 24.4961 154.034 24.4977C153.917 24.4982 153.799 24.4987 153.679 24.4992C153.557 24.5005 153.435 24.5018 153.31 24.5031C153.186 24.5038 153.063 24.5045 152.936 24.5053C152.631 24.5071 152.327 24.5099 152.022 24.5128Z" fill="white"/>
<path d="M159.456 18.0082C165.903 18.0082 165.903 18.0082 167.045 18.9374C167.631 19.5234 167.883 20.1341 167.974 20.9508C167.974 21.9465 167.873 22.9065 167.139 23.6459C166.724 24.0082 166.301 24.2774 165.806 24.5128C165.881 24.6379 165.956 24.7629 166.034 24.8918C166.311 25.355 166.588 25.8185 166.865 26.2823C166.985 26.4832 167.105 26.6839 167.225 26.8844C167.398 27.1724 167.57 27.4608 167.742 27.7494C167.846 27.923 167.95 28.0965 168.057 28.2753C168.284 28.6944 168.284 28.6944 168.284 29.0041C167.313 29.0041 166.342 29.0041 165.341 29.0041C165.037 28.4561 164.734 27.9075 164.432 27.3586C164.346 27.2039 164.259 27.0491 164.171 26.8897C164.088 26.739 164.005 26.5883 163.92 26.433C163.844 26.2951 163.767 26.1572 163.689 26.0152C163.472 25.5752 163.318 25.1357 163.173 24.6677C162.815 24.6677 162.458 24.6677 162.089 24.6677C162.089 26.0987 162.089 27.5297 162.089 29.0041C161.22 29.0041 160.351 29.0041 159.456 29.0041C159.456 25.3755 159.456 21.7468 159.456 18.0082ZM162.089 20.1764C162.089 20.943 162.089 21.7096 162.089 22.4995C162.456 22.5091 162.824 22.5186 163.202 22.5285C163.316 22.5328 163.431 22.537 163.548 22.5413C164.228 22.5499 164.658 22.4683 165.187 22.0349C165.38 21.5075 165.38 21.5075 165.341 20.9508C165.056 20.5771 164.83 20.3853 164.412 20.1764C164.017 20.1653 163.627 20.162 163.231 20.1667C162.854 20.1699 162.477 20.1731 162.089 20.1764Z" fill="white"/>
<path d="M85.7373 18.0082C92.1844 18.0082 92.1844 18.0082 93.3261 18.9374C93.912 19.5234 94.1644 20.1341 94.2553 20.9508C94.2553 21.9465 94.1536 22.9065 93.4204 23.6459C93.0046 24.0082 92.5824 24.2774 92.0871 24.5128C92.1621 24.6379 92.2372 24.7629 92.3145 24.8918C92.5922 25.355 92.8692 25.8185 93.1458 26.2823C93.2657 26.4832 93.3859 26.6839 93.5063 26.8844C93.6792 27.1724 93.8512 27.4608 94.023 27.7494C94.1268 27.923 94.2306 28.0965 94.3376 28.2753C94.565 28.6944 94.565 28.6944 94.565 29.0041C93.594 29.0041 92.6229 29.0041 91.6225 29.0041C91.3182 28.4561 91.0151 27.9075 90.7126 27.3586C90.6265 27.2039 90.5405 27.0491 90.4519 26.8897C90.369 26.739 90.2862 26.5883 90.2008 26.433C90.1246 26.2951 90.0483 26.1572 89.9698 26.0152C89.7533 25.5752 89.5991 25.1357 89.4543 24.6677C89.0965 24.6677 88.7388 24.6677 88.3702 24.6677C88.3702 26.0987 88.3702 27.5297 88.3702 29.0041C87.5013 29.0041 86.6325 29.0041 85.7373 29.0041C85.7373 25.3755 85.7373 21.7468 85.7373 18.0082ZM88.3702 20.1764C88.3702 20.943 88.3702 21.7096 88.3702 22.4995C88.7375 22.5091 89.1048 22.5186 89.4833 22.5285C89.5975 22.5328 89.7118 22.537 89.8295 22.5413C90.5093 22.5499 90.9387 22.4683 91.4676 22.0349C91.6609 21.5075 91.6609 21.5075 91.6225 20.9508C91.3373 20.5771 91.1109 20.3853 90.6932 20.1764C90.2977 20.1653 89.9076 20.162 89.5123 20.1667C89.1354 20.1699 88.7585 20.1731 88.3702 20.1764Z" fill="white"/>
<path d="M92.0871 2.36616C92.0887 2.46089 92.0903 2.55562 92.0919 2.65322C92.1086 3.63546 92.1264 4.61769 92.1447 5.5999C92.1515 5.96691 92.1579 6.33392 92.1641 6.70094C92.173 7.22722 92.1829 7.75347 92.193 8.27972C92.1955 8.44491 92.1981 8.61011 92.2008 8.78031C92.2039 8.93223 92.207 9.08415 92.2102 9.24067C92.2126 9.37514 92.215 9.50961 92.2175 9.64815C92.2086 9.955 92.2086 9.955 92.3968 10.1097C93.3168 10.1609 94.2367 10.212 95.1845 10.2646C95.1845 7.86256 95.1845 5.4605 95.1845 2.98565C95.6956 2.88343 96.2067 2.78122 96.7332 2.6759C96.7843 4.05581 96.8355 5.43572 96.8881 6.85744C97.2714 6.47413 97.2714 6.47413 97.6625 6.08308C98.7536 5.25286 99.8758 4.99707 101.225 5.15385C102.28 5.39953 102.934 5.80139 103.53 6.71043C104.182 7.85217 104.19 8.98048 104.167 10.2646C104.545 10.2428 104.922 10.2201 105.3 10.1969C105.406 10.1908 105.513 10.1847 105.624 10.1784C106.099 10.1486 106.501 10.1061 106.955 9.95487C107.292 9.4627 107.311 9.01398 107.329 8.42794C107.335 8.25525 107.341 8.08256 107.347 7.90464C107.352 7.72516 107.356 7.54569 107.361 7.36077C107.367 7.1789 107.373 6.99703 107.379 6.80965C107.394 6.36099 107.407 5.91233 107.419 5.4636C107.879 5.36138 108.339 5.25916 108.813 5.15385C108.829 5.82057 108.84 6.48719 108.847 7.15403C108.85 7.38055 108.855 7.60707 108.86 7.83356C108.868 8.16037 108.871 8.48702 108.874 8.81391C108.879 9.10831 108.879 9.10831 108.884 9.40866C108.784 10.1783 108.452 10.6576 107.874 11.1648C107.404 11.4532 107.012 11.5233 106.472 11.5274C106.278 11.5294 106.278 11.5294 106.079 11.5315C105.938 11.5321 105.796 11.5328 105.65 11.5335C105.426 11.5354 105.426 11.5354 105.197 11.5373C104.701 11.5411 104.205 11.5437 103.709 11.5459C103.455 11.5472 103.455 11.5472 103.196 11.5484C102.3 11.5526 101.405 11.5556 100.509 11.5578C99.5833 11.5604 98.658 11.5673 97.7325 11.5752C97.0211 11.5804 96.3096 11.5822 95.5981 11.5831C95.257 11.5841 94.9158 11.5865 94.5747 11.5902C94.0971 11.5951 93.6198 11.5951 93.1423 11.594C93.0015 11.5965 92.8608 11.599 92.7158 11.6017C92.0519 11.5951 91.6039 11.5598 91.0725 11.1398C90.5735 10.5996 90.5189 10.2372 90.5208 9.52947C90.5208 9.38067 90.5208 9.23188 90.5208 9.07857C90.5216 8.91836 90.5224 8.75816 90.5232 8.59309C90.5235 8.42875 90.5237 8.2644 90.5239 8.09508C90.5248 7.5696 90.5267 7.04413 90.5287 6.51866C90.5295 6.16264 90.5302 5.80661 90.5308 5.45059C90.5325 4.57731 90.5351 3.70405 90.5384 2.83078C90.7382 2.75271 90.9383 2.67542 91.1385 2.59847C91.3056 2.53379 91.3056 2.53379 91.4761 2.4678C91.7773 2.36616 91.7773 2.36616 92.0871 2.36616ZM97.1979 8.7159C96.9024 9.22972 96.7332 9.66235 96.7332 10.2646C97.5685 10.2684 98.4038 10.2713 99.2391 10.2731C99.5235 10.2739 99.8079 10.275 100.092 10.2763C100.5 10.2782 100.908 10.2791 101.316 10.2797C101.508 10.2809 101.508 10.2809 101.704 10.2822C102.009 10.2822 102.314 10.2742 102.618 10.2646C102.813 10.1057 102.813 10.1057 102.776 9.76552C102.694 8.63878 102.531 7.66674 101.679 6.86712C99.7669 5.81832 98.2988 7.23783 97.1979 8.7159Z" fill="white"/>
<path d="M196.006 18.0082C196.875 18.0082 197.744 18.0082 198.639 18.0082C198.639 19.337 198.639 20.6658 198.639 22.0349C200.121 22.0349 201.603 22.0349 203.13 22.0349C203.13 20.7061 203.13 19.3773 203.13 18.0082C203.948 18.0082 204.766 18.0082 205.608 18.0082C205.608 21.6368 205.608 25.2655 205.608 29.0041C204.79 29.0041 203.973 29.0041 203.13 29.0041C203.13 27.4709 203.13 25.9376 203.13 24.3579C201.648 24.3579 200.166 24.3579 198.639 24.3579C198.639 25.8912 198.639 27.4244 198.639 29.0041C197.77 29.0041 196.901 29.0041 196.006 29.0041C196.006 25.3755 196.006 21.7468 196.006 18.0082Z" fill="white"/>
<path d="M128.017 36.4379C128.835 36.4379 129.653 36.4379 130.495 36.4379C130.495 37.7667 130.495 39.0955 130.495 40.4646C131.977 40.4646 133.46 40.4646 134.987 40.4646C134.987 39.1358 134.987 37.807 134.987 36.4379C135.855 36.4379 136.724 36.4379 137.619 36.4379C137.619 40.0666 137.619 43.6952 137.619 47.4338C136.751 47.4338 135.882 47.4338 134.987 47.4338C134.987 45.8495 134.987 44.2652 134.987 42.6328C133.504 42.6328 132.022 42.6328 130.495 42.6328C130.495 44.2171 130.495 45.8015 130.495 47.4338C129.678 47.4338 128.86 47.4338 128.017 47.4338C128.017 43.8052 128.017 40.1765 128.017 36.4379Z" fill="white"/>
<path d="M137.155 18.0082C137.87 18.0082 138.586 18.0082 139.323 18.0082C139.942 19.2141 140.493 20.441 141.027 21.6864C141.113 21.8878 141.2 22.0892 141.287 22.2906C141.422 22.6044 141.557 22.9183 141.692 23.2323C142.023 24.0005 142.356 24.7678 142.69 25.5346C142.783 25.7499 142.877 25.9652 142.971 26.1806C143.106 26.4928 143.242 26.805 143.378 27.1171C143.504 27.405 143.629 27.693 143.754 27.9811C143.826 28.1454 143.897 28.3096 143.971 28.4789C144.124 28.8492 144.124 28.8492 144.124 29.0041C143.153 29.0041 142.182 29.0041 141.181 29.0041C140.407 27.2037 140.407 27.2037 140.407 26.681C138.337 26.7577 138.337 26.7577 136.226 26.8359C136.101 27.1649 135.976 27.4939 135.848 27.8329C135.471 28.8299 135.471 28.8299 135.296 29.0041C135.088 29.0175 134.88 29.0207 134.671 29.0192C134.546 29.0187 134.421 29.0182 134.292 29.0177C134.16 29.0164 134.028 29.0151 133.893 29.0138C133.761 29.0131 133.628 29.0124 133.492 29.0117C133.164 29.0098 132.836 29.007 132.509 29.0041C133.201 27.1077 134.022 25.2674 134.832 23.419C135.106 22.7914 135.38 22.1636 135.654 21.5358C135.719 21.3876 135.784 21.2395 135.85 21.0869C136.296 20.0649 136.731 19.0396 137.155 18.0082ZM138.084 21.5703C137.903 22.0315 137.722 22.4929 137.542 22.9544C137.49 23.0861 137.439 23.2177 137.385 23.3534C137.336 23.4787 137.287 23.6039 137.237 23.733C137.192 23.849 137.146 23.965 137.099 24.0845C136.991 24.3337 136.991 24.3337 137 24.5128C137.818 24.5128 138.635 24.5128 139.478 24.5128C139.305 24.0509 139.131 23.5896 138.955 23.1287C138.906 22.997 138.857 22.8653 138.806 22.7297C138.758 22.6044 138.711 22.4791 138.661 22.3501C138.617 22.2341 138.574 22.1181 138.528 21.9986C138.414 21.6961 138.414 21.6961 138.084 21.5703Z" fill="white"/>
<path d="M110.232 17.9931C110.531 17.9958 110.531 17.9958 110.836 17.9985C111.036 17.9999 111.236 18.0013 111.442 18.0028C111.597 18.0046 111.751 18.0064 111.911 18.0082C114.601 24.1174 114.601 24.1174 115.802 26.9036C115.88 27.083 115.957 27.2623 116.037 27.4471C116.107 27.6093 116.177 27.7716 116.248 27.9387C116.308 28.0784 116.369 28.218 116.43 28.3619C116.557 28.6944 116.557 28.6944 116.557 29.0041C115.637 29.0041 114.717 29.0041 113.769 29.0041C113.014 27.3586 113.014 27.3586 112.84 26.8359C111.46 26.7848 110.08 26.7337 108.658 26.681C108.505 27.1921 108.352 27.7032 108.194 28.2297C108.092 28.4853 107.989 28.7408 107.884 29.0041C106.964 29.0041 106.044 29.0041 105.096 29.0041C105.202 28.4744 105.276 28.1211 105.483 27.6513C105.554 27.4893 105.554 27.4893 105.627 27.324C105.678 27.2086 105.729 27.0933 105.782 26.9744C105.836 26.8522 105.89 26.73 105.945 26.6041C106.12 26.2067 106.295 25.8099 106.471 25.413C106.711 24.8669 106.951 24.3205 107.191 23.7742C107.25 23.6388 107.31 23.5034 107.371 23.364C107.962 22.016 108.536 20.6608 109.102 19.3021C109.165 19.1518 109.228 19.0015 109.292 18.8467C109.346 18.7172 109.4 18.5878 109.455 18.4544C109.671 17.9801 109.671 18.0104 110.232 17.9931ZM110.672 21.4154C110.49 21.8732 110.31 22.3315 110.13 22.7899C110.052 22.9854 110.052 22.9854 109.973 23.1849C109.924 23.3097 109.875 23.4345 109.825 23.563C109.779 23.6782 109.734 23.7934 109.687 23.912C109.571 24.2007 109.571 24.2007 109.588 24.5128C110.354 24.5128 111.121 24.5128 111.911 24.5128C111.607 23.4508 111.253 22.4339 110.827 21.4154C110.775 21.4154 110.724 21.4154 110.672 21.4154Z" fill="white"/>
<path d="M78.4832 17.9931C78.7823 17.9958 78.7823 17.9958 79.0875 17.9985C79.2874 17.9999 79.4872 18.0013 79.6931 18.0028C79.8478 18.0046 80.0025 18.0064 80.162 18.0082C82.8526 24.1174 82.8526 24.1174 84.0531 26.9036C84.1308 27.083 84.2085 27.2623 84.2886 27.4471C84.3582 27.6093 84.4278 27.7716 84.4996 27.9387C84.5597 28.0784 84.6198 28.218 84.6817 28.3619C84.8081 28.6944 84.8081 28.6944 84.8081 29.0041C83.8882 29.0041 82.9682 29.0041 82.0204 29.0041C81.2654 27.3586 81.2654 27.3586 81.0912 26.8359C79.7113 26.7848 78.3314 26.7337 76.9096 26.681C76.7563 27.1921 76.603 27.7032 76.445 28.2297C76.3428 28.4853 76.2406 28.7408 76.1353 29.0041C75.2153 29.0041 74.2954 29.0041 73.3476 29.0041C73.4535 28.4744 73.5271 28.1211 73.7347 27.6513C73.8056 27.4893 73.8056 27.4893 73.8779 27.324C73.9293 27.2086 73.9807 27.0933 74.0336 26.9744C74.0873 26.8522 74.141 26.73 74.1963 26.6041C74.3709 26.2067 74.5465 25.8099 74.7221 25.413C74.9624 24.8669 75.2022 24.3205 75.442 23.7742C75.5015 23.6388 75.5609 23.5034 75.6222 23.364C76.2135 22.016 76.7868 20.6608 77.353 19.3021C77.4159 19.1518 77.4788 19.0015 77.5437 18.8467C77.5975 18.7172 77.6513 18.5878 77.7067 18.4544C77.9219 17.9801 77.922 18.0104 78.4832 17.9931ZM78.923 21.4154C78.7414 21.8732 78.5611 22.3315 78.3809 22.7899C78.3034 22.9854 78.3034 22.9854 78.2242 23.1849C78.1753 23.3097 78.1264 23.4345 78.076 23.563C78.0306 23.6782 77.9852 23.7934 77.9384 23.912C77.8222 24.2007 77.8222 24.2007 77.8389 24.5128C78.6055 24.5128 79.3721 24.5128 80.162 24.5128C79.8585 23.4508 79.5048 22.4339 79.0779 21.4154C79.0267 21.4154 78.9756 21.4154 78.923 21.4154Z" fill="white"/>
<path d="M170.124 5.13872C170.305 5.13922 170.486 5.13972 170.672 5.14023C170.861 5.14153 171.051 5.14283 171.246 5.14417C171.437 5.14487 171.627 5.14556 171.824 5.14628C172.296 5.14811 172.768 5.15066 173.24 5.15385C173.242 5.35428 173.242 5.35428 173.244 5.55876C173.251 6.05499 173.261 6.55106 173.272 7.04721C173.276 7.26185 173.28 7.47652 173.282 7.69119C173.285 7.99993 173.293 8.30862 173.3 8.61729C173.304 8.80301 173.307 8.98874 173.31 9.18009C173.352 9.65417 173.352 9.65417 173.673 9.93672C174.192 10.1999 174.721 10.1984 175.292 10.2162C175.688 10.2322 176.084 10.2482 176.492 10.2646C176.492 9.08914 176.492 7.91366 176.492 6.70256C177.421 6.39282 177.421 6.39282 178.041 6.39282C178.041 7.67051 178.041 8.9482 178.041 10.2646C178.91 10.2646 179.779 10.2646 180.674 10.2646C180.674 8.88471 180.674 7.5048 180.674 6.08308C181.448 5.77333 181.448 5.77333 182.068 5.77333C182.068 7.25545 182.068 8.73758 182.068 10.2646C183.631 10.2268 183.631 10.2268 184.391 9.8C184.598 9.38461 184.579 9.04361 184.595 8.57917C184.601 8.3985 184.608 8.21783 184.614 8.03168C184.62 7.84222 184.626 7.65276 184.633 7.45756C184.643 7.17158 184.643 7.17158 184.653 6.87982C184.669 6.40776 184.685 5.93569 184.7 5.46359C185.261 5.25974 185.644 5.15385 186.249 5.15385C186.265 5.77076 186.276 6.3876 186.283 7.00467C186.288 7.31639 186.296 7.62806 186.304 7.93972C186.326 10.1593 186.326 10.1593 185.63 10.8841C184.849 11.3999 184.353 11.5812 183.397 11.5813C183.288 11.5821 183.179 11.583 183.066 11.5838C182.709 11.5857 182.351 11.5832 181.994 11.5804C181.744 11.5804 181.494 11.5807 181.244 11.5811C180.721 11.5813 180.199 11.5794 179.676 11.5758C179.007 11.5714 178.338 11.5719 177.67 11.5738C177.154 11.5749 176.638 11.5737 176.122 11.5718C175.876 11.5711 175.629 11.571 175.382 11.5716C175.038 11.5721 174.693 11.5695 174.348 11.5662C174.153 11.5653 173.957 11.5645 173.755 11.5636C173.202 11.4992 172.926 11.3351 172.466 11.039C172.047 11.1391 172.047 11.1391 171.691 11.3487C170.971 11.7088 169.997 11.567 169.213 11.5036C168.443 11.1581 168.069 10.6896 167.665 9.95487C167.348 8.68861 167.339 7.25133 167.974 6.08308C168.624 5.35845 169.171 5.1341 170.124 5.13872ZM169.39 6.5979C169.018 7.14386 169.028 7.66821 169.02 8.30936C169.016 8.48304 169.012 8.65673 169.008 8.83568C169.064 9.39167 169.175 9.6754 169.523 10.1097C169.931 10.2951 170.318 10.3105 170.762 10.2646C171.301 9.94341 171.492 9.7776 171.691 9.18051C171.704 8.96241 171.708 8.74378 171.706 8.52533C171.706 8.33892 171.706 8.33892 171.705 8.14874C171.703 8.01967 171.702 7.8906 171.701 7.75763C171.7 7.62676 171.699 7.4959 171.699 7.36107C171.697 7.03832 171.694 6.71557 171.691 6.39282C171.365 6.38027 171.039 6.37126 170.714 6.36378C170.532 6.35839 170.351 6.353 170.164 6.34745C169.685 6.35105 169.685 6.35105 169.39 6.5979Z" fill="white"/>
<path d="M115.318 36.7477C115.522 36.9521 115.727 37.1566 115.937 37.3672C115.375 37.9805 114.813 38.5938 114.234 39.2257C114.055 39.1234 113.876 39.0212 113.692 38.9159C112.893 38.5154 112.247 38.5078 111.369 38.6836C111.292 38.7092 111.215 38.7347 111.136 38.761C111.004 39.1948 111.004 39.1948 110.981 39.6903C111.535 40.4536 112.375 40.6064 113.233 40.8709C114.176 41.1779 114.94 41.5851 115.608 42.3425C116.027 43.4139 116.054 44.5053 115.628 45.5754C115.047 46.7324 114.17 47.1971 112.995 47.5887C109.678 47.7925 109.678 47.7925 108.394 46.7557C108.174 46.5433 108.174 46.5433 107.884 46.1949C109.166 44.711 109.166 44.711 109.588 44.3364C109.69 44.3364 109.792 44.3364 109.897 44.3364C109.897 44.4386 109.897 44.5409 109.897 44.6462C110.019 44.6941 110.14 44.742 110.265 44.7914C110.672 44.9559 110.672 44.9559 110.981 45.1108C111.338 45.1473 111.338 45.1473 111.736 45.1495C111.87 45.1535 112.004 45.1575 112.142 45.1616C112.609 45.1004 112.817 44.9766 113.15 44.6462C113.201 44.1621 113.201 44.1621 113.15 43.7169C112.409 43.3246 111.671 43.0014 110.885 42.7103C109.953 42.3559 109.309 42.0448 108.6 41.3358C108.173 40.3837 108.156 39.2623 108.451 38.2571C108.917 37.3557 109.749 36.6733 110.681 36.3025C112.217 35.8655 113.911 35.975 115.318 36.7477Z" fill="white"/>
<path d="M193.831 18.3319C194.046 18.4731 194.253 18.6264 194.457 18.7826C193.982 19.5626 193.415 20.1679 192.754 20.7959C192.658 20.7224 192.562 20.649 192.463 20.5733C191.797 20.2401 191.173 20.1557 190.431 20.1764C189.942 20.3658 189.749 20.4873 189.482 20.9314C189.471 21.3008 189.471 21.3008 189.818 21.6434C190.327 22.0783 190.796 22.2573 191.428 22.4317C192.497 22.7353 193.447 23.1636 194.151 24.0651C194.585 24.9033 194.546 25.9086 194.293 26.7972C193.898 27.7858 193.335 28.4526 192.367 28.9073C190.994 29.4435 189.503 29.4906 188.108 29.0041C187.561 28.7375 187.03 28.4613 186.559 28.0749C186.559 27.4411 186.807 27.2708 187.227 26.8068C187.351 26.6673 187.475 26.5278 187.602 26.384C187.953 26.0615 187.953 26.0615 188.417 26.0615C188.623 26.2101 188.623 26.2101 188.834 26.3616C189.513 26.7849 190.112 26.9263 190.906 26.7748C191.163 26.7024 191.417 26.6156 191.67 26.5261C191.67 26.0662 191.67 25.6062 191.67 25.1323C191.542 25.09 191.414 25.0477 191.282 25.004C191.103 24.9442 190.924 24.8843 190.74 24.8226C190.644 24.7903 190.548 24.7581 190.449 24.7249C187.716 23.7949 187.716 23.7949 187.002 22.6919C186.667 21.8198 186.693 20.6517 187.015 19.7808C188.4 17.4732 191.577 17.0741 193.831 18.3319Z" fill="white"/>
<path d="M103.925 18.4631C104.289 18.7564 104.517 19.0256 104.787 19.402C104.539 19.632 104.29 19.8609 104.041 20.0893C103.903 20.2168 103.765 20.3444 103.622 20.4758C103.238 20.7959 103.238 20.7959 102.773 20.9507C102.458 20.7534 102.148 20.5464 101.844 20.3313C101.088 20.0793 100.49 20.1127 99.7338 20.3603C98.8549 20.8323 98.3248 21.4102 97.9722 22.3446C97.6796 23.6433 97.8925 24.7254 98.5239 25.8873C99.167 26.4479 99.9361 26.7979 100.794 26.8613C101.541 26.801 102.035 26.5091 102.618 26.0615C102.772 25.9593 102.925 25.8571 103.083 25.7518C103.394 25.9726 103.703 26.1954 104.012 26.4197C104.101 26.4822 104.189 26.5448 104.281 26.6093C104.51 26.7769 104.727 26.9605 104.941 27.1456C104.941 27.6102 104.941 27.6102 104.714 27.8764C103.389 29.0387 102.212 29.3096 100.45 29.3138C98.9827 29.2138 97.4572 28.582 96.4331 27.5134C95.1607 25.8512 94.9425 24.0657 95.1845 22.0348C95.3205 21.4637 95.5091 20.992 95.804 20.4861C95.8934 20.3232 95.9829 20.1603 96.075 19.9925C97.9847 17.6054 101.237 16.9481 103.925 18.4631Z" fill="white"/>
<path d="M125.385 36.5928C125.826 36.9275 126.231 37.2863 126.624 37.677C126.034 38.284 125.413 38.8371 124.765 39.3805C124.549 39.232 124.549 39.232 124.329 39.0805C123.547 38.5743 122.887 38.5002 121.977 38.6062C121.166 38.8681 120.556 39.2548 120.119 40C119.677 41.0332 119.515 42.0004 119.809 43.0975C120.211 43.9931 120.778 44.666 121.668 45.1108C122.777 45.223 123.551 45.16 124.455 44.4913C124.532 44.338 124.532 44.338 124.61 44.1816C125.213 44.3965 125.689 44.6795 126.207 45.0527C126.344 45.1505 126.481 45.2484 126.622 45.3491C126.725 45.4238 126.827 45.4985 126.933 45.5754C126.626 46.1503 126.349 46.4905 125.801 46.8434C125.629 46.9569 125.629 46.9569 125.454 47.0727C124.078 47.8212 122.358 47.7861 120.846 47.4877C119.34 46.9907 118.303 46.1067 117.516 44.743C116.811 43.1904 116.733 41.1677 117.244 39.5354C117.906 38.0351 119 37.1287 120.46 36.4471C121.902 35.9013 124.008 35.8164 125.385 36.5928Z" fill="white"/>
<path d="M75.4976 5.13871C75.6783 5.13921 75.859 5.13971 76.0451 5.14022C76.2346 5.14152 76.424 5.14282 76.6192 5.14415C76.8099 5.14485 77.0005 5.14555 77.197 5.14627C77.6691 5.1481 78.1411 5.15065 78.6132 5.15383C78.6154 5.35426 78.6154 5.35426 78.6176 5.55875C78.6244 6.05497 78.634 6.55105 78.6453 7.04719C78.6497 7.26184 78.653 7.4765 78.6552 7.69118C78.6585 7.99992 78.666 8.30861 78.6737 8.61727C78.6769 8.803 78.6802 8.98873 78.6835 9.18008C78.7256 9.65492 78.7256 9.65492 79.0495 9.9378C79.5525 10.1936 79.9889 10.1711 80.5491 10.1678C80.8534 10.1696 80.8534 10.1696 81.1638 10.1714C81.7258 10.108 81.9505 10.0564 82.3301 9.64511C82.4889 9.16083 82.5143 8.6931 82.534 8.18593C82.5437 7.94786 82.5437 7.94786 82.5537 7.70498C82.5598 7.54028 82.5658 7.37558 82.5721 7.20588C82.5821 6.95524 82.5821 6.95524 82.5924 6.69953C82.6088 6.28756 82.6246 5.87558 82.6399 5.46358C83.1619 5.23155 83.4459 5.15383 84.0337 5.15383C84.0352 5.28195 84.0366 5.41007 84.0381 5.54207C84.0464 6.12258 84.0594 6.7029 84.0724 7.28332C84.0746 7.48495 84.0768 7.68659 84.0791 7.89434C84.0841 8.08799 84.0891 8.28164 84.0942 8.48115C84.0991 8.7488 84.0991 8.7488 84.104 9.02184C84.2058 9.58561 84.3517 9.77185 84.8081 10.1097C85.2465 10.1718 85.6108 10.1966 86.0471 10.1872C86.1573 10.1896 86.2675 10.192 86.381 10.1944C86.8897 10.1906 87.2147 10.1634 87.6262 9.85368C87.9801 9.39324 87.9886 9.12551 87.9999 8.54891C88.0049 8.36924 88.0099 8.18956 88.015 8.00444C88.0172 7.81758 88.0194 7.63072 88.0217 7.43819C88.0263 7.24893 88.0308 7.05967 88.0356 6.86468C88.0465 6.39764 88.0547 5.93071 88.0604 5.46358C88.5204 5.36136 88.9803 5.25915 89.4542 5.15383C89.4696 5.82055 89.4808 6.48717 89.4883 7.15401C89.4914 7.38054 89.4956 7.60705 89.501 7.83354C89.5085 8.16035 89.512 8.487 89.5147 8.81389C89.5196 9.10829 89.5196 9.10829 89.5246 9.40865C89.4255 10.1783 89.0925 10.6576 88.5153 11.1648C87.7366 11.6421 86.8812 11.5379 85.9987 11.5423C85.8386 11.5455 85.6786 11.5487 85.5138 11.552C84.2963 11.5582 84.2963 11.5582 83.6689 11.2398C83.5338 11.1735 83.3986 11.1072 83.2594 11.039C82.9486 11.1918 82.6391 11.3471 82.3301 11.5036C81.7072 11.5761 81.0885 11.5684 80.462 11.5617C80.2121 11.5643 80.2121 11.5643 79.9571 11.5671C79.7961 11.5665 79.6351 11.5659 79.4692 11.5653C79.3235 11.5648 79.1777 11.5642 79.0276 11.5637C78.5414 11.4932 78.2532 11.2938 77.8388 11.039C77.4206 11.1391 77.4206 11.1391 77.0645 11.3487C76.3442 11.7088 75.3704 11.567 74.5865 11.5036C73.8159 11.1581 73.4427 10.6896 73.0378 9.95486C72.744 8.79508 72.6999 7.4554 73.1836 6.34441C73.7451 5.44938 74.4798 5.13377 75.4976 5.13871ZM74.6803 6.71525C74.3773 7.26589 74.3538 7.62533 74.3639 8.25127C74.3641 8.43653 74.3643 8.6218 74.3645 8.81268C74.4365 9.37306 74.5431 9.67132 74.8963 10.1097C75.3046 10.2951 75.6912 10.3105 76.1353 10.2646C76.6744 9.9434 76.8655 9.77759 77.0645 9.1805C77.0769 8.9624 77.0812 8.74376 77.0796 8.52532C77.0789 8.3389 77.0789 8.3389 77.0781 8.14873C77.0768 8.01966 77.0755 7.89059 77.0742 7.75761C77.0735 7.62675 77.0728 7.49589 77.0721 7.36106C77.0702 7.0383 77.0674 6.71555 77.0645 6.39281C76.7421 6.37184 76.4194 6.35685 76.0965 6.34441C75.827 6.33093 75.827 6.33093 75.5521 6.31719C75.0339 6.34963 75.0339 6.34963 74.6803 6.71525Z" fill="white"/>
<path d="M124.92 2.36616C124.931 3.3111 124.94 4.256 124.945 5.201C124.948 5.52199 124.951 5.84298 124.955 6.16396C124.961 6.62724 124.963 7.09045 124.965 7.55376C124.968 7.69562 124.97 7.83748 124.973 7.98364C124.973 8.96184 124.912 10.0622 124.23 10.8263C123.343 11.5826 122.679 11.5366 121.561 11.5423C121.409 11.5455 121.257 11.5487 121.1 11.552C119.836 11.5588 119.836 11.5588 119.216 11.2398C119.054 11.1735 118.892 11.1073 118.725 11.039C118.413 11.1895 118.104 11.3452 117.796 11.5036C117.182 11.5642 116.573 11.5474 115.957 11.5326C115.791 11.5305 115.625 11.5284 115.455 11.5263C115.048 11.5208 114.641 11.5132 114.234 11.5036C114.218 11.6689 114.201 11.8342 114.185 12.0045C114.031 12.8496 113.654 13.2931 112.995 13.8267C112.015 14.333 110.961 14.4194 109.897 14.1364C109.27 13.7181 109.076 13.1162 108.813 12.4328C108.898 12.4552 108.982 12.4775 109.069 12.5006C110.075 12.7483 111.069 12.9576 112.056 12.5587C112.5 12.1686 112.654 11.7918 112.717 11.201C112.736 10.8361 112.744 10.4721 112.749 10.1067C112.752 9.97375 112.755 9.84079 112.758 9.70379C112.767 9.28094 112.775 8.85808 112.782 8.4352C112.788 8.14773 112.794 7.86027 112.8 7.57281C112.815 6.86976 112.828 6.1667 112.84 5.4636C113.3 5.36138 113.76 5.25916 114.234 5.15385C114.234 6.8404 114.234 8.52696 114.234 10.2646C114.943 10.2311 114.943 10.2311 115.666 10.1969C115.814 10.1902 115.962 10.1835 116.115 10.1766C116.233 10.1707 116.351 10.1648 116.472 10.1587C116.592 10.1531 116.712 10.1474 116.836 10.1415C117.17 10.1104 117.473 10.0451 117.796 9.95487C117.946 9.44221 117.981 8.96105 118 8.42794C118.009 8.1689 118.009 8.1689 118.019 7.90464C118.025 7.72516 118.032 7.54569 118.038 7.36077C118.048 7.08797 118.048 7.08797 118.058 6.80965C118.074 6.36098 118.09 5.9123 118.106 5.4636C118.566 5.36138 119.025 5.25916 119.499 5.15385C119.504 5.33899 119.504 5.33899 119.509 5.52787C119.523 6.08727 119.54 6.64657 119.557 7.2059C119.562 7.40015 119.567 7.5944 119.572 7.79454C119.578 7.9812 119.584 8.16786 119.59 8.36018C119.595 8.53212 119.6 8.70406 119.605 8.88121C119.653 9.32458 119.71 9.59048 119.964 9.95487C120.48 10.1269 120.882 10.1357 121.426 10.1388C121.689 10.1421 121.689 10.1421 121.957 10.1454C122.424 10.1111 122.683 10.0694 123.061 9.8C123.201 9.38038 123.239 9.11836 123.248 8.68554C123.253 8.49025 123.253 8.49025 123.257 8.29102C123.26 8.15114 123.263 8.01125 123.265 7.86713C123.27 7.65155 123.27 7.65155 123.275 7.43162C123.285 6.97244 123.294 6.51324 123.303 6.05404C123.31 5.74279 123.317 5.43153 123.324 5.12028C123.34 4.35712 123.356 3.59396 123.371 2.83078C123.571 2.75271 123.771 2.67542 123.971 2.59847C124.138 2.53379 124.138 2.53379 124.309 2.4678C124.61 2.36616 124.61 2.36616 124.92 2.36616Z" fill="white"/>
<path d="M146.757 2.36616C146.758 2.46089 146.76 2.55562 146.762 2.65322C146.778 3.63546 146.796 4.61769 146.815 5.5999C146.821 5.96691 146.828 6.33392 146.834 6.70094C146.843 7.22722 146.853 7.75347 146.863 8.27972C146.865 8.44491 146.868 8.61011 146.871 8.78031C146.874 8.93223 146.877 9.08415 146.88 9.24067C146.882 9.37514 146.885 9.50961 146.887 9.64815C146.878 9.955 146.878 9.955 147.067 10.1097C147.309 10.1287 147.552 10.1373 147.795 10.1415C148.028 10.1462 148.028 10.1462 148.265 10.1509C148.518 10.1548 148.518 10.1548 148.776 10.1587C148.947 10.162 149.119 10.1652 149.296 10.1685C149.847 10.1787 150.397 10.1878 150.948 10.1969C151.32 10.2035 151.693 10.2103 152.065 10.2171C152.98 10.2338 153.895 10.2495 154.81 10.2646C154.77 9.97071 154.728 9.67717 154.684 9.38379C154.661 9.22028 154.638 9.05678 154.614 8.88832C154.43 8.10439 154.1 7.59422 153.416 7.16718C152.687 6.92395 151.945 6.86911 151.213 7.13996C150.908 7.29379 150.614 7.45881 150.319 7.6318C150.113 7.73634 149.907 7.83995 149.699 7.94154C149.393 7.686 149.086 7.43047 148.77 7.16718C149.177 6.52201 149.597 5.99468 150.145 5.45755C150.288 5.3166 150.431 5.17565 150.578 5.03044C150.727 4.88438 150.876 4.73838 151.025 4.59244C151.32 4.30378 151.613 4.01447 151.907 3.72492C152.102 3.53428 152.102 3.53428 152.3 3.33978C152.645 3.00103 152.645 3.00103 152.89 2.63348C153.107 2.36616 153.107 2.36616 153.592 2.30566C153.774 2.31285 153.955 2.32004 154.142 2.32744C154.416 2.33583 154.416 2.33583 154.696 2.34438C154.906 2.35516 154.906 2.35516 155.12 2.36616C154.899 2.87084 154.629 3.20285 154.238 3.5882C154.127 3.698 154.016 3.8078 153.902 3.92093C153.787 4.03392 153.671 4.14692 153.552 4.26334C153.435 4.37873 153.318 4.49412 153.198 4.61301C152.91 4.89725 152.621 5.18074 152.332 5.4636C152.456 5.47877 152.579 5.49394 152.706 5.50957C153.918 5.6806 154.714 5.91543 155.546 6.84776C156.032 7.50931 156.235 8.07526 156.301 8.89013C156.318 9.08718 156.318 9.08718 156.336 9.2882C156.357 9.75462 156.361 10.217 156.36 10.6838C156.36 10.8373 156.36 10.9908 156.36 11.1489C156.359 11.266 156.359 11.383 156.359 11.5036C155.06 11.518 153.761 11.529 152.461 11.5357C151.858 11.5389 151.255 11.5433 150.652 11.5503C150.069 11.5571 149.487 11.5608 148.904 11.5624C148.682 11.5635 148.46 11.5657 148.238 11.5691C147.927 11.5736 147.616 11.5738 147.304 11.5739C147.127 11.5753 146.95 11.5767 146.768 11.5781C146.177 11.4855 145.932 11.3107 145.518 10.8841C145.242 10.3637 145.17 9.93818 145.173 9.35365C145.173 9.20798 145.173 9.06231 145.173 8.91222C145.175 8.757 145.176 8.60178 145.178 8.44185C145.178 8.28138 145.179 8.12091 145.179 7.95558C145.181 7.44432 145.185 6.93311 145.189 6.42186C145.19 6.07471 145.192 5.72756 145.193 5.38041C145.196 4.53052 145.202 3.68065 145.208 2.83078C145.408 2.75271 145.608 2.67542 145.808 2.59847C145.975 2.53379 145.975 2.53379 146.146 2.4678C146.447 2.36616 146.447 2.36616 146.757 2.36616Z" fill="white"/>
<path d="M197.004 5.30693C197.545 5.62898 198.036 5.97944 198.329 6.54772C198.505 7.34408 198.502 8.11834 198.494 8.92887C198.493 9.05764 198.492 9.1864 198.492 9.31907C198.49 9.63427 198.487 9.94945 198.484 10.2646C198.858 10.2469 199.233 10.2273 199.607 10.2066C199.712 10.2018 199.818 10.197 199.927 10.192C200.726 10.1481 200.726 10.1481 201.427 9.80002C201.578 9.34705 201.619 8.94138 201.658 8.46826C201.747 7.48135 201.83 6.67587 202.568 5.95364C203.47 5.31053 204.375 5.37771 205.453 5.46361C206.193 5.71012 206.59 6.04126 207.002 6.70259C207.478 7.9867 207.393 9.17488 206.847 10.4195C206.45 11.0422 206.149 11.2798 205.453 11.5036C204.327 11.6122 203.518 11.5552 202.511 11.039C202.391 11.1105 202.271 11.1821 202.148 11.2558C201.295 11.6289 200.48 11.5607 199.56 11.549C199.365 11.5483 199.17 11.5477 198.97 11.547C198.455 11.5448 197.94 11.5407 197.425 11.5355C196.899 11.5307 196.373 11.5286 195.846 11.5263C194.815 11.5212 193.785 11.5134 192.754 11.5036C193.118 10.5565 193.118 10.5565 193.528 10.2646C193.894 10.2119 193.894 10.2119 194.319 10.2193C194.471 10.2208 194.623 10.2223 194.78 10.2238C194.939 10.2277 195.097 10.2316 195.261 10.2356C195.501 10.2387 195.501 10.2387 195.747 10.242C196.143 10.2474 196.539 10.2551 196.935 10.2646C196.927 9.7611 196.913 9.25798 196.897 8.75464C196.894 8.6121 196.892 8.46955 196.89 8.32269C196.867 7.48967 196.867 7.48967 196.496 6.76308C195.994 6.44052 195.662 6.46703 195.077 6.54772C194.519 6.859 194.136 7.1791 193.683 7.63182C193.683 7.01853 193.683 6.40523 193.683 5.77336C194.681 5.04778 195.828 4.83148 197.004 5.30693ZM203.624 7.00265C203.181 7.62277 203.084 8.11515 203.13 8.87079C203.29 9.51291 203.495 9.88861 204.059 10.2646C204.517 10.3421 204.517 10.3421 204.989 10.2646C205.43 9.91895 205.585 9.71485 205.763 9.18054C205.845 8.33885 205.841 7.70115 205.298 7.01233C205.009 6.66186 205.009 6.66186 204.553 6.63483C204.04 6.66746 204.04 6.66746 203.624 7.00265Z" fill="white"/>
<path d="M172.93 18.0082C175.792 18.0082 178.654 18.0082 181.603 18.0082C181.603 18.7748 181.603 19.5414 181.603 20.3313C180.581 20.3313 179.559 20.3313 178.506 20.3313C178.506 23.1933 178.506 26.0553 178.506 29.0041C177.688 29.0041 176.87 29.0041 176.028 29.0041C176.028 26.1421 176.028 23.28 176.028 20.3313C175.005 20.3313 173.983 20.3313 172.93 20.3313C172.93 19.5647 172.93 18.798 172.93 18.0082Z" fill="white"/>
<path d="M165.187 36.4379C166.055 36.4379 166.924 36.4379 167.819 36.4379C167.819 39.3 167.819 42.162 167.819 45.1108C169.25 45.1108 170.681 45.1108 172.156 45.1108C172.156 45.8774 172.156 46.644 172.156 47.4338C169.856 47.4338 167.556 47.4338 165.187 47.4338C165.187 43.8052 165.187 40.1765 165.187 36.4379Z" fill="white"/>
<path d="M182.687 18.0082C183.505 18.0082 184.323 18.0082 185.165 18.0082C185.165 21.6368 185.165 25.2655 185.165 29.0041C184.347 29.0041 183.53 29.0041 182.687 29.0041C182.687 25.3755 182.687 21.7468 182.687 18.0082Z" fill="white"/>
<path d="M169.368 18.0082C170.186 18.0082 171.004 18.0082 171.846 18.0082C171.846 21.6368 171.846 25.2655 171.846 29.0041C171.028 29.0041 170.211 29.0041 169.368 29.0041C169.368 25.3755 169.368 21.7468 169.368 18.0082Z" fill="white"/>
<path d="M129.101 18.0082C129.919 18.0082 130.737 18.0082 131.579 18.0082C131.579 21.6368 131.579 25.2655 131.579 29.0041C130.762 29.0041 129.944 29.0041 129.101 29.0041C129.101 25.3755 129.101 21.7468 129.101 18.0082Z" fill="white"/>
<path d="M132.199 2.36616C132.2 2.46089 132.202 2.55562 132.204 2.65322C132.22 3.63546 132.238 4.61769 132.257 5.5999C132.263 5.96691 132.27 6.33392 132.276 6.70094C132.285 7.22722 132.295 7.75347 132.305 8.27972C132.307 8.44491 132.31 8.61011 132.313 8.78031C132.316 8.93223 132.319 9.08415 132.322 9.24067C132.324 9.37514 132.327 9.50961 132.329 9.64815C132.32 9.955 132.32 9.955 132.509 10.1097C132.939 10.1253 133.365 10.1312 133.796 10.1291C133.916 10.1297 134.035 10.1303 134.159 10.1309C134.275 10.1307 134.391 10.1305 134.51 10.1303C134.617 10.1301 134.723 10.13 134.832 10.1298C135.157 10.1087 135.448 10.0432 135.761 9.95487C135.886 9.39599 135.943 8.86386 135.965 8.29182C135.975 8.04402 135.975 8.04402 135.984 7.79121C135.991 7.62042 135.997 7.44963 136.003 7.27366C136.013 7.01298 136.013 7.01298 136.023 6.74703C136.04 6.31924 136.055 5.89143 136.071 5.4636C136.531 5.36138 136.991 5.25916 137.465 5.15385C137.476 5.79851 137.484 6.44312 137.49 7.08786C137.492 7.30687 137.496 7.52587 137.5 7.74485C137.505 8.06089 137.508 8.37683 137.51 8.69291C137.512 8.88269 137.515 9.07248 137.517 9.26801C137.439 10.053 137.19 10.5537 136.613 11.0874C135.748 11.6712 134.784 11.5496 133.777 11.5617C133.594 11.5675 133.412 11.5732 133.225 11.5792C131.72 11.5945 131.72 11.5945 131.152 11.1418C130.692 10.5948 130.631 10.2202 130.633 9.52947C130.633 9.38067 130.633 9.23188 130.633 9.07857C130.633 8.91836 130.634 8.75816 130.635 8.59309C130.635 8.42875 130.635 8.2644 130.636 8.09508C130.637 7.5696 130.639 7.04413 130.64 6.51866C130.641 6.16264 130.642 5.80661 130.643 5.45059C130.644 4.57731 130.647 3.70405 130.65 2.83078C130.85 2.75271 131.05 2.67542 131.25 2.59847C131.417 2.53379 131.417 2.53379 131.588 2.4678C131.889 2.36616 131.889 2.36616 132.199 2.36616Z" fill="white"/>
<path d="M142.953 5.32805C143.61 5.80924 144.14 6.33605 144.279 7.16715C144.291 7.50331 144.296 7.83984 144.294 8.17624C144.294 8.35077 144.293 8.52531 144.293 8.70513C144.291 8.92588 144.29 9.14663 144.289 9.37407C144.285 10.0768 144.282 10.7795 144.279 11.5036C142.388 11.5036 140.497 11.5036 138.549 11.5036C138.998 10.6052 138.998 10.6052 139.323 10.2646C139.688 10.1943 139.688 10.1943 140.114 10.2041C140.342 10.2071 140.342 10.2071 140.575 10.2101C140.734 10.2153 140.892 10.2205 141.056 10.2259C141.216 10.2287 141.376 10.2315 141.542 10.2343C141.938 10.2416 142.334 10.2518 142.73 10.2646C142.722 9.76105 142.707 9.25793 142.691 8.75459C142.689 8.61204 142.687 8.4695 142.685 8.32264C142.662 7.48962 142.662 7.48962 142.291 6.76303C141.789 6.44046 141.457 6.46698 140.872 6.54766C140.314 6.85894 139.931 7.17904 139.478 7.63177C139.478 7.01847 139.478 6.40518 139.478 5.7733C140.55 4.99359 141.694 4.91609 142.953 5.32805Z" fill="white"/>
<path d="M191.67 5.15385C191.685 6.10163 191.696 7.04933 191.704 7.9972C191.707 8.31926 191.711 8.64131 191.716 8.96333C191.724 9.42777 191.727 9.89209 191.73 10.3566C191.733 10.4992 191.737 10.6419 191.74 10.7889C191.74 11.9782 191.45 12.7889 190.624 13.6524C189.673 14.2743 188.792 14.3758 187.685 14.2296C187.131 14.0829 186.886 13.8218 186.559 13.3621C186.356 12.849 186.356 12.849 186.249 12.4328C186.334 12.4552 186.418 12.4775 186.505 12.5006C187.434 12.7293 188.44 12.9563 189.368 12.624C189.723 12.3886 189.804 12.2046 189.966 11.8133C190.016 11.4951 190.016 11.4951 190.015 11.1601C190.019 11.033 190.022 10.906 190.025 10.775C190.027 10.5715 190.027 10.5715 190.03 10.3638C190.033 10.2238 190.036 10.0837 190.039 9.9394C190.048 9.49286 190.056 9.04632 190.063 8.59975C190.069 8.29666 190.075 7.99357 190.081 7.69048C190.096 6.94821 190.109 6.20592 190.121 5.4636C190.682 5.25974 191.065 5.15385 191.67 5.15385Z" fill="white"/>
<path d="M161.779 5.15385C161.787 6.01341 161.793 6.87294 161.796 7.73253C161.798 8.02453 161.8 8.31653 161.803 8.60852C161.807 9.02989 161.808 9.45122 161.81 9.8726C161.811 10.0017 161.813 10.1308 161.814 10.2638C161.815 11.5597 161.614 12.7043 160.695 13.6718C159.754 14.344 158.565 14.3551 157.453 14.2138C156.787 13.8878 156.655 13.5715 156.359 12.8974C156.359 12.7441 156.359 12.5908 156.359 12.4328C156.531 12.4839 156.704 12.535 156.882 12.5877C157.824 12.8188 158.761 12.9708 159.621 12.4619C160.028 12.0023 160.094 11.6298 160.108 11.037C160.111 10.9131 160.114 10.7891 160.117 10.6613C160.12 10.5282 160.122 10.3951 160.125 10.258C160.128 10.1211 160.131 9.98428 160.135 9.84328C160.145 9.4062 160.154 8.9691 160.163 8.53199C160.17 8.23566 160.176 7.93932 160.183 7.64299C160.2 6.91654 160.215 6.19008 160.231 5.4636C160.791 5.25974 161.175 5.15385 161.779 5.15385Z" fill="white"/>
<path d="M164.257 2.36616C164.257 5.38151 164.257 8.39687 164.257 11.5036C163.746 11.5036 163.235 11.5036 162.709 11.5036C162.709 8.64156 162.709 5.77953 162.709 2.83078C163.948 2.36616 163.948 2.36616 164.257 2.36616Z" fill="white"/>
<path d="M127.398 2.36616C127.398 5.38151 127.398 8.39687 127.398 11.5036C126.887 11.5036 126.376 11.5036 125.849 11.5036C125.849 8.64156 125.849 5.77953 125.849 2.83078C127.088 2.36616 127.088 2.36616 127.398 2.36616Z" fill="white"/>
<path d="M107.903 12.6264C108.349 12.7425 108.349 12.7425 108.503 12.8974C108.542 13.4298 108.542 13.4298 108.503 13.9815C108.039 14.2912 108.039 14.2912 107.642 14.2525C107.265 14.1364 107.265 14.1364 106.955 13.8266C106.898 13.3877 106.899 13.1444 107.129 12.7619C107.419 12.5877 107.419 12.5877 107.903 12.6264Z" fill="white"/>
<path d="M84.4306 12.6167C84.8081 12.7426 84.8081 12.7426 85.1179 13.2072C85.0888 13.604 85.0888 13.604 84.963 13.9815C84.4984 14.2913 84.4984 14.2913 84.1015 14.2622C83.724 14.1364 83.724 14.1364 83.4143 13.6718C83.4433 13.2749 83.4433 13.2749 83.5691 12.8974C84.0337 12.5877 84.0337 12.5877 84.4306 12.6167Z" fill="white"/>
<path d="M82.5722 12.5974C82.9497 12.7425 82.9497 12.7425 83.1723 13.1007C83.2594 13.5169 83.2594 13.5169 83.1723 13.8654C82.9497 14.1364 82.9497 14.1364 82.5819 14.2913C82.1753 14.2913 82.1753 14.2913 81.8075 14.0396C81.5558 13.6718 81.5558 13.6718 81.5655 13.2652C81.7722 12.7416 82.0094 12.5836 82.5722 12.5974Z" fill="white"/>
<path d="M88.5251 2.52101C88.7304 3.51019 88.7304 3.51019 88.5154 3.91486C88.0738 4.14279 87.7558 4.02968 87.2861 3.91486C87.0808 2.92568 87.0808 2.92568 87.2958 2.52101C87.7374 2.29308 88.0553 2.40619 88.5251 2.52101Z" fill="white"/>
<path d="M137 12.7426C137.155 12.8975 137.155 12.8975 137.174 13.3524C137.155 13.8267 137.155 13.8267 137 14.1364C136.642 14.2623 136.642 14.2623 136.226 14.2913C135.867 14.0687 135.867 14.0687 135.606 13.8267C135.646 13.4638 135.698 13.1021 135.761 12.7426C136.207 12.5194 136.523 12.641 137 12.7426Z" fill="white"/>
<path d="M75.8256 2.67593C75.8767 2.72704 75.9278 2.77815 75.9804 2.8308C75.9359 3.19312 75.8845 3.55466 75.8256 3.91491C75.39 4.0117 75.39 4.0117 74.8963 4.06978C74.743 3.96756 74.5897 3.86535 74.4317 3.76003C74.392 3.28315 74.3706 2.95294 74.5866 2.52106C75.1496 2.33338 75.3049 2.42928 75.8256 2.67593Z" fill="white"/>
<path d="M172.04 2.49196C172.18 2.55265 172.321 2.61334 172.466 2.67587C172.495 3.19856 172.495 3.19856 172.466 3.75997C172.001 4.06972 172.001 4.06972 171.604 4.031C171.227 3.91484 171.227 3.91484 170.917 3.6051C170.859 3.2276 170.859 3.2276 170.917 2.83074C171.308 2.36445 171.443 2.34276 172.04 2.49196Z" fill="white"/>
<path d="M106.045 12.6264C106.49 12.7425 106.49 12.7425 106.645 12.8974C106.681 13.7538 106.681 13.7538 106.49 14.1364C106.132 14.2622 106.132 14.2622 105.716 14.2912C105.358 14.117 105.358 14.117 105.096 13.8266C105.018 13.3769 105.035 13.1541 105.271 12.7619C105.561 12.5877 105.561 12.5877 106.045 12.6264Z" fill="white"/>
<path d="M170.104 2.41453C170.276 2.46724 170.276 2.46724 170.452 2.52101C170.658 3.51018 170.658 3.51018 170.443 3.91485C170.001 4.14279 169.683 4.02967 169.213 3.91485C169.162 3.5571 169.111 3.19935 169.058 2.83075C169.439 2.47872 169.575 2.35448 170.104 2.41453Z" fill="white"/>
<path d="M77.3259 2.39521C77.684 2.52105 77.684 2.52105 77.8389 2.83079C77.8776 3.2954 77.8776 3.2954 77.8389 3.76002C77.3743 4.06976 77.3743 4.06976 76.9774 4.03105C76.5999 3.91489 76.5999 3.91489 76.2902 3.60515C76.2321 3.22765 76.2321 3.22765 76.2902 2.83079C76.6407 2.44133 76.7996 2.3585 77.3259 2.39521Z" fill="white"/>
<path d="M135.141 12.7426C135.193 13.1003 135.244 13.4581 135.296 13.8267C135.035 14.0784 135.035 14.0784 134.677 14.2913C134.306 14.1879 134.023 14.1022 133.748 13.8267C133.796 13.2846 133.796 13.2846 133.902 12.7426C134.346 12.521 134.667 12.6497 135.141 12.7426Z" fill="white"/>
<path d="M119.141 12.7039C119.499 12.8975 119.499 12.8975 119.654 13.0523C119.61 13.4146 119.558 13.7762 119.499 14.1364C118.656 14.3427 118.656 14.3427 118.28 14.1171C118.044 13.7248 118.027 13.5021 118.106 13.0523C118.47 12.6335 118.598 12.5522 119.141 12.7039Z" fill="white"/>
</svg>
