<svg width="1280" height="55" viewBox="0 0 1280 55" fill="none" xmlns="http://www.w3.org/2000/svg">
<g filter="url(#filter0_d_994_30)">
<path d="M479.92 0.50255L755.398 0.997125L742.216 10.0884L742.086 10.1783L742.031 10.3268L734.792 29.9318C731.996 37.5054 724.821 42.5726 716.749 42.6759L519.847 45.1949C506.763 45.3623 495.857 35.2187 495.077 22.157L494.499 12.4702L494.486 12.2496L494.314 12.1108L479.92 0.50255Z" fill="white" stroke="url(#paint0_linear_994_30)"/>
<path d="M4 3H478V3C487.389 3 495 10.6112 495 20V23.25C495 34.4338 504.066 43.5 515.25 43.5H718C729.046 43.5 738 34.5457 738 23.5V20C738 10.8873 745.387 3.5 754.5 3.5V3.5H1275.5" stroke="url(#paint1_linear_994_30)" stroke-width="6"/>
</g>
<path d="M530.287 27.34H524.727L523.807 30H520.867L525.887 16.02H529.147L534.167 30H531.207L530.287 27.34ZM529.527 25.1L527.507 19.26L525.487 25.1H529.527ZM535.723 24.42C535.723 23.3 535.943 22.3067 536.383 21.44C536.837 20.5733 537.45 19.9067 538.223 19.44C538.997 18.9733 539.857 18.74 540.803 18.74C541.523 18.74 542.21 18.9 542.863 19.22C543.517 19.5267 544.037 19.94 544.423 20.46V15.2H547.263V30H544.423V28.36C544.077 28.9067 543.59 29.3467 542.963 29.68C542.337 30.0133 541.61 30.18 540.783 30.18C539.85 30.18 538.997 29.94 538.223 29.46C537.45 28.98 536.837 28.3067 536.383 27.44C535.943 26.56 535.723 25.5533 535.723 24.42ZM544.443 24.46C544.443 23.78 544.31 23.2 544.043 22.72C543.777 22.2267 543.417 21.8533 542.963 21.6C542.51 21.3333 542.023 21.2 541.503 21.2C540.983 21.2 540.503 21.3267 540.063 21.58C539.623 21.8333 539.263 22.2067 538.983 22.7C538.717 23.18 538.583 23.7533 538.583 24.42C538.583 25.0867 538.717 25.6733 538.983 26.18C539.263 26.6733 539.623 27.0533 540.063 27.32C540.517 27.5867 540.997 27.72 541.503 27.72C542.023 27.72 542.51 27.5933 542.963 27.34C543.417 27.0733 543.777 26.7 544.043 26.22C544.31 25.7267 544.443 25.14 544.443 24.46ZM564.158 18.76C565.518 18.76 566.611 19.18 567.438 20.02C568.278 20.8467 568.698 22.0067 568.698 23.5V30H565.898V23.88C565.898 23.0133 565.678 22.3533 565.238 21.9C564.798 21.4333 564.198 21.2 563.438 21.2C562.678 21.2 562.071 21.4333 561.618 21.9C561.178 22.3533 560.958 23.0133 560.958 23.88V30H558.158V23.88C558.158 23.0133 557.938 22.3533 557.498 21.9C557.058 21.4333 556.458 21.2 555.698 21.2C554.925 21.2 554.311 21.4333 553.858 21.9C553.418 22.3533 553.198 23.0133 553.198 23.88V30H550.398V18.92H553.198V20.26C553.558 19.7933 554.018 19.4267 554.578 19.16C555.151 18.8933 555.778 18.76 556.458 18.76C557.325 18.76 558.098 18.9467 558.778 19.32C559.458 19.68 559.985 20.2 560.358 20.88C560.718 20.24 561.238 19.7267 561.918 19.34C562.611 18.9533 563.358 18.76 564.158 18.76ZM573.175 17.6C572.682 17.6 572.268 17.4467 571.935 17.14C571.615 16.82 571.455 16.4267 571.455 15.96C571.455 15.4933 571.615 15.1067 571.935 14.8C572.268 14.48 572.682 14.32 573.175 14.32C573.668 14.32 574.075 14.48 574.395 14.8C574.728 15.1067 574.895 15.4933 574.895 15.96C574.895 16.4267 574.728 16.82 574.395 17.14C574.075 17.4467 573.668 17.6 573.175 17.6ZM574.555 18.92V30H571.755V18.92H574.555ZM581.961 30.18C581.055 30.18 580.241 30.02 579.521 29.7C578.801 29.3667 578.228 28.92 577.801 28.36C577.388 27.8 577.161 27.18 577.121 26.5H579.941C579.995 26.9267 580.201 27.28 580.561 27.56C580.935 27.84 581.395 27.98 581.941 27.98C582.475 27.98 582.888 27.8733 583.181 27.66C583.488 27.4467 583.641 27.1733 583.641 26.84C583.641 26.48 583.455 26.2133 583.081 26.04C582.721 25.8533 582.141 25.6533 581.341 25.44C580.515 25.24 579.835 25.0333 579.301 24.82C578.781 24.6067 578.328 24.28 577.941 23.84C577.568 23.4 577.381 22.8067 577.381 22.06C577.381 21.4467 577.555 20.8867 577.901 20.38C578.261 19.8733 578.768 19.4733 579.421 19.18C580.088 18.8867 580.868 18.74 581.761 18.74C583.081 18.74 584.135 19.0733 584.921 19.74C585.708 20.3933 586.141 21.28 586.221 22.4H583.541C583.501 21.96 583.315 21.6133 582.981 21.36C582.661 21.0933 582.228 20.96 581.681 20.96C581.175 20.96 580.781 21.0533 580.501 21.24C580.235 21.4267 580.101 21.6867 580.101 22.02C580.101 22.3933 580.288 22.68 580.661 22.88C581.035 23.0667 581.615 23.26 582.401 23.46C583.201 23.66 583.861 23.8667 584.381 24.08C584.901 24.2933 585.348 24.6267 585.721 25.08C586.108 25.52 586.308 26.1067 586.321 26.84C586.321 27.48 586.141 28.0533 585.781 28.56C585.435 29.0667 584.928 29.4667 584.261 29.76C583.608 30.04 582.841 30.18 581.961 30.18ZM593.26 30.18C592.353 30.18 591.54 30.02 590.82 29.7C590.1 29.3667 589.527 28.92 589.1 28.36C588.687 27.8 588.46 27.18 588.42 26.5H591.24C591.293 26.9267 591.5 27.28 591.86 27.56C592.233 27.84 592.693 27.98 593.24 27.98C593.773 27.98 594.187 27.8733 594.48 27.66C594.787 27.4467 594.94 27.1733 594.94 26.84C594.94 26.48 594.753 26.2133 594.38 26.04C594.02 25.8533 593.44 25.6533 592.64 25.44C591.813 25.24 591.133 25.0333 590.6 24.82C590.08 24.6067 589.627 24.28 589.24 23.84C588.867 23.4 588.68 22.8067 588.68 22.06C588.68 21.4467 588.853 20.8867 589.2 20.38C589.56 19.8733 590.067 19.4733 590.72 19.18C591.387 18.8867 592.167 18.74 593.06 18.74C594.38 18.74 595.433 19.0733 596.22 19.74C597.007 20.3933 597.44 21.28 597.52 22.4H594.84C594.8 21.96 594.613 21.6133 594.28 21.36C593.96 21.0933 593.527 20.96 592.98 20.96C592.473 20.96 592.08 21.0533 591.8 21.24C591.533 21.4267 591.4 21.6867 591.4 22.02C591.4 22.3933 591.587 22.68 591.96 22.88C592.333 23.0667 592.913 23.26 593.7 23.46C594.5 23.66 595.16 23.8667 595.68 24.08C596.2 24.2933 596.647 24.6267 597.02 25.08C597.407 25.52 597.607 26.1067 597.62 26.84C597.62 27.48 597.44 28.0533 597.08 28.56C596.733 29.0667 596.227 29.4667 595.56 29.76C594.907 30.04 594.14 30.18 593.26 30.18ZM601.738 17.6C601.245 17.6 600.832 17.4467 600.498 17.14C600.178 16.82 600.018 16.4267 600.018 15.96C600.018 15.4933 600.178 15.1067 600.498 14.8C600.832 14.48 601.245 14.32 601.738 14.32C602.232 14.32 602.638 14.48 602.958 14.8C603.292 15.1067 603.458 15.4933 603.458 15.96C603.458 16.4267 603.292 16.82 602.958 17.14C602.638 17.4467 602.232 17.6 601.738 17.6ZM603.118 18.92V30H600.318V18.92H603.118ZM611.205 30.18C610.138 30.18 609.178 29.9467 608.325 29.48C607.471 29 606.798 28.3267 606.305 27.46C605.825 26.5933 605.585 25.5933 605.585 24.46C605.585 23.3267 605.831 22.3267 606.325 21.46C606.831 20.5933 607.518 19.9267 608.385 19.46C609.251 18.98 610.218 18.74 611.285 18.74C612.351 18.74 613.318 18.98 614.185 19.46C615.051 19.9267 615.731 20.5933 616.225 21.46C616.731 22.3267 616.985 23.3267 616.985 24.46C616.985 25.5933 616.725 26.5933 616.205 27.46C615.698 28.3267 615.005 29 614.125 29.48C613.258 29.9467 612.285 30.18 611.205 30.18ZM611.205 27.74C611.711 27.74 612.185 27.62 612.625 27.38C613.078 27.1267 613.438 26.7533 613.705 26.26C613.971 25.7667 614.105 25.1667 614.105 24.46C614.105 23.4067 613.825 22.6 613.265 22.04C612.718 21.4667 612.045 21.18 611.245 21.18C610.445 21.18 609.771 21.4667 609.225 22.04C608.691 22.6 608.425 23.4067 608.425 24.46C608.425 25.5133 608.685 26.3267 609.205 26.9C609.738 27.46 610.405 27.74 611.205 27.74ZM625.579 18.76C626.899 18.76 627.965 19.18 628.779 20.02C629.592 20.8467 629.999 22.0067 629.999 23.5V30H627.199V23.88C627.199 23 626.979 22.3267 626.539 21.86C626.099 21.38 625.499 21.14 624.739 21.14C623.965 21.14 623.352 21.38 622.899 21.86C622.459 22.3267 622.239 23 622.239 23.88V30H619.439V18.92H622.239V20.3C622.612 19.82 623.085 19.4467 623.659 19.18C624.245 18.9 624.885 18.76 625.579 18.76ZM641.027 18.3V21.8H645.727V24.02H641.027V27.72H646.327V30H638.227V16.02H646.327V18.3H641.027ZM655.411 18.76C656.731 18.76 657.798 19.18 658.611 20.02C659.425 20.8467 659.831 22.0067 659.831 23.5V30H657.031V23.88C657.031 23 656.811 22.3267 656.371 21.86C655.931 21.38 655.331 21.14 654.571 21.14C653.798 21.14 653.185 21.38 652.731 21.86C652.291 22.3267 652.071 23 652.071 23.88V30H649.271V18.92H652.071V20.3C652.445 19.82 652.918 19.4467 653.491 19.18C654.078 18.9 654.718 18.76 655.411 18.76ZM662.174 24.44C662.174 23.3333 662.401 22.3533 662.854 21.5C663.321 20.6333 663.947 19.96 664.734 19.48C665.521 19 666.387 18.76 667.334 18.76C668.121 18.76 668.814 18.9133 669.414 19.22C670.027 19.5133 670.521 19.8933 670.894 20.36V18.92H673.714V35.28H670.894V28.48C670.521 28.96 670.021 29.36 669.394 29.68C668.767 30 668.061 30.16 667.274 30.16C666.341 30.16 665.481 29.92 664.694 29.44C663.921 28.9467 663.307 28.2667 662.854 27.4C662.401 26.5333 662.174 25.5467 662.174 24.44ZM670.894 24.46C670.894 23.78 670.754 23.1933 670.474 22.7C670.194 22.2067 669.827 21.8333 669.374 21.58C668.934 21.3267 668.461 21.2 667.954 21.2C667.461 21.2 666.987 21.3267 666.534 21.58C666.094 21.8333 665.734 22.2067 665.454 22.7C665.174 23.18 665.034 23.76 665.034 24.44C665.034 25.12 665.174 25.7133 665.454 26.22C665.734 26.7133 666.094 27.0867 666.534 27.34C666.987 27.5933 667.461 27.72 667.954 27.72C668.461 27.72 668.934 27.5933 669.374 27.34C669.827 27.0867 670.194 26.7133 670.474 26.22C670.754 25.7267 670.894 25.14 670.894 24.46ZM687.309 18.92V30H684.489V28.6C684.129 29.08 683.655 29.46 683.069 29.74C682.495 30.0067 681.869 30.14 681.189 30.14C680.322 30.14 679.555 29.96 678.889 29.6C678.222 29.2267 677.695 28.6867 677.309 27.98C676.935 27.26 676.749 26.4067 676.749 25.42V18.92H679.549V25.02C679.549 25.9 679.769 26.58 680.209 27.06C680.649 27.5267 681.249 27.76 682.009 27.76C682.782 27.76 683.389 27.5267 683.829 27.06C684.269 26.58 684.489 25.9 684.489 25.02V18.92H687.309ZM691.891 17.6C691.398 17.6 690.985 17.4467 690.651 17.14C690.331 16.82 690.171 16.4267 690.171 15.96C690.171 15.4933 690.331 15.1067 690.651 14.8C690.985 14.48 691.398 14.32 691.891 14.32C692.385 14.32 692.791 14.48 693.111 14.8C693.445 15.1067 693.611 15.4933 693.611 15.96C693.611 16.4267 693.445 16.82 693.111 17.14C692.791 17.4467 692.385 17.6 691.891 17.6ZM693.271 18.92V30H690.471V18.92H693.271ZM699.238 20.64C699.598 20.0533 700.064 19.5933 700.638 19.26C701.224 18.9267 701.891 18.76 702.638 18.76V21.7H701.898C701.018 21.7 700.351 21.9067 699.898 22.32C699.458 22.7333 699.238 23.4533 699.238 24.48V30H696.438V18.92H699.238V20.64ZM715.524 18.92L708.664 35.24H705.684L708.084 29.72L703.644 18.92H706.784L709.644 26.66L712.544 18.92H715.524Z" fill="#0D2D6E"/>
<path d="M721 46.68C715.5 46.68 675.438 46.68 618 46.68C560.562 46.68 522.5 47.4 513 46.68C513 44.0953 559.562 42 617 42C674.438 42 721 44.0953 721 46.68Z" fill="#D9A728"/>
<defs>
<filter id="filter0_d_994_30" x="0" y="0" width="1279.5" height="54.5" filterUnits="userSpaceOnUse" color-interpolation-filters="sRGB">
<feFlood flood-opacity="0" result="BackgroundImageFix"/>
<feColorMatrix in="SourceAlpha" type="matrix" values="0 0 0 0 0 0 0 0 0 0 0 0 0 0 0 0 0 0 127 0" result="hardAlpha"/>
<feOffset dy="4"/>
<feGaussianBlur stdDeviation="2"/>
<feComposite in2="hardAlpha" operator="out"/>
<feColorMatrix type="matrix" values="0 0 0 0 0 0 0 0 0 0 0 0 0 0 0 0 0 0 0.25 0"/>
<feBlend mode="normal" in2="BackgroundImageFix" result="effect1_dropShadow_994_30"/>
<feBlend mode="normal" in="SourceGraphic" in2="effect1_dropShadow_994_30" result="shape"/>
</filter>
<linearGradient id="paint0_linear_994_30" x1="478.5" y1="21.5" x2="757" y2="21.5" gradientUnits="userSpaceOnUse">
<stop stop-color="#041841" stop-opacity="0"/>
<stop offset="0.382896" stop-color="white"/>
<stop offset="0.477746" stop-color="white"/>
<stop offset="0.588405" stop-color="white"/>
<stop offset="1" stop-color="#041841" stop-opacity="0"/>
</linearGradient>
<linearGradient id="paint1_linear_994_30" x1="4" y1="23.25" x2="1275.5" y2="23.25" gradientUnits="userSpaceOnUse">
<stop stop-color="#041942"/>
<stop offset="0.0863684" stop-color="#061C4A"/>
<stop offset="0.382896" stop-color="white"/>
<stop offset="0.477746" stop-color="white"/>
<stop offset="0.588405" stop-color="white"/>
<stop offset="0.882282" stop-color="#051B46"/>
<stop offset="1" stop-color="#051941"/>
</linearGradient>
</defs>
</svg>
