<svg width="60" height="60" fill="none" xmlns="http://www.w3.org/2000/svg"><path fill-rule="evenodd" clip-rule="evenodd" d="M30.352 2.473c.222 0 .808.093 1.289.21.48.118 1.172.352 1.523.528.352.176.938.539 1.29.809.362.28.878.855 1.183 1.312.304.457.656 1.113.785 1.465.129.351.281.926.434 1.875h1.288c1.079-.012 1.337.023 1.583.21.164.118.328.364.386.528.047.2.024.434-.082.633-.082.188-.246.363-.351.41-.106.059-.762.094-2.766.094v.726c0 .41-.105 1.16-.234 1.676-.14.516-.387 1.196-.563 1.512a7.464 7.464 0 01-.75 1.055c-.363.41-.445.609-.55 1.3-.07.446-.083.856-.036.891.047.047 1.149.902 4.828 3.738h7.266v-1.933c0-1.899 0-1.934.293-2.227a.893.893 0 01.645-.293c.222 0 .456.106.644.293.293.293.293.305.293 2.461 0 2.145 0 2.168.258 2.25.152.035.527.317.855.621.364.352.715.832.938 1.301.293.633.34.89.34 1.688 0 .738-.059 1.066-.293 1.581a5.488 5.488 0 01-.774 1.172c-.258.293-.668.633-1.324.996v18.81h1.23c1.114 0 1.266.023 1.536.269a.92.92 0 01.316.632c.012.258-.07.457-.563.985l-21.445-.024-1.699 3.492c-.938 1.91-1.816 3.622-2.227 4.137H8.79l-.281-.258c-.164-.152-.305-.375-.317-.504a2.674 2.674 0 010-.433c0-.117.118-.316.246-.445.211-.211.387-.235 3.165-.235l.117-.375c.058-.21 1.347-4.3 2.87-9.082 1.513-4.793 2.755-8.742 2.755-8.789 0-.058-.352-.152-.785-.222-.446-.07-1.149-.294-1.594-.493-.434-.21-1.055-.62-1.383-.925-.328-.317-.762-.82-.96-1.149-.2-.316-.458-.89-.575-1.254-.129-.398-.211-1.054-.211-1.582 0-.75.176-1.64.996-5.015.563-2.297 1.148-4.407 1.336-4.805.176-.387.48-.938 1.055-1.758l-.47-.469c-.257-.258-.655-.843-.878-1.289-.328-.656-.422-1.008-.48-1.758-.047-.714-.012-1.113.152-1.699a5.89 5.89 0 01.644-1.406c.235-.352.68-.844.996-1.078a8.063 8.063 0 011.16-.703c.563-.258.739-.27 7.5-.387l.071-1.992c.047-1.465.117-2.133.27-2.52.105-.293.375-.843.574-1.218.21-.387.691-1.008 1.078-1.395a5.894 5.894 0 011.64-1.148 8.94 8.94 0 011.7-.622 8.903 8.903 0 011.172-.175zm-2.215 2.39c-.352.2-.89.645-1.207.996-.328.364-.68.914-.809 1.266-.117.328-.258.82-.316 1.078l-.082.469h9.199c-.106-.867-.258-1.395-.422-1.723-.152-.34-.54-.902-.855-1.23-.317-.34-.856-.762-1.196-.926a6.193 6.193 0 00-1.254-.445c-.328-.07-.726-.13-.879-.118-.14 0-.55.07-.902.153-.352.07-.926.293-1.277.48zm-2.356 6.621c3.317 0 4.594.059 4.98.13.387.07 1.009.28 1.384.468.363.188.867.54 1.113.785.246.235.562.586.691.785l.258.352c.574-1.266.656-1.606.68-2.438l.035-1.02h-9.14v.938zM17.11 13.63c-.222.07-.62.316-.867.539a3.623 3.623 0 00-.726 1.008 2.862 2.862 0 00-.282 1.172c0 .328.07.797.153 1.054.07.258.375.727.668 1.043l.527.575c1.36-.668 2.133-.938 2.578-1.032.598-.129 1.63-.175 3.785-.175 1.782 0 3.2.058 3.575.128.328.082.843.235 1.136.364.293.129.82.445 1.172.703.621.469.668.48 1.324.41.364-.047.867-.188 1.114-.305.234-.129.597-.398.808-.62.2-.212.48-.622.61-.915.152-.328.246-.773.246-1.172 0-.433-.094-.843-.27-1.23-.152-.317-.48-.762-.738-.985a4.348 4.348 0 00-.867-.586c-.352-.164-1.242-.187-6.739-.21-3.48 0-6.433.011-6.562.046a4.926 4.926 0 00-.645.188zm15.34 6.96a5.635 5.635 0 01-1.218.528c-.329.082-.598.14-.622.152-.011 0 .047.317.153.704.093.386.175 1.054.175 1.5 0 .562-.257 1.922-.878 4.746a804.795 804.795 0 00-.938 4.16c-.058.187.082.2 1.606.2h1.675c1.242-6.071 1.371-6.528 1.606-6.716.152-.117.398-.21.562-.199.164 0 .95.398 1.758.879.809.48 1.7.95 1.992 1.055.422.14 1.09.175 3.305.175h2.79V23.32c-4.184-.011-5.11-.058-5.392-.152-.222-.082-1.464-.938-2.754-1.898-1.288-.95-2.39-1.747-2.46-1.77-.07-.012-.258.14-.422.34-.176.21-.598.539-.938.75zM18 20.368c-.305.176-.844.61-1.184.961-.34.352-.761.938-.925 1.29-.164.35-.61 1.956-1.008 3.573-.387 1.606-.738 3.024-.762 3.13-.059.198.328.21 6.856.21h6.914c.351-1.593.656-2.918.879-3.984.328-1.453.41-2.074.351-2.52a4.309 4.309 0 00-.34-1.172 4.576 4.576 0 00-.703-1.03c-.234-.235-.703-.575-1.043-.762l-.61-.317c-5.917-.047-6.69-.012-7.206.129a6.474 6.474 0 00-1.219.492zm28.29 7.406c1.276 0 1.663-.07 1.956-.222.246-.117.527-.317.633-.434.105-.129.281-.398.387-.61.105-.198.187-.62.187-.937 0-.304-.105-.761-.234-1.02a2.321 2.321 0 00-.551-.714 3.126 3.126 0 00-.738-.375c-.223-.082-.692-.14-1.032-.14h-.609v4.452zM34.7 30.668c-.364 1.71-.446 2.273-.34 2.32.081.035 1.394.48 2.906.996 1.511.528 2.988 1.055 3.28 1.184.294.129.657.352.798.492.152.14.422.516.586.844.222.445.293.75.293 1.289-.012.574-.2 1.242-1.032 3.633-.562 1.605-1.03 2.976-1.03 3.047-.013.07.562.914 1.276 1.898l1.278 1.781 4.16.012V29.766c-8.133-.07-8.426-.082-9.14-.328-.422-.141-1.15-.493-1.618-.774-.55-.34-.879-.48-.902-.387-.024.082-.258 1.16-.516 2.391zm-20.966 1.406c.047.563.164 1.008.41 1.5.235.469.528.832.868 1.09.281.211.75.457 1.043.55.433.153 1.207.177 4.453.153l3.926-.035c.914-.48 1.406-.855 1.675-1.125.282-.281.61-.703.727-.926.117-.222.293-.703.398-1.054.106-.352.188-.715.188-.797 0-.106-1.453-.14-6.867-.14h-6.88l.06.784zm14.262 2.918c-.223.305-.656.75-.984.985a8.66 8.66 0 01-1.114.703 7.1 7.1 0 01-1.113.422c-.398.105-1.348.152-2.941.152-2.332 0-2.356.012-2.485.27-.082.14-1.406 4.265-2.953 9.175-1.547 4.899-2.812 8.942-2.812 8.989 0 .046 1.77.081 3.926.081s3.949-.035 3.972-.081c.024-.047-.375-.669-.879-1.383-.55-.762-.925-1.407-.925-1.582 0-.153 1.16-2.684 2.566-5.625 1.418-2.93 2.719-5.508 2.906-5.742.2-.223.633-.563.985-.762l.632-.352h7.184c.527.516.61.703.61.996-.012.235-.317 1.864-.692 3.633l-.68 3.223c2.742.058 4.371.058 5.38.035l1.827-.035c-1.875-2.578-2.215-3.14-2.203-3.364 0-.175.504-1.78 1.125-3.574.762-2.191 1.102-3.351 1.066-3.55a2.096 2.096 0 00-.222-.493c-.094-.117-1.629-.715-3.727-1.441l-3.574-1.23h-4.477l-.398.55zm-1.371 7.559c-.129.152-1.277 2.437-2.543 5.086-1.277 2.636-2.32 4.851-2.32 4.922-.012.058.468.808 1.066 1.664l1.078 1.558h.996c2.871-5.87 3.621-7.265 3.809-7.406.246-.188.48-.223 1.43-.223.632 0 1.148-.023 1.148-.047 0-.035.27-1.347.586-2.906.328-1.558.563-2.906.527-2.988-.047-.105-.656-.14-2.554-.14-1.36.011-2.602.046-2.73.105-.141.047-.364.21-.493.375z" fill="#fff"/></svg>