<svg width="60" height="60" fill="none" xmlns="http://www.w3.org/2000/svg"><path fill-rule="evenodd" clip-rule="evenodd" d="M20.332 9.855c1.149-.011 1.617.047 2.52.282.61.164 1.593.527 2.168.808.574.282 1.465.832 1.968 1.23.493.4 1.207 1.102 1.57 1.571.376.457.833 1.149 1.032 1.524.2.363.375.668.41.668.035 0 .223-.305.41-.668.188-.375.657-1.067 1.02-1.524a12.608 12.608 0 011.582-1.582c.504-.387 1.394-.95 1.969-1.219a14.65 14.65 0 012.168-.808c.879-.235 1.394-.293 2.46-.293 1.067 0 1.582.058 2.461.293.61.164 1.594.527 2.168.808.575.282 1.465.832 1.97 1.23a12.491 12.491 0 011.616 1.63c.399.492.95 1.383 1.23 1.957.282.574.634 1.476.762 1.992.13.515.27 1.488.305 2.168.035.68 0 1.922-.07 2.754-.082.844-.27 2.156-.422 2.93a28.223 28.223 0 01-.762 2.87 34.606 34.606 0 01-.914 2.52c-.351.82-.515 1.078-.762 1.172-.246.094-.351.07-.55-.117-.13-.13-.246-.328-.235-.434 0-.117.235-.773.516-1.465.281-.703.68-1.793.879-2.437.2-.645.457-1.7.586-2.344.129-.644.293-1.723.375-2.402.07-.692.105-1.922.07-2.813-.035-1.183-.117-1.793-.316-2.402a13.554 13.554 0 00-.715-1.7 9.936 9.936 0 00-1.008-1.534 16.015 16.015 0 00-1.265-1.254 9.352 9.352 0 00-1.583-1.067 12.479 12.479 0 00-1.757-.738c-.75-.223-1.125-.27-2.52-.27-1.207 0-1.84.059-2.402.211-.422.118-1.16.387-1.64.621-.481.223-1.267.715-1.747 1.079-.48.363-1.16 1.043-1.512 1.488-.351.457-.808 1.16-1.02 1.582-.21.422-.48 1.078-.597 1.453-.152.457-.305.738-.492.82-.188.094-.328.094-.527 0-.176-.082-.329-.363-.48-.82a11.953 11.953 0 00-.599-1.453c-.21-.422-.668-1.125-1.02-1.582a10.093 10.093 0 00-1.51-1.488c-.481-.364-1.266-.856-1.747-1.079a11.548 11.548 0 00-1.64-.62c-.563-.153-1.196-.212-2.403-.212-1.394 0-1.77.047-2.52.27-.48.152-1.277.48-1.757.738a9.348 9.348 0 00-1.582 1.067c-.387.328-.95.902-1.266 1.254a9.936 9.936 0 00-1.008 1.535c-.246.48-.574 1.254-.714 1.699-.188.598-.282 1.23-.317 2.344-.035.843 0 2.133.07 2.87.082.739.27 1.923.422 2.637.14.715.469 1.899.703 2.637.247.738.622 1.758.832 2.262.223.492.399.996.399 1.113.012.106-.082.293-.2.41-.152.153-.304.2-.538.153-.258-.059-.387-.223-.68-.856-.2-.445-.621-1.558-.926-2.496a31.779 31.779 0 01-.867-3.164 36.085 36.085 0 01-.434-2.93 25.457 25.457 0 01-.07-2.812c.047-.961.152-1.652.375-2.402.176-.575.527-1.477.797-1.993.27-.515.797-1.324 1.16-1.78.375-.47 1.09-1.173 1.582-1.571.504-.399 1.395-.95 1.969-1.23a14.09 14.09 0 012.11-.798c.82-.222 1.359-.293 2.46-.293zm12.89 20.204l.61.328c.34.175.809.504 1.031.726.223.223.551.692 1.055 1.64v8.345l-.328.422a1.965 1.965 0 01-.82.62c-.293.118-.645.165-1.254.047v3.669c0 2.695-.047 3.738-.153 3.949a.64.64 0 01-.433.328.693.693 0 01-.504-.14c-.188-.177-.2-.692-.2-14.954l.258-.176c.153-.093.375-.14.504-.117.13.035.305.188.375.352.106.21.153 1.066.153 2.988 0 2.578.012 2.695.234 2.812a1 1 0 00.399.118c.093 0 .257-.082.351-.176.164-.153.188-.668.188-3.926 0-3.457-.012-3.785-.223-4.195a3.584 3.584 0 00-.563-.75 2.638 2.638 0 00-.773-.492c-.351-.153-.96-.188-3.129-.188-2.168 0-2.777.035-3.14.188a2.74 2.74 0 00-.762.492 3.375 3.375 0 00-.563.761c-.21.399-.222.727-.222 8.051l.293.14c.234.118.351.118.878-.14v-2.695c0-1.922.047-2.777.141-2.988.082-.164.258-.317.387-.352.129-.023.351.023.762.293v7.383c0 6.879-.012 7.394-.211 7.57-.106.106-.328.164-.493.14a.64.64 0 01-.433-.327c-.106-.211-.152-1.254-.152-7.617l-.387.07c-.223.047-.574 0-.88-.117-.292-.118-.62-.364-1.136-1.043v-8.344l.293-.574c.164-.317.492-.785.727-1.032.246-.246.668-.562.937-.703.281-.14.656-.293.856-.34.187-.046 1.699-.082 6.328-.046zm-3.198 10.136a.65.65 0 01.386.176c.153.152.176.856.176 9.55l-.293.153c-.234.117-.351.117-.879-.152l-.023-4.746c-.012-4.559-.012-4.735.21-4.852.118-.07.317-.129.423-.129zm-9.34-24.715c.129-.011.539.07.902.165a5 5 0 011.113.445c.246.152.621.48.844.738.223.246.516.692.645.985.164.386.234.785.234 1.464.012.703-.047 1.067-.234 1.465-.13.293-.47.785-.762 1.09-.281.316-.809.715-1.16.879-.54.258-.797.316-1.582.316-.797-.011-1.043-.058-1.63-.351-.374-.2-.878-.563-1.1-.82-.235-.258-.552-.762-.716-1.114-.222-.492-.28-.844-.28-1.465 0-.62.07-.984.292-1.465.152-.351.445-.832.645-1.054.199-.223.609-.551.925-.727.317-.175.809-.375 1.102-.433.293-.059.633-.106.762-.118zm-1.465 1.793a3.12 3.12 0 00-.703.797c-.223.387-.293.668-.281 1.207 0 .492.082.856.257 1.207.14.27.434.621.633.774.211.152.574.328.797.41.223.07.621.129.879.129s.68-.106.937-.223a2.97 2.97 0 00.832-.61c.188-.222.422-.608.504-.866.094-.258.141-.739.117-1.067a2.137 2.137 0 00-.398-1.113c-.234-.344-.566-.625-.996-.844-.375-.187-.82-.316-1.055-.305-.222 0-.562.06-.761.118-.2.058-.54.234-.762.386zm20.215-1.793c.129-.011.539.07.902.165a5 5 0 011.113.445c.246.152.621.48.844.738.223.246.516.692.645.985.175.386.234.773.234 1.464 0 .68-.059 1.078-.234 1.465-.13.293-.47.785-.762 1.09-.281.316-.809.715-1.16.879-.54.258-.797.316-1.582.305-.762 0-1.055-.059-1.582-.305-.352-.176-.856-.54-1.102-.82a5.432 5.432 0 01-.762-1.149c-.222-.492-.293-.844-.293-1.465 0-.62.07-.972.293-1.465.165-.351.457-.832.657-1.054.199-.223.609-.551.925-.727.317-.175.809-.375 1.102-.433.293-.059.633-.106.762-.118zm-1.395 1.758a2.66 2.66 0 00-.761.809c-.235.41-.305.68-.305 1.23.011.492.093.856.27 1.207.14.27.433.621.632.774.211.152.574.328.797.41.223.07.621.129.879.129s.68-.106.937-.223a2.97 2.97 0 00.832-.61c.188-.222.422-.608.504-.866.106-.293.141-.703.094-1.114a2.35 2.35 0 00-.398-1.113c-.211-.293-.563-.586-.973-.797-.375-.187-.82-.316-1.055-.305a3.09 3.09 0 00-.703.094 3.417 3.417 0 00-.75.375zm-8.074 3.985c.48-.012.973.07 1.418.246.445.164.867.445 1.266.843.398.399.68.82.843 1.278.164.41.258.937.258 1.37 0 .434-.094.962-.258 1.384-.164.445-.445.867-.843 1.265-.399.399-.82.68-1.266.844-.422.164-.95.258-1.383.258-.433 0-.96-.094-1.371-.258-.457-.164-.879-.445-1.277-.844-.399-.398-.68-.82-.844-1.265a4.068 4.068 0 01-.258-1.383c0-.434.094-.961.258-1.371.164-.457.445-.88.844-1.277.386-.375.832-.68 1.242-.844a4.13 4.13 0 011.383-.246h-.012zm-2.18 2.566c-.222.434-.27.668-.234 1.313.023.632.094.867.387 1.277.199.27.586.621.879.785.433.223.656.27 1.312.234.633-.023.867-.093 1.277-.386a3.11 3.11 0 00.785-.88c.223-.433.27-.655.235-1.312-.023-.633-.094-.867-.387-1.277a2.91 2.91 0 00-.879-.773c-.386-.2-.715-.27-1.242-.27-.61 0-.797.059-1.289.387a2.678 2.678 0 00-.844.902zm-7.23.598c3.023-.012 3.047-.012 3.691.293.352.164.762.41.914.55.14.141.258.364.258.493s-.094.328-.21.445c-.106.117-.27.21-.34.2-.083 0-.458-.177-1.5-.762l-2.462-.036c-1.699-.035-2.66 0-3.105.106-.445.094-.785.27-1.102.562-.258.235-.55.633-.668.89-.199.423-.222.845-.222 4.138 0 3.504.011 3.668.234 3.89.129.13.317.235.41.235.094 0 .282-.106.41-.235.223-.222.235-.386.235-2.988 0-2.473.023-2.777.21-2.941.106-.106.329-.165.493-.141a.64.64 0 01.434.328c.117.223.152 1.629.152 5.918 0 4.29-.035 5.695-.152 5.918-.094.2-.258.305-.493.328-.199.012-.422-.035-.504-.117-.117-.117-.152-.738-.14-4.898h-.61c-.457 0-.738-.07-1.03-.258-.223-.153-.528-.504-.68-.797-.27-.528-.27-.563-.235-4.395.035-3.422.059-3.925.246-4.336a7.43 7.43 0 01.527-.925c.176-.247.551-.61.844-.809.293-.2.715-.422.938-.504.281-.105 1.324-.152 3.457-.152zm15.82-.012l3.164.023c3.106.036 3.176.036 3.75.329.328.152.797.503 1.055.761.246.258.586.762.762 1.114.293.644.293.644.328 4.511.035 3.832.035 3.867-.235 4.395-.152.293-.457.644-.68.797-.292.187-.574.258-1.64.258v2.378c0 1.7-.035 2.414-.14 2.52-.083.07-.294.14-.47.14a.601.601 0 01-.503-.257c-.153-.235-.176-1.078-.176-5.953 0-4.325.035-5.754.152-5.977a.64.64 0 01.434-.328.693.693 0 01.504.14c.176.165.199.47.199 2.942 0 2.602.012 2.766.234 2.988.13.13.317.235.41.235.094 0 .282-.106.41-.235.223-.222.235-.386.235-3.773 0-1.98-.059-3.75-.117-3.985-.07-.246-.34-.691-.61-.984-.363-.387-.667-.574-1.09-.703-.421-.117-1.218-.164-2.87-.164-1.254 0-2.508.058-2.778.117-.281.07-.703.246-.937.41-.246.164-.528.293-.621.293-.094 0-.27-.094-.387-.21a.69.69 0 01-.211-.434c0-.13.129-.352.27-.492.152-.141.562-.387.914-.551l.644-.305zM20.496 34.57c.235 0 .41.082.528.258.152.223.175.938.175 4.688 0 2.437-.035 4.511-.082 4.617a.805.805 0 01-.386.304c-.211.07-.375.047-.82-.257l-.012-4.582c-.012-3.176.035-4.641.117-4.805.082-.14.258-.223.48-.223zm18.985 0c.234 0 .386.082.468.235.07.14.117 1.992.117 9.375l-.257.175a.575.575 0 01-.563.083c-.164-.06-.328-.2-.375-.305-.058-.106-.093-2.18-.105-4.617-.012-3.938.012-4.453.187-4.688a.645.645 0 01.528-.258z" fill="#fff"/></svg>