<svg width="60" height="60" fill="none" xmlns="http://www.w3.org/2000/svg"><path fill-rule="evenodd" clip-rule="evenodd" d="M31.793 1.64c.14 0 .375.118.528.27.246.246.258.34.258 1.899 0 1.394-.036 1.675-.212 1.851a.735.735 0 01-.527.2.898.898 0 01-.55-.235c-.212-.21-.235-.398-.247-1.805-.011-1.441.012-1.582.246-1.875.141-.164.364-.304.504-.304zM25.84 36.974c.574.023 1.371.152 1.758.27.387.128 1.91.714 3.398 1.3 1.477.598 3.563 1.36 4.63 1.7 1.066.339 2.109.714 2.308.82.21.105.574.386.809.632.234.235.503.598.609.785.094.188.21.47.246.622.07.246.188.187 2.238-1.16a414.777 414.777 0 013.399-2.215c.68-.422 1.453-.868 1.722-.973a8.277 8.277 0 011.266-.316 4.894 4.894 0 011.547 0 6.37 6.37 0 011.5.456c.387.176.902.504 1.148.727a3.9 3.9 0 01.739.984c.199.41.28.786.28 1.23 0 .493-.081.786-.327 1.231-.27.47-.621.797-1.793 1.63-.797.585-2.168 1.581-3.035 2.226a158.43 158.43 0 01-3.34 2.39c-.973.669-2.239 1.512-2.813 1.876a51.44 51.44 0 01-2.343 1.312c-.715.352-1.735.797-2.286.984-.703.246-1.3.352-3.105.446l-5.39-1.664c-2.966-.914-5.462-1.63-5.544-1.594-.07.035-.222.2-.316.363-.164.27-.152.34.058.762.13.258.235.656.235.879 0 .222-.07.586-.164.797a1.965 1.965 0 01-.434.62c-.152.141-1.336.985-2.625 1.876-1.289.89-2.637 1.793-2.988 2.004-.352.21-.785.386-.973.386-.176 0-.515-.105-.762-.222a2.85 2.85 0 01-.68-.504c-.128-.14-2.026-2.86-4.218-6.012-3.715-5.379-3.96-5.777-4.008-6.328-.035-.41.012-.715.164-1.043.188-.387.692-.785 3.153-2.484 1.605-1.114 3.129-2.086 3.363-2.157.316-.082.598-.082.938.012.28.07.667.305.867.504.199.2.41.457.468.586.094.2.305.117 2.508-1.02 1.324-.68 2.977-1.476 3.692-1.78a19.325 19.325 0 012.168-.774c.656-.164 1.136-.211 1.933-.164zm-3.105 2.133c-.422.163-1.957.913-3.434 1.663-1.465.75-2.66 1.395-2.66 1.454 0 .047 1.16 1.758 2.59 3.808a301.09 301.09 0 002.695 3.832c.07.082.2.024.363-.164a2.19 2.19 0 01.645-.445c.21-.082.516-.152.68-.152.164 0 2.437.668 5.062 1.476 2.637.809 5.145 1.582 5.602 1.711.726.211.914.211 1.582.094.422-.07 1.101-.27 1.523-.422.422-.164 1.29-.574 1.934-.914a38.41 38.41 0 002.52-1.477 92.554 92.554 0 002.929-1.968c.867-.621 2.367-1.711 3.34-2.426a89.17 89.17 0 012.46-1.782c.387-.257.868-.644 1.055-.855.246-.258.352-.469.34-.738a1.588 1.588 0 00-.199-.668c-.094-.164-.398-.434-.656-.621-.27-.176-.785-.399-1.16-.504a3.095 3.095 0 00-1.348-.117c-.363.035-.867.152-1.113.257-.235.094-2.098 1.266-4.137 2.602-3.375 2.215-3.715 2.46-3.89 2.895-.106.257-.422.703-.692.984a4.58 4.58 0 01-1.148.82c-.48.211-.844.282-1.407.282-.61 0-1.687-.27-5.332-1.313-3.105-.879-4.617-1.371-4.722-1.5a1.012 1.012 0 01-.141-.504.69.69 0 01.2-.492c.116-.117.316-.211.444-.211.13 0 2.18.55 4.57 1.23 2.391.68 4.524 1.254 4.747 1.301.258.047.586 0 .879-.105.258-.106.644-.375.844-.598.21-.234.433-.621.503-.855.06-.246.07-.633.012-.856a2.963 2.963 0 00-.21-.644 2.46 2.46 0 00-.458-.528c-.222-.199-1.125-.562-2.566-1.031a98.692 98.692 0 01-4.805-1.781c-1.418-.563-2.894-1.114-3.281-1.219a6.415 6.415 0 00-1.406-.176c-.387 0-.997.082-1.348.176-.352.094-.984.316-1.406.48zM8.11 45.093c-.012.175 1.16 1.968 3.855 5.847 2.133 3.082 3.961 5.66 4.067 5.743.152.105.257.117.433.011.13-.07 1.406-.937 2.836-1.933 1.711-1.172 2.613-1.864 2.613-2.004 0-.106-1.77-2.754-3.925-5.883-2.168-3.129-4.008-5.719-4.079-5.766-.082-.047-.164-.093-.199-.093s-1.3.855-2.812 1.91c-2.086 1.43-2.766 1.968-2.79 2.168zm15.328-41.11a.71.71 0 01.48.2c.106.117.516.761.903 1.441.398.68.726 1.313.726 1.406.012.094-.082.305-.199.457-.117.14-.34.282-.504.282a.913.913 0 01-.504-.153c-.117-.094-.515-.703-.89-1.347-.375-.645-.715-1.266-.75-1.372-.047-.117-.024-.328.046-.468.082-.153.2-.305.27-.352.07-.047.258-.094.422-.094zm16.898 0c.211 0 .387.094.504.27.094.14.176.351.176.469 0 .105-.328.761-.727 1.465-.398.69-.797 1.324-.902 1.406-.105.082-.316.14-.48.14a.812.812 0 01-.504-.21c-.117-.106-.2-.329-.2-.493 0-.164.329-.843.715-1.523.399-.68.809-1.301.903-1.371.105-.082.34-.153.515-.153zM31.84 8.672c.152 0 .375.105.504.234.129.13.844 1.453 1.582 2.93 1.09 2.168 1.395 2.707 1.606 2.742a614.6 614.6 0 013.14.504c2.157.328 2.918.492 3.07.645a.853.853 0 01.212.539c0 .257-.41.726-2.227 2.543-1.406 1.406-2.227 2.308-2.227 2.46 0 .13.2 1.56.457 3.165.27 1.734.422 3.023.375 3.164a.706.706 0 01-.28.328 1.452 1.452 0 01-.47.082c-.14 0-1.488-.633-5.707-2.813l-2.812 1.407c-1.547.773-2.93 1.406-3.082 1.406a.776.776 0 01-.469-.211.69.69 0 01-.2-.492c0-.164.212-1.606.927-6.153l-2.274-2.285c-1.851-1.851-2.285-2.344-2.285-2.601 0-.211.105-.41.27-.528.187-.152 1.136-.351 3.14-.656 1.57-.246 2.977-.504 3.117-.563.2-.07.633-.832 1.57-2.707.715-1.44 1.407-2.73 1.548-2.87.128-.153.363-.27.515-.27zm-2.52 7.195c-.046.035-1.113.223-2.367.422-1.253.2-2.449.387-2.636.422-.352.07-.328.094 1.547 1.957 1.453 1.441 1.91 1.969 1.91 2.191 0 .164-.164 1.266-.352 2.461-.187 1.196-.351 2.262-.351 2.38 0 .152.504-.048 2.402-.997l2.402-1.207c3.633 1.863 4.711 2.39 4.735 2.379.035-.023-.13-1.137-.34-2.496-.223-1.348-.41-2.543-.41-2.637 0-.094.855-1.031 1.91-2.074 1.875-1.863 1.898-1.898 1.547-1.957-.2-.035-1.36-.223-2.578-.422-1.278-.2-2.297-.422-2.403-.516-.093-.093-.68-1.171-1.3-2.402-.61-1.23-1.137-2.238-1.172-2.238-.024 0-.586 1.055-1.254 2.344-.657 1.289-1.23 2.367-1.29 2.39zM17.404 10.16c.129.035.761.375 1.406.738.644.375 1.254.774 1.348.903a.91.91 0 01.152.504c0 .164-.14.386-.281.504-.153.117-.387.187-.516.152-.129-.024-.762-.352-1.406-.727-.645-.363-1.266-.75-1.383-.855a.714.714 0 01-.2-.48c0-.165.048-.352.095-.41.046-.071.187-.188.316-.259.129-.082.34-.117.469-.07zm29.027-.082c.059 0 .2.059.328.117.13.07.293.235.363.387.094.188.094.34 0 .55-.093.2-.609.575-1.546 1.114-1.36.785-1.43.809-1.723.645a1.496 1.496 0 01-.422-.375c-.094-.141-.094-.305-.012-.516.082-.246.47-.527 1.524-1.125.773-.434 1.441-.797 1.488-.797zm-30.082 8.438c1.16 0 1.582.035 1.781.175.188.118.27.293.27.563 0 .2-.094.469-.211.586-.176.176-.41.21-1.84.2-1.383 0-1.676-.036-1.852-.212-.117-.105-.21-.363-.222-.574 0-.27.07-.422.27-.563.222-.14.62-.175 1.804-.175zm30.984 0c1.301-.012 1.512.023 1.805.234.2.14.316.34.316.527a.865.865 0 01-.234.528c-.21.21-.387.234-1.875.234s-1.664-.023-1.875-.234a.96.96 0 01-.246-.516c-.012-.187.105-.375.316-.527.282-.223.48-.246 1.793-.246zm-27.738 7.148c.188 0 .41.082.504.176.094.094.176.316.176.504 0 .175-.059.398-.14.504-.083.105-.716.504-1.419.902-.691.398-1.348.727-1.465.727-.105 0-.316-.082-.468-.176a.595.595 0 01-.258-.492c0-.188.047-.399.093-.47.047-.081.657-.491 1.372-.913.726-.422 1.43-.762 1.605-.762zm24.457 0c.164 0 .879.328 1.594.738.785.446 1.347.844 1.465 1.043.164.293.164.34-.07.645-.141.176-.376.34-.528.363-.176.024-.691-.2-1.336-.574-.574-.328-1.23-.727-1.43-.879-.257-.188-.398-.387-.41-.598a.798.798 0 01.2-.527.843.843 0 01.515-.21zM24.785 30.82c.165 0 .375.082.47.176.093.094.198.281.234.41.035.153-.223.739-.727 1.64-.48.845-.902 1.454-1.055 1.524a.704.704 0 01-.562 0 .785.785 0 01-.41-.433c-.106-.293-.047-.469.55-1.535.375-.668.797-1.348.938-1.5.14-.153.387-.282.563-.282zm14.133 0c.246 0 .422.106.621.387.153.2.551.855.88 1.43.374.644.597 1.16.574 1.336-.024.152-.188.386-.364.527-.304.234-.351.234-.644.07-.2-.117-.598-.68-1.043-1.465-.41-.714-.75-1.417-.762-1.57a.74.74 0 01.2-.504.88.88 0 01.538-.21zm-7.043 1.875c.13 0 .34.106.47.235.21.21.233.386.233 1.875 0 1.488-.023 1.664-.234 1.875a.865.865 0 01-.527.234c-.188 0-.387-.117-.528-.316-.21-.293-.246-.492-.234-1.828.012-1.418.023-1.512.293-1.782.152-.164.387-.293.527-.293zM17.508 52.641c.211.023.434.164.586.363.223.305.234.352.07.633-.093.164-.27.363-.375.433-.14.094-.304.094-.527.012-.176-.07-.398-.27-.469-.445-.117-.246-.117-.375-.023-.575.082-.152.2-.304.27-.363.07-.047.28-.07.468-.058z" fill="#fff"/></svg>