<svg width="60" height="60" fill="none" xmlns="http://www.w3.org/2000/svg"><path fill-rule="evenodd" clip-rule="evenodd" d="M27.633 5.285a7.703 7.703 0 011.922.235c.539.128 1.394.445 1.91.691.515.258 1.254.691 2.344 1.512l.351-.317c.188-.176.692-.515 1.114-.75a12.584 12.584 0 011.699-.75c.785-.258 1.207-.328 2.52-.375 1.323-.047 1.734-.011 2.519.188a12.52 12.52 0 011.699.574c.422.2 1.102.61 1.512.926.422.316 1.078.972 1.453 1.453.387.48.867 1.254 1.078 1.7.223.444.492 1.16.61 1.581.14.55.199 1.184.21 2.285 0 1.266-.047 1.676-.281 2.403-.14.48-.48 1.3-.75 1.816-.445.89-.773 1.242-6.34 6.844-3.973 3.996-6.023 5.965-6.34 6.117a2.942 2.942 0 01-1.113.223c-.387 0-.832-.094-1.113-.235-.305-.14-2.426-2.156-6.047-5.765-3.469-3.446-5.766-5.813-6.059-6.246a19.823 19.823 0 01-.843-1.465c-.211-.422-.48-1.16-.61-1.64-.14-.552-.223-1.29-.223-1.993-.011-.621.07-1.465.176-1.91.106-.434.317-1.09.457-1.465.153-.363.48-.984.727-1.371.246-.387.75-1.008 1.102-1.395.363-.375.972-.914 1.359-1.183a9.815 9.815 0 011.406-.832c.387-.188 1.125-.446 1.64-.586a7.5 7.5 0 011.9-.27h.01zm-3.129 2.766a7.493 7.493 0 00-1.582 1.101c-.387.364-.89.973-1.113 1.348a10.923 10.923 0 00-.68 1.453c-.188.504-.305 1.137-.34 1.875-.059.902-.023 1.3.188 2.11.14.55.445 1.335.68 1.757.34.633 1.406 1.758 6.058 6.41 5.297 5.32 5.66 5.66 6.047 5.66.386 0 .75-.34 5.836-5.425 3.949-3.938 5.59-5.649 6.011-6.293.34-.492.704-1.242.844-1.7.211-.667.258-1.09.246-2.285 0-1.312-.035-1.546-.328-2.285a8.892 8.892 0 00-.75-1.453c-.234-.351-.726-.89-1.078-1.207a7.074 7.074 0 00-1.465-.972c-.457-.223-1.137-.493-1.523-.586-.387-.094-1.196-.176-1.817-.176-.62 0-1.418.082-1.816.187a8.673 8.673 0 00-1.465.586c-.422.211-1.113.715-1.559 1.102-.585.527-.867.703-1.136.703-.27 0-.551-.176-1.207-.773-.492-.458-1.184-.938-1.664-1.172-.457-.211-1.137-.48-1.524-.575-.387-.093-1.148-.175-1.699-.164-.55 0-1.289.082-1.64.176-.352.094-1.044.363-1.524.598zm22.5 24.797c.633.035 1.078.14 1.582.363.387.176.797.41.914.516.176.164.246.175.41.058a7.97 7.97 0 01.785-.469c.457-.234.797-.316 1.524-.363.738-.035 1.066 0 1.582.188.351.14.902.48 1.23.761.364.317.692.75.88 1.149.234.504.292.82.28 1.57 0 .773-.058 1.055-.316 1.582-.164.352-.504.832-.75 1.066-.246.235-4.184 3.247-8.766 6.692-4.582 3.457-8.718 6.563-9.199 6.902-.48.352-1.3.82-1.816 1.032-.516.21-1.418.492-1.992.609-.575.129-1.325.223-1.641.223-.328 0-1.066-.106-1.64-.223-.575-.129-4.43-1.395-8.555-2.813-4.125-1.43-7.84-2.648-8.262-2.73-.422-.07-1.207-.094-1.758-.07-.61.047-1.336.175-1.875.363-.48.164-1.195.48-1.582.715a15.3 15.3 0 00-1.207.808c-.445.317-.61.375-1.195.375-.504 0-.774-.058-1.008-.234a4.25 4.25 0 01-.563-.563c-.246-.328-.246-.433-.28-5.8-.024-5.192-.012-5.496.198-5.942.13-.258.375-.574.563-.691.176-.129 2.625-1.031 5.426-2.016 2.8-.984 5.507-1.863 6.011-1.968.493-.106 1.465-.188 2.157-.188.855 0 4.394.363 10.758 1.113 5.226.61 9.62 1.149 9.785 1.172.21.047 1.066-.316 3.222-1.36 1.617-.784 3.223-1.523 3.575-1.652.468-.152.878-.199 1.523-.175zm-3.82 3.316l-2.367 1.16c.386.633.562 1.114.632 1.465.07.352.153.645.188.645s1.5-.973 3.246-2.168c1.746-1.196 3.176-2.192 3.176-2.227 0-.035-.2-.129-.434-.2-.246-.081-.633-.151-.855-.14-.223 0-.598.07-.82.153-.223.082-1.477.668-2.766 1.312zm.832 3.961c-4.125 2.824-7.735 5.25-8.028 5.379-.293.129-.879.258-1.347.293a4.467 4.467 0 01-1.465-.129c-.422-.129-1.313-.633-2.578-1.488l-1.934-1.29h-5.918c-.457-.456-.586-.714-.586-.878 0-.164.035-.375.094-.48.047-.106.223-.27.41-.352.258-.13 1.781-.164 8.086-.164 7.348-.012 7.781-.024 8.11-.223.187-.117.445-.41.562-.645.105-.234.2-.597.2-.796 0-.211-.106-.563-.235-.762-.13-.211-.399-.469-.586-.563-.235-.117-3.656-.562-9.961-1.289-5.906-.68-10.055-1.113-10.758-1.113-.621 0-1.477.082-1.898.188-.422.093-2.965.949-5.66 1.898l-4.887 1.723v9.902c.867-.656 1.535-1.055 2.05-1.3.516-.247 1.36-.563 1.876-.704.691-.188 1.3-.258 2.343-.258.774-.011 1.723.059 2.11.14.386.083 1.605.458 2.695.833 1.09.375 4.395 1.5 7.324 2.52 2.93 1.007 5.625 1.91 5.977 2.003.351.094 1.125.164 1.699.164.574 0 1.371-.082 1.758-.175.386-.094 1.066-.364 1.523-.586.528-.258 3.95-2.766 9.61-7.032 4.84-3.656 8.941-6.785 9.129-6.949.187-.176.41-.492.492-.691.093-.211.164-.528.164-.703 0-.188-.117-.563-.27-.844-.14-.281-.422-.61-.61-.715a2.484 2.484 0 00-.76-.281c-.224-.035-.599 0-.821.082-.223.082-3.785 2.46-7.91 5.285zM33 43.535c.48.293.68.352 1.348.352s.867-.059 1.347-.352c.317-.187.586-.422.61-.492.023-.117-.422-.152-1.969-.152-1.559 0-1.992.035-1.957.152.035.07.305.305.621.492z" fill="#fff"/></svg>