<svg width="60" height="60" fill="none" xmlns="http://www.w3.org/2000/svg"><path fill-rule="evenodd" clip-rule="evenodd" d="M30.281 4.102c.246 0 .457.093.95.609v5.742l-.317.281c-.187.153-.445.282-.586.282-.152.011-.41-.094-.914-.47l-.047-5.905.281-.27a.963.963 0 01.633-.27zm-.105 13.043c.539.035 1.02.14 1.406.328.328.152.832.527 1.148.832.305.304.622.75.704.972.105.305.187.399.316.34.094-.047.469-.187.82-.316a3.06 3.06 0 011.348-.176c.387.035.938.164 1.23.293.293.117.762.434 1.043.691.27.246.621.645 1.008 1.313l.645-.305c.504-.234.832-.305 1.465-.293.656 0 .972.07 1.57.34.469.211.926.54 1.219.867.27.293.586.762.715 1.055.234.492.246.773.257 3.984.024 3.246.047 3.598.387 5.684.188 1.219.41 2.777.492 3.457.082.715.106 1.945.07 2.93-.035 1.172-.14 1.992-.304 2.636-.13.516-.504 1.465-.82 2.11-.317.644-.88 1.523-1.887 2.754v8.672l-.574.585H22.03l-.234-.316c-.235-.316-.246-.48-.235-4.957 0-3.844-.023-4.734-.175-5.215a4.236 4.236 0 00-.621-1.148c-.235-.317-1.032-1.078-1.77-1.7-.726-.62-1.676-1.5-2.11-1.956-.421-.458-.972-1.137-1.206-1.524-.235-.387-.563-1.125-.739-1.64a7.326 7.326 0 01-.375-1.993c-.035-.574.024-2.238.13-3.691.128-1.828.257-2.871.41-3.399a6.66 6.66 0 01.738-1.511c.281-.422.797-.996 1.148-1.278.352-.293 1.02-.703 1.465-.914.457-.222 1.09-.457 2.016-.691l.058-1.348c.047-1.043.117-1.476.317-1.933a5.33 5.33 0 01.55-.973c.153-.2.504-.527.786-.715.27-.187.808-.433 1.195-.539.527-.152.879-.188 1.406-.117.399.058.95.234 1.875.738l.399-.504c.222-.281.644-.656.937-.832.305-.187.727-.398.95-.48.245-.094.738-.14 1.23-.117zm-1.664 2.53c-.14.2-.293.54-.328.74-.036.21-.059 1.066-.036 1.91l.036 1.523c.949.14 1.476.304 1.793.457.304.152.785.539 1.078.855a8.2 8.2 0 01.668.809c.117.175.14-.375.117-2.79-.024-2.859-.035-3.023-.27-3.34a3.851 3.851 0 00-.527-.538c-.152-.117-.54-.246-.867-.27-.352-.035-.75.012-.985.117a1.73 1.73 0 00-.68.528zm-5.614 1.126a3.11 3.11 0 00-.386.82c-.07.258-.13.856-.13 1.313v.855h3.868c0-1.875-.047-2.133-.27-2.578a1.75 1.75 0 00-.796-.797c-.282-.14-.668-.258-.868-.258-.187.012-.539.07-.761.153a1.704 1.704 0 00-.657.492zm11.11 1.23c-.246.516-.258.633-.258 3.985 0 3.41 0 3.468.27 3.984.199.375.433.61.796.797.434.234.61.27 1.102.2.457-.071.68-.177 1.008-.517.27-.257.48-.62.574-.949.094-.375.129-1.523.094-3.879l-.035-3.351c-.457-.668-.797-.961-1.055-1.09-.258-.129-.656-.234-.879-.234-.223 0-.621.117-.879.27a1.779 1.779 0 00-.738.784zm6.023 1.149c-.117.105-.281.34-.375.527-.129.246-.164.95-.164 3.129 0 2.262.035 2.883.176 3.164.094.188.352.48.563.645.199.152.609.316.902.351.422.059.633.024 1.054-.2.376-.198.598-.421.797-.796.246-.504.258-.656.258-3.14 0-1.547-.047-2.731-.129-2.919-.058-.187-.293-.503-.492-.714-.21-.211-.562-.434-.785-.493a2.6 2.6 0 00-.527-.117 4.101 4.101 0 00-.586.188c-.258.093-.563.258-.692.375zm-20.226 2.894a6.33 6.33 0 00-1.055.528c-.293.175-.727.55-.96.808-.247.27-.552.692-.68.95-.13.257-.282.82-.352 1.265-.059.434-.164 1.816-.246 3.07-.07 1.254-.106 2.59-.059 2.965.035.363.176.973.305 1.348.129.363.48 1.031.797 1.476.375.563 1.054 1.254 2.191 2.239.902.785 1.899 1.71 2.215 2.062.305.352.715.926.89 1.278.176.351.352.785.399.96l.07.329h18.34c.938-1.23 1.371-1.91 1.57-2.32.2-.4.47-1.114.61-1.583.156-.562.258-1.351.304-2.367.036-.879.012-2.039-.07-2.754-.082-.68-.222-1.71-.316-2.285-.094-.574-.188-1.219-.223-1.406l-.07-.352c-1.09.528-1.406.586-2.098.586-.75 0-.996-.059-1.64-.375-.422-.2-.856-.48-.961-.61l-.211-.245c-.774.597-1.254.879-1.582.996-.387.164-.856.234-1.407.222-.68 0-.937-.058-1.547-.375l-.738-.375c-.457.727-.832 1.102-1.136 1.29-.317.199-.774.421-1.032.492-.258.07-.48.14-.504.14-.011.012.059.352.153.774.105.422.222 1.476.27 2.355l.081 1.594c-.691.668-.832.727-1.136.68-.211-.036-.48-.176-.598-.328-.164-.2-.211-.47-.211-1.254.012-.551-.047-1.36-.105-1.817a10.98 10.98 0 00-.293-1.347c-.094-.294-.399-.797-.68-1.114a3.617 3.617 0 00-1.266-.926 7.98 7.98 0 00-1.629-.492c-.48-.082-1.582-.152-2.425-.164-.95 0-1.665-.058-1.817-.14a1.276 1.276 0 01-.41-.317c-.082-.105-.152-.328-.152-.515 0-.188.117-.434.293-.61l.28-.293c7.184 0 7.618-.023 8.04-.223.258-.105.61-.374.797-.574a2.57 2.57 0 00.445-.879c.106-.375.106-.62-.012-1.02a3.033 3.033 0 00-.363-.855c-.117-.175-.445-.433-.715-.585-.492-.247-.62-.258-3.96-.282-1.9 0-3.774.035-4.16.082a7.925 7.925 0 00-1.231.293zm11.648 4.16c-.2.293-.574.68-.82.868a4.6 4.6 0 01-.985.574c-.503.222-.515.234-.293.387.13.093.41.164.622.164.199 0 .55-.07.761-.153.2-.093.516-.328.703-.527.176-.211.352-.55.387-.762.035-.2.047-.539.024-.726l-.036-.352-.363.527zm-8.015 23.79h17.695v-6.797H23.437v6.796zM7.288 31.933l.281.316c.153.188.282.445.282.586.011.152-.094.41-.47.914H1.407l-.234-.328c-.129-.176-.234-.422-.234-.55 0-.13.082-.352.187-.505a1.22 1.22 0 01.445-.375c.13-.058 1.477-.094 5.72-.058zm45.34.644h5.965l.234.316c.14.188.246.446.234.587 0 .152-.128.41-.562.913h-5.79l-.28-.328c-.153-.175-.282-.445-.293-.597-.012-.153.105-.41.246-.586l.246-.305zM16.137 7.734c.175 0 .422.07.55.164.13.082.868 1.23 1.63 2.543 1.136 1.957 1.37 2.45 1.312 2.72-.035.175-.188.421-.328.562a.99.99 0 01-.563.234c-.152 0-.398-.082-.527-.164-.129-.094-.855-1.242-1.617-2.555-1.137-1.957-1.371-2.449-1.325-2.707a1.46 1.46 0 01.305-.562.929.929 0 01.563-.235zm28.242.305c.082.024.2.047.258.047.07 0 .222.117.363.27.129.14.234.41.234.585-.011.188-.527 1.22-1.312 2.579-.715 1.242-1.383 2.343-1.488 2.46a.946.946 0 01-.457.258c-.141.035-.41-.011-.586-.093-.176-.094-.364-.247-.41-.352a1.47 1.47 0 01-.094-.492c0-.153.586-1.301 1.312-2.543a134.393 134.393 0 011.407-2.414.892.892 0 01.374-.258.722.722 0 01.399-.047zm-38.59 9.902c.246 0 1.125.457 2.695 1.372 1.852 1.09 2.38 1.453 2.508 1.722.13.305.13.41 0 .692-.094.187-.246.386-.363.445-.117.047-.34.094-.504.094-.152 0-1.3-.586-2.543-1.301-1.242-.715-2.332-1.36-2.414-1.43a1.256 1.256 0 01-.27-.398c-.07-.176-.046-.375.047-.575.082-.175.223-.386.317-.468.105-.082.34-.153.527-.153zm48.668.457c.082 0 .305.082.492.176.223.117.387.305.422.504.047.176.047.434 0 .586-.035.14-.34.434-.68.656-.34.211-1.464.88-2.496 1.477-1.511.879-1.933 1.066-2.191 1.008a1.254 1.254 0 01-.563-.328c-.129-.153-.234-.399-.234-.563 0-.152.094-.41.2-.55.116-.153 1.265-.88 2.554-1.618 1.289-.738 2.414-1.348 2.496-1.348zM9.809 43.477c.082 0 .293.07.468.164.176.082.364.246.41.351.047.106.083.305.083.457.011.14-.07.364-.153.492-.094.13-1.23.868-2.555 1.63-1.957 1.136-2.449 1.37-2.707 1.312a1.321 1.321 0 01-.562-.305.898.898 0 01-.234-.55c0-.176.093-.446.199-.587.117-.152 1.265-.879 2.554-1.617 1.29-.738 2.415-1.347 2.497-1.347zm40.02.597c.21 0 1.124.457 2.577 1.29 1.242.714 2.332 1.359 2.414 1.44.094.071.211.247.27.4a.854.854 0 01-.035.585c-.07.176-.211.387-.317.469-.105.07-.34.14-.515.14-.2 0-1.172-.48-2.578-1.3-1.243-.715-2.344-1.383-2.461-1.489a1.076 1.076 0 01-.27-.457 1.199 1.199 0 01.117-.609c.106-.188.246-.363.328-.398.082-.036.293-.06.47-.07zM26.097 49.29c.082.023.222.047.316.047.105 0 .34.164.527.352.282.28.352.456.352.82 0 .258-.07.62-.152.797a1.283 1.283 0 01-.47.468 1.997 1.997 0 01-.726.141c-.222 0-.562-.105-.761-.234a1.137 1.137 0 01-.457-.668 1.825 1.825 0 010-.797c.046-.188.199-.434.304-.55.117-.118.375-.259.563-.317.199-.059.422-.082.504-.059z" fill="#fff"/></svg>