<svg width="60" height="60" fill="none" xmlns="http://www.w3.org/2000/svg"><g clip-path="url(#clip0_219_1074)"><path fill-rule="evenodd" clip-rule="evenodd" d="M3.059 0h1.395l.058 3.2c.035 1.745.059 3.925.059 6.468l4.418-.094c2.437-.047 6.61-.082 14.097-.082L23.028 0h1.289l.094 1.957c.046 1.09.082 3.445.082 5.25.011 2.965-.012 3.293-.188 3.457-.117.094-.433.2-1.219.293v4.16l-.644.727.469.926c.257.503.503.925.55.925.059 0 2.192-.879 4.747-1.945a525.54 525.54 0 004.84-2.027c.14-.07.07-.153-.282-.375-.258-.153-.668-.516-.914-.809a5.566 5.566 0 01-.738-1.113c-.153-.317-.34-.926-.422-1.348a3.987 3.987 0 01-.012-1.582c.082-.445.27-1.101.434-1.43.164-.34.574-.914.914-1.277.328-.351.82-.773 1.078-.926.258-.14.738-.351 1.055-.457.351-.129.949-.199 1.523-.199.61 0 1.16.082 1.582.223a6.11 6.11 0 011.113.515c.258.164.68.54.95.809.257.281.585.703.726.926.129.222.328.726.422 1.113.106.387.188 1.16.188 1.734 0 .762.035 1.008.152.973.07-.023 2.11-.867 4.512-1.875 2.39-1.008 4.394-1.828 4.453-1.828.047 0 2.285 5.262 4.969 11.683 3.257 7.77 4.898 11.836 4.898 12.106 0 .223-.07.645-.152.937a3.46 3.46 0 01-.493.973c-.234.293-.609.574-1.816 1.137l.293.914c.164.492.328 1.066.363 1.254.035.234-.293 1.664-.949 4.101-.738 2.79-1.113 3.973-1.899 5.508l.247.328c.222.305.246.516.304 4.535l.54.036c.433.011.597.082.761.316.176.258.211.762.34 9.258H55.84l-.082-2.543c-.058-1.406-.094-3.27-.094-5.719l-5.18.082c-2.858.059-7.019.094-13.335.094l.059 8.086h-1.29l-.082-1.664c-.058-.926-.093-2.977-.093-4.582 0-2.871 0-2.895.27-3.07.14-.094.456-.176 1.136-.176v-4.22l.644-.726-.48-.949c-.27-.527-.527-1.219-.586-1.535-.059-.305-.14-.586-.188-.61-.058-.023-.316.047-.585.176a3.421 3.421 0 00-.868.551c-.222.211-1.98 1.066-4.628 2.25-2.344 1.043-4.36 1.899-4.465 1.899-.117 0-.364-.164-.563-.352-.187-.188-.351-.445-.351-.563 0-.105.105-.515.246-.902.187-.539.234-.879.187-1.465-.035-.468-.164-.984-.351-1.347-.153-.328-.551-.82-.868-1.114a3.422 3.422 0 00-1.265-.75 3.43 3.43 0 00-1.465-.164 3.682 3.682 0 00-1.348.352 4.3 4.3 0 00-1.043.809c-.258.28-.574.75-.703 1.042-.164.375-.234.786-.234 1.407 0 .668.058 1.008.246 1.406.14.293.48.762.762 1.055.28.293.843.82 1.242 1.172.515.456.726.726.726.937.012.164-.117.445-.257.633-.153.187-.504.445-.797.562l-4.864 2.168c-2.378 1.055-4.37 1.887-4.417 1.828-.036-.047-2.426-5.367-5.31-11.812C.353 30.469.33 30.41.377 29.766c.035-.352.164-.856.292-1.114.13-.258.434-.644.668-.855.235-.2.657-.48.95-.61.293-.128.527-.246.527-.269 0-.012-.106-.34-.234-.727-.13-.386-.235-.785-.235-.878 0-.094.446-1.864.996-3.926.75-2.825 1.114-3.973 1.899-5.508l-.246-.352c-.223-.316-.246-.515-.305-4.511l-.54-.036c-.433-.011-.597-.082-.76-.316-.177-.27-.212-.797-.27-5.484L3.059 0zm30.774 6.07c-.317.176-.704.48-.868.668-.164.2-.433.621-.597.938-.258.492-.305.75-.305 1.523 0 .75.058 1.067.293 1.582.176.375.527.844.879 1.172.328.293.82.61 1.101.703.282.106.61.317.727.469.129.164.223.434.223.586 0 .164-.07.41-.164.527-.106.153-1.876.95-4.852 2.168l-4.688 1.934c.41.82 1.172 2.508 1.957 4.277.786 1.781 1.465 3.27 1.512 3.317.047.058.293-.176.551-.516.258-.34.75-.82 1.113-1.066a5.992 5.992 0 011.406-.68 5.748 5.748 0 011.547-.235c.47 0 1.078.106 1.5.235a7.4 7.4 0 011.172.527c.258.164.68.528.95.797.257.27.609.762.773 1.078.164.328.375.856.457 1.172.082.328.164.879.164 1.23 0 .364-.082.95-.176 1.325a8.066 8.066 0 01-.492 1.289c-.176.34-.574.879-.902 1.207-.328.328-.89.738-1.242.902-.41.2-1.02.375-1.641.446-.55.082-1.148.117-1.324.093-.176-.023-.317 0-.317.047s.657 1.606 1.477 3.457c.809 1.852 1.523 3.492 1.582 3.633.059.14.14.246.187.21.047-.023 3.2-1.335 7.008-2.929 3.797-1.593 7.114-3.023 7.348-3.175.34-.223.434-.352.387-.551-.024-.14-.246-1.5-.48-3.024l-.434-2.754c.293-1.453.515-2.097.68-2.367.151-.27.48-.644.726-.82a4.08 4.08 0 01.843-.469c.235-.07.669-.14.973-.14.305 0 .703.07.88.163.175.083.468.305.632.493.223.246.539 1.043 1.148 2.965.47 1.453.914 2.894 1.008 3.199.164.515.2.55.492.492a2.26 2.26 0 00.621-.281c.153-.117.364-.387.458-.61.082-.21.128-.55.093-.75-.035-.187-2.086-5.168-4.547-11.074-2.46-5.894-4.511-10.758-4.546-10.793-.047-.047-1.84.656-3.997 1.559-2.168.902-4.171 1.722-4.453 1.816-.457.152-.586.164-.867.024-.187-.082-.398-.27-.457-.399-.07-.129-.129-.996-.14-1.933 0-1.524-.036-1.747-.27-2.192a4.3 4.3 0 00-.703-.926c-.235-.246-.703-.55-1.02-.691a4.518 4.518 0 00-1.172-.328c-.328-.035-.832-.012-1.113.058a4.602 4.602 0 00-1.101.422zM6.106 11.016l.059 3.691c7.628.059 11.12.047 12.68.012l2.847-.07v-3.75c-6.774.046-10.277.07-12.164.093l-3.422.024zm.644 5.156c-.914 1.476-1.101 2.05-1.992 5.332l-1.008 3.75c2.32 7.265 3.07 9.469 3.176 9.586.094.117.34.2.528.2.199 0 .527-.106.738-.235.234-.14.469-.457.621-.797.14-.305.281-.82.305-1.137.035-.375-.141-1.793-.48-3.867-.294-1.805-.528-3.281-.505-3.281.012 0 .293-.13.61-.282.328-.152.867-.55 1.218-.878.34-.329.692-.727.774-.891.117-.235 1.23-.785 5.73-2.813 3.07-1.382 5.59-2.578 5.578-2.636 0-.07-.117-.352-.246-.645a7.204 7.204 0 00-.609-1.031l-.375-.504c-2.355.047-5.52.082-8.555.094l-5.508.035zm4.782 8.754a6.116 6.116 0 01-.996.984c-.34.27-.692.516-.774.563-.117.058-.094.445.153 1.945.164 1.031.386 2.379.48 2.988.117.856.129 1.301.047 1.875a6.559 6.559 0 01-.422 1.407c-.164.351-.434.796-.61.972-.175.176-.585.434-.925.563-.34.117-.832.222-1.09.222-.258 0-.633-.07-.844-.164a2.142 2.142 0 01-.691-.492c-.235-.258-.586-1.195-1.442-3.855-.62-1.934-1.148-3.54-1.183-3.575-.035-.035-.2.012-.375.094-.176.07-.469.281-.656.469-.2.2-.352.504-.387.785-.07.434.305 1.313 4.64 11.016 2.602 5.8 4.817 10.77 4.934 11.05l.223.493c4.043-1.828 5.8-2.614 6.504-2.93l1.289-.586c-1.5-1.535-1.992-2.168-2.157-2.52a5.505 5.505 0 01-.386-1.289 4.108 4.108 0 01.011-1.464c.07-.422.293-1.102.493-1.524.222-.469.597-.984.972-1.348.34-.316.903-.726 1.254-.902.352-.164.867-.363 1.16-.434.293-.07.797-.117 1.114-.128.328 0 .902.082 1.289.187.386.094.984.352 1.336.55.34.212.843.622 1.113.915.27.293.621.82.797 1.172.164.351.363.95.445 1.336.082.398.117.996.07 1.383-.035.363-.023.668.024.668s1.664-.704 3.598-1.582c1.933-.868 3.586-1.676 3.668-1.782.081-.117.14-.34.14-.504 0-.164-.797-2.039-1.758-4.183-1.078-2.403-1.758-4.043-1.758-4.278 0-.257.094-.48.305-.68.293-.28.363-.292 1.781-.292.961 0 1.676-.059 2.016-.176.352-.105.75-.387 1.184-.809.48-.48.703-.82.867-1.3.14-.446.199-.88.164-1.407-.035-.445-.153-.972-.305-1.289-.14-.293-.457-.726-.703-.984-.246-.258-.738-.598-1.09-.762-.492-.222-.843-.293-1.465-.293-.691 0-.949.059-1.605.375-.531.25-.93.543-1.195.88a5.66 5.66 0 00-.68 1.136c-.211.504-.363.68-.656.797-.258.105-.457.105-.668.023a1.098 1.098 0 01-.457-.375c-.094-.152-.973-2.11-1.957-4.37-.973-2.25-1.864-4.196-1.97-4.313-.105-.106-.233-.2-.304-.188-.058 0-2.836 1.219-6.152 2.719-5.8 2.601-6.047 2.719-6.41 3.21zm39.914 2.297c-.14.27-.27.785-.305 1.136-.035.422.117 1.664.434 3.575.258 1.617.504 3.082.527 3.257.059.293 0 .352-.598.645-.363.176-.937.586-1.265.902-.363.364-.797.973-1.09 1.559-.281.527-.528.96-.563.96-.035 0-.328-.116-.644-.257-.328-.152-.586-.281-.586-.293 0-.023.105-.246.234-.504.13-.258.223-.492.211-.527-.023-.035-2.238.843-4.922 1.957-4.593 1.91-4.898 2.05-4.898 2.32 0 .164.082.586.187.938.106.351.34.914.516 1.23.188.328.457.703.61.856l.269.257 13.91-.058c.95-1.547 1.125-2.074 2.016-5.414l1.008-3.785c-2.38-7.395-3.083-9.586-3.118-9.633-.023-.047-.27-.094-.55-.094-.328 0-.621.082-.82.234-.176.13-.423.457-.563.739zm-12.88 21.234c0 1.348.036 1.84.153 1.875.082.035 3.574.023 7.758-.023l7.617-.094v-3.516l-15.527-.058v1.816zm-28.1 8.027h1.44l-.081.621c-.047.329-.094 1.126-.094 2.895l-.668-.023c-.621-.036-.68-.059-.715-.329-.023-.164-.012-.937.035-1.722l.082-1.442zM49.851.117h.422c.234 0 .527.024.656.059.223.058.234.152.176 3.457H49.7V2.602c0-.563.035-1.348.07-1.758l.082-.727zm-4.547 1.887c.059-.012.434.68.844 1.512.41.843.738 1.546.715 1.57-.012.023-.246.152-.528.293-.27.14-.55.246-.609.246-.07 0-.457-.68-1.64-3.047l.55-.281c.317-.164.61-.293.668-.293zM55.7 1.992l.586.293c.316.164.574.34.574.387 0 .047-.34.762-1.524 3.07l-.585-.293c-.329-.164-.598-.328-.61-.386-.012-.047.34-.762.773-1.583l.786-1.488zM15.926 54.387c.024-.012.375.68.797 1.511.41.844.762 1.547.762 1.582 0 .036-.27.188-1.172.645l-.516-.96-.761-1.466c-.141-.281-.258-.55-.27-.62-.012-.06.235-.247.55-.4.329-.163.598-.292.61-.292zm-9.633.105c.036 0 .317.13 1.23.586l-.796 1.524c-.434.832-.844 1.523-.902 1.523-.07 0-.34-.129-1.114-.586l.762-1.523c.422-.832.785-1.524.82-1.524z" fill="#fff"/></g><defs><clipPath id="clip0_219_1074"><path fill="#fff" d="M0 0h60v60H0z"/></clipPath></defs></svg>