<svg width="60" height="60" fill="none" xmlns="http://www.w3.org/2000/svg"><g clip-path="url(#clip0_219_1050)"><path fill-rule="evenodd" clip-rule="evenodd" d="M29.988 0a.96.96 0 01.563.234c.27.235.27.293.27 2.813 0 2.426-.012 2.59-.235 2.812a.937.937 0 01-.586.235.937.937 0 01-.586-.235c-.223-.222-.234-.41-.258-2.812C29.145.48 29.145.48 29.414.234c.152-.129.41-.234.574-.234zM12.715 9.738c.129-.011 1.5.739 3.047 1.664 1.547.914 2.953 1.793 3.14 1.957.305.258.34.352.2 1.172h21.796l-.07-.433c-.059-.375-.023-.493.211-.692.14-.14 1.559-1.02 3.14-1.969 1.583-.937 2.965-1.71 3.083-1.71.105 0 .304.058.433.117.13.07 2.871 4.523 6.176 10.054 3.27 5.461 5.988 10.067 6.059 10.243.093.222.093.386 0 .586-.082.175-1.184.902-3.106 2.039-1.64.984-3.058 1.793-3.152 1.816-.094.023-.316 0-.504-.047s-.387-.222-.492-.433c-.094-.188-.211-.329-.27-.305-.047.023-.246.363-.785 1.476l.293.2c.164.117.55.422.879.68.375.304.715.738.938 1.171.316.621.351.797.351 1.746 0 .926-.047 1.149-.316 1.653a4.452 4.452 0 01-.762 1.02c-.246.234-.762.573-1.148.75-.622.269-.82.304-1.641.269-.738-.035-1.067-.117-2.168-.692l-.059.47c-.035.257-.187.714-.34 1.03-.152.305-.515.774-.796 1.043-.27.27-.774.61-1.09.75-.434.188-.82.27-1.465.27-.738 0-.996-.047-1.582-.34-.387-.188-.727-.352-.762-.375-.035-.023-.094.176-.152.434a4.329 4.329 0 01-.328.972 5.02 5.02 0 01-.68.938 4.65 4.65 0 01-1.008.761c-.515.282-.715.317-1.7.317-.995 0-1.17-.035-1.698-.328-.328-.176-.586-.305-.598-.293a9.188 9.188 0 00-.152.62c-.082.329-.27.798-.41 1.056a4.407 4.407 0 01-.704.855 5.58 5.58 0 01-.925.633c-.305.152-.809.27-1.313.304-.515.036-1.043 0-1.406-.105-.363-.094-1.125-.527-3.399-2.11l-.164.27c-.093.153-.457.563-.82.914-.457.457-.844.715-1.3.867-.493.164-.856.211-1.524.164-.68-.035-1.02-.128-1.512-.398-.351-.187-.82-.55-1.055-.82a3.914 3.914 0 01-.62-.996 7.536 7.536 0 01-.258-.809c-.059-.281-.094-.293-1.032-.293-.726 0-1.101-.059-1.5-.246-.293-.129-.761-.445-1.043-.703-.27-.246-.597-.621-.715-.809-.128-.187-.292-.644-.55-1.64l-.809.047c-.562.023-1.008-.024-1.453-.165-.492-.164-.82-.386-1.36-.925-.503-.504-.761-.89-.902-1.301-.117-.316-.199-.668-.199-.762 0-.14-.187-.176-.973-.176-.785 0-1.078-.058-1.605-.293-.352-.175-.856-.515-1.113-.761a4.835 4.835 0 01-.762-1.055c-.246-.492-.293-.762-.293-1.64 0-.915.047-1.137.305-1.641a5.26 5.26 0 01.914-1.137c.422-.398.574-.621.527-.762-.07-.199-.082-.199-.2.012a4.07 4.07 0 01-.339.445c-.117.118-.363.211-.563.211-.246 0-1.277-.55-3.363-1.78C1.254 31.628.152 30.901.07 30.726c-.093-.2-.093-.364 0-.586.07-.176 2.801-4.782 6.07-10.243 3.27-5.46 6.036-9.972 6.141-10.043a.961.961 0 01.434-.117zM2.133 30.012c-.012.058.902.656 2.027 1.336 2.05 1.23 2.05 1.23 2.215.96.094-.14 2.543-4.242 5.45-9.105 2.905-4.863 5.284-8.871 5.284-8.906 0-.035-.879-.586-1.957-1.23-1.066-.645-2.004-1.184-2.074-1.196-.07-.023-2.555 4.031-5.52 9-2.964 4.957-5.402 9.07-5.425 9.14zM42.89 14.297c0 .035 2.367 4.043 5.285 8.906 2.906 4.863 5.355 8.965 5.449 9.117.164.258.164.258 2.215-.972 1.125-.68 2.039-1.278 2.015-1.348-.011-.059-2.437-4.172-5.378-9.14-2.942-4.958-5.403-9.024-5.45-9.024-.047 0-1.008.539-2.109 1.207-1.113.656-2.027 1.219-2.027 1.254zM8.637 31.934l.855 1.699c1.043.164 1.559.316 1.817.445.257.129.68.445.937.691.258.258.55.622.645.81.093.187.187.35.199.374.023.012.34-.187.715-.445.363-.258.937-.528 1.254-.598.328-.082.902-.117 1.289-.082a3.88 3.88 0 011.289.352c.328.164.808.539 1.09.843.27.293.492.575.492.633 0 .047.047.153.093.235.06.117.235.011.668-.41a3.74 3.74 0 011.29-.844c.562-.211.878-.258 1.582-.223.632.023 1.043.117 1.464.328.329.153.786.48 1.032.727.234.246.539.656.668.914s.293.773.363 1.148c.082.469.082.844 0 1.254-.07.328-.246.82-.399 1.113l-.28.528c1.019.222 1.593.48 1.933.703.34.234.762.656.96.973.2.304.446.843.552 1.195.125.43.164.86.117 1.289a5.22 5.22 0 01-.399 1.312l-.328.668c1.617 1.149 2.285 1.582 2.508 1.7.246.129.645.222.95.222.292 0 .702-.093.913-.199.2-.105.516-.387.703-.621.223-.305.328-.61.364-1.02.023-.445-.024-.726-.211-1.09-.211-.421-.575-.726-2.203-1.863-1.09-.75-2.04-1.453-2.122-1.558-.082-.106-.14-.364-.14-.563 0-.281.082-.445.328-.62.176-.142.41-.247.527-.235.106 0 1.688 1.043 3.516 2.32 1.816 1.277 3.434 2.39 3.598 2.484.164.082.527.153.82.153.293 0 .691-.082.879-.188.187-.093.469-.304.597-.457.141-.14.317-.398.399-.562.082-.164.14-.54.129-.844 0-.316-.082-.703-.176-.879a2.362 2.362 0 00-.445-.574c-.14-.14-1.617-1.184-3.258-2.332-1.64-1.149-3.129-2.227-3.316-2.39-.188-.177-.317-.434-.317-.598 0-.164.106-.41.234-.563a.82.82 0 01.622-.258c.304 0 1.277.633 5.18 3.375 2.976 2.098 4.956 3.41 5.214 3.469.223.047.621.047.879 0 .27-.047.645-.246.867-.445.211-.2.469-.504.551-.692.094-.175.164-.55.164-.843 0-.293-.094-.727-.223-.973-.175-.363-1.043-1.008-5.004-3.797-2.636-1.84-4.863-3.422-4.945-3.516-.082-.082-.14-.328-.14-.539 0-.234.093-.468.27-.62a.658.658 0 01.608-.2c.223.023 2.637 1.652 6.48 4.348 4.102 2.883 6.27 4.336 6.587 4.418.312.078.625.078.937 0 .258-.07.645-.27.856-.446.2-.187.445-.515.539-.738.094-.234.152-.645.117-.996-.035-.398-.14-.715-.34-.973-.164-.199-3.246-2.496-6.855-5.086l-6.563-4.722c-3.058-.13-4.136-.235-4.511-.34a8.297 8.297 0 01-1.29-.492 8.281 8.281 0 01-1.312-.88c-.375-.304-.914-.913-1.207-1.359-.293-.433-.633-1.101-.75-1.488a10.493 10.493 0 01-.293-1.031c-.07-.305-.094-.317-.832-.317h-.762c-1.793 3.047-2.578 4.22-2.894 4.57a7.446 7.446 0 01-1.336 1.09 8.22 8.22 0 01-1.512.68c-.527.164-1.09.235-1.816.235-.633 0-1.313-.082-1.7-.2a8.11 8.11 0 01-1.171-.457c-.293-.14-.61-.363-.704-.468a.962.962 0 01-.164-.516c.012-.176 1.36-2.543 3.106-5.46 1.7-2.837 3.105-5.192 3.129-5.25.011-.048-1.02-.083-2.297-.083h-2.32l-9.34 15.645zm15.808-14.801c-.468.398-1.101 1.394-3.27 5.015-1.476 2.485-2.648 4.547-2.59 4.594.06.047.411.14.798.223.515.082.902.094 1.406 0a6.605 6.605 0 001.406-.469c.387-.187.926-.574 1.184-.855.258-.27 1.066-1.489 1.781-2.707.727-1.207 1.442-2.274 1.582-2.368.2-.14.633-.175 1.899-.175 1.488 0 1.675.023 1.91.234.187.176.281.41.328.902.035.375.129.867.187 1.09.07.223.293.727.493 1.102.199.386.609.914.902 1.172.293.27.82.62 1.172.785.351.176.914.363 1.254.445.34.07 1.406.129 2.367.129 1.629 0 1.793.023 2.144.258.211.14 2.72 1.933 5.567 3.984a579.437 579.437 0 005.215 3.727c.011 0 .28-.516.597-1.137l.575-1.148L42 16.289c-14.344.012-16.031.047-16.465.176-.281.094-.773.387-1.09.668zM8.31 35.824a5.87 5.87 0 00-.446.621c-.176.282-.246.598-.246.996 0 .387.082.739.258 1.043.164.293.457.563.785.739.293.152.715.27.938.27.234 0 .62-.095.879-.212.257-.117.609-.398.761-.62.2-.27.305-.599.34-1.044.047-.527 0-.738-.234-1.148-.153-.282-.434-.61-.633-.727-.188-.129-.586-.246-.879-.281a3.408 3.408 0 00-.926.035c-.234.059-.504.2-.597.328zm5.226 2.672c-.562.773-1.066 1.606-1.125 1.84-.07.305-.07.61.012.937.07.282.27.657.445.832.164.188.469.422.656.516.2.106.61.176.915.164.304 0 .703-.082.878-.176.176-.093.41-.257.516-.375a48.62 48.62 0 001.09-1.511c.492-.715.95-1.489 1.008-1.735.07-.281.07-.597-.012-.902a2.264 2.264 0 00-.434-.832c-.175-.211-.468-.445-.644-.527-.176-.094-.598-.164-.95-.164-.456 0-.714.07-.984.269-.199.14-.82.902-1.37 1.664zm7.98-1.043c-.187.117-1.195 1.441-2.226 2.918s-1.957 2.883-2.05 3.106c-.106.27-.13.609-.095.96.06.399.188.68.458.997.21.234.55.492.761.586.211.082.563.152.785.152.235 0 .586-.07.797-.164a2.1 2.1 0 00.68-.492c.176-.188 1.113-1.5 2.11-2.918.984-1.418 1.84-2.766 1.898-2.989.058-.222.082-.597.035-.82a2.443 2.443 0 00-.34-.82c-.152-.223-.445-.492-.668-.598a3.648 3.648 0 00-.762-.258 2.035 2.035 0 00-.703.024 2.377 2.377 0 00-.68.316zm1.665 7.524c-.48.691-.985 1.441-1.09 1.664-.152.28-.2.597-.164 1.02.023.35.14.726.27.913.128.176.374.422.527.551.164.117.504.27.761.328.293.07.645.07.914 0 .247-.07.61-.258.809-.445.2-.176.738-.844 1.184-1.489.457-.644.902-1.347.984-1.558.082-.2.152-.55.152-.762 0-.199-.093-.586-.21-.843a2.276 2.276 0 00-.61-.762c-.305-.211-.586-.293-1.113-.328-.54-.024-.785.023-1.114.21-.234.153-.761.75-1.3 1.5zm6.808 8.93c.2 0 .457.105.586.234.223.222.235.386.235 2.777 0 2.484-.012 2.566-.258 2.824-.153.14-.399.258-.563.258-.152 0-.41-.105-.55-.234-.258-.235-.27-.293-.27-2.813 0-2.426.023-2.59.234-2.812a.994.994 0 01.586-.235zM18.832 2.226c.188 0 .434.105.574.257.14.153.633 1.196 1.102 2.32.457 1.126.844 2.204.832 2.403a.723.723 0 01-.27.563c-.152.117-.41.21-.574.21-.152-.011-.375-.07-.492-.152-.106-.082-.586-1.101-1.067-2.262-.48-1.16-.89-2.191-.902-2.285-.012-.094-.012-.27-.012-.386.012-.106.118-.305.247-.434a.929.929 0 01.562-.234zm22.313 0a.9.9 0 01.562.234c.14.129.234.387.234.586 0 .187-.386 1.312-.879 2.484-.48 1.184-.972 2.215-1.078 2.297-.117.082-.34.14-.504.152-.152 0-.41-.093-.562-.21a.668.668 0 01-.281-.563c0-.2.375-1.277.843-2.402.47-1.125.961-2.168 1.09-2.32a.864.864 0 01.575-.258zm-28.7 44.414c.188 0 .446.129.61.293.175.175.293.422.293.609 0 .27-.352.68-1.793 2.11-1.5 1.511-1.84 1.792-2.133 1.792-.2 0-.457-.117-.61-.27a.735.735 0 01-.246-.609c.024-.27.41-.726 1.793-2.132 1.418-1.442 1.84-1.793 2.086-1.793zm35.098 0c.258 0 .656.34 2.11 1.793 1.511 1.511 1.78 1.84 1.78 2.132a.98.98 0 01-.257.621.899.899 0 01-.621.258c-.293 0-.633-.293-2.133-1.793-1.465-1.453-1.781-1.84-1.781-2.109 0-.188.129-.457.28-.61.177-.175.423-.292.622-.292zm-27.047 5.39c.164-.011.422.082.574.2.164.128.27.34.27.562.012.188-.375 1.277-.832 2.402-.469 1.125-.961 2.168-1.102 2.32a.864.864 0 01-.574.258.929.929 0 01-.563-.234c-.128-.129-.234-.328-.246-.445 0-.106 0-.282.012-.375.012-.094.422-1.125.902-2.285.481-1.16.961-2.18 1.067-2.262.105-.07.328-.14.492-.14zm18.973 0c.175 0 .398.059.515.14.106.083.586 1.102 1.067 2.263.48 1.16.89 2.191.902 2.285.012.093.012.27.012.375-.012.117-.13.316-.258.445a.898.898 0 01-.55.234.864.864 0 01-.575-.257c-.14-.153-.633-1.196-1.102-2.32-.468-1.126-.855-2.204-.867-2.391 0-.235.082-.41.27-.563.152-.117.422-.21.586-.21zM5.145 27.188c.164 0 .668.222 1.113.492.457.258.914.562 1.031.668.129.117.211.351.211.597-.012.223-.105.504-.21.621-.118.118-.376.211-.587.2-.234 0-.68-.188-1.172-.48-.433-.27-.89-.575-.996-.68-.117-.106-.223-.352-.234-.563-.012-.27.07-.445.27-.621.152-.129.41-.235.574-.235zm49.687 0c.164 0 .422.117.563.269.164.152.27.398.27.61 0 .187-.095.433-.212.538-.117.106-.562.41-.996.68-.492.293-.938.48-1.172.48a.788.788 0 01-.62-.245.965.965 0 01-.235-.586c0-.176.082-.41.175-.516.106-.094.575-.41 1.055-.703.492-.293 1.02-.527 1.172-.527z" fill="#fff"/></g><defs><clipPath id="clip0_219_1050"><path fill="#fff" d="M0 0h60v60H0z"/></clipPath></defs></svg>